%TF.GenerationSoftware,KiCad,Pcbnew,6.0.7+dfsg-1~bpo11+1*%
%TF.CreationDate,2022-09-06T20:28:50+02:00*%
%TF.ProjectId,pcb,7063622e-6b69-4636-9164-5f7063625858,0.1*%
%TF.SameCoordinates,Original*%
%TF.FileFunction,Copper,L4,Bot*%
%TF.FilePolarity,Positive*%
%FSLAX46Y46*%
G04 Gerber Fmt 4.6, Leading zero omitted, Abs format (unit mm)*
G04 Created by KiCad (PCBNEW 6.0.7+dfsg-1~bpo11+1) date 2022-09-06 20:28:50*
%MOMM*%
%LPD*%
G01*
G04 APERTURE LIST*
G04 Aperture macros list*
%AMRotRect*
0 Rectangle, with rotation*
0 The origin of the aperture is its center*
0 $1 length*
0 $2 width*
0 $3 Rotation angle, in degrees counterclockwise*
0 Add horizontal line*
21,1,$1,$2,0,0,$3*%
G04 Aperture macros list end*
%TA.AperFunction,ComponentPad*%
%ADD10O,0.800000X1.400000*%
%TD*%
%TA.AperFunction,SMDPad,CuDef*%
%ADD11R,1.050000X1.200000*%
%TD*%
%TA.AperFunction,SMDPad,CuDef*%
%ADD12R,1.200000X1.050000*%
%TD*%
%TA.AperFunction,SMDPad,CuDef*%
%ADD13RotRect,1.050000X1.200000X60.000000*%
%TD*%
%TA.AperFunction,SMDPad,CuDef*%
%ADD14RotRect,1.050000X1.200000X210.000000*%
%TD*%
%TA.AperFunction,SMDPad,CuDef*%
%ADD15RotRect,1.050000X1.200000X330.000000*%
%TD*%
%TA.AperFunction,SMDPad,CuDef*%
%ADD16RotRect,1.050000X1.200000X240.000000*%
%TD*%
%TA.AperFunction,SMDPad,CuDef*%
%ADD17RotRect,1.050000X1.200000X120.000000*%
%TD*%
%TA.AperFunction,SMDPad,CuDef*%
%ADD18RotRect,1.050000X1.200000X300.000000*%
%TD*%
%TA.AperFunction,SMDPad,CuDef*%
%ADD19RotRect,1.050000X1.200000X150.000000*%
%TD*%
%TA.AperFunction,SMDPad,CuDef*%
%ADD20R,0.900000X1.400000*%
%TD*%
%TA.AperFunction,SMDPad,CuDef*%
%ADD21RotRect,1.050000X1.200000X30.000000*%
%TD*%
%TA.AperFunction,ViaPad*%
%ADD22C,0.800000*%
%TD*%
%TA.AperFunction,ViaPad*%
%ADD23C,0.500000*%
%TD*%
%TA.AperFunction,Conductor*%
%ADD24C,0.250000*%
%TD*%
%TA.AperFunction,Conductor*%
%ADD25C,0.254000*%
%TD*%
%TA.AperFunction,Conductor*%
%ADD26C,0.508000*%
%TD*%
%TA.AperFunction,Conductor*%
%ADD27C,0.261112*%
%TD*%
%TA.AperFunction,Conductor*%
%ADD28C,0.200000*%
%TD*%
%TA.AperFunction,Conductor*%
%ADD29C,0.762000*%
%TD*%
G04 APERTURE END LIST*
D10*
%TO.P,X1,S1,SHIELD*%
%TO.N,/Power/Shield*%
X154130000Y-121330000D03*
X145510000Y-127280000D03*
X145870000Y-121330000D03*
X154490000Y-127280000D03*
%TD*%
D11*
%TO.P,V17,1*%
%TO.N,Ring0_9*%
X175000000Y-99050000D03*
%TO.P,V17,2*%
%TO.N,3.3V*%
X175000000Y-100950000D03*
%TD*%
D12*
%TO.P,V14,1*%
%TO.N,Ring0_6*%
X150950000Y-125000000D03*
%TO.P,V14,2*%
%TO.N,3.3V*%
X149050000Y-125000000D03*
%TD*%
D13*
%TO.P,V13,1*%
%TO.N,Ring0_5*%
X138322724Y-122126000D03*
%TO.P,V13,2*%
%TO.N,3.3V*%
X136677276Y-121176000D03*
%TD*%
D14*
%TO.P,V18,1*%
%TO.N,Ring0_10*%
X171176000Y-86677276D03*
%TO.P,V18,2*%
%TO.N,3.3V*%
X172126000Y-88322724D03*
%TD*%
D11*
%TO.P,V29,1*%
%TO.N,Ring1_9*%
X167500000Y-99050000D03*
%TO.P,V29,2*%
%TO.N,3.3V*%
X167500000Y-100950000D03*
%TD*%
D13*
%TO.P,V25,1*%
%TO.N,Ring1_5*%
X142072724Y-115630000D03*
%TO.P,V25,2*%
%TO.N,3.3V*%
X140427276Y-114680000D03*
%TD*%
D15*
%TO.P,V10,1*%
%TO.N,Ring0_2*%
X127874000Y-88322724D03*
%TO.P,V10,2*%
%TO.N,3.3V*%
X128824000Y-86677276D03*
%TD*%
D16*
%TO.P,V19,1*%
%TO.N,Ring0_11*%
X161677276Y-77874000D03*
%TO.P,V19,2*%
%TO.N,3.3V*%
X163322724Y-78824000D03*
%TD*%
D17*
%TO.P,V15,1*%
%TO.N,Ring0_7*%
X163322724Y-121176000D03*
%TO.P,V15,2*%
%TO.N,3.3V*%
X161677276Y-122126000D03*
%TD*%
D18*
%TO.P,V9,1*%
%TO.N,Ring0_1*%
X136677276Y-78824000D03*
%TO.P,V9,2*%
%TO.N,3.3V*%
X138322724Y-77874000D03*
%TD*%
D19*
%TO.P,V16,1*%
%TO.N,Ring0_8*%
X172126000Y-111677276D03*
%TO.P,V16,2*%
%TO.N,3.3V*%
X171176000Y-113322724D03*
%TD*%
D16*
%TO.P,V31,1*%
%TO.N,Ring1_11*%
X157927276Y-84370000D03*
%TO.P,V31,2*%
%TO.N,3.3V*%
X159572724Y-85320000D03*
%TD*%
D14*
%TO.P,V30,1*%
%TO.N,Ring1_10*%
X164680000Y-90427276D03*
%TO.P,V30,2*%
%TO.N,3.3V*%
X165630000Y-92072724D03*
%TD*%
D18*
%TO.P,V21,1*%
%TO.N,Ring1_1*%
X140427276Y-85320000D03*
%TO.P,V21,2*%
%TO.N,3.3V*%
X142072724Y-84370000D03*
%TD*%
D17*
%TO.P,V27,1*%
%TO.N,Ring1_7*%
X159572724Y-114680000D03*
%TO.P,V27,2*%
%TO.N,3.3V*%
X157927276Y-115630000D03*
%TD*%
D19*
%TO.P,V28,1*%
%TO.N,Ring1_8*%
X165630000Y-107927276D03*
%TO.P,V28,2*%
%TO.N,3.3V*%
X164680000Y-109572724D03*
%TD*%
D20*
%TO.P,V34,1,C*%
%TO.N,3.3V*%
X149050000Y-100000000D03*
%TO.P,V34,2,E*%
%TO.N,PHOTO*%
X150950000Y-100000000D03*
%TD*%
D21*
%TO.P,V12,1*%
%TO.N,Ring0_4*%
X128824000Y-113322724D03*
%TO.P,V12,2*%
%TO.N,3.3V*%
X127874000Y-111677276D03*
%TD*%
D11*
%TO.P,V23,1*%
%TO.N,Ring1_3*%
X132500000Y-100950000D03*
%TO.P,V23,2*%
%TO.N,3.3V*%
X132500000Y-99050000D03*
%TD*%
D21*
%TO.P,V24,1*%
%TO.N,Ring1_4*%
X135320000Y-109572724D03*
%TO.P,V24,2*%
%TO.N,3.3V*%
X134370000Y-107927276D03*
%TD*%
D12*
%TO.P,V8,1*%
%TO.N,Ring0_0*%
X149050000Y-75000000D03*
%TO.P,V8,2*%
%TO.N,3.3V*%
X150950000Y-75000000D03*
%TD*%
%TO.P,V20,1*%
%TO.N,Ring1_0*%
X149050000Y-82500000D03*
%TO.P,V20,2*%
%TO.N,3.3V*%
X150950000Y-82500000D03*
%TD*%
D15*
%TO.P,V22,1*%
%TO.N,Ring1_2*%
X134370000Y-92072724D03*
%TO.P,V22,2*%
%TO.N,3.3V*%
X135320000Y-90427276D03*
%TD*%
D11*
%TO.P,V11,1*%
%TO.N,Ring0_3*%
X125000000Y-100950000D03*
%TO.P,V11,2*%
%TO.N,3.3V*%
X125000000Y-99050000D03*
%TD*%
D12*
%TO.P,V26,1*%
%TO.N,Ring1_6*%
X150950000Y-117500000D03*
%TO.P,V26,2*%
%TO.N,3.3V*%
X149050000Y-117500000D03*
%TD*%
D22*
%TO.N,BAT_PROT-*%
X157750000Y-111000000D03*
X163750000Y-113083500D03*
X157945647Y-100154500D03*
X154550000Y-100250000D03*
D23*
X143050000Y-84950000D03*
X143050000Y-88550000D03*
X139450000Y-88550000D03*
X139433033Y-84850659D03*
D22*
X145100000Y-88950000D03*
X137679648Y-89595395D03*
X138400000Y-83800000D03*
X162907440Y-117397922D03*
X155750000Y-118050000D03*
X163650000Y-114000000D03*
X159800000Y-108900000D03*
X157000000Y-110000000D03*
%TO.N,BAT-*%
X171400000Y-107900000D03*
X168508636Y-107916500D03*
%TO.N,BAT_PROT-*%
X133631500Y-95000000D03*
D23*
X128600000Y-99750000D03*
D22*
X127500000Y-109000000D03*
X150654500Y-102500000D03*
X159300000Y-100100000D03*
X171100000Y-114800000D03*
X134226600Y-104694135D03*
X152750000Y-80000000D03*
X140425500Y-121600000D03*
X144000000Y-121750000D03*
X134400000Y-86350000D03*
X152500000Y-121900000D03*
D23*
X128581487Y-96849500D03*
D22*
X158300000Y-101000000D03*
X133406500Y-87300000D03*
X127950000Y-105006500D03*
X140000000Y-80500000D03*
X155435168Y-97843971D03*
X130000000Y-85250000D03*
X163864909Y-117456110D03*
D23*
X131501485Y-96849500D03*
D22*
X164289105Y-120590820D03*
X129500000Y-119000000D03*
X158750000Y-116850000D03*
X147000000Y-121900000D03*
X130298000Y-108952000D03*
D23*
X152500000Y-120400000D03*
D22*
X148100000Y-112200000D03*
X173600000Y-114500000D03*
X164700000Y-125000000D03*
X152095500Y-102525000D03*
X140656500Y-100500000D03*
X144750000Y-93500000D03*
X140000000Y-74750000D03*
X160000000Y-74750000D03*
X147250000Y-118600000D03*
X160214000Y-125714000D03*
X152750000Y-118600000D03*
X164200000Y-119000000D03*
X144000000Y-104250000D03*
D23*
X147300000Y-120300000D03*
D22*
X169000000Y-112650000D03*
D23*
X131500000Y-99750000D03*
D22*
X155000000Y-91500000D03*
X140656500Y-99500000D03*
X158100000Y-109500000D03*
X125500000Y-89000000D03*
%TO.N,3.3V*%
X173750000Y-100250000D03*
X144000000Y-96250000D03*
X129500000Y-89500000D03*
X170750000Y-89250000D03*
X150950000Y-81250000D03*
X157250000Y-118250000D03*
X132706919Y-95095500D03*
X136250000Y-93350000D03*
X136000000Y-122750000D03*
X139500000Y-77250000D03*
X137000000Y-84000000D03*
X133250000Y-108500000D03*
X135800000Y-104700000D03*
X151000000Y-76500000D03*
X160206404Y-121587192D03*
X154404500Y-101250000D03*
X164500000Y-92750000D03*
X135250000Y-85000000D03*
X168843500Y-114250000D03*
X133250000Y-93000000D03*
X160000000Y-83000000D03*
X146750000Y-116843500D03*
X127250000Y-113750000D03*
X169000000Y-101000000D03*
X149000000Y-126250000D03*
X154847613Y-98564218D03*
X127600000Y-101900000D03*
X128260193Y-103685796D03*
X147750000Y-100000000D03*
X144250000Y-83750000D03*
X152000000Y-101000000D03*
X141250000Y-94500000D03*
X131000000Y-114250000D03*
X135000000Y-119000000D03*
X164000000Y-77500000D03*
X154575000Y-102325000D03*
X163500000Y-109000000D03*
X141250000Y-114000000D03*
%TO.N,CHRG_OUT*%
X160500000Y-102500000D03*
X157000000Y-97750000D03*
X166250000Y-112250000D03*
D23*
%TO.N,/Power/CC2*%
X155750000Y-122000000D03*
X150250000Y-121993500D03*
D22*
%TO.N,/Power/CHRG_STAT*%
X152750000Y-116500000D03*
X148250000Y-115750000D03*
%TO.N,/Power/~{CHRG_PG}*%
X155250000Y-123654500D03*
X144750000Y-123750000D03*
%TO.N,REGN*%
X160750000Y-109250000D03*
X166000000Y-116750000D03*
%TO.N,NRST*%
X129750000Y-90750000D03*
X145750000Y-81000000D03*
X131750000Y-82500000D03*
%TO.N,BTN0*%
X129750000Y-91750000D03*
X132750000Y-82500000D03*
%TO.N,BTN1*%
X162500000Y-87000000D03*
X162500000Y-82500000D03*
X129750000Y-92750000D03*
X139250000Y-92750000D03*
%TO.N,BAT_SENS*%
X136750000Y-103000000D03*
X129710210Y-103000000D03*
%TO.N,PHOTO*%
X138000000Y-102500000D03*
X152000000Y-100000000D03*
X129952500Y-102000000D03*
%TO.N,Net-(V2-Pad3)*%
X170156500Y-114038350D03*
X173000000Y-116500000D03*
D23*
%TO.N,USB_D-*%
X149500000Y-113250000D03*
D22*
X152790810Y-115501600D03*
D23*
%TO.N,USB_D+*%
X149256500Y-120149502D03*
D22*
X152790810Y-114498400D03*
D23*
X150500000Y-118500000D03*
X150500000Y-113250000D03*
D22*
%TO.N,RXD*%
X136500000Y-97616500D03*
X142000000Y-104250000D03*
%TO.N,TXD*%
X140000000Y-104250000D03*
X134921284Y-98349716D03*
%TO.N,DBG_LED*%
X132000000Y-110250000D03*
X128504500Y-102250000D03*
%TO.N,Ring0_0*%
X148250000Y-76500000D03*
%TO.N,Ring0_1*%
X141000000Y-79750000D03*
%TO.N,Ring0_2*%
X137000000Y-91500000D03*
X134750000Y-83750000D03*
X133500000Y-80000000D03*
%TO.N,Ring0_3*%
X141750000Y-91439000D03*
%TO.N,Ring0_4*%
X148000000Y-92093500D03*
%TO.N,Ring0_5*%
X150000000Y-92093500D03*
X138000000Y-120250000D03*
X146995500Y-104000000D03*
%TO.N,Ring0_6*%
X152750000Y-89500000D03*
%TO.N,Ring0_7*%
X154750000Y-87500000D03*
%TO.N,Ring0_8*%
X165250000Y-86250000D03*
X172250000Y-97500000D03*
X169000000Y-86250000D03*
%TO.N,Ring0_9*%
X175000000Y-97500000D03*
%TO.N,Ring0_10*%
X169250000Y-83750000D03*
%TO.N,Ring0_11*%
X160750000Y-78750000D03*
%TO.N,Ring1_0*%
X142000000Y-81813500D03*
%TO.N,Ring1_1*%
X140000000Y-81813500D03*
%TO.N,Ring1_2*%
X135500000Y-92550000D03*
%TO.N,Ring1_3*%
X143000000Y-101750000D03*
X146000000Y-93406500D03*
X146000000Y-92093500D03*
%TO.N,Ring1_4*%
X147000000Y-92093500D03*
%TO.N,Ring1_5*%
X149000000Y-92093500D03*
%TO.N,Ring1_6*%
X151750000Y-90250000D03*
%TO.N,Ring1_7*%
X153750000Y-88750000D03*
%TO.N,Ring1_8*%
X165750000Y-97500000D03*
%TO.N,Ring1_9*%
X167500000Y-97500000D03*
%TO.N,Ring1_10*%
X155472011Y-83655931D03*
%TO.N,Ring1_11*%
X158250000Y-83000000D03*
D23*
%TO.N,VBUS_CONN*%
X148400000Y-120299502D03*
X150500000Y-120299502D03*
%TD*%
D24*
%TO.N,Ring1_6*%
X151750000Y-94200000D02*
X151750000Y-90250000D01*
X150000000Y-95950000D02*
X151750000Y-94200000D01*
X149250000Y-104750000D02*
X150000000Y-104000000D01*
X147750000Y-104750000D02*
X149250000Y-104750000D01*
X147000000Y-105500000D02*
X147750000Y-104750000D01*
X150000000Y-104000000D02*
X150000000Y-95950000D01*
X147000000Y-116000000D02*
X147000000Y-105500000D01*
X150750000Y-116500000D02*
X147500000Y-116500000D01*
X147500000Y-116500000D02*
X147000000Y-116000000D01*
X150950000Y-116700000D02*
X150750000Y-116500000D01*
X150950000Y-117500000D02*
X150950000Y-116700000D01*
%TO.N,PHOTO*%
X129952500Y-102000000D02*
X136800000Y-102000000D01*
X136800000Y-102000000D02*
X137300000Y-102500000D01*
X137300000Y-102500000D02*
X138000000Y-102500000D01*
D25*
%TO.N,TXD*%
X140000000Y-104250000D02*
X140000000Y-99000000D01*
X140000000Y-99000000D02*
X139350000Y-98350000D01*
X139350000Y-98350000D02*
X134921568Y-98350000D01*
X134921568Y-98350000D02*
X134921284Y-98349716D01*
%TO.N,RXD*%
X142000000Y-104250000D02*
X142000000Y-98250000D01*
X142000000Y-98250000D02*
X141400000Y-97650000D01*
X141400000Y-97650000D02*
X136533500Y-97650000D01*
X136533500Y-97650000D02*
X136500000Y-97616500D01*
D24*
%TO.N,Ring1_2*%
X135500000Y-92550000D02*
X134847276Y-92550000D01*
X134847276Y-92550000D02*
X134370000Y-92072724D01*
%TO.N,3.3V*%
X136250000Y-93350000D02*
X136250000Y-91200000D01*
X136250000Y-91200000D02*
X135477276Y-90427276D01*
X135477276Y-90427276D02*
X135320000Y-90427276D01*
X144250000Y-83750000D02*
X143000000Y-83750000D01*
X143000000Y-83750000D02*
X142380000Y-84370000D01*
X142380000Y-84370000D02*
X142072724Y-84370000D01*
X150950000Y-81250000D02*
X150950000Y-82500000D01*
X160000000Y-83000000D02*
X160000000Y-84500000D01*
X160000000Y-84500000D02*
X159572724Y-84927276D01*
X159572724Y-84927276D02*
X159572724Y-85320000D01*
%TO.N,Ring0_10*%
X169250000Y-83750000D02*
X170550000Y-83750000D01*
X170550000Y-83750000D02*
X170950000Y-84150000D01*
X170950000Y-84150000D02*
X170950000Y-86451276D01*
X170950000Y-86451276D02*
X171176000Y-86677276D01*
%TO.N,Ring0_8*%
X172250000Y-97500000D02*
X172250000Y-111250000D01*
X172250000Y-111250000D02*
X172126000Y-111374000D01*
X172126000Y-111374000D02*
X172126000Y-111677276D01*
%TO.N,3.3V*%
X171176000Y-113322724D02*
X170953276Y-113100000D01*
X170953276Y-113100000D02*
X169993500Y-113100000D01*
X169993500Y-113100000D02*
X168843500Y-114250000D01*
D25*
%TO.N,Net-(V2-Pad3)*%
X170156500Y-114038350D02*
X170156500Y-115756500D01*
X170156500Y-115756500D02*
X170900000Y-116500000D01*
X170900000Y-116500000D02*
X173000000Y-116500000D01*
D24*
%TO.N,Ring0_7*%
X154750000Y-87500000D02*
X154750000Y-89000000D01*
X156250000Y-90500000D02*
X156250000Y-106500000D01*
X156250000Y-106500000D02*
X157000000Y-107250000D01*
X158500000Y-107250000D02*
X159000000Y-107750000D01*
X154750000Y-89000000D02*
X156250000Y-90500000D01*
X157000000Y-107250000D02*
X158500000Y-107250000D01*
X159000000Y-107750000D02*
X159000000Y-111250000D01*
X159000000Y-111250000D02*
X161250000Y-113500000D01*
X161250000Y-113500000D02*
X161250000Y-120850000D01*
X161250000Y-120850000D02*
X161516337Y-121116337D01*
%TO.N,/Power/CC2*%
X155750000Y-122000000D02*
X155750000Y-122500000D01*
X155750000Y-122500000D02*
X155250000Y-123000000D01*
X155250000Y-123000000D02*
X150650000Y-123000000D01*
X150250000Y-122600000D02*
X150250000Y-121993500D01*
X150650000Y-123000000D02*
X150250000Y-122600000D01*
%TO.N,Ring0_5*%
X138322724Y-122126000D02*
X138550000Y-121898724D01*
X138550000Y-120800000D02*
X138000000Y-120250000D01*
X138550000Y-121898724D02*
X138550000Y-120800000D01*
%TO.N,Ring0_4*%
X128824000Y-113322724D02*
X129646724Y-112500000D01*
X129646724Y-112500000D02*
X136750000Y-112500000D01*
X136750000Y-112500000D02*
X137250000Y-112000000D01*
X137250000Y-112000000D02*
X137250000Y-107000000D01*
X137250000Y-107000000D02*
X137750000Y-106500000D01*
X137750000Y-106500000D02*
X144750000Y-106500000D01*
X144750000Y-106500000D02*
X145500000Y-105750000D01*
X145500000Y-105750000D02*
X145500000Y-95250000D01*
X145500000Y-95250000D02*
X145750000Y-95000000D01*
X145750000Y-95000000D02*
X147250000Y-95000000D01*
X147250000Y-95000000D02*
X148000000Y-94250000D01*
X148000000Y-94250000D02*
X148000000Y-92093500D01*
%TO.N,DBG_LED*%
X128504500Y-102250000D02*
X128504500Y-103004500D01*
X128504500Y-103004500D02*
X129250000Y-103750000D01*
X132000000Y-104550000D02*
X132000000Y-110250000D01*
X129250000Y-103750000D02*
X131200000Y-103750000D01*
X131200000Y-103750000D02*
X132000000Y-104550000D01*
%TO.N,Ring1_3*%
X132500000Y-100950000D02*
X138650000Y-100950000D01*
X138650000Y-100950000D02*
X139000000Y-101300000D01*
X139000000Y-101300000D02*
X139000000Y-104750000D01*
X139000000Y-104750000D02*
X139500000Y-105250000D01*
X139500000Y-105250000D02*
X142500000Y-105250000D01*
X142500000Y-105250000D02*
X143000000Y-104750000D01*
X143000000Y-104750000D02*
X143000000Y-101750000D01*
%TO.N,3.3V*%
X129500000Y-89500000D02*
X126800000Y-89500000D01*
X126250000Y-88950000D02*
X126250000Y-86750000D01*
X126800000Y-89500000D02*
X126250000Y-88950000D01*
X126250000Y-86750000D02*
X126750000Y-86250000D01*
X126750000Y-86250000D02*
X128396724Y-86250000D01*
X128396724Y-86250000D02*
X128824000Y-86677276D01*
%TO.N,Ring0_1*%
X136677276Y-78824000D02*
X136677276Y-79077276D01*
X136677276Y-79077276D02*
X137350000Y-79750000D01*
X137350000Y-79750000D02*
X141000000Y-79750000D01*
%TO.N,Ring0_0*%
X149050000Y-75000000D02*
X149050000Y-76250000D01*
X149050000Y-76250000D02*
X148800000Y-76500000D01*
X148800000Y-76500000D02*
X148250000Y-76500000D01*
D25*
%TO.N,Ring0_7*%
X163322724Y-121176000D02*
X163261061Y-121114337D01*
X163261061Y-121114337D02*
X161516337Y-121114337D01*
D26*
%TO.N,BAT-*%
X168508636Y-107916500D02*
X171383500Y-107916500D01*
D25*
%TO.N,3.3V*%
X126500000Y-103500000D02*
X126500000Y-99000000D01*
D24*
X165630000Y-92072724D02*
X164952724Y-92750000D01*
X132095000Y-96345000D02*
X132500000Y-96750000D01*
X164000000Y-78146724D02*
X164000000Y-77500000D01*
D25*
X126500000Y-99000000D02*
X126450000Y-99050000D01*
D24*
X140570000Y-114680000D02*
X141250000Y-114000000D01*
X175000000Y-100950000D02*
X174450000Y-100950000D01*
D25*
X136000000Y-121853276D02*
X136677276Y-121176000D01*
D24*
X126500000Y-99000000D02*
X126500000Y-96750000D01*
X160745212Y-122126000D02*
X161677276Y-122126000D01*
X160206404Y-121587192D02*
X160745212Y-122126000D01*
X150950000Y-76450000D02*
X151000000Y-76500000D01*
X174450000Y-100950000D02*
X173750000Y-100250000D01*
D25*
X126685796Y-103685796D02*
X126500000Y-103500000D01*
D24*
X157250000Y-116307276D02*
X157927276Y-115630000D01*
X126500000Y-96750000D02*
X126905000Y-96345000D01*
X139500000Y-77250000D02*
X138946724Y-77250000D01*
X147406500Y-117500000D02*
X149050000Y-117500000D01*
X164952724Y-92750000D02*
X164500000Y-92750000D01*
X140427276Y-114680000D02*
X140570000Y-114680000D01*
X167500000Y-100950000D02*
X168950000Y-100950000D01*
X149050000Y-125000000D02*
X149050000Y-126200000D01*
X132500000Y-96750000D02*
X132500000Y-99050000D01*
X172126000Y-88322724D02*
X171677276Y-88322724D01*
D25*
X126450000Y-99050000D02*
X125000000Y-99050000D01*
X128260193Y-103685796D02*
X126685796Y-103685796D01*
D24*
X157250000Y-118250000D02*
X157250000Y-116307276D01*
X149050000Y-126200000D02*
X149000000Y-126250000D01*
D25*
X136000000Y-122750000D02*
X136000000Y-121853276D01*
D24*
X163322724Y-78824000D02*
X164000000Y-78146724D01*
X133822724Y-107927276D02*
X133250000Y-108500000D01*
X138946724Y-77250000D02*
X138322724Y-77874000D01*
X126905000Y-96345000D02*
X132095000Y-96345000D01*
X127874000Y-111677276D02*
X127250000Y-112301276D01*
X171677276Y-88322724D02*
X170750000Y-89250000D01*
X164680000Y-109572724D02*
X164072724Y-109572724D01*
X147750000Y-100000000D02*
X149050000Y-100000000D01*
X150950000Y-75000000D02*
X150950000Y-76450000D01*
X146750000Y-116843500D02*
X147406500Y-117500000D01*
X168950000Y-100950000D02*
X169000000Y-101000000D01*
X164072724Y-109572724D02*
X163500000Y-109000000D01*
X127250000Y-112301276D02*
X127250000Y-113750000D01*
X134370000Y-107927276D02*
X133822724Y-107927276D01*
D26*
%TO.N,CHRG_OUT*%
X159650000Y-97750000D02*
X160500000Y-98600000D01*
X166200000Y-112300000D02*
X162800000Y-112300000D01*
X166250000Y-112250000D02*
X166200000Y-112300000D01*
X162800000Y-112300000D02*
X161600000Y-111100000D01*
X160500000Y-98600000D02*
X160500000Y-102500000D01*
X161600000Y-103600000D02*
X160500000Y-102500000D01*
X161600000Y-111100000D02*
X161600000Y-103600000D01*
X157000000Y-97750000D02*
X159650000Y-97750000D01*
D25*
%TO.N,/Power/CHRG_STAT*%
X151000000Y-115750000D02*
X148250000Y-115750000D01*
X152750000Y-116500000D02*
X151750000Y-116500000D01*
X151750000Y-116500000D02*
X151000000Y-115750000D01*
D24*
%TO.N,/Power/~{CHRG_PG}*%
X155250000Y-123654500D02*
X144845500Y-123654500D01*
X144845500Y-123654500D02*
X144750000Y-123750000D01*
%TO.N,REGN*%
X162500000Y-113500000D02*
X160750000Y-111750000D01*
X160750000Y-111750000D02*
X160750000Y-109250000D01*
X163000000Y-116750000D02*
X162500000Y-116250000D01*
X162500000Y-116250000D02*
X162500000Y-113500000D01*
X166000000Y-116750000D02*
X163000000Y-116750000D01*
D25*
%TO.N,NRST*%
X131500000Y-90750000D02*
X131750000Y-90500000D01*
D24*
X145593000Y-81157000D02*
X145157000Y-81157000D01*
X145750000Y-81000000D02*
X145593000Y-81157000D01*
D25*
X131750000Y-90500000D02*
X131750000Y-82500000D01*
X131750000Y-81750000D02*
X132000000Y-81500000D01*
X132343000Y-81157000D02*
X145157000Y-81157000D01*
X131750000Y-82500000D02*
X131750000Y-81750000D01*
X132000000Y-81500000D02*
X132343000Y-81157000D01*
X129750000Y-90750000D02*
X131500000Y-90750000D01*
%TO.N,BTN0*%
X129750000Y-91750000D02*
X132250000Y-91750000D01*
X132250000Y-91750000D02*
X132750000Y-91250000D01*
X132750000Y-91250000D02*
X132750000Y-82500000D01*
%TO.N,BTN1*%
X129750000Y-93750000D02*
X130250000Y-94250000D01*
X139250000Y-94000000D02*
X139250000Y-92750000D01*
X130250000Y-94250000D02*
X139000000Y-94250000D01*
X162500000Y-87000000D02*
X162500000Y-82500000D01*
X129750000Y-92750000D02*
X129750000Y-93750000D01*
X139000000Y-94250000D02*
X139250000Y-94000000D01*
D24*
%TO.N,BAT_SENS*%
X136750000Y-103000000D02*
X129710210Y-103000000D01*
D25*
%TO.N,PHOTO*%
X152000000Y-100000000D02*
X150950000Y-100000000D01*
D27*
%TO.N,USB_D-*%
X152521367Y-115232157D02*
X151482157Y-115232157D01*
X151482157Y-115232157D02*
X149500000Y-113250000D01*
X152790810Y-115501600D02*
X152521367Y-115232157D01*
D28*
%TO.N,USB_D+*%
X149256500Y-120149502D02*
X150500000Y-118906002D01*
D27*
X150500000Y-113593363D02*
X150500000Y-113250000D01*
D28*
X150500000Y-118906002D02*
X150500000Y-118500000D01*
D27*
X151674480Y-114767843D02*
X150500000Y-113593363D01*
X152790810Y-114498400D02*
X152521367Y-114767843D01*
X152521367Y-114767843D02*
X151674480Y-114767843D01*
D25*
%TO.N,Ring0_2*%
X130750000Y-88000000D02*
X130750000Y-80500000D01*
X127874000Y-88322724D02*
X130427276Y-88322724D01*
X130427276Y-88322724D02*
X130750000Y-88000000D01*
X130750000Y-80500000D02*
X131250000Y-80000000D01*
D24*
X135500000Y-83750000D02*
X134750000Y-83750000D01*
X137000000Y-91500000D02*
X137000000Y-85250000D01*
X137000000Y-85250000D02*
X135500000Y-83750000D01*
X131250000Y-80000000D02*
X133500000Y-80000000D01*
%TO.N,Ring0_3*%
X140500000Y-95000000D02*
X139750000Y-95750000D01*
X124000000Y-100750000D02*
X124200000Y-100950000D01*
X140811000Y-91439000D02*
X140500000Y-91750000D01*
X124500000Y-95750000D02*
X124000000Y-96250000D01*
X140500000Y-91750000D02*
X140500000Y-95000000D01*
X139750000Y-95750000D02*
X124500000Y-95750000D01*
X141750000Y-91439000D02*
X140811000Y-91439000D01*
X124000000Y-96250000D02*
X124000000Y-100750000D01*
X124200000Y-100950000D02*
X125000000Y-100950000D01*
%TO.N,Ring0_5*%
X146995500Y-104000000D02*
X146995500Y-96754500D01*
X150000000Y-94768700D02*
X150000000Y-92093500D01*
X146995500Y-96754500D02*
X147250000Y-96500000D01*
X147250000Y-96500000D02*
X148268700Y-96500000D01*
X148268700Y-96500000D02*
X150000000Y-94768700D01*
%TO.N,Ring0_6*%
X156000000Y-113750000D02*
X153250000Y-113750000D01*
X152750000Y-113250000D02*
X152750000Y-89500000D01*
X156500000Y-124500000D02*
X156500000Y-114250000D01*
X156000000Y-125000000D02*
X156500000Y-124500000D01*
X150950000Y-125000000D02*
X156000000Y-125000000D01*
X156500000Y-114250000D02*
X156000000Y-113750000D01*
X153250000Y-113750000D02*
X152750000Y-113250000D01*
%TO.N,Ring0_8*%
X165250000Y-86250000D02*
X169000000Y-86250000D01*
%TO.N,Ring0_9*%
X175000000Y-97500000D02*
X175000000Y-99050000D01*
%TO.N,Ring0_11*%
X160801276Y-78750000D02*
X161677276Y-77874000D01*
%TO.N,Ring1_0*%
X147750000Y-82500000D02*
X149050000Y-82500000D01*
X142000000Y-81813500D02*
X142063500Y-81750000D01*
X142063500Y-81750000D02*
X147000000Y-81750000D01*
X147000000Y-81750000D02*
X147750000Y-82500000D01*
%TO.N,Ring1_1*%
X140000000Y-83250000D02*
X140427276Y-83677276D01*
X140427276Y-83677276D02*
X140427276Y-85320000D01*
X140000000Y-81813500D02*
X140000000Y-83250000D01*
%TO.N,Ring1_3*%
X146000000Y-93406500D02*
X146000000Y-92093500D01*
%TO.N,Ring1_4*%
X145250000Y-94250000D02*
X146750000Y-94250000D01*
X136250000Y-108642724D02*
X136250000Y-106750000D01*
X144750000Y-105250000D02*
X144750000Y-94750000D01*
X144750000Y-94750000D02*
X145250000Y-94250000D01*
X137250000Y-105750000D02*
X144250000Y-105750000D01*
X135320000Y-109572724D02*
X136250000Y-108642724D01*
X136250000Y-106750000D02*
X137250000Y-105750000D01*
X146750000Y-94250000D02*
X147000000Y-94000000D01*
X147000000Y-94000000D02*
X147000000Y-92093500D01*
X144250000Y-105750000D02*
X144750000Y-105250000D01*
%TO.N,Ring1_5*%
X149000000Y-94500000D02*
X149000000Y-92093500D01*
X142500000Y-107250000D02*
X145000000Y-107250000D01*
X146250000Y-96000000D02*
X146500000Y-95750000D01*
X146250000Y-106000000D02*
X146250000Y-96750000D01*
X147500000Y-95750000D02*
X147750000Y-95750000D01*
X145000000Y-107250000D02*
X146250000Y-106000000D01*
X148500000Y-95000000D02*
X149000000Y-94500000D01*
X147750000Y-95750000D02*
X148500000Y-95000000D01*
X142072724Y-115630000D02*
X142072724Y-107677276D01*
X142072724Y-107677276D02*
X142500000Y-107250000D01*
X146500000Y-95750000D02*
X147500000Y-95750000D01*
X146250000Y-96750000D02*
X146250000Y-96000000D01*
%TO.N,Ring1_7*%
X153750000Y-111500000D02*
X154500000Y-112250000D01*
X153750000Y-88750000D02*
X153750000Y-111500000D01*
X159572724Y-112822724D02*
X159572724Y-114680000D01*
X159000000Y-112250000D02*
X159572724Y-112822724D01*
X154500000Y-112250000D02*
X159000000Y-112250000D01*
%TO.N,Ring1_8*%
X165750000Y-97500000D02*
X165630000Y-97620000D01*
X165630000Y-97620000D02*
X165630000Y-107927276D01*
%TO.N,Ring1_9*%
X167500000Y-97500000D02*
X167500000Y-99050000D01*
%TO.N,Ring1_10*%
X155500000Y-89000000D02*
X156000000Y-89500000D01*
X155500000Y-83683920D02*
X155500000Y-89000000D01*
X155472011Y-83655931D02*
X155500000Y-83683920D01*
X156000000Y-89500000D02*
X163752724Y-89500000D01*
X163752724Y-89500000D02*
X164680000Y-90427276D01*
%TO.N,Ring1_11*%
X158250000Y-83000000D02*
X158250000Y-84047276D01*
X158250000Y-84047276D02*
X157927276Y-84370000D01*
D29*
%TO.N,VBUS_CONN*%
X148400000Y-120700000D02*
X148700000Y-121000000D01*
X148700000Y-121000000D02*
X150300000Y-121000000D01*
X150500000Y-120800000D02*
X150500000Y-120299502D01*
X150300000Y-121000000D02*
X150500000Y-120800000D01*
X148400000Y-120299502D02*
X148400000Y-120700000D01*
%TD*%
M02*
