%TF.GenerationSoftware,KiCad,Pcbnew,6.0.7+dfsg-1~bpo11+1*%
%TF.CreationDate,2022-09-06T20:28:51+02:00*%
%TF.ProjectId,pcb,7063622e-6b69-4636-9164-5f7063625858,0.1*%
%TF.SameCoordinates,Original*%
%TF.FileFunction,Paste,Top*%
%TF.FilePolarity,Positive*%
%FSLAX46Y46*%
G04 Gerber Fmt 4.6, Leading zero omitted, Abs format (unit mm)*
G04 Created by KiCad (PCBNEW 6.0.7+dfsg-1~bpo11+1) date 2022-09-06 20:28:51*
%MOMM*%
%LPD*%
G01*
G04 APERTURE LIST*
G04 Aperture macros list*
%AMRoundRect*
0 Rectangle with rounded corners*
0 $1 Rounding radius*
0 $2 $3 $4 $5 $6 $7 $8 $9 X,Y pos of 4 corners*
0 Add a 4 corners polygon primitive as box body*
4,1,4,$2,$3,$4,$5,$6,$7,$8,$9,$2,$3,0*
0 Add four circle primitives for the rounded corners*
1,1,$1+$1,$2,$3*
1,1,$1+$1,$4,$5*
1,1,$1+$1,$6,$7*
1,1,$1+$1,$8,$9*
0 Add four rect primitives between the rounded corners*
20,1,$1+$1,$2,$3,$4,$5,0*
20,1,$1+$1,$4,$5,$6,$7,0*
20,1,$1+$1,$6,$7,$8,$9,0*
20,1,$1+$1,$8,$9,$2,$3,0*%
%AMRotRect*
0 Rectangle, with rotation*
0 The origin of the aperture is its center*
0 $1 length*
0 $2 width*
0 $3 Rotation angle, in degrees counterclockwise*
0 Add horizontal line*
21,1,$1,$2,0,0,$3*%
G04 Aperture macros list end*
%ADD10RotRect,2.400000X0.760000X145.000000*%
%ADD11R,0.950000X0.950000*%
%ADD12R,1.800000X1.000000*%
%ADD13R,0.800000X0.300000*%
%ADD14R,0.300000X0.800000*%
%ADD15R,2.800000X2.800000*%
%ADD16RoundRect,0.225000X0.225000X0.250000X-0.225000X0.250000X-0.225000X-0.250000X0.225000X-0.250000X0*%
%ADD17RoundRect,0.250000X-0.250000X-2.500000X0.250000X-2.500000X0.250000X2.500000X-0.250000X2.500000X0*%
%ADD18RoundRect,0.250000X-0.550000X-1.250000X0.550000X-1.250000X0.550000X1.250000X-0.550000X1.250000X0*%
%ADD19RoundRect,0.200000X0.200000X0.275000X-0.200000X0.275000X-0.200000X-0.275000X0.200000X-0.275000X0*%
%ADD20R,0.250000X0.300000*%
%ADD21RoundRect,0.225000X0.250000X-0.225000X0.250000X0.225000X-0.250000X0.225000X-0.250000X-0.225000X0*%
%ADD22RoundRect,0.200000X-0.275000X0.200000X-0.275000X-0.200000X0.275000X-0.200000X0.275000X0.200000X0*%
%ADD23RoundRect,0.200000X-0.200000X-0.275000X0.200000X-0.275000X0.200000X0.275000X-0.200000X0.275000X0*%
%ADD24RoundRect,0.225000X-0.250000X0.225000X-0.250000X-0.225000X0.250000X-0.225000X0.250000X0.225000X0*%
%ADD25RoundRect,0.200000X0.275000X-0.200000X0.275000X0.200000X-0.275000X0.200000X-0.275000X-0.200000X0*%
%ADD26RotRect,1.400000X1.050000X165.500000*%
%ADD27RoundRect,0.242500X0.242500X0.242500X-0.242500X0.242500X-0.242500X-0.242500X0.242500X-0.242500X0*%
%ADD28RoundRect,0.062500X0.337500X0.062500X-0.337500X0.062500X-0.337500X-0.062500X0.337500X-0.062500X0*%
%ADD29RoundRect,0.062500X0.062500X0.337500X-0.062500X0.337500X-0.062500X-0.337500X0.062500X-0.337500X0*%
%ADD30R,0.300000X0.700000*%
%ADD31RoundRect,0.250000X-0.375000X-0.850000X0.375000X-0.850000X0.375000X0.850000X-0.375000X0.850000X0*%
%ADD32R,0.550000X1.500000*%
%ADD33RotRect,1.400000X1.050000X194.500000*%
%ADD34RoundRect,0.218750X-0.218750X-0.256250X0.218750X-0.256250X0.218750X0.256250X-0.218750X0.256250X0*%
%ADD35RoundRect,0.218750X-0.381250X0.218750X-0.381250X-0.218750X0.381250X-0.218750X0.381250X0.218750X0*%
%ADD36RoundRect,0.250000X-0.300000X-0.300000X0.300000X-0.300000X0.300000X0.300000X-0.300000X0.300000X0*%
%ADD37RoundRect,0.062500X-0.375000X-0.062500X0.375000X-0.062500X0.375000X0.062500X-0.375000X0.062500X0*%
%ADD38RoundRect,0.062500X-0.062500X-0.375000X0.062500X-0.375000X0.062500X0.375000X-0.062500X0.375000X0*%
%ADD39RoundRect,0.225000X-0.225000X-0.250000X0.225000X-0.250000X0.225000X0.250000X-0.225000X0.250000X0*%
%ADD40R,1.000000X1.150000*%
%ADD41RoundRect,0.218750X0.218750X0.256250X-0.218750X0.256250X-0.218750X-0.256250X0.218750X-0.256250X0*%
%ADD42R,1.100000X1.400000*%
%ADD43R,0.900000X1.400000*%
%ADD44R,0.400000X0.425000*%
%ADD45R,0.650000X0.900000*%
%ADD46R,0.200000X0.800000*%
%ADD47R,2.550000X1.800000*%
%ADD48R,1.000000X3.000000*%
%ADD49R,3.000000X1.000000*%
%ADD50R,1.150000X0.600000*%
%ADD51RoundRect,0.250000X1.425000X-0.362500X1.425000X0.362500X-1.425000X0.362500X-1.425000X-0.362500X0*%
%ADD52R,2.200000X1.100000*%
%ADD53RoundRect,0.237500X-0.287500X-0.237500X0.287500X-0.237500X0.287500X0.237500X-0.287500X0.237500X0*%
G04 APERTURE END LIST*
D10*
%TO.C,X5*%
X130140462Y-88699120D03*
X126945769Y-86462172D03*
X130868904Y-87658797D03*
X127674211Y-85421849D03*
X131597346Y-86618474D03*
X128402654Y-84381526D03*
X132325789Y-85578151D03*
X129131096Y-83341203D03*
X133054231Y-84537828D03*
X129859538Y-82300880D03*
%TD*%
D11*
%TO.C,V7*%
X132000000Y-112000000D03*
X133500000Y-112000000D03*
%TD*%
D12*
%TO.C,Y2*%
X136798000Y-98798000D03*
X136798000Y-101298000D03*
%TD*%
D13*
%TO.C,V5*%
X158750000Y-113750000D03*
X158750000Y-114250000D03*
X158750000Y-114750000D03*
X158750000Y-115250000D03*
X158750000Y-115750000D03*
X158750000Y-116250000D03*
D14*
X159500000Y-117000000D03*
X160000000Y-117000000D03*
X160500000Y-117000000D03*
X161000000Y-117000000D03*
X161500000Y-117000000D03*
X162000000Y-117000000D03*
D13*
X162750000Y-116250000D03*
X162750000Y-115750000D03*
X162750000Y-115250000D03*
X162750000Y-114750000D03*
X162750000Y-114250000D03*
X162750000Y-113750000D03*
D14*
X162000000Y-113000000D03*
X161500000Y-113000000D03*
X161000000Y-113000000D03*
X160500000Y-113000000D03*
X160000000Y-113000000D03*
X159500000Y-113000000D03*
D15*
X160750000Y-115000000D03*
%TD*%
D16*
%TO.C,C10*%
X135775000Y-103750000D03*
X134225000Y-103750000D03*
%TD*%
D17*
%TO.C,X2*%
X168500000Y-104500000D03*
X170500000Y-104500000D03*
D18*
X166100000Y-102250000D03*
X172900000Y-102250000D03*
%TD*%
D19*
%TO.C,R25*%
X150825000Y-100000000D03*
X149175000Y-100000000D03*
%TD*%
D20*
%TO.C,V32*%
X145307000Y-95964000D03*
X145307000Y-95504000D03*
X145307000Y-95044000D03*
X144867000Y-95044000D03*
X144867000Y-95504000D03*
X144867000Y-95964000D03*
%TD*%
D21*
%TO.C,C5*%
X156750000Y-112525000D03*
X156750000Y-110975000D03*
%TD*%
D22*
%TO.C,R23*%
X138176000Y-93409000D03*
X138176000Y-95059000D03*
%TD*%
D23*
%TO.C,R7*%
X159175000Y-99000000D03*
X160825000Y-99000000D03*
%TD*%
D24*
%TO.C,C20*%
X142494000Y-96253000D03*
X142494000Y-97803000D03*
%TD*%
D25*
%TO.C,R18*%
X162250000Y-76825000D03*
X162250000Y-75175000D03*
%TD*%
%TO.C,R1*%
X155750000Y-120575000D03*
X155750000Y-118925000D03*
%TD*%
D26*
%TO.C,S3*%
X155438860Y-71847409D03*
X158924191Y-72748777D03*
X158561140Y-74152591D03*
X155075809Y-73251223D03*
%TD*%
D24*
%TO.C,C16*%
X134250000Y-100475000D03*
X134250000Y-102025000D03*
%TD*%
D27*
%TO.C,V6*%
X131248000Y-97098000D03*
X131248000Y-98298000D03*
X128848000Y-99498000D03*
X130048000Y-97098000D03*
X128848000Y-98298000D03*
X130048000Y-98298000D03*
X131248000Y-99498000D03*
X130048000Y-99498000D03*
X128848000Y-97098000D03*
D28*
X132498000Y-100048000D03*
X132498000Y-99548000D03*
X132498000Y-99048000D03*
X132498000Y-98548000D03*
X132498000Y-98048000D03*
X132498000Y-97548000D03*
X132498000Y-97048000D03*
X132498000Y-96548000D03*
D29*
X131798000Y-95848000D03*
X131298000Y-95848000D03*
X130798000Y-95848000D03*
X130298000Y-95848000D03*
X129798000Y-95848000D03*
X129298000Y-95848000D03*
X128798000Y-95848000D03*
X128298000Y-95848000D03*
D28*
X127598000Y-96548000D03*
X127598000Y-97048000D03*
X127598000Y-97548000D03*
X127598000Y-98048000D03*
X127598000Y-98548000D03*
X127598000Y-99048000D03*
X127598000Y-99548000D03*
X127598000Y-100048000D03*
D29*
X128298000Y-100748000D03*
X128798000Y-100748000D03*
X129298000Y-100748000D03*
X129798000Y-100748000D03*
X130298000Y-100748000D03*
X130798000Y-100748000D03*
X131298000Y-100748000D03*
X131798000Y-100748000D03*
%TD*%
D23*
%TO.C,R13*%
X162175000Y-125000000D03*
X163825000Y-125000000D03*
%TD*%
D21*
%TO.C,C9*%
X124798000Y-107948000D03*
X124798000Y-106398000D03*
%TD*%
D25*
%TO.C,R17*%
X137750000Y-76825000D03*
X137750000Y-75175000D03*
%TD*%
D23*
%TO.C,R20*%
X147925000Y-102500000D03*
X149575000Y-102500000D03*
%TD*%
D22*
%TO.C,R2*%
X144000000Y-118925000D03*
X144000000Y-120575000D03*
%TD*%
D30*
%TO.C,X1*%
X147250000Y-119420000D03*
X147750000Y-119420000D03*
X148250000Y-119420000D03*
X148750000Y-119420000D03*
X149250000Y-119420000D03*
X149750000Y-119420000D03*
X150250000Y-119420000D03*
X150750000Y-119420000D03*
X151250000Y-119420000D03*
X151750000Y-119420000D03*
X152250000Y-119420000D03*
X152750000Y-119420000D03*
X152500000Y-121120000D03*
X152000000Y-121120000D03*
X151500000Y-121120000D03*
X151000000Y-121120000D03*
X150500000Y-121120000D03*
X150000000Y-121120000D03*
X149500000Y-121120000D03*
X149000000Y-121120000D03*
X148500000Y-121120000D03*
X148000000Y-121120000D03*
X147500000Y-121120000D03*
X147000000Y-121120000D03*
%TD*%
D31*
%TO.C,L2*%
X154925000Y-105000000D03*
X157075000Y-105000000D03*
%TD*%
D32*
%TO.C,S1*%
X148375000Y-80000000D03*
X151625000Y-80000000D03*
%TD*%
D24*
%TO.C,C1*%
X175500000Y-110225000D03*
X175500000Y-111775000D03*
%TD*%
D33*
%TO.C,S2*%
X144561140Y-71847409D03*
X141075809Y-72748777D03*
X144924191Y-73251223D03*
X141438860Y-74152591D03*
%TD*%
D24*
%TO.C,C15*%
X126048000Y-99273000D03*
X126048000Y-100823000D03*
%TD*%
D34*
%TO.C,L1*%
X164712500Y-110750000D03*
X166287500Y-110750000D03*
%TD*%
D21*
%TO.C,C8*%
X164750000Y-114250000D03*
X164750000Y-112700000D03*
%TD*%
D23*
%TO.C,R21*%
X131925000Y-114250000D03*
X133575000Y-114250000D03*
%TD*%
D35*
%TO.C,FB1*%
X153750000Y-110437500D03*
X153750000Y-112562500D03*
%TD*%
D19*
%TO.C,R24*%
X138825000Y-78750000D03*
X137175000Y-78750000D03*
%TD*%
D36*
%TO.C,V33*%
X141250000Y-86750000D03*
X139880000Y-88120000D03*
X142620000Y-86750000D03*
X141250000Y-85380000D03*
X142620000Y-85380000D03*
X139880000Y-85380000D03*
X139880000Y-86750000D03*
X141250000Y-88120000D03*
X142620000Y-88120000D03*
D37*
X138312500Y-84500000D03*
X138312500Y-85000000D03*
X138312500Y-85500000D03*
X138312500Y-86000000D03*
X138312500Y-86500000D03*
X138312500Y-87000000D03*
X138312500Y-87500000D03*
X138312500Y-88000000D03*
X138312500Y-88500000D03*
X138312500Y-89000000D03*
D38*
X139000000Y-89687500D03*
X139500000Y-89687500D03*
X140000000Y-89687500D03*
X140500000Y-89687500D03*
X141000000Y-89687500D03*
X141500000Y-89687500D03*
X142000000Y-89687500D03*
X142500000Y-89687500D03*
X143000000Y-89687500D03*
X143500000Y-89687500D03*
D37*
X144187500Y-89000000D03*
X144187500Y-88500000D03*
X144187500Y-88000000D03*
X144187500Y-87500000D03*
X144187500Y-87000000D03*
X144187500Y-86500000D03*
X144187500Y-86000000D03*
X144187500Y-85500000D03*
X144187500Y-85000000D03*
X144187500Y-84500000D03*
D38*
X143500000Y-83812500D03*
X143000000Y-83812500D03*
X142500000Y-83812500D03*
X142000000Y-83812500D03*
X141500000Y-83812500D03*
X141000000Y-83812500D03*
X140500000Y-83812500D03*
X140000000Y-83812500D03*
X139500000Y-83812500D03*
X139000000Y-83812500D03*
%TD*%
D39*
%TO.C,C2*%
X161475000Y-110750000D03*
X163025000Y-110750000D03*
%TD*%
D40*
%TO.C,Y1*%
X126848000Y-106048000D03*
X126848000Y-107798000D03*
X128248000Y-107798000D03*
X128248000Y-106048000D03*
%TD*%
D19*
%TO.C,R22*%
X138825000Y-80500000D03*
X137175000Y-80500000D03*
%TD*%
D21*
%TO.C,C6*%
X159250000Y-102525000D03*
X159250000Y-100975000D03*
%TD*%
D16*
%TO.C,C19*%
X140573000Y-98500000D03*
X139023000Y-98500000D03*
%TD*%
D19*
%TO.C,R12*%
X163825000Y-123000000D03*
X162175000Y-123000000D03*
%TD*%
D25*
%TO.C,R3*%
X169000000Y-111825000D03*
X169000000Y-110175000D03*
%TD*%
D23*
%TO.C,R6*%
X159175000Y-97250000D03*
X160825000Y-97250000D03*
%TD*%
D19*
%TO.C,R11*%
X163325000Y-119000000D03*
X161675000Y-119000000D03*
%TD*%
D41*
%TO.C,L3*%
X132585500Y-104548000D03*
X131010500Y-104548000D03*
%TD*%
D19*
%TO.C,R5*%
X142075000Y-120500000D03*
X140425000Y-120500000D03*
%TD*%
D42*
%TO.C,V3*%
X150750000Y-112150000D03*
D43*
X149050000Y-112150000D03*
X149050000Y-114350000D03*
X150950000Y-114350000D03*
%TD*%
D44*
%TO.C,V2*%
X172900000Y-113562000D03*
X172250000Y-113562000D03*
X171600000Y-113562000D03*
X171600000Y-115438000D03*
X172250000Y-115438000D03*
X172900000Y-115438000D03*
D45*
X171775000Y-114500000D03*
X172725000Y-114500000D03*
%TD*%
D39*
%TO.C,C12*%
X132975000Y-94000000D03*
X134525000Y-94000000D03*
%TD*%
D46*
%TO.C,V4*%
X155250000Y-102500000D03*
X155650000Y-102500000D03*
X156050000Y-102500000D03*
X156450000Y-102500000D03*
X156850000Y-102500000D03*
X157250000Y-102500000D03*
X157250000Y-99500000D03*
X156850000Y-99500000D03*
X156450000Y-99500000D03*
X156050000Y-99500000D03*
X155650000Y-99500000D03*
X155250000Y-99500000D03*
D47*
X156250000Y-101000000D03*
%TD*%
D34*
%TO.C,L5*%
X124510500Y-97536000D03*
X126085500Y-97536000D03*
%TD*%
D39*
%TO.C,C13*%
X131023000Y-102798000D03*
X132573000Y-102798000D03*
%TD*%
D19*
%TO.C,R19*%
X149575000Y-104250000D03*
X147925000Y-104250000D03*
%TD*%
D48*
%TO.C,X4*%
X139986000Y-106426000D03*
X141986000Y-106426000D03*
X143986000Y-106426000D03*
%TD*%
D22*
%TO.C,R16*%
X145750000Y-78175000D03*
X145750000Y-79825000D03*
%TD*%
D49*
%TO.C,X3*%
X158250000Y-123714000D03*
X158250000Y-125714000D03*
%TD*%
D50*
%TO.C,V1*%
X170950000Y-109300000D03*
X170950000Y-110250000D03*
X170950000Y-111200000D03*
X173550000Y-111200000D03*
X173550000Y-110250000D03*
X173550000Y-109300000D03*
%TD*%
D23*
%TO.C,R8*%
X139425000Y-123750000D03*
X141075000Y-123750000D03*
%TD*%
D34*
%TO.C,L4*%
X132010500Y-106298000D03*
X133585500Y-106298000D03*
%TD*%
D22*
%TO.C,R15*%
X136250000Y-94425000D03*
X136250000Y-96075000D03*
%TD*%
D23*
%TO.C,R9*%
X139425000Y-125500000D03*
X141075000Y-125500000D03*
%TD*%
D16*
%TO.C,C11*%
X127525000Y-103000000D03*
X125975000Y-103000000D03*
%TD*%
D51*
%TO.C,R4*%
X176500000Y-106962500D03*
X176500000Y-101037500D03*
%TD*%
D52*
%TO.C,AE1*%
X122048000Y-97498000D03*
X122048000Y-102598000D03*
%TD*%
D24*
%TO.C,C7*%
X164750000Y-115950000D03*
X164750000Y-117500000D03*
%TD*%
D16*
%TO.C,C17*%
X140525000Y-101500000D03*
X138975000Y-101500000D03*
%TD*%
D24*
%TO.C,C4*%
X153250000Y-100975000D03*
X153250000Y-102525000D03*
%TD*%
D21*
%TO.C,C18*%
X124500000Y-95775000D03*
X124500000Y-94225000D03*
%TD*%
D22*
%TO.C,R14*%
X140000000Y-94425000D03*
X140000000Y-96075000D03*
%TD*%
D21*
%TO.C,C14*%
X130298000Y-107948000D03*
X130298000Y-106398000D03*
%TD*%
%TO.C,C3*%
X159000000Y-111025000D03*
X159000000Y-109475000D03*
%TD*%
D19*
%TO.C,R10*%
X163325000Y-121000000D03*
X161675000Y-121000000D03*
%TD*%
D53*
%TO.C,F1*%
X152125000Y-108500000D03*
X153875000Y-108500000D03*
%TD*%
M02*
