%TF.GenerationSoftware,KiCad,Pcbnew,6.0.7+dfsg-1~bpo11+1*%
%TF.CreationDate,2022-09-06T20:28:52+02:00*%
%TF.ProjectId,pcb,7063622e-6b69-4636-9164-5f7063625858,0.1*%
%TF.SameCoordinates,Original*%
%TF.FileFunction,Legend,Bot*%
%TF.FilePolarity,Positive*%
%FSLAX46Y46*%
G04 Gerber Fmt 4.6, Leading zero omitted, Abs format (unit mm)*
G04 Created by KiCad (PCBNEW 6.0.7+dfsg-1~bpo11+1) date 2022-09-06 20:28:52*
%MOMM*%
%LPD*%
G01*
G04 APERTURE LIST*
%ADD10C,0.200000*%
G04 APERTURE END LIST*
D10*
%TO.C,V17*%
X174375000Y-101000000D02*
X174375000Y-98525000D01*
X175625000Y-99000000D02*
X175625000Y-101000000D01*
%TO.C,V14*%
X149000000Y-124375000D02*
X151475000Y-124375000D01*
X151000000Y-125625000D02*
X149000000Y-125625000D01*
%TO.C,V13*%
X136946475Y-120609734D02*
X139089887Y-121847234D01*
X138053525Y-122692266D02*
X136321475Y-121692266D01*
%TO.C,V18*%
X171692266Y-86321475D02*
X172692266Y-88053525D01*
X171609734Y-88678525D02*
X170372234Y-86535113D01*
%TO.C,V29*%
X168125000Y-99000000D02*
X168125000Y-101000000D01*
X166875000Y-101000000D02*
X166875000Y-98525000D01*
%TO.C,V25*%
X140696475Y-114113734D02*
X142839887Y-115351234D01*
X141803525Y-116196266D02*
X140071475Y-115196266D01*
%TO.C,V10*%
X127307734Y-88053525D02*
X128307734Y-86321475D01*
X129390266Y-86946475D02*
X128152766Y-89089887D01*
%TO.C,V19*%
X163053525Y-79390266D02*
X160910113Y-78152766D01*
X161946475Y-77307734D02*
X163678525Y-78307734D01*
%TO.C,V15*%
X161321475Y-121609734D02*
X163464887Y-120372234D01*
X163678525Y-121692266D02*
X161946475Y-122692266D01*
%TO.C,V9*%
X138678525Y-78390266D02*
X136535113Y-79627766D01*
X136321475Y-78307734D02*
X138053525Y-77307734D01*
%TO.C,V16*%
X170609734Y-113053525D02*
X171847234Y-110910113D01*
X172692266Y-111946475D02*
X171692266Y-113678525D01*
%TO.C,V31*%
X158196475Y-83803734D02*
X159928525Y-84803734D01*
X159303525Y-85886266D02*
X157160113Y-84648766D01*
%TO.C,V30*%
X165196266Y-90071475D02*
X166196266Y-91803525D01*
X165113734Y-92428525D02*
X163876234Y-90285113D01*
%TO.C,V21*%
X140071475Y-84803734D02*
X141803525Y-83803734D01*
X142428525Y-84886266D02*
X140285113Y-86123766D01*
%TO.C,V27*%
X157571475Y-115113734D02*
X159714887Y-113876234D01*
X159928525Y-115196266D02*
X158196475Y-116196266D01*
%TO.C,V28*%
X166196266Y-108196475D02*
X165196266Y-109928525D01*
X164113734Y-109303525D02*
X165351234Y-107160113D01*
%TO.C,V34*%
X150950000Y-101050000D02*
X148250000Y-101050000D01*
X148250000Y-98950000D02*
X150950000Y-98950000D01*
X148250000Y-101050000D02*
X148250000Y-98950000D01*
%TO.C,V12*%
X128390266Y-111321475D02*
X129627766Y-113464887D01*
X128307734Y-113678525D02*
X127307734Y-111946475D01*
%TO.C,V23*%
X133125000Y-99000000D02*
X133125000Y-101475000D01*
X131875000Y-101000000D02*
X131875000Y-99000000D01*
%TO.C,V24*%
X134886266Y-107571475D02*
X136123766Y-109714887D01*
X134803734Y-109928525D02*
X133803734Y-108196475D01*
%TO.C,V8*%
X149000000Y-74375000D02*
X151000000Y-74375000D01*
X151000000Y-75625000D02*
X148525000Y-75625000D01*
%TO.C,V20*%
X149000000Y-81875000D02*
X151000000Y-81875000D01*
X151000000Y-83125000D02*
X148525000Y-83125000D01*
%TO.C,V22*%
X135886266Y-90696475D02*
X134648766Y-92839887D01*
X133803734Y-91803525D02*
X134803734Y-90071475D01*
%TO.C,V11*%
X125625000Y-99000000D02*
X125625000Y-101475000D01*
X124375000Y-101000000D02*
X124375000Y-99000000D01*
%TO.C,V26*%
X149000000Y-116875000D02*
X151475000Y-116875000D01*
X151000000Y-118125000D02*
X149000000Y-118125000D01*
%TD*%
M02*
