%TF.GenerationSoftware,KiCad,Pcbnew,6.0.7+dfsg-1~bpo11+1*%
%TF.CreationDate,2022-09-06T20:28:50+02:00*%
%TF.ProjectId,pcb,7063622e-6b69-4636-9164-5f7063625858,0.1*%
%TF.SameCoordinates,Original*%
%TF.FileFunction,Copper,L3,Inr*%
%TF.FilePolarity,Positive*%
%FSLAX46Y46*%
G04 Gerber Fmt 4.6, Leading zero omitted, Abs format (unit mm)*
G04 Created by KiCad (PCBNEW 6.0.7+dfsg-1~bpo11+1) date 2022-09-06 20:28:50*
%MOMM*%
%LPD*%
G01*
G04 APERTURE LIST*
%TA.AperFunction,ComponentPad*%
%ADD10O,0.800000X1.400000*%
%TD*%
%TA.AperFunction,ViaPad*%
%ADD11C,0.800000*%
%TD*%
%TA.AperFunction,ViaPad*%
%ADD12C,0.500000*%
%TD*%
G04 APERTURE END LIST*
D10*
%TO.N,/Power/Shield*%
%TO.C,X1*%
X154130000Y-121330000D03*
X145510000Y-127280000D03*
X145870000Y-121330000D03*
X154490000Y-127280000D03*
%TD*%
D11*
%TO.N,BAT_PROT-*%
X157750000Y-111000000D03*
X163750000Y-113083500D03*
X157945647Y-100154500D03*
X154550000Y-100250000D03*
D12*
X143050000Y-84950000D03*
X143050000Y-88550000D03*
X139450000Y-88550000D03*
X139433033Y-84850659D03*
D11*
X145100000Y-88950000D03*
X137679648Y-89595395D03*
X138400000Y-83800000D03*
X162907440Y-117397922D03*
X155750000Y-118050000D03*
X163650000Y-114000000D03*
X159800000Y-108900000D03*
X157000000Y-110000000D03*
%TO.N,BAT-*%
X171400000Y-107900000D03*
X168508636Y-107916500D03*
%TO.N,BAT_PROT-*%
X133631500Y-95000000D03*
D12*
X128600000Y-99750000D03*
D11*
X127500000Y-109000000D03*
X150654500Y-102500000D03*
X159300000Y-100100000D03*
X171100000Y-114800000D03*
X134226600Y-104694135D03*
X152750000Y-80000000D03*
X140425500Y-121600000D03*
X144000000Y-121750000D03*
X134400000Y-86350000D03*
X152500000Y-121900000D03*
D12*
X128581487Y-96849500D03*
D11*
X158300000Y-101000000D03*
X133406500Y-87300000D03*
X127950000Y-105006500D03*
X140000000Y-80500000D03*
X155435168Y-97843971D03*
X130000000Y-85250000D03*
X163864909Y-117456110D03*
D12*
X131501485Y-96849500D03*
D11*
X164289105Y-120590820D03*
X129500000Y-119000000D03*
X158750000Y-116850000D03*
X147000000Y-121900000D03*
X130298000Y-108952000D03*
D12*
X152500000Y-120400000D03*
D11*
X148100000Y-112200000D03*
X173600000Y-114500000D03*
X164700000Y-125000000D03*
X152095500Y-102525000D03*
X140656500Y-100500000D03*
X144750000Y-93500000D03*
X140000000Y-74750000D03*
X160000000Y-74750000D03*
X147250000Y-118600000D03*
X160214000Y-125714000D03*
X152750000Y-118600000D03*
X164200000Y-119000000D03*
X144000000Y-104250000D03*
D12*
X147300000Y-120300000D03*
D11*
X169000000Y-112650000D03*
D12*
X131500000Y-99750000D03*
D11*
X155000000Y-91500000D03*
X140656500Y-99500000D03*
X158100000Y-109500000D03*
X125500000Y-89000000D03*
%TO.N,3.3V*%
X173750000Y-100250000D03*
X144000000Y-96250000D03*
X129500000Y-89500000D03*
X170750000Y-89250000D03*
X150950000Y-81250000D03*
X157250000Y-118250000D03*
X132706919Y-95095500D03*
X136250000Y-93350000D03*
X136000000Y-122750000D03*
X139500000Y-77250000D03*
X137000000Y-84000000D03*
X133250000Y-108500000D03*
X135800000Y-104700000D03*
X151000000Y-76500000D03*
X160206404Y-121587192D03*
X154404500Y-101250000D03*
X164500000Y-92750000D03*
X135250000Y-85000000D03*
X168843500Y-114250000D03*
X133250000Y-93000000D03*
X160000000Y-83000000D03*
X146750000Y-116843500D03*
X127250000Y-113750000D03*
X169000000Y-101000000D03*
X149000000Y-126250000D03*
X154847613Y-98564218D03*
X127600000Y-101900000D03*
X128260193Y-103685796D03*
X147750000Y-100000000D03*
X144250000Y-83750000D03*
X152000000Y-101000000D03*
X141250000Y-94500000D03*
X131000000Y-114250000D03*
X135000000Y-119000000D03*
X164000000Y-77500000D03*
X154575000Y-102325000D03*
X163500000Y-109000000D03*
X141250000Y-114000000D03*
%TO.N,CHRG_OUT*%
X160500000Y-102500000D03*
X157000000Y-97750000D03*
X166250000Y-112250000D03*
D12*
%TO.N,/Power/CC2*%
X155750000Y-122000000D03*
X150250000Y-121993500D03*
D11*
%TO.N,/Power/CHRG_STAT*%
X152750000Y-116500000D03*
X148250000Y-115750000D03*
%TO.N,/Power/~{CHRG_PG}*%
X155250000Y-123654500D03*
X144750000Y-123750000D03*
%TO.N,REGN*%
X160750000Y-109250000D03*
X166000000Y-116750000D03*
%TO.N,NRST*%
X129750000Y-90750000D03*
X145750000Y-81000000D03*
X131750000Y-82500000D03*
%TO.N,BTN0*%
X129750000Y-91750000D03*
X132750000Y-82500000D03*
%TO.N,BTN1*%
X162500000Y-87000000D03*
X162500000Y-82500000D03*
X129750000Y-92750000D03*
X139250000Y-92750000D03*
%TO.N,BAT_SENS*%
X136750000Y-103000000D03*
X129710210Y-103000000D03*
%TO.N,PHOTO*%
X138000000Y-102500000D03*
X152000000Y-100000000D03*
X129952500Y-102000000D03*
%TO.N,Net-(V2-Pad3)*%
X170156500Y-114038350D03*
X173000000Y-116500000D03*
D12*
%TO.N,USB_D-*%
X149500000Y-113250000D03*
D11*
X152790810Y-115501600D03*
D12*
%TO.N,USB_D+*%
X149256500Y-120149502D03*
D11*
X152790810Y-114498400D03*
D12*
X150500000Y-118500000D03*
X150500000Y-113250000D03*
D11*
%TO.N,RXD*%
X136500000Y-97616500D03*
X142000000Y-104250000D03*
%TO.N,TXD*%
X140000000Y-104250000D03*
X134921284Y-98349716D03*
%TO.N,DBG_LED*%
X132000000Y-110250000D03*
X128504500Y-102250000D03*
%TO.N,Ring0_0*%
X148250000Y-76500000D03*
%TO.N,Ring0_1*%
X141000000Y-79750000D03*
%TO.N,Ring0_2*%
X137000000Y-91500000D03*
X134750000Y-83750000D03*
X133500000Y-80000000D03*
%TO.N,Ring0_3*%
X141750000Y-91439000D03*
%TO.N,Ring0_4*%
X148000000Y-92093500D03*
%TO.N,Ring0_5*%
X150000000Y-92093500D03*
X138000000Y-120250000D03*
X146995500Y-104000000D03*
%TO.N,Ring0_6*%
X152750000Y-89500000D03*
%TO.N,Ring0_7*%
X154750000Y-87500000D03*
%TO.N,Ring0_8*%
X165250000Y-86250000D03*
X172250000Y-97500000D03*
X169000000Y-86250000D03*
%TO.N,Ring0_9*%
X175000000Y-97500000D03*
%TO.N,Ring0_10*%
X169250000Y-83750000D03*
%TO.N,Ring0_11*%
X160750000Y-78750000D03*
%TO.N,Ring1_0*%
X142000000Y-81813500D03*
%TO.N,Ring1_1*%
X140000000Y-81813500D03*
%TO.N,Ring1_2*%
X135500000Y-92550000D03*
%TO.N,Ring1_3*%
X143000000Y-101750000D03*
X146000000Y-93406500D03*
X146000000Y-92093500D03*
%TO.N,Ring1_4*%
X147000000Y-92093500D03*
%TO.N,Ring1_5*%
X149000000Y-92093500D03*
%TO.N,Ring1_6*%
X151750000Y-90250000D03*
%TO.N,Ring1_7*%
X153750000Y-88750000D03*
%TO.N,Ring1_8*%
X165750000Y-97500000D03*
%TO.N,Ring1_9*%
X167500000Y-97500000D03*
%TO.N,Ring1_10*%
X155472011Y-83655931D03*
%TO.N,Ring1_11*%
X158250000Y-83000000D03*
D12*
%TO.N,VBUS_CONN*%
X148400000Y-120299502D03*
X150500000Y-120299502D03*
%TD*%
%TA.AperFunction,Conductor*%
%TO.N,3.3V*%
G36*
X150786990Y-70289237D02*
G01*
X151035186Y-70293569D01*
X151039581Y-70293723D01*
X152071255Y-70347791D01*
X152075643Y-70348097D01*
X153104873Y-70438143D01*
X153109247Y-70438603D01*
X154134667Y-70564509D01*
X154139022Y-70565121D01*
X154406860Y-70607542D01*
X155159465Y-70726743D01*
X155163750Y-70727499D01*
X156177912Y-70924632D01*
X156182192Y-70925542D01*
X156971857Y-71107850D01*
X157188867Y-71157951D01*
X157193134Y-71159015D01*
X158191084Y-71426414D01*
X158195303Y-71427625D01*
X159183269Y-71729677D01*
X159187452Y-71731036D01*
X160164301Y-72067392D01*
X160168433Y-72068896D01*
X161132925Y-72439130D01*
X161137003Y-72440777D01*
X161559920Y-72620294D01*
X162088034Y-72844465D01*
X162092025Y-72846242D01*
X163028400Y-73282881D01*
X163032292Y-73284779D01*
X163849612Y-73701225D01*
X163952856Y-73753830D01*
X163956739Y-73755895D01*
X164860341Y-74256770D01*
X164864115Y-74258949D01*
X165749721Y-74791074D01*
X165753418Y-74793385D01*
X166086836Y-75009909D01*
X166619879Y-75356072D01*
X166623524Y-75358531D01*
X167469820Y-75951112D01*
X167473370Y-75953691D01*
X168209213Y-76508188D01*
X168298489Y-76575462D01*
X168301954Y-76578170D01*
X169104832Y-77228329D01*
X169108201Y-77231156D01*
X169887890Y-77908929D01*
X169891159Y-77911871D01*
X170646787Y-78616505D01*
X170649950Y-78619561D01*
X171380439Y-79350050D01*
X171383494Y-79353212D01*
X171497910Y-79475908D01*
X172088129Y-80108841D01*
X172091071Y-80112110D01*
X172768844Y-80891799D01*
X172771671Y-80895168D01*
X173137517Y-81346949D01*
X173397000Y-81667383D01*
X173421830Y-81698046D01*
X173424536Y-81701509D01*
X174026243Y-82500000D01*
X174046303Y-82526621D01*
X174048888Y-82530180D01*
X174641469Y-83376476D01*
X174643928Y-83380121D01*
X174744559Y-83535078D01*
X175187114Y-84216551D01*
X175206605Y-84246565D01*
X175208926Y-84250279D01*
X175731327Y-85119700D01*
X175741041Y-85135867D01*
X175743230Y-85139659D01*
X176061255Y-85713391D01*
X176244105Y-86043261D01*
X176246170Y-86047144D01*
X176715221Y-86967708D01*
X176717119Y-86971600D01*
X177153752Y-87907962D01*
X177155535Y-87911966D01*
X177291413Y-88232076D01*
X177559223Y-88862997D01*
X177560870Y-88867075D01*
X177931104Y-89831567D01*
X177932608Y-89835699D01*
X178268964Y-90812548D01*
X178270323Y-90816731D01*
X178363544Y-91121643D01*
X178544996Y-91715143D01*
X178572375Y-91804697D01*
X178573586Y-91808916D01*
X178715929Y-92340150D01*
X178840985Y-92806866D01*
X178842049Y-92811133D01*
X178859908Y-92888488D01*
X179068012Y-93789883D01*
X179074456Y-93817797D01*
X179075368Y-93822088D01*
X179252327Y-94732461D01*
X179272497Y-94836227D01*
X179273257Y-94840535D01*
X179339679Y-95259909D01*
X179434879Y-95860978D01*
X179435491Y-95865333D01*
X179561397Y-96890753D01*
X179561857Y-96895127D01*
X179651903Y-97924357D01*
X179652209Y-97928745D01*
X179706277Y-98960419D01*
X179706431Y-98964814D01*
X179709283Y-99128193D01*
X179724212Y-99983451D01*
X179724462Y-99997801D01*
X179724462Y-100002177D01*
X179711715Y-100732461D01*
X179706431Y-101035186D01*
X179706277Y-101039581D01*
X179652209Y-102071255D01*
X179651903Y-102075643D01*
X179561857Y-103104873D01*
X179561397Y-103109247D01*
X179435491Y-104134667D01*
X179434879Y-104139022D01*
X179414524Y-104267539D01*
X179296188Y-105014688D01*
X179273261Y-105159442D01*
X179272501Y-105163750D01*
X179199059Y-105541578D01*
X179075370Y-106177901D01*
X179074456Y-106182203D01*
X178842049Y-107188867D01*
X178840985Y-107193134D01*
X178790358Y-107382076D01*
X178578139Y-108174092D01*
X178573588Y-108191075D01*
X178572377Y-108195295D01*
X178504642Y-108416846D01*
X178270323Y-109183269D01*
X178268964Y-109187452D01*
X177932608Y-110164301D01*
X177931104Y-110168433D01*
X177560870Y-111132925D01*
X177559223Y-111137003D01*
X177420680Y-111463391D01*
X177203130Y-111975908D01*
X177155541Y-112088020D01*
X177153758Y-112092025D01*
X176717119Y-113028400D01*
X176715221Y-113032292D01*
X176408002Y-113635243D01*
X176246170Y-113952856D01*
X176244105Y-113956739D01*
X176229463Y-113983154D01*
X175781217Y-114791812D01*
X175743240Y-114860324D01*
X175741051Y-114864115D01*
X175208936Y-115749705D01*
X175206615Y-115753418D01*
X174997587Y-116075293D01*
X174643928Y-116619879D01*
X174641469Y-116623524D01*
X174048888Y-117469820D01*
X174046309Y-117473370D01*
X173443323Y-118273560D01*
X173424538Y-118298489D01*
X173421830Y-118301954D01*
X172771671Y-119104832D01*
X172768844Y-119108201D01*
X172091071Y-119887890D01*
X172088129Y-119891159D01*
X171991440Y-119994845D01*
X171410710Y-120617603D01*
X171383495Y-120646787D01*
X171380439Y-120649950D01*
X170649950Y-121380439D01*
X170646788Y-121383494D01*
X170324715Y-121683832D01*
X169891159Y-122088129D01*
X169887890Y-122091071D01*
X169108201Y-122768844D01*
X169104832Y-122771671D01*
X168345014Y-123386961D01*
X168301954Y-123421830D01*
X168298491Y-123424536D01*
X167484553Y-124037883D01*
X167473379Y-124046303D01*
X167469820Y-124048888D01*
X166623524Y-124641469D01*
X166619879Y-124643928D01*
X166296578Y-124853883D01*
X165753418Y-125206615D01*
X165749721Y-125208926D01*
X165547193Y-125330617D01*
X165314115Y-125470664D01*
X165245422Y-125488604D01*
X165177935Y-125466557D01*
X165133081Y-125411525D01*
X165125100Y-125340978D01*
X165149257Y-125285959D01*
X165163391Y-125267539D01*
X165216846Y-125138488D01*
X165235078Y-125000000D01*
X165216846Y-124861512D01*
X165163391Y-124732461D01*
X165078357Y-124621643D01*
X164967539Y-124536609D01*
X164838488Y-124483154D01*
X164700000Y-124464922D01*
X164561512Y-124483154D01*
X164432461Y-124536609D01*
X164321643Y-124621643D01*
X164236609Y-124732461D01*
X164183154Y-124861512D01*
X164164922Y-125000000D01*
X164183154Y-125138488D01*
X164236609Y-125267539D01*
X164321643Y-125378357D01*
X164432461Y-125463391D01*
X164561512Y-125516846D01*
X164700000Y-125535078D01*
X164708188Y-125534000D01*
X164708190Y-125534000D01*
X164744789Y-125529182D01*
X164814938Y-125540122D01*
X164868036Y-125587250D01*
X164887225Y-125655605D01*
X164866413Y-125723482D01*
X164822321Y-125764305D01*
X164430421Y-125981539D01*
X163956739Y-126244105D01*
X163952856Y-126246170D01*
X163947149Y-126249078D01*
X163032292Y-126715221D01*
X163028400Y-126717119D01*
X162092025Y-127153758D01*
X162088034Y-127155535D01*
X161559920Y-127379706D01*
X161137003Y-127559223D01*
X161132925Y-127560870D01*
X160168433Y-127931104D01*
X160164301Y-127932608D01*
X159187452Y-128268964D01*
X159183269Y-128270323D01*
X158195303Y-128572375D01*
X158191084Y-128573586D01*
X157499826Y-128758807D01*
X157193134Y-128840985D01*
X157188867Y-128842049D01*
X156182192Y-129074458D01*
X156177912Y-129075368D01*
X155163750Y-129272501D01*
X155159465Y-129273257D01*
X154479347Y-129380977D01*
X154139022Y-129434879D01*
X154134667Y-129435491D01*
X153109247Y-129561397D01*
X153104873Y-129561857D01*
X152075643Y-129651903D01*
X152071255Y-129652209D01*
X151039581Y-129706277D01*
X151035186Y-129706431D01*
X150786990Y-129710763D01*
X150002177Y-129724462D01*
X149997823Y-129724462D01*
X149213010Y-129710763D01*
X148964814Y-129706431D01*
X148960419Y-129706277D01*
X147928745Y-129652209D01*
X147924357Y-129651903D01*
X146895127Y-129561857D01*
X146890753Y-129561397D01*
X145865333Y-129435491D01*
X145860978Y-129434879D01*
X145520653Y-129380977D01*
X144840535Y-129273257D01*
X144836250Y-129272501D01*
X143822088Y-129075368D01*
X143817808Y-129074458D01*
X142811133Y-128842049D01*
X142806866Y-128840985D01*
X142500174Y-128758807D01*
X141808916Y-128573586D01*
X141804697Y-128572375D01*
X140816731Y-128270323D01*
X140812548Y-128268964D01*
X139835699Y-127932608D01*
X139831567Y-127931104D01*
X139011769Y-127616413D01*
X144979500Y-127616413D01*
X144980082Y-127620658D01*
X144980082Y-127620665D01*
X144986096Y-127664566D01*
X144994238Y-127724003D01*
X144997650Y-127731887D01*
X144997650Y-127731888D01*
X145048552Y-127849516D01*
X145048554Y-127849519D01*
X145051963Y-127857397D01*
X145143433Y-127970354D01*
X145261911Y-128054551D01*
X145398666Y-128103786D01*
X145407226Y-128104415D01*
X145407228Y-128104415D01*
X145482201Y-128109920D01*
X145543624Y-128114431D01*
X145686104Y-128085702D01*
X145815610Y-128019716D01*
X145876551Y-127963678D01*
X145916274Y-127927151D01*
X145922601Y-127921333D01*
X145999193Y-127797803D01*
X146039743Y-127658226D01*
X146040500Y-127647918D01*
X146040500Y-127616413D01*
X153959500Y-127616413D01*
X153960082Y-127620658D01*
X153960082Y-127620665D01*
X153966096Y-127664566D01*
X153974238Y-127724003D01*
X153977650Y-127731887D01*
X153977650Y-127731888D01*
X154028552Y-127849516D01*
X154028554Y-127849519D01*
X154031963Y-127857397D01*
X154123433Y-127970354D01*
X154241911Y-128054551D01*
X154378666Y-128103786D01*
X154387226Y-128104415D01*
X154387228Y-128104415D01*
X154462201Y-128109920D01*
X154523624Y-128114431D01*
X154666104Y-128085702D01*
X154795610Y-128019716D01*
X154856551Y-127963678D01*
X154896274Y-127927151D01*
X154902601Y-127921333D01*
X154979193Y-127797803D01*
X155019743Y-127658226D01*
X155020500Y-127647918D01*
X155020500Y-126943587D01*
X155016185Y-126912082D01*
X155006928Y-126844511D01*
X155005762Y-126835997D01*
X154973826Y-126762197D01*
X154951448Y-126710484D01*
X154951446Y-126710481D01*
X154948037Y-126702603D01*
X154856567Y-126589646D01*
X154738089Y-126505449D01*
X154601334Y-126456214D01*
X154592774Y-126455585D01*
X154592772Y-126455585D01*
X154517799Y-126450080D01*
X154456376Y-126445569D01*
X154313896Y-126474298D01*
X154184390Y-126540284D01*
X154077399Y-126638667D01*
X154000807Y-126762197D01*
X153960257Y-126901774D01*
X153959500Y-126912082D01*
X153959500Y-127616413D01*
X146040500Y-127616413D01*
X146040500Y-126943587D01*
X146036185Y-126912082D01*
X146026928Y-126844511D01*
X146025762Y-126835997D01*
X145993826Y-126762197D01*
X145971448Y-126710484D01*
X145971446Y-126710481D01*
X145968037Y-126702603D01*
X145876567Y-126589646D01*
X145758089Y-126505449D01*
X145621334Y-126456214D01*
X145612774Y-126455585D01*
X145612772Y-126455585D01*
X145537799Y-126450080D01*
X145476376Y-126445569D01*
X145333896Y-126474298D01*
X145204390Y-126540284D01*
X145097399Y-126638667D01*
X145020807Y-126762197D01*
X144980257Y-126901774D01*
X144979500Y-126912082D01*
X144979500Y-127616413D01*
X139011769Y-127616413D01*
X138867075Y-127560870D01*
X138862997Y-127559223D01*
X138440080Y-127379706D01*
X137911966Y-127155535D01*
X137907975Y-127153758D01*
X136971600Y-126717119D01*
X136967708Y-126715221D01*
X136052851Y-126249078D01*
X136047144Y-126246170D01*
X136043261Y-126244105D01*
X135569579Y-125981539D01*
X135139659Y-125743230D01*
X135135885Y-125741051D01*
X135090865Y-125714000D01*
X159678922Y-125714000D01*
X159697154Y-125852488D01*
X159750609Y-125981539D01*
X159835643Y-126092357D01*
X159946461Y-126177391D01*
X160075512Y-126230846D01*
X160214000Y-126249078D01*
X160222188Y-126248000D01*
X160344300Y-126231924D01*
X160352488Y-126230846D01*
X160481539Y-126177391D01*
X160592357Y-126092357D01*
X160677391Y-125981539D01*
X160730846Y-125852488D01*
X160749078Y-125714000D01*
X160730846Y-125575512D01*
X160677391Y-125446461D01*
X160592357Y-125335643D01*
X160481539Y-125250609D01*
X160352488Y-125197154D01*
X160214000Y-125178922D01*
X160075512Y-125197154D01*
X159946461Y-125250609D01*
X159835643Y-125335643D01*
X159750609Y-125446461D01*
X159697154Y-125575512D01*
X159678922Y-125714000D01*
X135090865Y-125714000D01*
X134250279Y-125208926D01*
X134246582Y-125206615D01*
X133703422Y-124853883D01*
X133380121Y-124643928D01*
X133376476Y-124641469D01*
X132530180Y-124048888D01*
X132526621Y-124046303D01*
X132515448Y-124037883D01*
X132133414Y-123750000D01*
X144214922Y-123750000D01*
X144233154Y-123888488D01*
X144286609Y-124017539D01*
X144371643Y-124128357D01*
X144482461Y-124213391D01*
X144611512Y-124266846D01*
X144750000Y-124285078D01*
X144758188Y-124284000D01*
X144880300Y-124267924D01*
X144888488Y-124266846D01*
X145017539Y-124213391D01*
X145128357Y-124128357D01*
X145213391Y-124017539D01*
X145266846Y-123888488D01*
X145285078Y-123750000D01*
X145272505Y-123654500D01*
X154714922Y-123654500D01*
X154733154Y-123792988D01*
X154786609Y-123922039D01*
X154871643Y-124032857D01*
X154982461Y-124117891D01*
X155111512Y-124171346D01*
X155250000Y-124189578D01*
X155258188Y-124188500D01*
X155380300Y-124172424D01*
X155388488Y-124171346D01*
X155517539Y-124117891D01*
X155628357Y-124032857D01*
X155713391Y-123922039D01*
X155766846Y-123792988D01*
X155785078Y-123654500D01*
X155766846Y-123516012D01*
X155713391Y-123386961D01*
X155628357Y-123276143D01*
X155517539Y-123191109D01*
X155388488Y-123137654D01*
X155250000Y-123119422D01*
X155111512Y-123137654D01*
X154982461Y-123191109D01*
X154871643Y-123276143D01*
X154786609Y-123386961D01*
X154733154Y-123516012D01*
X154714922Y-123654500D01*
X145272505Y-123654500D01*
X145266846Y-123611512D01*
X145213391Y-123482461D01*
X145128357Y-123371643D01*
X145017539Y-123286609D01*
X144888488Y-123233154D01*
X144750000Y-123214922D01*
X144611512Y-123233154D01*
X144482461Y-123286609D01*
X144371643Y-123371643D01*
X144286609Y-123482461D01*
X144233154Y-123611512D01*
X144214922Y-123750000D01*
X132133414Y-123750000D01*
X131701509Y-123424536D01*
X131698046Y-123421830D01*
X131654987Y-123386961D01*
X130895168Y-122771671D01*
X130891799Y-122768844D01*
X130112110Y-122091071D01*
X130108841Y-122088129D01*
X129675285Y-121683832D01*
X129585386Y-121600000D01*
X139890422Y-121600000D01*
X139908654Y-121738488D01*
X139962109Y-121867539D01*
X140047143Y-121978357D01*
X140157961Y-122063391D01*
X140287012Y-122116846D01*
X140295200Y-122117924D01*
X140324695Y-122121807D01*
X140425500Y-122135078D01*
X140433688Y-122134000D01*
X140555800Y-122117924D01*
X140563988Y-122116846D01*
X140693039Y-122063391D01*
X140803857Y-121978357D01*
X140888891Y-121867539D01*
X140937578Y-121750000D01*
X143464922Y-121750000D01*
X143483154Y-121888488D01*
X143536609Y-122017539D01*
X143621643Y-122128357D01*
X143732461Y-122213391D01*
X143861512Y-122266846D01*
X144000000Y-122285078D01*
X144008188Y-122284000D01*
X144130300Y-122267924D01*
X144138488Y-122266846D01*
X144267539Y-122213391D01*
X144378357Y-122128357D01*
X144463391Y-122017539D01*
X144516846Y-121888488D01*
X144535078Y-121750000D01*
X144524074Y-121666413D01*
X145339500Y-121666413D01*
X145340082Y-121670658D01*
X145340082Y-121670665D01*
X145344326Y-121701645D01*
X145354238Y-121774003D01*
X145357650Y-121781887D01*
X145357650Y-121781888D01*
X145408552Y-121899516D01*
X145408554Y-121899519D01*
X145411963Y-121907397D01*
X145503433Y-122020354D01*
X145510435Y-122025330D01*
X145510436Y-122025331D01*
X145564707Y-122063899D01*
X145621911Y-122104551D01*
X145758666Y-122153786D01*
X145767226Y-122154415D01*
X145767228Y-122154415D01*
X145842046Y-122159909D01*
X145903624Y-122164431D01*
X146046104Y-122135702D01*
X146175610Y-122069716D01*
X146276821Y-121976648D01*
X146340503Y-121945262D01*
X146411045Y-121953288D01*
X146466049Y-121998177D01*
X146482576Y-122034095D01*
X146483154Y-122038488D01*
X146536609Y-122167539D01*
X146621643Y-122278357D01*
X146732461Y-122363391D01*
X146861512Y-122416846D01*
X147000000Y-122435078D01*
X147008188Y-122434000D01*
X147130300Y-122417924D01*
X147138488Y-122416846D01*
X147267539Y-122363391D01*
X147378357Y-122278357D01*
X147463391Y-122167539D01*
X147516846Y-122038488D01*
X147522769Y-121993500D01*
X149864757Y-121993500D01*
X149866308Y-122003293D01*
X149880211Y-122091071D01*
X149883612Y-122112547D01*
X149938332Y-122219940D01*
X150023560Y-122305168D01*
X150130953Y-122359888D01*
X150140742Y-122361438D01*
X150140744Y-122361439D01*
X150240207Y-122377192D01*
X150250000Y-122378743D01*
X150259793Y-122377192D01*
X150359256Y-122361439D01*
X150359258Y-122361438D01*
X150369047Y-122359888D01*
X150476440Y-122305168D01*
X150561668Y-122219940D01*
X150616388Y-122112547D01*
X150619790Y-122091071D01*
X150633692Y-122003293D01*
X150635243Y-121993500D01*
X150620434Y-121900000D01*
X151964922Y-121900000D01*
X151983154Y-122038488D01*
X152036609Y-122167539D01*
X152121643Y-122278357D01*
X152232461Y-122363391D01*
X152361512Y-122416846D01*
X152500000Y-122435078D01*
X152508188Y-122434000D01*
X152630300Y-122417924D01*
X152638488Y-122416846D01*
X152767539Y-122363391D01*
X152878357Y-122278357D01*
X152963391Y-122167539D01*
X153016846Y-122038488D01*
X153035078Y-121900000D01*
X153016846Y-121761512D01*
X152963391Y-121632461D01*
X152878357Y-121521643D01*
X152767539Y-121436609D01*
X152638488Y-121383154D01*
X152500000Y-121364922D01*
X152361512Y-121383154D01*
X152232461Y-121436609D01*
X152121643Y-121521643D01*
X152036609Y-121632461D01*
X151983154Y-121761512D01*
X151964922Y-121900000D01*
X150620434Y-121900000D01*
X150619819Y-121896117D01*
X150617939Y-121884244D01*
X150617938Y-121884242D01*
X150616388Y-121874453D01*
X150561668Y-121767060D01*
X150476440Y-121681832D01*
X150369047Y-121627112D01*
X150359258Y-121625562D01*
X150359256Y-121625561D01*
X150259793Y-121609808D01*
X150250000Y-121608257D01*
X150240207Y-121609808D01*
X150140744Y-121625561D01*
X150140742Y-121625562D01*
X150130953Y-121627112D01*
X150023560Y-121681832D01*
X149938332Y-121767060D01*
X149883612Y-121874453D01*
X149882062Y-121884242D01*
X149882061Y-121884244D01*
X149880181Y-121896117D01*
X149864757Y-121993500D01*
X147522769Y-121993500D01*
X147535078Y-121900000D01*
X147516846Y-121761512D01*
X147463391Y-121632461D01*
X147378357Y-121521643D01*
X147267539Y-121436609D01*
X147138488Y-121383154D01*
X147000000Y-121364922D01*
X146861512Y-121383154D01*
X146732461Y-121436609D01*
X146621643Y-121521643D01*
X146616617Y-121528193D01*
X146615595Y-121529215D01*
X146553283Y-121563241D01*
X146482468Y-121558176D01*
X146425632Y-121515629D01*
X146400821Y-121449109D01*
X146400500Y-121440120D01*
X146400500Y-120993587D01*
X146397157Y-120969177D01*
X146386928Y-120894511D01*
X146385762Y-120885997D01*
X146362131Y-120831389D01*
X146353434Y-120760929D01*
X146384211Y-120696950D01*
X146444693Y-120659768D01*
X146461322Y-120656427D01*
X146543092Y-120645662D01*
X146551280Y-120644584D01*
X146692250Y-120586192D01*
X146775123Y-120522601D01*
X146808842Y-120496728D01*
X146875062Y-120471128D01*
X146944611Y-120485393D01*
X146985524Y-120520930D01*
X146988332Y-120526440D01*
X147073560Y-120611668D01*
X147180953Y-120666388D01*
X147190742Y-120667938D01*
X147190744Y-120667939D01*
X147290207Y-120683692D01*
X147300000Y-120685243D01*
X147309793Y-120683692D01*
X147409256Y-120667939D01*
X147409258Y-120667938D01*
X147419047Y-120666388D01*
X147526440Y-120611668D01*
X147611668Y-120526440D01*
X147666388Y-120419047D01*
X147668693Y-120404498D01*
X147683692Y-120309793D01*
X147685243Y-120300000D01*
X147685164Y-120299502D01*
X148014757Y-120299502D01*
X148016308Y-120309295D01*
X148031387Y-120404498D01*
X148033612Y-120418549D01*
X148088332Y-120525942D01*
X148173560Y-120611170D01*
X148280953Y-120665890D01*
X148290742Y-120667440D01*
X148290744Y-120667441D01*
X148390207Y-120683194D01*
X148400000Y-120684745D01*
X148409793Y-120683194D01*
X148509256Y-120667441D01*
X148509258Y-120667440D01*
X148519047Y-120665890D01*
X148626440Y-120611170D01*
X148711668Y-120525942D01*
X148719838Y-120509909D01*
X148762269Y-120426633D01*
X148811018Y-120375018D01*
X148879933Y-120357952D01*
X148947134Y-120380853D01*
X148963631Y-120394741D01*
X149030060Y-120461170D01*
X149137453Y-120515890D01*
X149147242Y-120517440D01*
X149147244Y-120517441D01*
X149246707Y-120533194D01*
X149256500Y-120534745D01*
X149266293Y-120533194D01*
X149365756Y-120517441D01*
X149365758Y-120517440D01*
X149375547Y-120515890D01*
X149482940Y-120461170D01*
X149568168Y-120375942D01*
X149607117Y-120299502D01*
X150114757Y-120299502D01*
X150116308Y-120309295D01*
X150131387Y-120404498D01*
X150133612Y-120418549D01*
X150188332Y-120525942D01*
X150273560Y-120611170D01*
X150380953Y-120665890D01*
X150390742Y-120667440D01*
X150390744Y-120667441D01*
X150490207Y-120683194D01*
X150500000Y-120684745D01*
X150509793Y-120683194D01*
X150609256Y-120667441D01*
X150609258Y-120667440D01*
X150619047Y-120665890D01*
X150726440Y-120611170D01*
X150811668Y-120525942D01*
X150866388Y-120418549D01*
X150868614Y-120404498D01*
X150869326Y-120400000D01*
X152114757Y-120400000D01*
X152116308Y-120409793D01*
X152131489Y-120505641D01*
X152133612Y-120519047D01*
X152188332Y-120626440D01*
X152273560Y-120711668D01*
X152380953Y-120766388D01*
X152390742Y-120767938D01*
X152390744Y-120767939D01*
X152490207Y-120783692D01*
X152500000Y-120785243D01*
X152509793Y-120783692D01*
X152609256Y-120767939D01*
X152609258Y-120767938D01*
X152619047Y-120766388D01*
X152726440Y-120711668D01*
X152811668Y-120626440D01*
X152816169Y-120617607D01*
X152816172Y-120617603D01*
X152854910Y-120541576D01*
X152903658Y-120489961D01*
X152972573Y-120472895D01*
X153043880Y-120498817D01*
X153151194Y-120581162D01*
X153151197Y-120581164D01*
X153157750Y-120586192D01*
X153298720Y-120644584D01*
X153306908Y-120645662D01*
X153388678Y-120656427D01*
X153412020Y-120659500D01*
X153517354Y-120659500D01*
X153585475Y-120679502D01*
X153631968Y-120733158D01*
X153642072Y-120803432D01*
X153638352Y-120820647D01*
X153600257Y-120951774D01*
X153599500Y-120962082D01*
X153599500Y-121666413D01*
X153600082Y-121670658D01*
X153600082Y-121670665D01*
X153604326Y-121701645D01*
X153614238Y-121774003D01*
X153617650Y-121781887D01*
X153617650Y-121781888D01*
X153668552Y-121899516D01*
X153668554Y-121899519D01*
X153671963Y-121907397D01*
X153763433Y-122020354D01*
X153770435Y-122025330D01*
X153770436Y-122025331D01*
X153824707Y-122063899D01*
X153881911Y-122104551D01*
X154018666Y-122153786D01*
X154027226Y-122154415D01*
X154027228Y-122154415D01*
X154102046Y-122159909D01*
X154163624Y-122164431D01*
X154306104Y-122135702D01*
X154435610Y-122069716D01*
X154511426Y-122000000D01*
X155364757Y-122000000D01*
X155366308Y-122009793D01*
X155376417Y-122073617D01*
X155383612Y-122119047D01*
X155438332Y-122226440D01*
X155523560Y-122311668D01*
X155630953Y-122366388D01*
X155640742Y-122367938D01*
X155640744Y-122367939D01*
X155740207Y-122383692D01*
X155750000Y-122385243D01*
X155759793Y-122383692D01*
X155859256Y-122367939D01*
X155859258Y-122367938D01*
X155869047Y-122366388D01*
X155976440Y-122311668D01*
X156061668Y-122226440D01*
X156116388Y-122119047D01*
X156123584Y-122073617D01*
X156133692Y-122009793D01*
X156135243Y-122000000D01*
X156133692Y-121990207D01*
X156117939Y-121890744D01*
X156117938Y-121890742D01*
X156116388Y-121880953D01*
X156061668Y-121773560D01*
X155976440Y-121688332D01*
X155869047Y-121633612D01*
X155859258Y-121632062D01*
X155859256Y-121632061D01*
X155759793Y-121616308D01*
X155750000Y-121614757D01*
X155740207Y-121616308D01*
X155640744Y-121632061D01*
X155640742Y-121632062D01*
X155630953Y-121633612D01*
X155523560Y-121688332D01*
X155438332Y-121773560D01*
X155383612Y-121880953D01*
X155382062Y-121890742D01*
X155382061Y-121890744D01*
X155366308Y-121990207D01*
X155364757Y-122000000D01*
X154511426Y-122000000D01*
X154542601Y-121971333D01*
X154553790Y-121953288D01*
X154614666Y-121855104D01*
X154619193Y-121847803D01*
X154659743Y-121708226D01*
X154660500Y-121697918D01*
X154660500Y-120993587D01*
X154657157Y-120969177D01*
X154646928Y-120894511D01*
X154645762Y-120885997D01*
X154630500Y-120850729D01*
X154591448Y-120760484D01*
X154591446Y-120760481D01*
X154588037Y-120752603D01*
X154496567Y-120639646D01*
X154477985Y-120626440D01*
X154427862Y-120590820D01*
X163754027Y-120590820D01*
X163755105Y-120599008D01*
X163770580Y-120716551D01*
X163772259Y-120729308D01*
X163825714Y-120858359D01*
X163910748Y-120969177D01*
X164021566Y-121054211D01*
X164150617Y-121107666D01*
X164289105Y-121125898D01*
X164297293Y-121124820D01*
X164419405Y-121108744D01*
X164427593Y-121107666D01*
X164556644Y-121054211D01*
X164667462Y-120969177D01*
X164752496Y-120858359D01*
X164805951Y-120729308D01*
X164807631Y-120716551D01*
X164823105Y-120599008D01*
X164824183Y-120590820D01*
X164810905Y-120489961D01*
X164807029Y-120460520D01*
X164805951Y-120452332D01*
X164752496Y-120323281D01*
X164667462Y-120212463D01*
X164556644Y-120127429D01*
X164427593Y-120073974D01*
X164289105Y-120055742D01*
X164150617Y-120073974D01*
X164021566Y-120127429D01*
X163910748Y-120212463D01*
X163825714Y-120323281D01*
X163772259Y-120452332D01*
X163771181Y-120460520D01*
X163767305Y-120489961D01*
X163754027Y-120590820D01*
X154427862Y-120590820D01*
X154385091Y-120560425D01*
X154378089Y-120555449D01*
X154330248Y-120538225D01*
X154272930Y-120496329D01*
X154247362Y-120430097D01*
X154256521Y-120371456D01*
X154311424Y-120238909D01*
X154311425Y-120238906D01*
X154314584Y-120231280D01*
X154334500Y-120080000D01*
X154322366Y-119987834D01*
X154315662Y-119936908D01*
X154314584Y-119928720D01*
X154309237Y-119915810D01*
X154298369Y-119889573D01*
X154256192Y-119787750D01*
X154163304Y-119666696D01*
X154042250Y-119573808D01*
X153901280Y-119515416D01*
X153787980Y-119500500D01*
X153412020Y-119500500D01*
X153298720Y-119515416D01*
X153157750Y-119573808D01*
X153036696Y-119666696D01*
X152943808Y-119787750D01*
X152901631Y-119889573D01*
X152890764Y-119915810D01*
X152885416Y-119928720D01*
X152884338Y-119936908D01*
X152879001Y-119977447D01*
X152850279Y-120042374D01*
X152791013Y-120081466D01*
X152720022Y-120082311D01*
X152696876Y-120073268D01*
X152636243Y-120042374D01*
X152619047Y-120033612D01*
X152609258Y-120032062D01*
X152609256Y-120032061D01*
X152509793Y-120016308D01*
X152500000Y-120014757D01*
X152490207Y-120016308D01*
X152390744Y-120032061D01*
X152390742Y-120032062D01*
X152380953Y-120033612D01*
X152273560Y-120088332D01*
X152188332Y-120173560D01*
X152133612Y-120280953D01*
X152132062Y-120290742D01*
X152132061Y-120290744D01*
X152117457Y-120382953D01*
X152114757Y-120400000D01*
X150869326Y-120400000D01*
X150883692Y-120309295D01*
X150885243Y-120299502D01*
X150871458Y-120212463D01*
X150867939Y-120190246D01*
X150867938Y-120190244D01*
X150866388Y-120180455D01*
X150811668Y-120073062D01*
X150726440Y-119987834D01*
X150619047Y-119933114D01*
X150609258Y-119931564D01*
X150609256Y-119931563D01*
X150509793Y-119915810D01*
X150500000Y-119914259D01*
X150490207Y-119915810D01*
X150390744Y-119931563D01*
X150390742Y-119931564D01*
X150380953Y-119933114D01*
X150273560Y-119987834D01*
X150188332Y-120073062D01*
X150133612Y-120180455D01*
X150132062Y-120190244D01*
X150132061Y-120190246D01*
X150128542Y-120212463D01*
X150114757Y-120299502D01*
X149607117Y-120299502D01*
X149622888Y-120268549D01*
X149627583Y-120238909D01*
X149640192Y-120159295D01*
X149641743Y-120149502D01*
X149629438Y-120071812D01*
X149624439Y-120040246D01*
X149624438Y-120040244D01*
X149622888Y-120030455D01*
X149568168Y-119923062D01*
X149482940Y-119837834D01*
X149375547Y-119783114D01*
X149365758Y-119781564D01*
X149365756Y-119781563D01*
X149266293Y-119765810D01*
X149256500Y-119764259D01*
X149246707Y-119765810D01*
X149147244Y-119781563D01*
X149147242Y-119781564D01*
X149137453Y-119783114D01*
X149030060Y-119837834D01*
X148944832Y-119923062D01*
X148940332Y-119931894D01*
X148940331Y-119931895D01*
X148894231Y-120022371D01*
X148845482Y-120073986D01*
X148776567Y-120091052D01*
X148709366Y-120068151D01*
X148692869Y-120054263D01*
X148626440Y-119987834D01*
X148519047Y-119933114D01*
X148509258Y-119931564D01*
X148509256Y-119931563D01*
X148409793Y-119915810D01*
X148400000Y-119914259D01*
X148390207Y-119915810D01*
X148290744Y-119931563D01*
X148290742Y-119931564D01*
X148280953Y-119933114D01*
X148173560Y-119987834D01*
X148088332Y-120073062D01*
X148033612Y-120180455D01*
X148032062Y-120190244D01*
X148032061Y-120190246D01*
X148028542Y-120212463D01*
X148014757Y-120299502D01*
X147685164Y-120299502D01*
X147666388Y-120180953D01*
X147611668Y-120073560D01*
X147526440Y-119988332D01*
X147419047Y-119933612D01*
X147409258Y-119932062D01*
X147409256Y-119932061D01*
X147309793Y-119916308D01*
X147300000Y-119914757D01*
X147290207Y-119916308D01*
X147190744Y-119932061D01*
X147190742Y-119932062D01*
X147180953Y-119933612D01*
X147172122Y-119938112D01*
X147172118Y-119938113D01*
X147125415Y-119961910D01*
X147055638Y-119975015D01*
X146989853Y-119948315D01*
X146951802Y-119897862D01*
X146906192Y-119787750D01*
X146813304Y-119666696D01*
X146692250Y-119573808D01*
X146551280Y-119515416D01*
X146437980Y-119500500D01*
X146362020Y-119500500D01*
X146248720Y-119515416D01*
X146107750Y-119573808D01*
X145986696Y-119666696D01*
X145893808Y-119787750D01*
X145851631Y-119889573D01*
X145840764Y-119915810D01*
X145835416Y-119928720D01*
X145834338Y-119936908D01*
X145827634Y-119987834D01*
X145815500Y-120080000D01*
X145835416Y-120231280D01*
X145877927Y-120333911D01*
X145885516Y-120404498D01*
X145853737Y-120467985D01*
X145786423Y-120505641D01*
X145749318Y-120513123D01*
X145693896Y-120524298D01*
X145564390Y-120590284D01*
X145558064Y-120596101D01*
X145488827Y-120659768D01*
X145457399Y-120688667D01*
X145452871Y-120695969D01*
X145452870Y-120695971D01*
X145440110Y-120716551D01*
X145380807Y-120812197D01*
X145378411Y-120820446D01*
X145378410Y-120820447D01*
X145375231Y-120831390D01*
X145340257Y-120951774D01*
X145339500Y-120962082D01*
X145339500Y-121666413D01*
X144524074Y-121666413D01*
X144520348Y-121638113D01*
X144517924Y-121619700D01*
X144516846Y-121611512D01*
X144463391Y-121482461D01*
X144378357Y-121371643D01*
X144267539Y-121286609D01*
X144138488Y-121233154D01*
X144000000Y-121214922D01*
X143861512Y-121233154D01*
X143732461Y-121286609D01*
X143621643Y-121371643D01*
X143536609Y-121482461D01*
X143483154Y-121611512D01*
X143482076Y-121619700D01*
X143479652Y-121638113D01*
X143464922Y-121750000D01*
X140937578Y-121750000D01*
X140942346Y-121738488D01*
X140960578Y-121600000D01*
X140942346Y-121461512D01*
X140937209Y-121449109D01*
X140907834Y-121378193D01*
X140888891Y-121332461D01*
X140803857Y-121221643D01*
X140693039Y-121136609D01*
X140563988Y-121083154D01*
X140425500Y-121064922D01*
X140287012Y-121083154D01*
X140157961Y-121136609D01*
X140047143Y-121221643D01*
X139962109Y-121332461D01*
X139943166Y-121378193D01*
X139913792Y-121449109D01*
X139908654Y-121461512D01*
X139890422Y-121600000D01*
X129585386Y-121600000D01*
X129353212Y-121383494D01*
X129350050Y-121380439D01*
X128619561Y-120649950D01*
X128616505Y-120646787D01*
X128589291Y-120617603D01*
X128246496Y-120250000D01*
X137464922Y-120250000D01*
X137483154Y-120388488D01*
X137536609Y-120517539D01*
X137621643Y-120628357D01*
X137732461Y-120713391D01*
X137861512Y-120766846D01*
X138000000Y-120785078D01*
X138008188Y-120784000D01*
X138130300Y-120767924D01*
X138138488Y-120766846D01*
X138267539Y-120713391D01*
X138378357Y-120628357D01*
X138463391Y-120517539D01*
X138516846Y-120388488D01*
X138535078Y-120250000D01*
X138519604Y-120132458D01*
X138517924Y-120119700D01*
X138516846Y-120111512D01*
X138463391Y-119982461D01*
X138378357Y-119871643D01*
X138267539Y-119786609D01*
X138138488Y-119733154D01*
X138000000Y-119714922D01*
X137861512Y-119733154D01*
X137732461Y-119786609D01*
X137621643Y-119871643D01*
X137536609Y-119982461D01*
X137483154Y-120111512D01*
X137482076Y-120119700D01*
X137480396Y-120132458D01*
X137464922Y-120250000D01*
X128246496Y-120250000D01*
X128008560Y-119994845D01*
X127911871Y-119891159D01*
X127908929Y-119887890D01*
X127231156Y-119108201D01*
X127228329Y-119104832D01*
X127143438Y-119000000D01*
X128964922Y-119000000D01*
X128983154Y-119138488D01*
X129036609Y-119267539D01*
X129121643Y-119378357D01*
X129232461Y-119463391D01*
X129361512Y-119516846D01*
X129500000Y-119535078D01*
X129508188Y-119534000D01*
X129630300Y-119517924D01*
X129638488Y-119516846D01*
X129767539Y-119463391D01*
X129878357Y-119378357D01*
X129963391Y-119267539D01*
X130016846Y-119138488D01*
X130035078Y-119000000D01*
X130016846Y-118861512D01*
X129963391Y-118732461D01*
X129878357Y-118621643D01*
X129850151Y-118600000D01*
X146714922Y-118600000D01*
X146733154Y-118738488D01*
X146786609Y-118867539D01*
X146871643Y-118978357D01*
X146982461Y-119063391D01*
X147111512Y-119116846D01*
X147250000Y-119135078D01*
X147258188Y-119134000D01*
X147380300Y-119117924D01*
X147388488Y-119116846D01*
X147517539Y-119063391D01*
X147628357Y-118978357D01*
X147713391Y-118867539D01*
X147766846Y-118738488D01*
X147785078Y-118600000D01*
X147771913Y-118500000D01*
X150114757Y-118500000D01*
X150133612Y-118619047D01*
X150188332Y-118726440D01*
X150273560Y-118811668D01*
X150380953Y-118866388D01*
X150390742Y-118867938D01*
X150390744Y-118867939D01*
X150490207Y-118883692D01*
X150500000Y-118885243D01*
X150509793Y-118883692D01*
X150609256Y-118867939D01*
X150609258Y-118867938D01*
X150619047Y-118866388D01*
X150726440Y-118811668D01*
X150811668Y-118726440D01*
X150866388Y-118619047D01*
X150869405Y-118600000D01*
X152214922Y-118600000D01*
X152233154Y-118738488D01*
X152286609Y-118867539D01*
X152371643Y-118978357D01*
X152482461Y-119063391D01*
X152611512Y-119116846D01*
X152750000Y-119135078D01*
X152758188Y-119134000D01*
X152880300Y-119117924D01*
X152888488Y-119116846D01*
X153017539Y-119063391D01*
X153100151Y-119000000D01*
X163664922Y-119000000D01*
X163683154Y-119138488D01*
X163736609Y-119267539D01*
X163821643Y-119378357D01*
X163932461Y-119463391D01*
X164061512Y-119516846D01*
X164200000Y-119535078D01*
X164208188Y-119534000D01*
X164330300Y-119517924D01*
X164338488Y-119516846D01*
X164467539Y-119463391D01*
X164578357Y-119378357D01*
X164663391Y-119267539D01*
X164716846Y-119138488D01*
X164735078Y-119000000D01*
X164716846Y-118861512D01*
X164663391Y-118732461D01*
X164578357Y-118621643D01*
X164467539Y-118536609D01*
X164338488Y-118483154D01*
X164200000Y-118464922D01*
X164061512Y-118483154D01*
X163932461Y-118536609D01*
X163821643Y-118621643D01*
X163736609Y-118732461D01*
X163683154Y-118861512D01*
X163664922Y-119000000D01*
X153100151Y-119000000D01*
X153128357Y-118978357D01*
X153213391Y-118867539D01*
X153266846Y-118738488D01*
X153285078Y-118600000D01*
X153266846Y-118461512D01*
X153213391Y-118332461D01*
X153128357Y-118221643D01*
X153017539Y-118136609D01*
X152888488Y-118083154D01*
X152750000Y-118064922D01*
X152611512Y-118083154D01*
X152482461Y-118136609D01*
X152371643Y-118221643D01*
X152286609Y-118332461D01*
X152233154Y-118461512D01*
X152214922Y-118600000D01*
X150869405Y-118600000D01*
X150885243Y-118500000D01*
X150866388Y-118380953D01*
X150811668Y-118273560D01*
X150726440Y-118188332D01*
X150619047Y-118133612D01*
X150609258Y-118132062D01*
X150609256Y-118132061D01*
X150509793Y-118116308D01*
X150500000Y-118114757D01*
X150490207Y-118116308D01*
X150390744Y-118132061D01*
X150390742Y-118132062D01*
X150380953Y-118133612D01*
X150273560Y-118188332D01*
X150188332Y-118273560D01*
X150133612Y-118380953D01*
X150114757Y-118500000D01*
X147771913Y-118500000D01*
X147766846Y-118461512D01*
X147713391Y-118332461D01*
X147628357Y-118221643D01*
X147517539Y-118136609D01*
X147388488Y-118083154D01*
X147250000Y-118064922D01*
X147111512Y-118083154D01*
X146982461Y-118136609D01*
X146871643Y-118221643D01*
X146786609Y-118332461D01*
X146733154Y-118461512D01*
X146714922Y-118600000D01*
X129850151Y-118600000D01*
X129767539Y-118536609D01*
X129638488Y-118483154D01*
X129500000Y-118464922D01*
X129361512Y-118483154D01*
X129232461Y-118536609D01*
X129121643Y-118621643D01*
X129036609Y-118732461D01*
X128983154Y-118861512D01*
X128964922Y-119000000D01*
X127143438Y-119000000D01*
X126578170Y-118301954D01*
X126575462Y-118298489D01*
X126556677Y-118273560D01*
X126388213Y-118050000D01*
X155214922Y-118050000D01*
X155233154Y-118188488D01*
X155286609Y-118317539D01*
X155371643Y-118428357D01*
X155482461Y-118513391D01*
X155611512Y-118566846D01*
X155750000Y-118585078D01*
X155758188Y-118584000D01*
X155880300Y-118567924D01*
X155888488Y-118566846D01*
X156017539Y-118513391D01*
X156128357Y-118428357D01*
X156213391Y-118317539D01*
X156266846Y-118188488D01*
X156285078Y-118050000D01*
X156266846Y-117911512D01*
X156213391Y-117782461D01*
X156128357Y-117671643D01*
X156017539Y-117586609D01*
X155888488Y-117533154D01*
X155750000Y-117514922D01*
X155611512Y-117533154D01*
X155482461Y-117586609D01*
X155371643Y-117671643D01*
X155286609Y-117782461D01*
X155233154Y-117911512D01*
X155214922Y-118050000D01*
X126388213Y-118050000D01*
X125953691Y-117473370D01*
X125951112Y-117469820D01*
X125900769Y-117397922D01*
X162372362Y-117397922D01*
X162390594Y-117536410D01*
X162444049Y-117665461D01*
X162529083Y-117776279D01*
X162639901Y-117861313D01*
X162768952Y-117914768D01*
X162907440Y-117933000D01*
X162915628Y-117931922D01*
X163037740Y-117915846D01*
X163045928Y-117914768D01*
X163174979Y-117861313D01*
X163284091Y-117777588D01*
X163350309Y-117751989D01*
X163419858Y-117766254D01*
X163460755Y-117800848D01*
X163486552Y-117834467D01*
X163597370Y-117919501D01*
X163726421Y-117972956D01*
X163864909Y-117991188D01*
X163873097Y-117990110D01*
X163995209Y-117974034D01*
X164003397Y-117972956D01*
X164132448Y-117919501D01*
X164243266Y-117834467D01*
X164328300Y-117723649D01*
X164381755Y-117594598D01*
X164399987Y-117456110D01*
X164381755Y-117317622D01*
X164328300Y-117188571D01*
X164243266Y-117077753D01*
X164132448Y-116992719D01*
X164003397Y-116939264D01*
X163952809Y-116932604D01*
X163873097Y-116922110D01*
X163864909Y-116921032D01*
X163856721Y-116922110D01*
X163777010Y-116932604D01*
X163726421Y-116939264D01*
X163597370Y-116992719D01*
X163488258Y-117076444D01*
X163422040Y-117102043D01*
X163352491Y-117087778D01*
X163311594Y-117053184D01*
X163290823Y-117026115D01*
X163285797Y-117019565D01*
X163174979Y-116934531D01*
X163045928Y-116881076D01*
X162907440Y-116862844D01*
X162768952Y-116881076D01*
X162639901Y-116934531D01*
X162529083Y-117019565D01*
X162444049Y-117130383D01*
X162390594Y-117259434D01*
X162372362Y-117397922D01*
X125900769Y-117397922D01*
X125358531Y-116623524D01*
X125356072Y-116619879D01*
X125278222Y-116500000D01*
X152214922Y-116500000D01*
X152216000Y-116508188D01*
X152226783Y-116590091D01*
X152233154Y-116638488D01*
X152286609Y-116767539D01*
X152371643Y-116878357D01*
X152482461Y-116963391D01*
X152611512Y-117016846D01*
X152750000Y-117035078D01*
X152758188Y-117034000D01*
X152880300Y-117017924D01*
X152888488Y-117016846D01*
X153017539Y-116963391D01*
X153128357Y-116878357D01*
X153150116Y-116850000D01*
X158214922Y-116850000D01*
X158233154Y-116988488D01*
X158286609Y-117117539D01*
X158371643Y-117228357D01*
X158482461Y-117313391D01*
X158611512Y-117366846D01*
X158750000Y-117385078D01*
X158758188Y-117384000D01*
X158880300Y-117367924D01*
X158888488Y-117366846D01*
X159017539Y-117313391D01*
X159128357Y-117228357D01*
X159213391Y-117117539D01*
X159266846Y-116988488D01*
X159285078Y-116850000D01*
X159274222Y-116767539D01*
X159271913Y-116750000D01*
X165464922Y-116750000D01*
X165483154Y-116888488D01*
X165536609Y-117017539D01*
X165621643Y-117128357D01*
X165732461Y-117213391D01*
X165861512Y-117266846D01*
X166000000Y-117285078D01*
X166008188Y-117284000D01*
X166130300Y-117267924D01*
X166138488Y-117266846D01*
X166267539Y-117213391D01*
X166378357Y-117128357D01*
X166463391Y-117017539D01*
X166516846Y-116888488D01*
X166535078Y-116750000D01*
X166516846Y-116611512D01*
X166470656Y-116500000D01*
X172464922Y-116500000D01*
X172466000Y-116508188D01*
X172476783Y-116590091D01*
X172483154Y-116638488D01*
X172536609Y-116767539D01*
X172621643Y-116878357D01*
X172732461Y-116963391D01*
X172861512Y-117016846D01*
X173000000Y-117035078D01*
X173008188Y-117034000D01*
X173130300Y-117017924D01*
X173138488Y-117016846D01*
X173267539Y-116963391D01*
X173378357Y-116878357D01*
X173463391Y-116767539D01*
X173516846Y-116638488D01*
X173523218Y-116590091D01*
X173534000Y-116508188D01*
X173535078Y-116500000D01*
X173516846Y-116361512D01*
X173463391Y-116232461D01*
X173378357Y-116121643D01*
X173267539Y-116036609D01*
X173138488Y-115983154D01*
X173000000Y-115964922D01*
X172861512Y-115983154D01*
X172732461Y-116036609D01*
X172621643Y-116121643D01*
X172536609Y-116232461D01*
X172483154Y-116361512D01*
X172464922Y-116500000D01*
X166470656Y-116500000D01*
X166463391Y-116482461D01*
X166378357Y-116371643D01*
X166267539Y-116286609D01*
X166138488Y-116233154D01*
X166000000Y-116214922D01*
X165861512Y-116233154D01*
X165732461Y-116286609D01*
X165621643Y-116371643D01*
X165536609Y-116482461D01*
X165483154Y-116611512D01*
X165464922Y-116750000D01*
X159271913Y-116750000D01*
X159267924Y-116719700D01*
X159266846Y-116711512D01*
X159213391Y-116582461D01*
X159128357Y-116471643D01*
X159017539Y-116386609D01*
X158888488Y-116333154D01*
X158750000Y-116314922D01*
X158611512Y-116333154D01*
X158482461Y-116386609D01*
X158371643Y-116471643D01*
X158286609Y-116582461D01*
X158233154Y-116711512D01*
X158232076Y-116719700D01*
X158225778Y-116767539D01*
X158214922Y-116850000D01*
X153150116Y-116850000D01*
X153213391Y-116767539D01*
X153266846Y-116638488D01*
X153273218Y-116590091D01*
X153284000Y-116508188D01*
X153285078Y-116500000D01*
X153266846Y-116361512D01*
X153213391Y-116232461D01*
X153128357Y-116121643D01*
X153121549Y-116116419D01*
X153121387Y-116116197D01*
X153115966Y-116110776D01*
X153116811Y-116109931D01*
X153079682Y-116059081D01*
X153075460Y-115988210D01*
X153110224Y-115926307D01*
X153121540Y-115916502D01*
X153169167Y-115879957D01*
X153254201Y-115769139D01*
X153307656Y-115640088D01*
X153325888Y-115501600D01*
X153307656Y-115363112D01*
X153254201Y-115234061D01*
X153169167Y-115123243D01*
X153138825Y-115099961D01*
X153096959Y-115042624D01*
X153092738Y-114971753D01*
X153127503Y-114909850D01*
X153138820Y-114900043D01*
X153169167Y-114876757D01*
X153254201Y-114765939D01*
X153307656Y-114636888D01*
X153325888Y-114498400D01*
X153307656Y-114359912D01*
X153254201Y-114230861D01*
X153169167Y-114120043D01*
X153058349Y-114035009D01*
X152973830Y-114000000D01*
X163114922Y-114000000D01*
X163133154Y-114138488D01*
X163186609Y-114267539D01*
X163271643Y-114378357D01*
X163382461Y-114463391D01*
X163511512Y-114516846D01*
X163650000Y-114535078D01*
X163658188Y-114534000D01*
X163780300Y-114517924D01*
X163788488Y-114516846D01*
X163917539Y-114463391D01*
X164028357Y-114378357D01*
X164113391Y-114267539D01*
X164166846Y-114138488D01*
X164180029Y-114038350D01*
X169621422Y-114038350D01*
X169639654Y-114176838D01*
X169693109Y-114305889D01*
X169778143Y-114416707D01*
X169888961Y-114501741D01*
X170018012Y-114555196D01*
X170156500Y-114573428D01*
X170164688Y-114572350D01*
X170286800Y-114556274D01*
X170294988Y-114555196D01*
X170416377Y-114504915D01*
X170486964Y-114497326D01*
X170550451Y-114529105D01*
X170586679Y-114590163D01*
X170586300Y-114653917D01*
X170583154Y-114661512D01*
X170564922Y-114800000D01*
X170583154Y-114938488D01*
X170636609Y-115067539D01*
X170721643Y-115178357D01*
X170832461Y-115263391D01*
X170961512Y-115316846D01*
X171100000Y-115335078D01*
X171108188Y-115334000D01*
X171230300Y-115317924D01*
X171238488Y-115316846D01*
X171367539Y-115263391D01*
X171478357Y-115178357D01*
X171563391Y-115067539D01*
X171616846Y-114938488D01*
X171635078Y-114800000D01*
X171616846Y-114661512D01*
X171563391Y-114532461D01*
X171538483Y-114500000D01*
X173064922Y-114500000D01*
X173083154Y-114638488D01*
X173136609Y-114767539D01*
X173221643Y-114878357D01*
X173332461Y-114963391D01*
X173461512Y-115016846D01*
X173600000Y-115035078D01*
X173608188Y-115034000D01*
X173730300Y-115017924D01*
X173738488Y-115016846D01*
X173867539Y-114963391D01*
X173978357Y-114878357D01*
X174063391Y-114767539D01*
X174116846Y-114638488D01*
X174135078Y-114500000D01*
X174116846Y-114361512D01*
X174063391Y-114232461D01*
X173978357Y-114121643D01*
X173867539Y-114036609D01*
X173738488Y-113983154D01*
X173718147Y-113980476D01*
X173608188Y-113966000D01*
X173600000Y-113964922D01*
X173591812Y-113966000D01*
X173481854Y-113980476D01*
X173461512Y-113983154D01*
X173332461Y-114036609D01*
X173221643Y-114121643D01*
X173136609Y-114232461D01*
X173083154Y-114361512D01*
X173064922Y-114500000D01*
X171538483Y-114500000D01*
X171478357Y-114421643D01*
X171367539Y-114336609D01*
X171238488Y-114283154D01*
X171100000Y-114264922D01*
X170961512Y-114283154D01*
X170840123Y-114333435D01*
X170769536Y-114341024D01*
X170706049Y-114309245D01*
X170669821Y-114248187D01*
X170670200Y-114184433D01*
X170673346Y-114176838D01*
X170691578Y-114038350D01*
X170673346Y-113899862D01*
X170619891Y-113770811D01*
X170534857Y-113659993D01*
X170424039Y-113574959D01*
X170294988Y-113521504D01*
X170156500Y-113503272D01*
X170018012Y-113521504D01*
X169888961Y-113574959D01*
X169778143Y-113659993D01*
X169693109Y-113770811D01*
X169639654Y-113899862D01*
X169621422Y-114038350D01*
X164180029Y-114038350D01*
X164185078Y-114000000D01*
X164166846Y-113861512D01*
X164113391Y-113732461D01*
X164064948Y-113669329D01*
X164039348Y-113603111D01*
X164053612Y-113533563D01*
X164088204Y-113492668D01*
X164128357Y-113461857D01*
X164213391Y-113351039D01*
X164266846Y-113221988D01*
X164285078Y-113083500D01*
X164266846Y-112945012D01*
X164213391Y-112815961D01*
X164128357Y-112705143D01*
X164017539Y-112620109D01*
X163888488Y-112566654D01*
X163750000Y-112548422D01*
X163611512Y-112566654D01*
X163482461Y-112620109D01*
X163371643Y-112705143D01*
X163286609Y-112815961D01*
X163233154Y-112945012D01*
X163214922Y-113083500D01*
X163233154Y-113221988D01*
X163286609Y-113351039D01*
X163335052Y-113414171D01*
X163360652Y-113480389D01*
X163346388Y-113549937D01*
X163311796Y-113590832D01*
X163271643Y-113621643D01*
X163186609Y-113732461D01*
X163133154Y-113861512D01*
X163114922Y-114000000D01*
X152973830Y-114000000D01*
X152929298Y-113981554D01*
X152790810Y-113963322D01*
X152652322Y-113981554D01*
X152523271Y-114035009D01*
X152412453Y-114120043D01*
X152327419Y-114230861D01*
X152273964Y-114359912D01*
X152255732Y-114498400D01*
X152273964Y-114636888D01*
X152327419Y-114765939D01*
X152412453Y-114876757D01*
X152442795Y-114900039D01*
X152484661Y-114957376D01*
X152488882Y-115028247D01*
X152454117Y-115090150D01*
X152442800Y-115099957D01*
X152412453Y-115123243D01*
X152327419Y-115234061D01*
X152273964Y-115363112D01*
X152255732Y-115501600D01*
X152273964Y-115640088D01*
X152327419Y-115769139D01*
X152412453Y-115879957D01*
X152419002Y-115884982D01*
X152419003Y-115884983D01*
X152419261Y-115885181D01*
X152419423Y-115885403D01*
X152424844Y-115890824D01*
X152423999Y-115891669D01*
X152461128Y-115942519D01*
X152465350Y-116013390D01*
X152430586Y-116075293D01*
X152419270Y-116085098D01*
X152371643Y-116121643D01*
X152286609Y-116232461D01*
X152233154Y-116361512D01*
X152214922Y-116500000D01*
X125278222Y-116500000D01*
X125002413Y-116075293D01*
X124793385Y-115753418D01*
X124791248Y-115750000D01*
X147714922Y-115750000D01*
X147733154Y-115888488D01*
X147786609Y-116017539D01*
X147871643Y-116128357D01*
X147982461Y-116213391D01*
X148111512Y-116266846D01*
X148250000Y-116285078D01*
X148258188Y-116284000D01*
X148262374Y-116283449D01*
X148388488Y-116266846D01*
X148517539Y-116213391D01*
X148628357Y-116128357D01*
X148713391Y-116017539D01*
X148766846Y-115888488D01*
X148785078Y-115750000D01*
X148766846Y-115611512D01*
X148713391Y-115482461D01*
X148628357Y-115371643D01*
X148517539Y-115286609D01*
X148388488Y-115233154D01*
X148250000Y-115214922D01*
X148111512Y-115233154D01*
X147982461Y-115286609D01*
X147871643Y-115371643D01*
X147786609Y-115482461D01*
X147733154Y-115611512D01*
X147714922Y-115750000D01*
X124791248Y-115750000D01*
X124791064Y-115749705D01*
X124258949Y-114864115D01*
X124256760Y-114860324D01*
X124218784Y-114791812D01*
X123770537Y-113983154D01*
X123755895Y-113956739D01*
X123753830Y-113952856D01*
X123591998Y-113635243D01*
X123395707Y-113250000D01*
X149114757Y-113250000D01*
X149116308Y-113259793D01*
X149131798Y-113357592D01*
X149133612Y-113369047D01*
X149188332Y-113476440D01*
X149273560Y-113561668D01*
X149380953Y-113616388D01*
X149390742Y-113617938D01*
X149390744Y-113617939D01*
X149490207Y-113633692D01*
X149500000Y-113635243D01*
X149509793Y-113633692D01*
X149609256Y-113617939D01*
X149609258Y-113617938D01*
X149619047Y-113616388D01*
X149726440Y-113561668D01*
X149811668Y-113476440D01*
X149866388Y-113369047D01*
X149868203Y-113357592D01*
X149875551Y-113311194D01*
X149904246Y-113250663D01*
X149903607Y-113250239D01*
X149903195Y-113249337D01*
X150095754Y-113249337D01*
X150096393Y-113249761D01*
X150124449Y-113311194D01*
X150131798Y-113357592D01*
X150133612Y-113369047D01*
X150188332Y-113476440D01*
X150273560Y-113561668D01*
X150380953Y-113616388D01*
X150390742Y-113617938D01*
X150390744Y-113617939D01*
X150490207Y-113633692D01*
X150500000Y-113635243D01*
X150509793Y-113633692D01*
X150609256Y-113617939D01*
X150609258Y-113617938D01*
X150619047Y-113616388D01*
X150726440Y-113561668D01*
X150811668Y-113476440D01*
X150866388Y-113369047D01*
X150868203Y-113357592D01*
X150883692Y-113259793D01*
X150885243Y-113250000D01*
X150875551Y-113188806D01*
X150867939Y-113140744D01*
X150867938Y-113140742D01*
X150866388Y-113130953D01*
X150811668Y-113023560D01*
X150726440Y-112938332D01*
X150619047Y-112883612D01*
X150609258Y-112882062D01*
X150609256Y-112882061D01*
X150509793Y-112866308D01*
X150500000Y-112864757D01*
X150490207Y-112866308D01*
X150390744Y-112882061D01*
X150390742Y-112882062D01*
X150380953Y-112883612D01*
X150273560Y-112938332D01*
X150188332Y-113023560D01*
X150133612Y-113130953D01*
X150132062Y-113140742D01*
X150132061Y-113140744D01*
X150124449Y-113188806D01*
X150095754Y-113249337D01*
X149903195Y-113249337D01*
X149875551Y-113188806D01*
X149867939Y-113140744D01*
X149867938Y-113140742D01*
X149866388Y-113130953D01*
X149811668Y-113023560D01*
X149726440Y-112938332D01*
X149619047Y-112883612D01*
X149609258Y-112882062D01*
X149609256Y-112882061D01*
X149509793Y-112866308D01*
X149500000Y-112864757D01*
X149490207Y-112866308D01*
X149390744Y-112882061D01*
X149390742Y-112882062D01*
X149380953Y-112883612D01*
X149273560Y-112938332D01*
X149188332Y-113023560D01*
X149133612Y-113130953D01*
X149132062Y-113140742D01*
X149132061Y-113140744D01*
X149124449Y-113188806D01*
X149114757Y-113250000D01*
X123395707Y-113250000D01*
X123284779Y-113032292D01*
X123282881Y-113028400D01*
X122896592Y-112200000D01*
X147564922Y-112200000D01*
X147583154Y-112338488D01*
X147636609Y-112467539D01*
X147721643Y-112578357D01*
X147832461Y-112663391D01*
X147961512Y-112716846D01*
X148100000Y-112735078D01*
X148108188Y-112734000D01*
X148230300Y-112717924D01*
X148238488Y-112716846D01*
X148367539Y-112663391D01*
X148478357Y-112578357D01*
X148563391Y-112467539D01*
X148616846Y-112338488D01*
X148628495Y-112250000D01*
X165714922Y-112250000D01*
X165733154Y-112388488D01*
X165786609Y-112517539D01*
X165871643Y-112628357D01*
X165982461Y-112713391D01*
X166111512Y-112766846D01*
X166250000Y-112785078D01*
X166258188Y-112784000D01*
X166380300Y-112767924D01*
X166388488Y-112766846D01*
X166517539Y-112713391D01*
X166600151Y-112650000D01*
X168464922Y-112650000D01*
X168483154Y-112788488D01*
X168536609Y-112917539D01*
X168621643Y-113028357D01*
X168732461Y-113113391D01*
X168861512Y-113166846D01*
X169000000Y-113185078D01*
X169008188Y-113184000D01*
X169130300Y-113167924D01*
X169138488Y-113166846D01*
X169267539Y-113113391D01*
X169378357Y-113028357D01*
X169463391Y-112917539D01*
X169516846Y-112788488D01*
X169535078Y-112650000D01*
X169516846Y-112511512D01*
X169463391Y-112382461D01*
X169378357Y-112271643D01*
X169267539Y-112186609D01*
X169138488Y-112133154D01*
X169000000Y-112114922D01*
X168861512Y-112133154D01*
X168732461Y-112186609D01*
X168621643Y-112271643D01*
X168536609Y-112382461D01*
X168483154Y-112511512D01*
X168464922Y-112650000D01*
X166600151Y-112650000D01*
X166628357Y-112628357D01*
X166713391Y-112517539D01*
X166766846Y-112388488D01*
X166785078Y-112250000D01*
X166766846Y-112111512D01*
X166713391Y-111982461D01*
X166628357Y-111871643D01*
X166517539Y-111786609D01*
X166388488Y-111733154D01*
X166250000Y-111714922D01*
X166111512Y-111733154D01*
X165982461Y-111786609D01*
X165871643Y-111871643D01*
X165786609Y-111982461D01*
X165733154Y-112111512D01*
X165714922Y-112250000D01*
X148628495Y-112250000D01*
X148635078Y-112200000D01*
X148616846Y-112061512D01*
X148563391Y-111932461D01*
X148478357Y-111821643D01*
X148367539Y-111736609D01*
X148238488Y-111683154D01*
X148100000Y-111664922D01*
X147961512Y-111683154D01*
X147832461Y-111736609D01*
X147721643Y-111821643D01*
X147636609Y-111932461D01*
X147583154Y-112061512D01*
X147564922Y-112200000D01*
X122896592Y-112200000D01*
X122846242Y-112092025D01*
X122844459Y-112088020D01*
X122796871Y-111975908D01*
X122579320Y-111463391D01*
X122440777Y-111137003D01*
X122439130Y-111132925D01*
X122207913Y-110530586D01*
X122100206Y-110250000D01*
X131464922Y-110250000D01*
X131483154Y-110388488D01*
X131536609Y-110517539D01*
X131621643Y-110628357D01*
X131732461Y-110713391D01*
X131861512Y-110766846D01*
X132000000Y-110785078D01*
X132008188Y-110784000D01*
X132130300Y-110767924D01*
X132138488Y-110766846D01*
X132267539Y-110713391D01*
X132378357Y-110628357D01*
X132463391Y-110517539D01*
X132516846Y-110388488D01*
X132535078Y-110250000D01*
X132516846Y-110111512D01*
X132470656Y-110000000D01*
X156464922Y-110000000D01*
X156483154Y-110138488D01*
X156536609Y-110267539D01*
X156621643Y-110378357D01*
X156732461Y-110463391D01*
X156861512Y-110516846D01*
X157000000Y-110535078D01*
X157008188Y-110534000D01*
X157012374Y-110533449D01*
X157138488Y-110516846D01*
X157146115Y-110513687D01*
X157146118Y-110513686D01*
X157157959Y-110508781D01*
X157163712Y-110506398D01*
X157234301Y-110498808D01*
X157297788Y-110530586D01*
X157334017Y-110591643D01*
X157331484Y-110662595D01*
X157311896Y-110699507D01*
X157286609Y-110732461D01*
X157233154Y-110861512D01*
X157214922Y-111000000D01*
X157233154Y-111138488D01*
X157286609Y-111267539D01*
X157371643Y-111378357D01*
X157482461Y-111463391D01*
X157611512Y-111516846D01*
X157750000Y-111535078D01*
X157758188Y-111534000D01*
X157880300Y-111517924D01*
X157888488Y-111516846D01*
X158017539Y-111463391D01*
X158128357Y-111378357D01*
X158213391Y-111267539D01*
X158266846Y-111138488D01*
X158285078Y-111000000D01*
X158266846Y-110861512D01*
X158213391Y-110732461D01*
X158128357Y-110621643D01*
X158017539Y-110536609D01*
X157888488Y-110483154D01*
X157750000Y-110464922D01*
X157611512Y-110483154D01*
X157603885Y-110486313D01*
X157603882Y-110486314D01*
X157592041Y-110491219D01*
X157586288Y-110493602D01*
X157515699Y-110501192D01*
X157452212Y-110469414D01*
X157415983Y-110408357D01*
X157418516Y-110337405D01*
X157438104Y-110300493D01*
X157463391Y-110267539D01*
X157516846Y-110138488D01*
X157535078Y-110000000D01*
X157534000Y-109991812D01*
X157534000Y-109989876D01*
X157554002Y-109921755D01*
X157607658Y-109875262D01*
X157677932Y-109865158D01*
X157736705Y-109889914D01*
X157832461Y-109963391D01*
X157961512Y-110016846D01*
X158100000Y-110035078D01*
X158108188Y-110034000D01*
X158230300Y-110017924D01*
X158238488Y-110016846D01*
X158367539Y-109963391D01*
X158478357Y-109878357D01*
X158563391Y-109767539D01*
X158616846Y-109638488D01*
X158635078Y-109500000D01*
X158616846Y-109361512D01*
X158563391Y-109232461D01*
X158478357Y-109121643D01*
X158367539Y-109036609D01*
X158238488Y-108983154D01*
X158100000Y-108964922D01*
X157961512Y-108983154D01*
X157832461Y-109036609D01*
X157721643Y-109121643D01*
X157636609Y-109232461D01*
X157583154Y-109361512D01*
X157564922Y-109500000D01*
X157566000Y-109508188D01*
X157566000Y-109510124D01*
X157545998Y-109578245D01*
X157492342Y-109624738D01*
X157422068Y-109634842D01*
X157363296Y-109610086D01*
X157321800Y-109578245D01*
X157267539Y-109536609D01*
X157138488Y-109483154D01*
X157000000Y-109464922D01*
X156861512Y-109483154D01*
X156732461Y-109536609D01*
X156621643Y-109621643D01*
X156536609Y-109732461D01*
X156483154Y-109861512D01*
X156464922Y-110000000D01*
X132470656Y-110000000D01*
X132463391Y-109982461D01*
X132378357Y-109871643D01*
X132267539Y-109786609D01*
X132138488Y-109733154D01*
X132000000Y-109714922D01*
X131861512Y-109733154D01*
X131732461Y-109786609D01*
X131621643Y-109871643D01*
X131536609Y-109982461D01*
X131483154Y-110111512D01*
X131464922Y-110250000D01*
X122100206Y-110250000D01*
X122069940Y-110171153D01*
X122064201Y-110100390D01*
X122097631Y-110037757D01*
X122159617Y-110003140D01*
X122187571Y-110000000D01*
X127000000Y-110000000D01*
X127000000Y-109540520D01*
X127020002Y-109472399D01*
X127073658Y-109425906D01*
X127143932Y-109415802D01*
X127202704Y-109440557D01*
X127232461Y-109463391D01*
X127361512Y-109516846D01*
X127500000Y-109535078D01*
X127508188Y-109534000D01*
X127512374Y-109533449D01*
X127638488Y-109516846D01*
X127767539Y-109463391D01*
X127878357Y-109378357D01*
X127963391Y-109267539D01*
X128016846Y-109138488D01*
X128035078Y-109000000D01*
X128028759Y-108952000D01*
X129762922Y-108952000D01*
X129781154Y-109090488D01*
X129834609Y-109219539D01*
X129919643Y-109330357D01*
X130030461Y-109415391D01*
X130091217Y-109440557D01*
X130146343Y-109463391D01*
X130159512Y-109468846D01*
X130298000Y-109487078D01*
X130306188Y-109486000D01*
X130335995Y-109482076D01*
X130436488Y-109468846D01*
X130449658Y-109463391D01*
X130504783Y-109440557D01*
X130565539Y-109415391D01*
X130676357Y-109330357D01*
X130761391Y-109219539D01*
X130814846Y-109090488D01*
X130833078Y-108952000D01*
X130826232Y-108900000D01*
X159264922Y-108900000D01*
X159266000Y-108908188D01*
X159276783Y-108990091D01*
X159283154Y-109038488D01*
X159336609Y-109167539D01*
X159421643Y-109278357D01*
X159532461Y-109363391D01*
X159661512Y-109416846D01*
X159800000Y-109435078D01*
X159808188Y-109434000D01*
X159930300Y-109417924D01*
X159938488Y-109416846D01*
X160067539Y-109363391D01*
X160070179Y-109361365D01*
X160136954Y-109345166D01*
X160204046Y-109368386D01*
X160247367Y-109422804D01*
X160283446Y-109509905D01*
X160283449Y-109509910D01*
X160286609Y-109517539D01*
X160371643Y-109628357D01*
X160482461Y-109713391D01*
X160611512Y-109766846D01*
X160750000Y-109785078D01*
X160758188Y-109784000D01*
X160762374Y-109783449D01*
X160888488Y-109766846D01*
X161017539Y-109713391D01*
X161128357Y-109628357D01*
X161213391Y-109517539D01*
X161266846Y-109388488D01*
X161285078Y-109250000D01*
X161274222Y-109167539D01*
X161267924Y-109119700D01*
X161266846Y-109111512D01*
X161213391Y-108982461D01*
X161128357Y-108871643D01*
X161017539Y-108786609D01*
X160888488Y-108733154D01*
X160750000Y-108714922D01*
X160611512Y-108733154D01*
X160482461Y-108786609D01*
X160479821Y-108788635D01*
X160413046Y-108804834D01*
X160345954Y-108781614D01*
X160302633Y-108727196D01*
X160266554Y-108640095D01*
X160266551Y-108640090D01*
X160263391Y-108632461D01*
X160178357Y-108521643D01*
X160067539Y-108436609D01*
X159938488Y-108383154D01*
X159800000Y-108364922D01*
X159661512Y-108383154D01*
X159532461Y-108436609D01*
X159421643Y-108521643D01*
X159336609Y-108632461D01*
X159283154Y-108761512D01*
X159264922Y-108900000D01*
X130826232Y-108900000D01*
X130814846Y-108813512D01*
X130761391Y-108684461D01*
X130676357Y-108573643D01*
X130565539Y-108488609D01*
X130436488Y-108435154D01*
X130427723Y-108434000D01*
X130306188Y-108418000D01*
X130298000Y-108416922D01*
X130289812Y-108418000D01*
X130168278Y-108434000D01*
X130159512Y-108435154D01*
X130030461Y-108488609D01*
X129919643Y-108573643D01*
X129834609Y-108684461D01*
X129781154Y-108813512D01*
X129762922Y-108952000D01*
X128028759Y-108952000D01*
X128016846Y-108861512D01*
X127963391Y-108732461D01*
X127878357Y-108621643D01*
X127767539Y-108536609D01*
X127657972Y-108491225D01*
X127646117Y-108486314D01*
X127638488Y-108483154D01*
X127500000Y-108464922D01*
X127361512Y-108483154D01*
X127353883Y-108486314D01*
X127342028Y-108491225D01*
X127232461Y-108536609D01*
X127225910Y-108541636D01*
X127225908Y-108541637D01*
X127202703Y-108559443D01*
X127136483Y-108585043D01*
X127066934Y-108570778D01*
X127016138Y-108521176D01*
X127000000Y-108459480D01*
X127000000Y-107916500D01*
X167973558Y-107916500D01*
X167991790Y-108054988D01*
X168045245Y-108184039D01*
X168130279Y-108294857D01*
X168241097Y-108379891D01*
X168370148Y-108433346D01*
X168508636Y-108451578D01*
X168516824Y-108450500D01*
X168638936Y-108434424D01*
X168647124Y-108433346D01*
X168776175Y-108379891D01*
X168886993Y-108294857D01*
X168972027Y-108184039D01*
X169025482Y-108054988D01*
X169043714Y-107916500D01*
X169041542Y-107900000D01*
X170864922Y-107900000D01*
X170883154Y-108038488D01*
X170936609Y-108167539D01*
X171021643Y-108278357D01*
X171132461Y-108363391D01*
X171261512Y-108416846D01*
X171269700Y-108417924D01*
X171330756Y-108425962D01*
X171400000Y-108435078D01*
X171408188Y-108434000D01*
X171412374Y-108433449D01*
X171469244Y-108425962D01*
X171530300Y-108417924D01*
X171538488Y-108416846D01*
X171667539Y-108363391D01*
X171778357Y-108278357D01*
X171863391Y-108167539D01*
X171916846Y-108038488D01*
X171935078Y-107900000D01*
X171916846Y-107761512D01*
X171863391Y-107632461D01*
X171778357Y-107521643D01*
X171667539Y-107436609D01*
X171538488Y-107383154D01*
X171400000Y-107364922D01*
X171261512Y-107383154D01*
X171132461Y-107436609D01*
X171021643Y-107521643D01*
X170936609Y-107632461D01*
X170883154Y-107761512D01*
X170864922Y-107900000D01*
X169041542Y-107900000D01*
X169025482Y-107778012D01*
X168972027Y-107648961D01*
X168886993Y-107538143D01*
X168776175Y-107453109D01*
X168647124Y-107399654D01*
X168508636Y-107381422D01*
X168370148Y-107399654D01*
X168241097Y-107453109D01*
X168130279Y-107538143D01*
X168045245Y-107648961D01*
X167991790Y-107778012D01*
X167973558Y-107916500D01*
X127000000Y-107916500D01*
X127000000Y-105006500D01*
X127414922Y-105006500D01*
X127433154Y-105144988D01*
X127486609Y-105274039D01*
X127571643Y-105384857D01*
X127682461Y-105469891D01*
X127811512Y-105523346D01*
X127950000Y-105541578D01*
X127958188Y-105540500D01*
X128080300Y-105524424D01*
X128088488Y-105523346D01*
X128217539Y-105469891D01*
X128328357Y-105384857D01*
X128413391Y-105274039D01*
X128466846Y-105144988D01*
X128485078Y-105006500D01*
X128466846Y-104868012D01*
X128413391Y-104738961D01*
X128378995Y-104694135D01*
X133691522Y-104694135D01*
X133709754Y-104832623D01*
X133763209Y-104961674D01*
X133848243Y-105072492D01*
X133959061Y-105157526D01*
X134088112Y-105210981D01*
X134226600Y-105229213D01*
X134234788Y-105228135D01*
X134356900Y-105212059D01*
X134365088Y-105210981D01*
X134494139Y-105157526D01*
X134604957Y-105072492D01*
X134689991Y-104961674D01*
X134743446Y-104832623D01*
X134761678Y-104694135D01*
X134743446Y-104555647D01*
X134689991Y-104426596D01*
X134604957Y-104315778D01*
X134519234Y-104250000D01*
X139464922Y-104250000D01*
X139483154Y-104388488D01*
X139536609Y-104517539D01*
X139621643Y-104628357D01*
X139732461Y-104713391D01*
X139861512Y-104766846D01*
X140000000Y-104785078D01*
X140008188Y-104784000D01*
X140130300Y-104767924D01*
X140138488Y-104766846D01*
X140267539Y-104713391D01*
X140378357Y-104628357D01*
X140463391Y-104517539D01*
X140516846Y-104388488D01*
X140535078Y-104250000D01*
X141464922Y-104250000D01*
X141483154Y-104388488D01*
X141536609Y-104517539D01*
X141621643Y-104628357D01*
X141732461Y-104713391D01*
X141861512Y-104766846D01*
X142000000Y-104785078D01*
X142008188Y-104784000D01*
X142130300Y-104767924D01*
X142138488Y-104766846D01*
X142267539Y-104713391D01*
X142378357Y-104628357D01*
X142463391Y-104517539D01*
X142516846Y-104388488D01*
X142535078Y-104250000D01*
X143464922Y-104250000D01*
X143483154Y-104388488D01*
X143536609Y-104517539D01*
X143621643Y-104628357D01*
X143732461Y-104713391D01*
X143861512Y-104766846D01*
X144000000Y-104785078D01*
X144008188Y-104784000D01*
X144130300Y-104767924D01*
X144138488Y-104766846D01*
X144267539Y-104713391D01*
X144378357Y-104628357D01*
X144463391Y-104517539D01*
X144516846Y-104388488D01*
X144535078Y-104250000D01*
X144516846Y-104111512D01*
X144470656Y-104000000D01*
X146460422Y-104000000D01*
X146478654Y-104138488D01*
X146532109Y-104267539D01*
X146617143Y-104378357D01*
X146727961Y-104463391D01*
X146857012Y-104516846D01*
X146995500Y-104535078D01*
X147003688Y-104534000D01*
X147125800Y-104517924D01*
X147133988Y-104516846D01*
X147263039Y-104463391D01*
X147373857Y-104378357D01*
X147458891Y-104267539D01*
X147512346Y-104138488D01*
X147530578Y-104000000D01*
X147512346Y-103861512D01*
X147458891Y-103732461D01*
X147373857Y-103621643D01*
X147263039Y-103536609D01*
X147133988Y-103483154D01*
X146995500Y-103464922D01*
X146857012Y-103483154D01*
X146727961Y-103536609D01*
X146617143Y-103621643D01*
X146532109Y-103732461D01*
X146478654Y-103861512D01*
X146460422Y-104000000D01*
X144470656Y-104000000D01*
X144463391Y-103982461D01*
X144378357Y-103871643D01*
X144267539Y-103786609D01*
X144138488Y-103733154D01*
X144000000Y-103714922D01*
X143861512Y-103733154D01*
X143732461Y-103786609D01*
X143621643Y-103871643D01*
X143536609Y-103982461D01*
X143483154Y-104111512D01*
X143464922Y-104250000D01*
X142535078Y-104250000D01*
X142516846Y-104111512D01*
X142463391Y-103982461D01*
X142378357Y-103871643D01*
X142267539Y-103786609D01*
X142138488Y-103733154D01*
X142000000Y-103714922D01*
X141861512Y-103733154D01*
X141732461Y-103786609D01*
X141621643Y-103871643D01*
X141536609Y-103982461D01*
X141483154Y-104111512D01*
X141464922Y-104250000D01*
X140535078Y-104250000D01*
X140516846Y-104111512D01*
X140463391Y-103982461D01*
X140378357Y-103871643D01*
X140267539Y-103786609D01*
X140138488Y-103733154D01*
X140000000Y-103714922D01*
X139861512Y-103733154D01*
X139732461Y-103786609D01*
X139621643Y-103871643D01*
X139536609Y-103982461D01*
X139483154Y-104111512D01*
X139464922Y-104250000D01*
X134519234Y-104250000D01*
X134494139Y-104230744D01*
X134365088Y-104177289D01*
X134226600Y-104159057D01*
X134088112Y-104177289D01*
X133959061Y-104230744D01*
X133848243Y-104315778D01*
X133763209Y-104426596D01*
X133709754Y-104555647D01*
X133691522Y-104694135D01*
X128378995Y-104694135D01*
X128328357Y-104628143D01*
X128217539Y-104543109D01*
X128088488Y-104489654D01*
X127950000Y-104471422D01*
X127811512Y-104489654D01*
X127682461Y-104543109D01*
X127571643Y-104628143D01*
X127486609Y-104738961D01*
X127433154Y-104868012D01*
X127414922Y-105006500D01*
X127000000Y-105006500D01*
X127000000Y-103000000D01*
X129175132Y-103000000D01*
X129193364Y-103138488D01*
X129246819Y-103267539D01*
X129331853Y-103378357D01*
X129442671Y-103463391D01*
X129571722Y-103516846D01*
X129710210Y-103535078D01*
X129718398Y-103534000D01*
X129722584Y-103533449D01*
X129848698Y-103516846D01*
X129977749Y-103463391D01*
X130088567Y-103378357D01*
X130173601Y-103267539D01*
X130227056Y-103138488D01*
X130245288Y-103000000D01*
X136214922Y-103000000D01*
X136233154Y-103138488D01*
X136286609Y-103267539D01*
X136371643Y-103378357D01*
X136482461Y-103463391D01*
X136611512Y-103516846D01*
X136750000Y-103535078D01*
X136758188Y-103534000D01*
X136762374Y-103533449D01*
X136888488Y-103516846D01*
X137017539Y-103463391D01*
X137128357Y-103378357D01*
X137213391Y-103267539D01*
X137266846Y-103138488D01*
X137285078Y-103000000D01*
X137266846Y-102861512D01*
X137213391Y-102732461D01*
X137128357Y-102621643D01*
X137017539Y-102536609D01*
X136929158Y-102500000D01*
X137464922Y-102500000D01*
X137483154Y-102638488D01*
X137536609Y-102767539D01*
X137621643Y-102878357D01*
X137732461Y-102963391D01*
X137861512Y-103016846D01*
X138000000Y-103035078D01*
X138008188Y-103034000D01*
X138130300Y-103017924D01*
X138138488Y-103016846D01*
X138267539Y-102963391D01*
X138378357Y-102878357D01*
X138463391Y-102767539D01*
X138516846Y-102638488D01*
X138535078Y-102500000D01*
X150119422Y-102500000D01*
X150137654Y-102638488D01*
X150191109Y-102767539D01*
X150276143Y-102878357D01*
X150386961Y-102963391D01*
X150516012Y-103016846D01*
X150654500Y-103035078D01*
X150662688Y-103034000D01*
X150784800Y-103017924D01*
X150792988Y-103016846D01*
X150922039Y-102963391D01*
X151032857Y-102878357D01*
X151117891Y-102767539D01*
X151171346Y-102638488D01*
X151186287Y-102525000D01*
X151560422Y-102525000D01*
X151578654Y-102663488D01*
X151632109Y-102792539D01*
X151717143Y-102903357D01*
X151827961Y-102988391D01*
X151957012Y-103041846D01*
X152095500Y-103060078D01*
X152103688Y-103059000D01*
X152225800Y-103042924D01*
X152233988Y-103041846D01*
X152363039Y-102988391D01*
X152473857Y-102903357D01*
X152558891Y-102792539D01*
X152612346Y-102663488D01*
X152630578Y-102525000D01*
X152627287Y-102500000D01*
X159964922Y-102500000D01*
X159983154Y-102638488D01*
X160036609Y-102767539D01*
X160121643Y-102878357D01*
X160232461Y-102963391D01*
X160361512Y-103016846D01*
X160500000Y-103035078D01*
X160508188Y-103034000D01*
X160630300Y-103017924D01*
X160638488Y-103016846D01*
X160767539Y-102963391D01*
X160878357Y-102878357D01*
X160963391Y-102767539D01*
X161016846Y-102638488D01*
X161035078Y-102500000D01*
X161016846Y-102361512D01*
X160963391Y-102232461D01*
X160878357Y-102121643D01*
X160767539Y-102036609D01*
X160638488Y-101983154D01*
X160500000Y-101964922D01*
X160361512Y-101983154D01*
X160232461Y-102036609D01*
X160121643Y-102121643D01*
X160036609Y-102232461D01*
X159983154Y-102361512D01*
X159964922Y-102500000D01*
X152627287Y-102500000D01*
X152612346Y-102386512D01*
X152558891Y-102257461D01*
X152473857Y-102146643D01*
X152363039Y-102061609D01*
X152233988Y-102008154D01*
X152095500Y-101989922D01*
X151957012Y-102008154D01*
X151827961Y-102061609D01*
X151717143Y-102146643D01*
X151632109Y-102257461D01*
X151578654Y-102386512D01*
X151560422Y-102525000D01*
X151186287Y-102525000D01*
X151189578Y-102500000D01*
X151171346Y-102361512D01*
X151117891Y-102232461D01*
X151032857Y-102121643D01*
X150922039Y-102036609D01*
X150792988Y-101983154D01*
X150654500Y-101964922D01*
X150516012Y-101983154D01*
X150386961Y-102036609D01*
X150276143Y-102121643D01*
X150191109Y-102232461D01*
X150137654Y-102361512D01*
X150119422Y-102500000D01*
X138535078Y-102500000D01*
X138516846Y-102361512D01*
X138463391Y-102232461D01*
X138378357Y-102121643D01*
X138267539Y-102036609D01*
X138138488Y-101983154D01*
X138000000Y-101964922D01*
X137861512Y-101983154D01*
X137732461Y-102036609D01*
X137621643Y-102121643D01*
X137536609Y-102232461D01*
X137483154Y-102361512D01*
X137464922Y-102500000D01*
X136929158Y-102500000D01*
X136888488Y-102483154D01*
X136750000Y-102464922D01*
X136611512Y-102483154D01*
X136482461Y-102536609D01*
X136371643Y-102621643D01*
X136286609Y-102732461D01*
X136233154Y-102861512D01*
X136214922Y-103000000D01*
X130245288Y-103000000D01*
X130227056Y-102861512D01*
X130173601Y-102732461D01*
X130128093Y-102673154D01*
X130102493Y-102606937D01*
X130116757Y-102537388D01*
X130166358Y-102486591D01*
X130179833Y-102480045D01*
X130220039Y-102463391D01*
X130330857Y-102378357D01*
X130415891Y-102267539D01*
X130469346Y-102138488D01*
X130487578Y-102000000D01*
X130469346Y-101861512D01*
X130423156Y-101750000D01*
X142464922Y-101750000D01*
X142483154Y-101888488D01*
X142536609Y-102017539D01*
X142621643Y-102128357D01*
X142732461Y-102213391D01*
X142861512Y-102266846D01*
X143000000Y-102285078D01*
X143008188Y-102284000D01*
X143130300Y-102267924D01*
X143138488Y-102266846D01*
X143267539Y-102213391D01*
X143378357Y-102128357D01*
X143463391Y-102017539D01*
X143516846Y-101888488D01*
X143535078Y-101750000D01*
X143516846Y-101611512D01*
X143463391Y-101482461D01*
X143378357Y-101371643D01*
X143267539Y-101286609D01*
X143138488Y-101233154D01*
X143000000Y-101214922D01*
X142861512Y-101233154D01*
X142732461Y-101286609D01*
X142621643Y-101371643D01*
X142536609Y-101482461D01*
X142483154Y-101611512D01*
X142464922Y-101750000D01*
X130423156Y-101750000D01*
X130415891Y-101732461D01*
X130330857Y-101621643D01*
X130220039Y-101536609D01*
X130090988Y-101483154D01*
X129952500Y-101464922D01*
X129814012Y-101483154D01*
X129684961Y-101536609D01*
X129574143Y-101621643D01*
X129489109Y-101732461D01*
X129435654Y-101861512D01*
X129417422Y-102000000D01*
X129435654Y-102138488D01*
X129489109Y-102267539D01*
X129534617Y-102326846D01*
X129560217Y-102393063D01*
X129545953Y-102462612D01*
X129496352Y-102513409D01*
X129482877Y-102519955D01*
X129442671Y-102536609D01*
X129331853Y-102621643D01*
X129246819Y-102732461D01*
X129193364Y-102861512D01*
X129175132Y-103000000D01*
X127000000Y-103000000D01*
X127000000Y-102250000D01*
X127969422Y-102250000D01*
X127987654Y-102388488D01*
X128041109Y-102517539D01*
X128126143Y-102628357D01*
X128236961Y-102713391D01*
X128366012Y-102766846D01*
X128504500Y-102785078D01*
X128512688Y-102784000D01*
X128634800Y-102767924D01*
X128642988Y-102766846D01*
X128772039Y-102713391D01*
X128882857Y-102628357D01*
X128967891Y-102517539D01*
X129021346Y-102388488D01*
X129039578Y-102250000D01*
X129021346Y-102111512D01*
X128967891Y-101982461D01*
X128882857Y-101871643D01*
X128772039Y-101786609D01*
X128642988Y-101733154D01*
X128504500Y-101714922D01*
X128366012Y-101733154D01*
X128236961Y-101786609D01*
X128126143Y-101871643D01*
X128041109Y-101982461D01*
X127987654Y-102111512D01*
X127969422Y-102250000D01*
X127000000Y-102250000D01*
X127000000Y-100500000D01*
X140121422Y-100500000D01*
X140139654Y-100638488D01*
X140193109Y-100767539D01*
X140278143Y-100878357D01*
X140388961Y-100963391D01*
X140518012Y-101016846D01*
X140656500Y-101035078D01*
X140664688Y-101034000D01*
X140786800Y-101017924D01*
X140794988Y-101016846D01*
X140924039Y-100963391D01*
X141034857Y-100878357D01*
X141119891Y-100767539D01*
X141173346Y-100638488D01*
X141191578Y-100500000D01*
X141173346Y-100361512D01*
X141119891Y-100232461D01*
X141034857Y-100121643D01*
X141011712Y-100103883D01*
X141006602Y-100099962D01*
X140964735Y-100042624D01*
X140962196Y-100000000D01*
X151464922Y-100000000D01*
X151466000Y-100008188D01*
X151480245Y-100116388D01*
X151483154Y-100138488D01*
X151536609Y-100267539D01*
X151621643Y-100378357D01*
X151732461Y-100463391D01*
X151840610Y-100508188D01*
X151849835Y-100512009D01*
X151861512Y-100516846D01*
X152000000Y-100535078D01*
X152008188Y-100534000D01*
X152130300Y-100517924D01*
X152138488Y-100516846D01*
X152150166Y-100512009D01*
X152159390Y-100508188D01*
X152267539Y-100463391D01*
X152378357Y-100378357D01*
X152463391Y-100267539D01*
X152470656Y-100250000D01*
X154014922Y-100250000D01*
X154016000Y-100258188D01*
X154027743Y-100347383D01*
X154033154Y-100388488D01*
X154086609Y-100517539D01*
X154171643Y-100628357D01*
X154282461Y-100713391D01*
X154411512Y-100766846D01*
X154550000Y-100785078D01*
X154558188Y-100784000D01*
X154680300Y-100767924D01*
X154688488Y-100766846D01*
X154817539Y-100713391D01*
X154928357Y-100628357D01*
X155013391Y-100517539D01*
X155066846Y-100388488D01*
X155072258Y-100347383D01*
X155084000Y-100258188D01*
X155085078Y-100250000D01*
X155072505Y-100154500D01*
X157410569Y-100154500D01*
X157428801Y-100292988D01*
X157482256Y-100422039D01*
X157567290Y-100532857D01*
X157678108Y-100617891D01*
X157685737Y-100621051D01*
X157685742Y-100621054D01*
X157737495Y-100642491D01*
X157792776Y-100687039D01*
X157815196Y-100754403D01*
X157805685Y-100807117D01*
X157783154Y-100861512D01*
X157764922Y-101000000D01*
X157783154Y-101138488D01*
X157836609Y-101267539D01*
X157921643Y-101378357D01*
X158032461Y-101463391D01*
X158161512Y-101516846D01*
X158300000Y-101535078D01*
X158308188Y-101534000D01*
X158312374Y-101533449D01*
X158438488Y-101516846D01*
X158567539Y-101463391D01*
X158678357Y-101378357D01*
X158763391Y-101267539D01*
X158816846Y-101138488D01*
X158835078Y-101000000D01*
X158816846Y-100861512D01*
X158763391Y-100732461D01*
X158678357Y-100621643D01*
X158567539Y-100536609D01*
X158559910Y-100533449D01*
X158559905Y-100533446D01*
X158508152Y-100512009D01*
X158452871Y-100467461D01*
X158430451Y-100400097D01*
X158439962Y-100347383D01*
X158459333Y-100300618D01*
X158459334Y-100300615D01*
X158462493Y-100292988D01*
X158480725Y-100154500D01*
X158473550Y-100100000D01*
X158764922Y-100100000D01*
X158783154Y-100238488D01*
X158836609Y-100367539D01*
X158921643Y-100478357D01*
X159032461Y-100563391D01*
X159161512Y-100616846D01*
X159300000Y-100635078D01*
X159308188Y-100634000D01*
X159430300Y-100617924D01*
X159438488Y-100616846D01*
X159567539Y-100563391D01*
X159678357Y-100478357D01*
X159763391Y-100367539D01*
X159816846Y-100238488D01*
X159835078Y-100100000D01*
X159816846Y-99961512D01*
X159763391Y-99832461D01*
X159678357Y-99721643D01*
X159567539Y-99636609D01*
X159438488Y-99583154D01*
X159300000Y-99564922D01*
X159161512Y-99583154D01*
X159032461Y-99636609D01*
X158921643Y-99721643D01*
X158836609Y-99832461D01*
X158783154Y-99961512D01*
X158764922Y-100100000D01*
X158473550Y-100100000D01*
X158467581Y-100054657D01*
X158463571Y-100024200D01*
X158462493Y-100016012D01*
X158409038Y-99886961D01*
X158324004Y-99776143D01*
X158213186Y-99691109D01*
X158084135Y-99637654D01*
X158052195Y-99633449D01*
X158012270Y-99628193D01*
X157945647Y-99619422D01*
X157879024Y-99628193D01*
X157839100Y-99633449D01*
X157807159Y-99637654D01*
X157678108Y-99691109D01*
X157567290Y-99776143D01*
X157482256Y-99886961D01*
X157428801Y-100016012D01*
X157427723Y-100024200D01*
X157423713Y-100054657D01*
X157410569Y-100154500D01*
X155072505Y-100154500D01*
X155066846Y-100111512D01*
X155013391Y-99982461D01*
X154928357Y-99871643D01*
X154817539Y-99786609D01*
X154688488Y-99733154D01*
X154550000Y-99714922D01*
X154411512Y-99733154D01*
X154282461Y-99786609D01*
X154171643Y-99871643D01*
X154086609Y-99982461D01*
X154033154Y-100111512D01*
X154014922Y-100250000D01*
X152470656Y-100250000D01*
X152516846Y-100138488D01*
X152519756Y-100116388D01*
X152534000Y-100008188D01*
X152535078Y-100000000D01*
X152516846Y-99861512D01*
X152463391Y-99732461D01*
X152378357Y-99621643D01*
X152267539Y-99536609D01*
X152138488Y-99483154D01*
X152000000Y-99464922D01*
X151861512Y-99483154D01*
X151732461Y-99536609D01*
X151621643Y-99621643D01*
X151536609Y-99732461D01*
X151483154Y-99861512D01*
X151464922Y-100000000D01*
X140962196Y-100000000D01*
X140960513Y-99971753D01*
X140995277Y-99909850D01*
X141006602Y-99900038D01*
X141028307Y-99883383D01*
X141034857Y-99878357D01*
X141119891Y-99767539D01*
X141173346Y-99638488D01*
X141191578Y-99500000D01*
X141176848Y-99388113D01*
X141174424Y-99369700D01*
X141173346Y-99361512D01*
X141119891Y-99232461D01*
X141034857Y-99121643D01*
X140924039Y-99036609D01*
X140794988Y-98983154D01*
X140656500Y-98964922D01*
X140518012Y-98983154D01*
X140388961Y-99036609D01*
X140278143Y-99121643D01*
X140193109Y-99232461D01*
X140139654Y-99361512D01*
X140138576Y-99369700D01*
X140136152Y-99388113D01*
X140121422Y-99500000D01*
X140139654Y-99638488D01*
X140193109Y-99767539D01*
X140278143Y-99878357D01*
X140284693Y-99883383D01*
X140306398Y-99900038D01*
X140348265Y-99957376D01*
X140352487Y-100028247D01*
X140317723Y-100090150D01*
X140306398Y-100099962D01*
X140301288Y-100103883D01*
X140278143Y-100121643D01*
X140193109Y-100232461D01*
X140139654Y-100361512D01*
X140121422Y-100500000D01*
X127000000Y-100500000D01*
X127000000Y-99750000D01*
X128214757Y-99750000D01*
X128216308Y-99759793D01*
X128226780Y-99825908D01*
X128233612Y-99869047D01*
X128288332Y-99976440D01*
X128373560Y-100061668D01*
X128480953Y-100116388D01*
X128490742Y-100117938D01*
X128490744Y-100117939D01*
X128590207Y-100133692D01*
X128600000Y-100135243D01*
X128609793Y-100133692D01*
X128709256Y-100117939D01*
X128709258Y-100117938D01*
X128719047Y-100116388D01*
X128826440Y-100061668D01*
X128911668Y-99976440D01*
X128966388Y-99869047D01*
X128973221Y-99825908D01*
X128983692Y-99759793D01*
X128985243Y-99750000D01*
X131114757Y-99750000D01*
X131116308Y-99759793D01*
X131126780Y-99825908D01*
X131133612Y-99869047D01*
X131188332Y-99976440D01*
X131273560Y-100061668D01*
X131380953Y-100116388D01*
X131390742Y-100117938D01*
X131390744Y-100117939D01*
X131490207Y-100133692D01*
X131500000Y-100135243D01*
X131509793Y-100133692D01*
X131609256Y-100117939D01*
X131609258Y-100117938D01*
X131619047Y-100116388D01*
X131726440Y-100061668D01*
X131811668Y-99976440D01*
X131866388Y-99869047D01*
X131873221Y-99825908D01*
X131883692Y-99759793D01*
X131885243Y-99750000D01*
X131868790Y-99646117D01*
X131867939Y-99640744D01*
X131867938Y-99640742D01*
X131866388Y-99630953D01*
X131811668Y-99523560D01*
X131726440Y-99438332D01*
X131619047Y-99383612D01*
X131609258Y-99382062D01*
X131609256Y-99382061D01*
X131509793Y-99366308D01*
X131500000Y-99364757D01*
X131490207Y-99366308D01*
X131390744Y-99382061D01*
X131390742Y-99382062D01*
X131380953Y-99383612D01*
X131273560Y-99438332D01*
X131188332Y-99523560D01*
X131133612Y-99630953D01*
X131132062Y-99640742D01*
X131132061Y-99640744D01*
X131131210Y-99646117D01*
X131114757Y-99750000D01*
X128985243Y-99750000D01*
X128968790Y-99646117D01*
X128967939Y-99640744D01*
X128967938Y-99640742D01*
X128966388Y-99630953D01*
X128911668Y-99523560D01*
X128826440Y-99438332D01*
X128719047Y-99383612D01*
X128709258Y-99382062D01*
X128709256Y-99382061D01*
X128609793Y-99366308D01*
X128600000Y-99364757D01*
X128590207Y-99366308D01*
X128490744Y-99382061D01*
X128490742Y-99382062D01*
X128480953Y-99383612D01*
X128373560Y-99438332D01*
X128288332Y-99523560D01*
X128233612Y-99630953D01*
X128232062Y-99640742D01*
X128232061Y-99640744D01*
X128231210Y-99646117D01*
X128214757Y-99750000D01*
X127000000Y-99750000D01*
X127000000Y-98349716D01*
X134386206Y-98349716D01*
X134404438Y-98488204D01*
X134457893Y-98617255D01*
X134542927Y-98728073D01*
X134653745Y-98813107D01*
X134782796Y-98866562D01*
X134921284Y-98884794D01*
X134929472Y-98883716D01*
X135051584Y-98867640D01*
X135059772Y-98866562D01*
X135188823Y-98813107D01*
X135299641Y-98728073D01*
X135384675Y-98617255D01*
X135438130Y-98488204D01*
X135456362Y-98349716D01*
X135438130Y-98211228D01*
X135384675Y-98082177D01*
X135299641Y-97971359D01*
X135188823Y-97886325D01*
X135059772Y-97832870D01*
X134921284Y-97814638D01*
X134782796Y-97832870D01*
X134653745Y-97886325D01*
X134542927Y-97971359D01*
X134457893Y-98082177D01*
X134404438Y-98211228D01*
X134386206Y-98349716D01*
X127000000Y-98349716D01*
X127000000Y-97616500D01*
X135964922Y-97616500D01*
X135983154Y-97754988D01*
X136036609Y-97884039D01*
X136121643Y-97994857D01*
X136232461Y-98079891D01*
X136308796Y-98111510D01*
X136349468Y-98128357D01*
X136361512Y-98133346D01*
X136500000Y-98151578D01*
X136508188Y-98150500D01*
X136630300Y-98134424D01*
X136638488Y-98133346D01*
X136650533Y-98128357D01*
X136691204Y-98111510D01*
X136767539Y-98079891D01*
X136878357Y-97994857D01*
X136963391Y-97884039D01*
X136979988Y-97843971D01*
X154900090Y-97843971D01*
X154918322Y-97982459D01*
X154971777Y-98111510D01*
X155056811Y-98222328D01*
X155167629Y-98307362D01*
X155296680Y-98360817D01*
X155435168Y-98379049D01*
X155443356Y-98377971D01*
X155565468Y-98361895D01*
X155573656Y-98360817D01*
X155702707Y-98307362D01*
X155813525Y-98222328D01*
X155898559Y-98111510D01*
X155952014Y-97982459D01*
X155970246Y-97843971D01*
X155957875Y-97750000D01*
X156464922Y-97750000D01*
X156483154Y-97888488D01*
X156536609Y-98017539D01*
X156621643Y-98128357D01*
X156732461Y-98213391D01*
X156861512Y-98266846D01*
X157000000Y-98285078D01*
X157008188Y-98284000D01*
X157130300Y-98267924D01*
X157138488Y-98266846D01*
X157267539Y-98213391D01*
X157378357Y-98128357D01*
X157463391Y-98017539D01*
X157516846Y-97888488D01*
X157535078Y-97750000D01*
X157516846Y-97611512D01*
X157470656Y-97500000D01*
X165214922Y-97500000D01*
X165233154Y-97638488D01*
X165286609Y-97767539D01*
X165371643Y-97878357D01*
X165482461Y-97963391D01*
X165611512Y-98016846D01*
X165750000Y-98035078D01*
X165758188Y-98034000D01*
X165880300Y-98017924D01*
X165888488Y-98016846D01*
X166017539Y-97963391D01*
X166128357Y-97878357D01*
X166213391Y-97767539D01*
X166266846Y-97638488D01*
X166285078Y-97500000D01*
X166964922Y-97500000D01*
X166983154Y-97638488D01*
X167036609Y-97767539D01*
X167121643Y-97878357D01*
X167232461Y-97963391D01*
X167361512Y-98016846D01*
X167500000Y-98035078D01*
X167508188Y-98034000D01*
X167630300Y-98017924D01*
X167638488Y-98016846D01*
X167767539Y-97963391D01*
X167878357Y-97878357D01*
X167963391Y-97767539D01*
X168016846Y-97638488D01*
X168035078Y-97500000D01*
X171714922Y-97500000D01*
X171733154Y-97638488D01*
X171786609Y-97767539D01*
X171871643Y-97878357D01*
X171982461Y-97963391D01*
X172111512Y-98016846D01*
X172250000Y-98035078D01*
X172258188Y-98034000D01*
X172380300Y-98017924D01*
X172388488Y-98016846D01*
X172517539Y-97963391D01*
X172628357Y-97878357D01*
X172713391Y-97767539D01*
X172766846Y-97638488D01*
X172785078Y-97500000D01*
X174464922Y-97500000D01*
X174483154Y-97638488D01*
X174536609Y-97767539D01*
X174621643Y-97878357D01*
X174732461Y-97963391D01*
X174861512Y-98016846D01*
X175000000Y-98035078D01*
X175008188Y-98034000D01*
X175130300Y-98017924D01*
X175138488Y-98016846D01*
X175267539Y-97963391D01*
X175378357Y-97878357D01*
X175463391Y-97767539D01*
X175516846Y-97638488D01*
X175535078Y-97500000D01*
X175516846Y-97361512D01*
X175463391Y-97232461D01*
X175378357Y-97121643D01*
X175267539Y-97036609D01*
X175138488Y-96983154D01*
X175094630Y-96977380D01*
X175008188Y-96966000D01*
X175000000Y-96964922D01*
X174991812Y-96966000D01*
X174905371Y-96977380D01*
X174861512Y-96983154D01*
X174732461Y-97036609D01*
X174621643Y-97121643D01*
X174536609Y-97232461D01*
X174483154Y-97361512D01*
X174464922Y-97500000D01*
X172785078Y-97500000D01*
X172766846Y-97361512D01*
X172713391Y-97232461D01*
X172628357Y-97121643D01*
X172517539Y-97036609D01*
X172388488Y-96983154D01*
X172344630Y-96977380D01*
X172258188Y-96966000D01*
X172250000Y-96964922D01*
X172241812Y-96966000D01*
X172155371Y-96977380D01*
X172111512Y-96983154D01*
X171982461Y-97036609D01*
X171871643Y-97121643D01*
X171786609Y-97232461D01*
X171733154Y-97361512D01*
X171714922Y-97500000D01*
X168035078Y-97500000D01*
X168016846Y-97361512D01*
X167963391Y-97232461D01*
X167878357Y-97121643D01*
X167767539Y-97036609D01*
X167638488Y-96983154D01*
X167594630Y-96977380D01*
X167508188Y-96966000D01*
X167500000Y-96964922D01*
X167491812Y-96966000D01*
X167405371Y-96977380D01*
X167361512Y-96983154D01*
X167232461Y-97036609D01*
X167121643Y-97121643D01*
X167036609Y-97232461D01*
X166983154Y-97361512D01*
X166964922Y-97500000D01*
X166285078Y-97500000D01*
X166266846Y-97361512D01*
X166213391Y-97232461D01*
X166128357Y-97121643D01*
X166017539Y-97036609D01*
X165888488Y-96983154D01*
X165844630Y-96977380D01*
X165758188Y-96966000D01*
X165750000Y-96964922D01*
X165741812Y-96966000D01*
X165655371Y-96977380D01*
X165611512Y-96983154D01*
X165482461Y-97036609D01*
X165371643Y-97121643D01*
X165286609Y-97232461D01*
X165233154Y-97361512D01*
X165214922Y-97500000D01*
X157470656Y-97500000D01*
X157463391Y-97482461D01*
X157378357Y-97371643D01*
X157267539Y-97286609D01*
X157155235Y-97240091D01*
X157146117Y-97236314D01*
X157138488Y-97233154D01*
X157000000Y-97214922D01*
X156861512Y-97233154D01*
X156853883Y-97236314D01*
X156844765Y-97240091D01*
X156732461Y-97286609D01*
X156621643Y-97371643D01*
X156536609Y-97482461D01*
X156483154Y-97611512D01*
X156464922Y-97750000D01*
X155957875Y-97750000D01*
X155952014Y-97705483D01*
X155898559Y-97576432D01*
X155813525Y-97465614D01*
X155702707Y-97380580D01*
X155573656Y-97327125D01*
X155435168Y-97308893D01*
X155296680Y-97327125D01*
X155167629Y-97380580D01*
X155056811Y-97465614D01*
X154971777Y-97576432D01*
X154918322Y-97705483D01*
X154900090Y-97843971D01*
X136979988Y-97843971D01*
X137016846Y-97754988D01*
X137035078Y-97616500D01*
X137016846Y-97478012D01*
X136963391Y-97348961D01*
X136878357Y-97238143D01*
X136767539Y-97153109D01*
X136638488Y-97099654D01*
X136500000Y-97081422D01*
X136361512Y-97099654D01*
X136232461Y-97153109D01*
X136121643Y-97238143D01*
X136036609Y-97348961D01*
X135983154Y-97478012D01*
X135964922Y-97616500D01*
X127000000Y-97616500D01*
X127000000Y-96849500D01*
X128196244Y-96849500D01*
X128197795Y-96859293D01*
X128203471Y-96895127D01*
X128215099Y-96968547D01*
X128269819Y-97075940D01*
X128355047Y-97161168D01*
X128462440Y-97215888D01*
X128472229Y-97217438D01*
X128472231Y-97217439D01*
X128571694Y-97233192D01*
X128581487Y-97234743D01*
X128591280Y-97233192D01*
X128690743Y-97217439D01*
X128690745Y-97217438D01*
X128700534Y-97215888D01*
X128807927Y-97161168D01*
X128893155Y-97075940D01*
X128947875Y-96968547D01*
X128959504Y-96895127D01*
X128965179Y-96859293D01*
X128966730Y-96849500D01*
X131116242Y-96849500D01*
X131117793Y-96859293D01*
X131123469Y-96895127D01*
X131135097Y-96968547D01*
X131189817Y-97075940D01*
X131275045Y-97161168D01*
X131382438Y-97215888D01*
X131392227Y-97217438D01*
X131392229Y-97217439D01*
X131491692Y-97233192D01*
X131501485Y-97234743D01*
X131511278Y-97233192D01*
X131610741Y-97217439D01*
X131610743Y-97217438D01*
X131620532Y-97215888D01*
X131727925Y-97161168D01*
X131813153Y-97075940D01*
X131867873Y-96968547D01*
X131879502Y-96895127D01*
X131885177Y-96859293D01*
X131886728Y-96849500D01*
X131867873Y-96730453D01*
X131813153Y-96623060D01*
X131727925Y-96537832D01*
X131620532Y-96483112D01*
X131610743Y-96481562D01*
X131610741Y-96481561D01*
X131511278Y-96465808D01*
X131501485Y-96464257D01*
X131491692Y-96465808D01*
X131392229Y-96481561D01*
X131392227Y-96481562D01*
X131382438Y-96483112D01*
X131275045Y-96537832D01*
X131189817Y-96623060D01*
X131135097Y-96730453D01*
X131116242Y-96849500D01*
X128966730Y-96849500D01*
X128947875Y-96730453D01*
X128893155Y-96623060D01*
X128807927Y-96537832D01*
X128700534Y-96483112D01*
X128690745Y-96481562D01*
X128690743Y-96481561D01*
X128591280Y-96465808D01*
X128581487Y-96464257D01*
X128571694Y-96465808D01*
X128472231Y-96481561D01*
X128472229Y-96481562D01*
X128462440Y-96483112D01*
X128355047Y-96537832D01*
X128269819Y-96623060D01*
X128215099Y-96730453D01*
X128196244Y-96849500D01*
X127000000Y-96849500D01*
X127000000Y-95000000D01*
X133096422Y-95000000D01*
X133114654Y-95138488D01*
X133168109Y-95267539D01*
X133253143Y-95378357D01*
X133363961Y-95463391D01*
X133493012Y-95516846D01*
X133631500Y-95535078D01*
X133639688Y-95534000D01*
X133761800Y-95517924D01*
X133769988Y-95516846D01*
X133899039Y-95463391D01*
X134009857Y-95378357D01*
X134094891Y-95267539D01*
X134148346Y-95138488D01*
X134166578Y-95000000D01*
X134148346Y-94861512D01*
X134094891Y-94732461D01*
X134009857Y-94621643D01*
X133899039Y-94536609D01*
X133769988Y-94483154D01*
X133631500Y-94464922D01*
X133493012Y-94483154D01*
X133363961Y-94536609D01*
X133253143Y-94621643D01*
X133168109Y-94732461D01*
X133114654Y-94861512D01*
X133096422Y-95000000D01*
X127000000Y-95000000D01*
X127000000Y-93500000D01*
X144214922Y-93500000D01*
X144233154Y-93638488D01*
X144286609Y-93767539D01*
X144371643Y-93878357D01*
X144482461Y-93963391D01*
X144611512Y-94016846D01*
X144750000Y-94035078D01*
X144758188Y-94034000D01*
X144880300Y-94017924D01*
X144888488Y-94016846D01*
X145017539Y-93963391D01*
X145128357Y-93878357D01*
X145213391Y-93767539D01*
X145266846Y-93638488D01*
X145267924Y-93630300D01*
X145270061Y-93622324D01*
X145273296Y-93623191D01*
X145295728Y-93572528D01*
X145355007Y-93533456D01*
X145425999Y-93532636D01*
X145486164Y-93570326D01*
X145508308Y-93605714D01*
X145536609Y-93674039D01*
X145621643Y-93784857D01*
X145732461Y-93869891D01*
X145861512Y-93923346D01*
X146000000Y-93941578D01*
X146008188Y-93940500D01*
X146130300Y-93924424D01*
X146138488Y-93923346D01*
X146267539Y-93869891D01*
X146378357Y-93784857D01*
X146463391Y-93674039D01*
X146516846Y-93544988D01*
X146535078Y-93406500D01*
X146516846Y-93268012D01*
X146463391Y-93138961D01*
X146378357Y-93028143D01*
X146267539Y-92943109D01*
X146138488Y-92889654D01*
X146130300Y-92888576D01*
X146026586Y-92874922D01*
X145999577Y-92862974D01*
X145973414Y-92874922D01*
X145869700Y-92888576D01*
X145861512Y-92889654D01*
X145732461Y-92943109D01*
X145621643Y-93028143D01*
X145536609Y-93138961D01*
X145483154Y-93268012D01*
X145482076Y-93276200D01*
X145479939Y-93284176D01*
X145476704Y-93283309D01*
X145454272Y-93333972D01*
X145394993Y-93373044D01*
X145324001Y-93373864D01*
X145263836Y-93336174D01*
X145241691Y-93300784D01*
X145235186Y-93285078D01*
X145213391Y-93232461D01*
X145128357Y-93121643D01*
X145017539Y-93036609D01*
X144888488Y-92983154D01*
X144750000Y-92964922D01*
X144611512Y-92983154D01*
X144482461Y-93036609D01*
X144371643Y-93121643D01*
X144286609Y-93232461D01*
X144233154Y-93361512D01*
X144214922Y-93500000D01*
X127000000Y-93500000D01*
X127000000Y-92750000D01*
X129214922Y-92750000D01*
X129233154Y-92888488D01*
X129286609Y-93017539D01*
X129371643Y-93128357D01*
X129482461Y-93213391D01*
X129611512Y-93266846D01*
X129619700Y-93267924D01*
X129680756Y-93275962D01*
X129750000Y-93285078D01*
X129758188Y-93284000D01*
X129880300Y-93267924D01*
X129888488Y-93266846D01*
X130017539Y-93213391D01*
X130128357Y-93128357D01*
X130213391Y-93017539D01*
X130266846Y-92888488D01*
X130285078Y-92750000D01*
X130266846Y-92611512D01*
X130241367Y-92550000D01*
X134964922Y-92550000D01*
X134983154Y-92688488D01*
X135036609Y-92817539D01*
X135121643Y-92928357D01*
X135232461Y-93013391D01*
X135361512Y-93066846D01*
X135500000Y-93085078D01*
X135508188Y-93084000D01*
X135630300Y-93067924D01*
X135638488Y-93066846D01*
X135767539Y-93013391D01*
X135878357Y-92928357D01*
X135963391Y-92817539D01*
X135991367Y-92750000D01*
X138714922Y-92750000D01*
X138733154Y-92888488D01*
X138786609Y-93017539D01*
X138871643Y-93128357D01*
X138982461Y-93213391D01*
X139111512Y-93266846D01*
X139119700Y-93267924D01*
X139180756Y-93275962D01*
X139250000Y-93285078D01*
X139258188Y-93284000D01*
X139380300Y-93267924D01*
X139388488Y-93266846D01*
X139517539Y-93213391D01*
X139628357Y-93128357D01*
X139713391Y-93017539D01*
X139766846Y-92888488D01*
X139785078Y-92750000D01*
X139766846Y-92611512D01*
X139713391Y-92482461D01*
X139628357Y-92371643D01*
X139517539Y-92286609D01*
X139388488Y-92233154D01*
X139379632Y-92231988D01*
X139258188Y-92216000D01*
X139250000Y-92214922D01*
X139241812Y-92216000D01*
X139120369Y-92231988D01*
X139111512Y-92233154D01*
X138982461Y-92286609D01*
X138871643Y-92371643D01*
X138786609Y-92482461D01*
X138733154Y-92611512D01*
X138714922Y-92750000D01*
X135991367Y-92750000D01*
X136016846Y-92688488D01*
X136035078Y-92550000D01*
X136016846Y-92411512D01*
X135963391Y-92282461D01*
X135878357Y-92171643D01*
X135776519Y-92093500D01*
X145464922Y-92093500D01*
X145483154Y-92231988D01*
X145536609Y-92361039D01*
X145621643Y-92471857D01*
X145732461Y-92556891D01*
X145861512Y-92610346D01*
X145869700Y-92611424D01*
X145973414Y-92625078D01*
X146000423Y-92637026D01*
X146026586Y-92625078D01*
X146130300Y-92611424D01*
X146138488Y-92610346D01*
X146267539Y-92556891D01*
X146378357Y-92471857D01*
X146400038Y-92443602D01*
X146457376Y-92401735D01*
X146528247Y-92397513D01*
X146590150Y-92432277D01*
X146599962Y-92443602D01*
X146621643Y-92471857D01*
X146732461Y-92556891D01*
X146861512Y-92610346D01*
X146869700Y-92611424D01*
X146930756Y-92619462D01*
X147000000Y-92628578D01*
X147008188Y-92627500D01*
X147026586Y-92625078D01*
X147069244Y-92619462D01*
X147130300Y-92611424D01*
X147138488Y-92610346D01*
X147267539Y-92556891D01*
X147378357Y-92471857D01*
X147400038Y-92443602D01*
X147457376Y-92401735D01*
X147528247Y-92397513D01*
X147590150Y-92432277D01*
X147599962Y-92443602D01*
X147621643Y-92471857D01*
X147732461Y-92556891D01*
X147861512Y-92610346D01*
X147869700Y-92611424D01*
X147930756Y-92619462D01*
X148000000Y-92628578D01*
X148008188Y-92627500D01*
X148026586Y-92625078D01*
X148069244Y-92619462D01*
X148130300Y-92611424D01*
X148138488Y-92610346D01*
X148267539Y-92556891D01*
X148378357Y-92471857D01*
X148400038Y-92443602D01*
X148457376Y-92401735D01*
X148528247Y-92397513D01*
X148590150Y-92432277D01*
X148599962Y-92443602D01*
X148621643Y-92471857D01*
X148732461Y-92556891D01*
X148861512Y-92610346D01*
X148869700Y-92611424D01*
X148930756Y-92619462D01*
X149000000Y-92628578D01*
X149008188Y-92627500D01*
X149026586Y-92625078D01*
X149069244Y-92619462D01*
X149130300Y-92611424D01*
X149138488Y-92610346D01*
X149267539Y-92556891D01*
X149378357Y-92471857D01*
X149400038Y-92443602D01*
X149457376Y-92401735D01*
X149528247Y-92397513D01*
X149590150Y-92432277D01*
X149599962Y-92443602D01*
X149621643Y-92471857D01*
X149732461Y-92556891D01*
X149861512Y-92610346D01*
X149869700Y-92611424D01*
X149930756Y-92619462D01*
X150000000Y-92628578D01*
X150008188Y-92627500D01*
X150026586Y-92625078D01*
X150069244Y-92619462D01*
X150130300Y-92611424D01*
X150138488Y-92610346D01*
X150267539Y-92556891D01*
X150378357Y-92471857D01*
X150463391Y-92361039D01*
X150516846Y-92231988D01*
X150535078Y-92093500D01*
X150516846Y-91955012D01*
X150463391Y-91825961D01*
X150378357Y-91715143D01*
X150267539Y-91630109D01*
X150138488Y-91576654D01*
X150000000Y-91558422D01*
X149861512Y-91576654D01*
X149732461Y-91630109D01*
X149621643Y-91715143D01*
X149616617Y-91721693D01*
X149599962Y-91743398D01*
X149542624Y-91785265D01*
X149471753Y-91789487D01*
X149409850Y-91754723D01*
X149400038Y-91743398D01*
X149383383Y-91721693D01*
X149378357Y-91715143D01*
X149267539Y-91630109D01*
X149138488Y-91576654D01*
X149000000Y-91558422D01*
X148861512Y-91576654D01*
X148732461Y-91630109D01*
X148621643Y-91715143D01*
X148616617Y-91721693D01*
X148599962Y-91743398D01*
X148542624Y-91785265D01*
X148471753Y-91789487D01*
X148409850Y-91754723D01*
X148400038Y-91743398D01*
X148383383Y-91721693D01*
X148378357Y-91715143D01*
X148267539Y-91630109D01*
X148138488Y-91576654D01*
X148000000Y-91558422D01*
X147861512Y-91576654D01*
X147732461Y-91630109D01*
X147621643Y-91715143D01*
X147616617Y-91721693D01*
X147599962Y-91743398D01*
X147542624Y-91785265D01*
X147471753Y-91789487D01*
X147409850Y-91754723D01*
X147400038Y-91743398D01*
X147383383Y-91721693D01*
X147378357Y-91715143D01*
X147267539Y-91630109D01*
X147138488Y-91576654D01*
X147000000Y-91558422D01*
X146861512Y-91576654D01*
X146732461Y-91630109D01*
X146621643Y-91715143D01*
X146616617Y-91721693D01*
X146599962Y-91743398D01*
X146542624Y-91785265D01*
X146471753Y-91789487D01*
X146409850Y-91754723D01*
X146400038Y-91743398D01*
X146383383Y-91721693D01*
X146378357Y-91715143D01*
X146267539Y-91630109D01*
X146138488Y-91576654D01*
X146000000Y-91558422D01*
X145861512Y-91576654D01*
X145732461Y-91630109D01*
X145621643Y-91715143D01*
X145536609Y-91825961D01*
X145483154Y-91955012D01*
X145464922Y-92093500D01*
X135776519Y-92093500D01*
X135767539Y-92086609D01*
X135638488Y-92033154D01*
X135500000Y-92014922D01*
X135361512Y-92033154D01*
X135232461Y-92086609D01*
X135121643Y-92171643D01*
X135036609Y-92282461D01*
X134983154Y-92411512D01*
X134964922Y-92550000D01*
X130241367Y-92550000D01*
X130213391Y-92482461D01*
X130128357Y-92371643D01*
X130100102Y-92349962D01*
X130058235Y-92292624D01*
X130054013Y-92221753D01*
X130088777Y-92159850D01*
X130100102Y-92150038D01*
X130121807Y-92133383D01*
X130128357Y-92128357D01*
X130213391Y-92017539D01*
X130266846Y-91888488D01*
X130285078Y-91750000D01*
X130266846Y-91611512D01*
X130220656Y-91500000D01*
X136464922Y-91500000D01*
X136483154Y-91638488D01*
X136536609Y-91767539D01*
X136621643Y-91878357D01*
X136732461Y-91963391D01*
X136861512Y-92016846D01*
X137000000Y-92035078D01*
X137008188Y-92034000D01*
X137130300Y-92017924D01*
X137138488Y-92016846D01*
X137267539Y-91963391D01*
X137378357Y-91878357D01*
X137463391Y-91767539D01*
X137516846Y-91638488D01*
X137535078Y-91500000D01*
X137527047Y-91439000D01*
X141214922Y-91439000D01*
X141233154Y-91577488D01*
X141286609Y-91706539D01*
X141371643Y-91817357D01*
X141482461Y-91902391D01*
X141611512Y-91955846D01*
X141750000Y-91974078D01*
X141758188Y-91973000D01*
X141880300Y-91956924D01*
X141888488Y-91955846D01*
X142017539Y-91902391D01*
X142128357Y-91817357D01*
X142213391Y-91706539D01*
X142266846Y-91577488D01*
X142277047Y-91500000D01*
X154464922Y-91500000D01*
X154483154Y-91638488D01*
X154536609Y-91767539D01*
X154621643Y-91878357D01*
X154732461Y-91963391D01*
X154861512Y-92016846D01*
X155000000Y-92035078D01*
X155008188Y-92034000D01*
X155130300Y-92017924D01*
X155138488Y-92016846D01*
X155267539Y-91963391D01*
X155378357Y-91878357D01*
X155463391Y-91767539D01*
X155516846Y-91638488D01*
X155535078Y-91500000D01*
X155516846Y-91361512D01*
X155463391Y-91232461D01*
X155378357Y-91121643D01*
X155267539Y-91036609D01*
X155138488Y-90983154D01*
X155000000Y-90964922D01*
X154861512Y-90983154D01*
X154732461Y-91036609D01*
X154621643Y-91121643D01*
X154536609Y-91232461D01*
X154483154Y-91361512D01*
X154464922Y-91500000D01*
X142277047Y-91500000D01*
X142285078Y-91439000D01*
X142266846Y-91300512D01*
X142213391Y-91171461D01*
X142128357Y-91060643D01*
X142017539Y-90975609D01*
X141888488Y-90922154D01*
X141750000Y-90903922D01*
X141611512Y-90922154D01*
X141482461Y-90975609D01*
X141371643Y-91060643D01*
X141286609Y-91171461D01*
X141233154Y-91300512D01*
X141214922Y-91439000D01*
X137527047Y-91439000D01*
X137516846Y-91361512D01*
X137463391Y-91232461D01*
X137378357Y-91121643D01*
X137267539Y-91036609D01*
X137138488Y-90983154D01*
X137000000Y-90964922D01*
X136861512Y-90983154D01*
X136732461Y-91036609D01*
X136621643Y-91121643D01*
X136536609Y-91232461D01*
X136483154Y-91361512D01*
X136464922Y-91500000D01*
X130220656Y-91500000D01*
X130213391Y-91482461D01*
X130128357Y-91371643D01*
X130100102Y-91349962D01*
X130058235Y-91292624D01*
X130054013Y-91221753D01*
X130088777Y-91159850D01*
X130100102Y-91150038D01*
X130121807Y-91133383D01*
X130128357Y-91128357D01*
X130213391Y-91017539D01*
X130266846Y-90888488D01*
X130285078Y-90750000D01*
X130266846Y-90611512D01*
X130213391Y-90482461D01*
X130128357Y-90371643D01*
X130017539Y-90286609D01*
X129929158Y-90250000D01*
X151214922Y-90250000D01*
X151233154Y-90388488D01*
X151286609Y-90517539D01*
X151371643Y-90628357D01*
X151482461Y-90713391D01*
X151611512Y-90766846D01*
X151750000Y-90785078D01*
X151758188Y-90784000D01*
X151880300Y-90767924D01*
X151888488Y-90766846D01*
X152017539Y-90713391D01*
X152128357Y-90628357D01*
X152213391Y-90517539D01*
X152266846Y-90388488D01*
X152285078Y-90250000D01*
X152266846Y-90111512D01*
X152256398Y-90086288D01*
X152248808Y-90015699D01*
X152280586Y-89952212D01*
X152341643Y-89915983D01*
X152412595Y-89918516D01*
X152449507Y-89938104D01*
X152482461Y-89963391D01*
X152611512Y-90016846D01*
X152750000Y-90035078D01*
X152758188Y-90034000D01*
X152880300Y-90017924D01*
X152888488Y-90016846D01*
X153017539Y-89963391D01*
X153128357Y-89878357D01*
X153213391Y-89767539D01*
X153266846Y-89638488D01*
X153285078Y-89500000D01*
X153266846Y-89361512D01*
X153256398Y-89336288D01*
X153248808Y-89265699D01*
X153280586Y-89202212D01*
X153341643Y-89165983D01*
X153412595Y-89168516D01*
X153449507Y-89188104D01*
X153482461Y-89213391D01*
X153611512Y-89266846D01*
X153750000Y-89285078D01*
X153758188Y-89284000D01*
X153880300Y-89267924D01*
X153888488Y-89266846D01*
X154017539Y-89213391D01*
X154128357Y-89128357D01*
X154213391Y-89017539D01*
X154266846Y-88888488D01*
X154285078Y-88750000D01*
X154266846Y-88611512D01*
X154213391Y-88482461D01*
X154128357Y-88371643D01*
X154017539Y-88286609D01*
X153888488Y-88233154D01*
X153750000Y-88214922D01*
X153611512Y-88233154D01*
X153482461Y-88286609D01*
X153371643Y-88371643D01*
X153286609Y-88482461D01*
X153233154Y-88611512D01*
X153214922Y-88750000D01*
X153233154Y-88888488D01*
X153236313Y-88896115D01*
X153236314Y-88896118D01*
X153243602Y-88913711D01*
X153251192Y-88984301D01*
X153219414Y-89047788D01*
X153158357Y-89084017D01*
X153087405Y-89081484D01*
X153050493Y-89061896D01*
X153017539Y-89036609D01*
X152888488Y-88983154D01*
X152750000Y-88964922D01*
X152611512Y-88983154D01*
X152482461Y-89036609D01*
X152371643Y-89121643D01*
X152286609Y-89232461D01*
X152233154Y-89361512D01*
X152214922Y-89500000D01*
X152233154Y-89638488D01*
X152236313Y-89646115D01*
X152236314Y-89646118D01*
X152243602Y-89663711D01*
X152251192Y-89734301D01*
X152219414Y-89797788D01*
X152158357Y-89834017D01*
X152087405Y-89831484D01*
X152050493Y-89811896D01*
X152017539Y-89786609D01*
X151888488Y-89733154D01*
X151750000Y-89714922D01*
X151611512Y-89733154D01*
X151482461Y-89786609D01*
X151371643Y-89871643D01*
X151286609Y-89982461D01*
X151233154Y-90111512D01*
X151214922Y-90250000D01*
X129929158Y-90250000D01*
X129888488Y-90233154D01*
X129750000Y-90214922D01*
X129611512Y-90233154D01*
X129482461Y-90286609D01*
X129371643Y-90371643D01*
X129286609Y-90482461D01*
X129233154Y-90611512D01*
X129214922Y-90750000D01*
X129233154Y-90888488D01*
X129286609Y-91017539D01*
X129371643Y-91128357D01*
X129378193Y-91133383D01*
X129399898Y-91150038D01*
X129441765Y-91207376D01*
X129445987Y-91278247D01*
X129411223Y-91340150D01*
X129399898Y-91349962D01*
X129371643Y-91371643D01*
X129286609Y-91482461D01*
X129233154Y-91611512D01*
X129214922Y-91750000D01*
X129233154Y-91888488D01*
X129286609Y-92017539D01*
X129371643Y-92128357D01*
X129378193Y-92133383D01*
X129399898Y-92150038D01*
X129441765Y-92207376D01*
X129445987Y-92278247D01*
X129411223Y-92340150D01*
X129399898Y-92349962D01*
X129371643Y-92371643D01*
X129286609Y-92482461D01*
X129233154Y-92611512D01*
X129214922Y-92750000D01*
X127000000Y-92750000D01*
X127000000Y-89595395D01*
X137144570Y-89595395D01*
X137162802Y-89733883D01*
X137216257Y-89862934D01*
X137301291Y-89973752D01*
X137412109Y-90058786D01*
X137541160Y-90112241D01*
X137679648Y-90130473D01*
X137687836Y-90129395D01*
X137809948Y-90113319D01*
X137818136Y-90112241D01*
X137947187Y-90058786D01*
X138058005Y-89973752D01*
X138143039Y-89862934D01*
X138196494Y-89733883D01*
X138214726Y-89595395D01*
X138197944Y-89467924D01*
X138197572Y-89465095D01*
X138196494Y-89456907D01*
X138143039Y-89327856D01*
X138058005Y-89217038D01*
X137947187Y-89132004D01*
X137818136Y-89078549D01*
X137679648Y-89060317D01*
X137541160Y-89078549D01*
X137412109Y-89132004D01*
X137301291Y-89217038D01*
X137216257Y-89327856D01*
X137162802Y-89456907D01*
X137161724Y-89465095D01*
X137161352Y-89467924D01*
X137144570Y-89595395D01*
X127000000Y-89595395D01*
X127000000Y-89500000D01*
X126040520Y-89500000D01*
X125972399Y-89479998D01*
X125925906Y-89426342D01*
X125915802Y-89356068D01*
X125940557Y-89297297D01*
X125958363Y-89274092D01*
X125958364Y-89274090D01*
X125963391Y-89267539D01*
X126016846Y-89138488D01*
X126035078Y-89000000D01*
X126028495Y-88950000D01*
X144564922Y-88950000D01*
X144567028Y-88966000D01*
X144581846Y-89078549D01*
X144583154Y-89088488D01*
X144636609Y-89217539D01*
X144721643Y-89328357D01*
X144832461Y-89413391D01*
X144961512Y-89466846D01*
X145100000Y-89485078D01*
X145108188Y-89484000D01*
X145109237Y-89483862D01*
X145238488Y-89466846D01*
X145367539Y-89413391D01*
X145478357Y-89328357D01*
X145563391Y-89217539D01*
X145616846Y-89088488D01*
X145618155Y-89078549D01*
X145632972Y-88966000D01*
X145635078Y-88950000D01*
X145616846Y-88811512D01*
X145563391Y-88682461D01*
X145478357Y-88571643D01*
X145367539Y-88486609D01*
X145238488Y-88433154D01*
X145221770Y-88430953D01*
X145108188Y-88416000D01*
X145100000Y-88414922D01*
X145091812Y-88416000D01*
X144978231Y-88430953D01*
X144961512Y-88433154D01*
X144832461Y-88486609D01*
X144721643Y-88571643D01*
X144636609Y-88682461D01*
X144583154Y-88811512D01*
X144564922Y-88950000D01*
X126028495Y-88950000D01*
X126016846Y-88861512D01*
X125963391Y-88732461D01*
X125878357Y-88621643D01*
X125784990Y-88550000D01*
X139064757Y-88550000D01*
X139083612Y-88669047D01*
X139138332Y-88776440D01*
X139223560Y-88861668D01*
X139330953Y-88916388D01*
X139340742Y-88917938D01*
X139340744Y-88917939D01*
X139440207Y-88933692D01*
X139450000Y-88935243D01*
X139459793Y-88933692D01*
X139559256Y-88917939D01*
X139559258Y-88917938D01*
X139569047Y-88916388D01*
X139676440Y-88861668D01*
X139761668Y-88776440D01*
X139816388Y-88669047D01*
X139835243Y-88550000D01*
X142664757Y-88550000D01*
X142683612Y-88669047D01*
X142738332Y-88776440D01*
X142823560Y-88861668D01*
X142930953Y-88916388D01*
X142940742Y-88917938D01*
X142940744Y-88917939D01*
X143040207Y-88933692D01*
X143050000Y-88935243D01*
X143059793Y-88933692D01*
X143159256Y-88917939D01*
X143159258Y-88917938D01*
X143169047Y-88916388D01*
X143276440Y-88861668D01*
X143361668Y-88776440D01*
X143416388Y-88669047D01*
X143435243Y-88550000D01*
X143432622Y-88533449D01*
X143417939Y-88440744D01*
X143417938Y-88440742D01*
X143416388Y-88430953D01*
X143361668Y-88323560D01*
X143276440Y-88238332D01*
X143169047Y-88183612D01*
X143159258Y-88182062D01*
X143159256Y-88182061D01*
X143059793Y-88166308D01*
X143050000Y-88164757D01*
X143040207Y-88166308D01*
X142940744Y-88182061D01*
X142940742Y-88182062D01*
X142930953Y-88183612D01*
X142823560Y-88238332D01*
X142738332Y-88323560D01*
X142683612Y-88430953D01*
X142682062Y-88440742D01*
X142682061Y-88440744D01*
X142667378Y-88533449D01*
X142664757Y-88550000D01*
X139835243Y-88550000D01*
X139832622Y-88533449D01*
X139817939Y-88440744D01*
X139817938Y-88440742D01*
X139816388Y-88430953D01*
X139761668Y-88323560D01*
X139676440Y-88238332D01*
X139569047Y-88183612D01*
X139559258Y-88182062D01*
X139559256Y-88182061D01*
X139459793Y-88166308D01*
X139450000Y-88164757D01*
X139440207Y-88166308D01*
X139340744Y-88182061D01*
X139340742Y-88182062D01*
X139330953Y-88183612D01*
X139223560Y-88238332D01*
X139138332Y-88323560D01*
X139083612Y-88430953D01*
X139082062Y-88440742D01*
X139082061Y-88440744D01*
X139067378Y-88533449D01*
X139064757Y-88550000D01*
X125784990Y-88550000D01*
X125767539Y-88536609D01*
X125638488Y-88483154D01*
X125500000Y-88464922D01*
X125361512Y-88483154D01*
X125232461Y-88536609D01*
X125121643Y-88621643D01*
X125036609Y-88732461D01*
X124983154Y-88861512D01*
X124964922Y-89000000D01*
X124983154Y-89138488D01*
X125036609Y-89267539D01*
X125041636Y-89274090D01*
X125041637Y-89274092D01*
X125059443Y-89297297D01*
X125085043Y-89363517D01*
X125070778Y-89433066D01*
X125021176Y-89483862D01*
X124959480Y-89500000D01*
X122379504Y-89500000D01*
X122311383Y-89479998D01*
X122264890Y-89426342D01*
X122254786Y-89356068D01*
X122261873Y-89328846D01*
X122439130Y-88867075D01*
X122440777Y-88862997D01*
X122708587Y-88232076D01*
X122844465Y-87911966D01*
X122846248Y-87907962D01*
X123129745Y-87300000D01*
X132871422Y-87300000D01*
X132889654Y-87438488D01*
X132943109Y-87567539D01*
X133028143Y-87678357D01*
X133138961Y-87763391D01*
X133268012Y-87816846D01*
X133406500Y-87835078D01*
X133414688Y-87834000D01*
X133536800Y-87817924D01*
X133544988Y-87816846D01*
X133674039Y-87763391D01*
X133784857Y-87678357D01*
X133869891Y-87567539D01*
X133897867Y-87500000D01*
X154214922Y-87500000D01*
X154233154Y-87638488D01*
X154286609Y-87767539D01*
X154371643Y-87878357D01*
X154482461Y-87963391D01*
X154611512Y-88016846D01*
X154750000Y-88035078D01*
X154758188Y-88034000D01*
X154880300Y-88017924D01*
X154888488Y-88016846D01*
X155017539Y-87963391D01*
X155128357Y-87878357D01*
X155213391Y-87767539D01*
X155266846Y-87638488D01*
X155285078Y-87500000D01*
X155266846Y-87361512D01*
X155213391Y-87232461D01*
X155128357Y-87121643D01*
X155017539Y-87036609D01*
X154929158Y-87000000D01*
X161964922Y-87000000D01*
X161983154Y-87138488D01*
X162036609Y-87267539D01*
X162121643Y-87378357D01*
X162232461Y-87463391D01*
X162361512Y-87516846D01*
X162500000Y-87535078D01*
X162508188Y-87534000D01*
X162630300Y-87517924D01*
X162638488Y-87516846D01*
X162767539Y-87463391D01*
X162878357Y-87378357D01*
X162963391Y-87267539D01*
X163016846Y-87138488D01*
X163035078Y-87000000D01*
X163024101Y-86916617D01*
X163017924Y-86869700D01*
X163016846Y-86861512D01*
X162963391Y-86732461D01*
X162878357Y-86621643D01*
X162767539Y-86536609D01*
X162638488Y-86483154D01*
X162616810Y-86480300D01*
X162508188Y-86466000D01*
X162500000Y-86464922D01*
X162491812Y-86466000D01*
X162383191Y-86480300D01*
X162361512Y-86483154D01*
X162232461Y-86536609D01*
X162121643Y-86621643D01*
X162036609Y-86732461D01*
X161983154Y-86861512D01*
X161982076Y-86869700D01*
X161975899Y-86916617D01*
X161964922Y-87000000D01*
X154929158Y-87000000D01*
X154888488Y-86983154D01*
X154750000Y-86964922D01*
X154611512Y-86983154D01*
X154482461Y-87036609D01*
X154371643Y-87121643D01*
X154286609Y-87232461D01*
X154233154Y-87361512D01*
X154214922Y-87500000D01*
X133897867Y-87500000D01*
X133923346Y-87438488D01*
X133941578Y-87300000D01*
X133923346Y-87161512D01*
X133869891Y-87032461D01*
X133784857Y-86921643D01*
X133674039Y-86836609D01*
X133544988Y-86783154D01*
X133406500Y-86764922D01*
X133268012Y-86783154D01*
X133138961Y-86836609D01*
X133028143Y-86921643D01*
X132943109Y-87032461D01*
X132889654Y-87161512D01*
X132871422Y-87300000D01*
X123129745Y-87300000D01*
X123282881Y-86971600D01*
X123284779Y-86967708D01*
X123599517Y-86350000D01*
X133864922Y-86350000D01*
X133866000Y-86358188D01*
X133880052Y-86464922D01*
X133883154Y-86488488D01*
X133936609Y-86617539D01*
X134021643Y-86728357D01*
X134132461Y-86813391D01*
X134261512Y-86866846D01*
X134269700Y-86867924D01*
X134330756Y-86875962D01*
X134400000Y-86885078D01*
X134408188Y-86884000D01*
X134530300Y-86867924D01*
X134538488Y-86866846D01*
X134667539Y-86813391D01*
X134778357Y-86728357D01*
X134863391Y-86617539D01*
X134916846Y-86488488D01*
X134919949Y-86464922D01*
X134934000Y-86358188D01*
X134935078Y-86350000D01*
X134921913Y-86250000D01*
X164714922Y-86250000D01*
X164733154Y-86388488D01*
X164786609Y-86517539D01*
X164871643Y-86628357D01*
X164982461Y-86713391D01*
X165111512Y-86766846D01*
X165250000Y-86785078D01*
X165258188Y-86784000D01*
X165380300Y-86767924D01*
X165388488Y-86766846D01*
X165517539Y-86713391D01*
X165628357Y-86628357D01*
X165713391Y-86517539D01*
X165766846Y-86388488D01*
X165785078Y-86250000D01*
X168464922Y-86250000D01*
X168483154Y-86388488D01*
X168536609Y-86517539D01*
X168621643Y-86628357D01*
X168732461Y-86713391D01*
X168861512Y-86766846D01*
X169000000Y-86785078D01*
X169008188Y-86784000D01*
X169130300Y-86767924D01*
X169138488Y-86766846D01*
X169267539Y-86713391D01*
X169378357Y-86628357D01*
X169463391Y-86517539D01*
X169516846Y-86388488D01*
X169535078Y-86250000D01*
X169516846Y-86111512D01*
X169463391Y-85982461D01*
X169378357Y-85871643D01*
X169267539Y-85786609D01*
X169138488Y-85733154D01*
X169000000Y-85714922D01*
X168861512Y-85733154D01*
X168732461Y-85786609D01*
X168621643Y-85871643D01*
X168536609Y-85982461D01*
X168483154Y-86111512D01*
X168464922Y-86250000D01*
X165785078Y-86250000D01*
X165766846Y-86111512D01*
X165713391Y-85982461D01*
X165628357Y-85871643D01*
X165517539Y-85786609D01*
X165388488Y-85733154D01*
X165250000Y-85714922D01*
X165111512Y-85733154D01*
X164982461Y-85786609D01*
X164871643Y-85871643D01*
X164786609Y-85982461D01*
X164733154Y-86111512D01*
X164714922Y-86250000D01*
X134921913Y-86250000D01*
X134916846Y-86211512D01*
X134863391Y-86082461D01*
X134778357Y-85971643D01*
X134667539Y-85886609D01*
X134538488Y-85833154D01*
X134400000Y-85814922D01*
X134261512Y-85833154D01*
X134132461Y-85886609D01*
X134021643Y-85971643D01*
X133936609Y-86082461D01*
X133883154Y-86211512D01*
X133864922Y-86350000D01*
X123599517Y-86350000D01*
X123753830Y-86047144D01*
X123755895Y-86043261D01*
X123938745Y-85713391D01*
X124195607Y-85250000D01*
X129464922Y-85250000D01*
X129483154Y-85388488D01*
X129536609Y-85517539D01*
X129621643Y-85628357D01*
X129732461Y-85713391D01*
X129861512Y-85766846D01*
X130000000Y-85785078D01*
X130008188Y-85784000D01*
X130012374Y-85783449D01*
X130138488Y-85766846D01*
X130267539Y-85713391D01*
X130378357Y-85628357D01*
X130463391Y-85517539D01*
X130516846Y-85388488D01*
X130535078Y-85250000D01*
X130516846Y-85111512D01*
X130463391Y-84982461D01*
X130378357Y-84871643D01*
X130351010Y-84850659D01*
X139047790Y-84850659D01*
X139049341Y-84860452D01*
X139051114Y-84871643D01*
X139066645Y-84969706D01*
X139121365Y-85077099D01*
X139206593Y-85162327D01*
X139313986Y-85217047D01*
X139323775Y-85218597D01*
X139323777Y-85218598D01*
X139423240Y-85234351D01*
X139433033Y-85235902D01*
X139442826Y-85234351D01*
X139542289Y-85218598D01*
X139542291Y-85218597D01*
X139552080Y-85217047D01*
X139659473Y-85162327D01*
X139744701Y-85077099D01*
X139799421Y-84969706D01*
X139802542Y-84950000D01*
X142664757Y-84950000D01*
X142683612Y-85069047D01*
X142738332Y-85176440D01*
X142823560Y-85261668D01*
X142930953Y-85316388D01*
X142940742Y-85317938D01*
X142940744Y-85317939D01*
X143040207Y-85333692D01*
X143050000Y-85335243D01*
X143059793Y-85333692D01*
X143159256Y-85317939D01*
X143159258Y-85317938D01*
X143169047Y-85316388D01*
X143276440Y-85261668D01*
X143361668Y-85176440D01*
X143416388Y-85069047D01*
X143435243Y-84950000D01*
X143416388Y-84830953D01*
X143361668Y-84723560D01*
X143276440Y-84638332D01*
X143169047Y-84583612D01*
X143159258Y-84582062D01*
X143159256Y-84582061D01*
X143059793Y-84566308D01*
X143050000Y-84564757D01*
X143040207Y-84566308D01*
X142940744Y-84582061D01*
X142940742Y-84582062D01*
X142930953Y-84583612D01*
X142823560Y-84638332D01*
X142738332Y-84723560D01*
X142683612Y-84830953D01*
X142664757Y-84950000D01*
X139802542Y-84950000D01*
X139814953Y-84871643D01*
X139816725Y-84860452D01*
X139818276Y-84850659D01*
X139799421Y-84731612D01*
X139744701Y-84624219D01*
X139659473Y-84538991D01*
X139552080Y-84484271D01*
X139542291Y-84482721D01*
X139542289Y-84482720D01*
X139442826Y-84466967D01*
X139433033Y-84465416D01*
X139423240Y-84466967D01*
X139323777Y-84482720D01*
X139323775Y-84482721D01*
X139313986Y-84484271D01*
X139206593Y-84538991D01*
X139121365Y-84624219D01*
X139066645Y-84731612D01*
X139047790Y-84850659D01*
X130351010Y-84850659D01*
X130267539Y-84786609D01*
X130138488Y-84733154D01*
X130000000Y-84714922D01*
X129861512Y-84733154D01*
X129732461Y-84786609D01*
X129621643Y-84871643D01*
X129536609Y-84982461D01*
X129483154Y-85111512D01*
X129464922Y-85250000D01*
X124195607Y-85250000D01*
X124256770Y-85139659D01*
X124258959Y-85135867D01*
X124268674Y-85119700D01*
X124791074Y-84250279D01*
X124793395Y-84246565D01*
X124812887Y-84216551D01*
X125115869Y-83750000D01*
X134214922Y-83750000D01*
X134233154Y-83888488D01*
X134286609Y-84017539D01*
X134371643Y-84128357D01*
X134482461Y-84213391D01*
X134611512Y-84266846D01*
X134750000Y-84285078D01*
X134758188Y-84284000D01*
X134880300Y-84267924D01*
X134888488Y-84266846D01*
X135017539Y-84213391D01*
X135128357Y-84128357D01*
X135213391Y-84017539D01*
X135266846Y-83888488D01*
X135278495Y-83800000D01*
X137864922Y-83800000D01*
X137883154Y-83938488D01*
X137936609Y-84067539D01*
X138021643Y-84178357D01*
X138132461Y-84263391D01*
X138261512Y-84316846D01*
X138400000Y-84335078D01*
X138408188Y-84334000D01*
X138530300Y-84317924D01*
X138538488Y-84316846D01*
X138667539Y-84263391D01*
X138778357Y-84178357D01*
X138863391Y-84067539D01*
X138916846Y-83938488D01*
X138935078Y-83800000D01*
X138916846Y-83661512D01*
X138914534Y-83655931D01*
X154936933Y-83655931D01*
X154955165Y-83794419D01*
X155008620Y-83923470D01*
X155093654Y-84034288D01*
X155204472Y-84119322D01*
X155333523Y-84172777D01*
X155472011Y-84191009D01*
X155480199Y-84189931D01*
X155602311Y-84173855D01*
X155610499Y-84172777D01*
X155739550Y-84119322D01*
X155850368Y-84034288D01*
X155935402Y-83923470D01*
X155988857Y-83794419D01*
X155994705Y-83750000D01*
X168714922Y-83750000D01*
X168733154Y-83888488D01*
X168786609Y-84017539D01*
X168871643Y-84128357D01*
X168982461Y-84213391D01*
X169111512Y-84266846D01*
X169250000Y-84285078D01*
X169258188Y-84284000D01*
X169380300Y-84267924D01*
X169388488Y-84266846D01*
X169517539Y-84213391D01*
X169628357Y-84128357D01*
X169713391Y-84017539D01*
X169766846Y-83888488D01*
X169785078Y-83750000D01*
X169766846Y-83611512D01*
X169713391Y-83482461D01*
X169628357Y-83371643D01*
X169517539Y-83286609D01*
X169388488Y-83233154D01*
X169250000Y-83214922D01*
X169111512Y-83233154D01*
X168982461Y-83286609D01*
X168871643Y-83371643D01*
X168786609Y-83482461D01*
X168733154Y-83611512D01*
X168714922Y-83750000D01*
X155994705Y-83750000D01*
X156007089Y-83655931D01*
X155988857Y-83517443D01*
X155935402Y-83388392D01*
X155850368Y-83277574D01*
X155739550Y-83192540D01*
X155610499Y-83139085D01*
X155472011Y-83120853D01*
X155333523Y-83139085D01*
X155204472Y-83192540D01*
X155093654Y-83277574D01*
X155008620Y-83388392D01*
X154955165Y-83517443D01*
X154936933Y-83655931D01*
X138914534Y-83655931D01*
X138863391Y-83532461D01*
X138778357Y-83421643D01*
X138667539Y-83336609D01*
X138538488Y-83283154D01*
X138400000Y-83264922D01*
X138261512Y-83283154D01*
X138132461Y-83336609D01*
X138021643Y-83421643D01*
X137936609Y-83532461D01*
X137883154Y-83661512D01*
X137864922Y-83800000D01*
X135278495Y-83800000D01*
X135285078Y-83750000D01*
X135266846Y-83611512D01*
X135213391Y-83482461D01*
X135128357Y-83371643D01*
X135017539Y-83286609D01*
X134888488Y-83233154D01*
X134750000Y-83214922D01*
X134611512Y-83233154D01*
X134482461Y-83286609D01*
X134371643Y-83371643D01*
X134286609Y-83482461D01*
X134233154Y-83611512D01*
X134214922Y-83750000D01*
X125115869Y-83750000D01*
X125255441Y-83535078D01*
X125356072Y-83380121D01*
X125358531Y-83376476D01*
X125951112Y-82530180D01*
X125953697Y-82526621D01*
X125973758Y-82500000D01*
X131214922Y-82500000D01*
X131233154Y-82638488D01*
X131286609Y-82767539D01*
X131371643Y-82878357D01*
X131482461Y-82963391D01*
X131611512Y-83016846D01*
X131750000Y-83035078D01*
X131758188Y-83034000D01*
X131880300Y-83017924D01*
X131888488Y-83016846D01*
X132017539Y-82963391D01*
X132128357Y-82878357D01*
X132150038Y-82850102D01*
X132207376Y-82808235D01*
X132278247Y-82804013D01*
X132340150Y-82838777D01*
X132349962Y-82850102D01*
X132371643Y-82878357D01*
X132482461Y-82963391D01*
X132611512Y-83016846D01*
X132750000Y-83035078D01*
X132758188Y-83034000D01*
X132880300Y-83017924D01*
X132888488Y-83016846D01*
X132929158Y-83000000D01*
X157714922Y-83000000D01*
X157733154Y-83138488D01*
X157786609Y-83267539D01*
X157871643Y-83378357D01*
X157982461Y-83463391D01*
X158111512Y-83516846D01*
X158250000Y-83535078D01*
X158258188Y-83534000D01*
X158380300Y-83517924D01*
X158388488Y-83516846D01*
X158517539Y-83463391D01*
X158628357Y-83378357D01*
X158713391Y-83267539D01*
X158766846Y-83138488D01*
X158785078Y-83000000D01*
X158766846Y-82861512D01*
X158713391Y-82732461D01*
X158628357Y-82621643D01*
X158517539Y-82536609D01*
X158429158Y-82500000D01*
X161964922Y-82500000D01*
X161983154Y-82638488D01*
X162036609Y-82767539D01*
X162121643Y-82878357D01*
X162232461Y-82963391D01*
X162361512Y-83016846D01*
X162500000Y-83035078D01*
X162508188Y-83034000D01*
X162630300Y-83017924D01*
X162638488Y-83016846D01*
X162767539Y-82963391D01*
X162878357Y-82878357D01*
X162963391Y-82767539D01*
X163016846Y-82638488D01*
X163035078Y-82500000D01*
X163016846Y-82361512D01*
X162963391Y-82232461D01*
X162878357Y-82121643D01*
X162767539Y-82036609D01*
X162638488Y-81983154D01*
X162500000Y-81964922D01*
X162361512Y-81983154D01*
X162232461Y-82036609D01*
X162121643Y-82121643D01*
X162036609Y-82232461D01*
X161983154Y-82361512D01*
X161964922Y-82500000D01*
X158429158Y-82500000D01*
X158388488Y-82483154D01*
X158250000Y-82464922D01*
X158111512Y-82483154D01*
X157982461Y-82536609D01*
X157871643Y-82621643D01*
X157786609Y-82732461D01*
X157733154Y-82861512D01*
X157714922Y-83000000D01*
X132929158Y-83000000D01*
X133017539Y-82963391D01*
X133128357Y-82878357D01*
X133213391Y-82767539D01*
X133266846Y-82638488D01*
X133285078Y-82500000D01*
X133266846Y-82361512D01*
X133213391Y-82232461D01*
X133128357Y-82121643D01*
X133017539Y-82036609D01*
X132888488Y-81983154D01*
X132750000Y-81964922D01*
X132611512Y-81983154D01*
X132482461Y-82036609D01*
X132371643Y-82121643D01*
X132366617Y-82128193D01*
X132349962Y-82149898D01*
X132292624Y-82191765D01*
X132221753Y-82195987D01*
X132159850Y-82161223D01*
X132150038Y-82149898D01*
X132133383Y-82128193D01*
X132128357Y-82121643D01*
X132017539Y-82036609D01*
X131888488Y-81983154D01*
X131750000Y-81964922D01*
X131611512Y-81983154D01*
X131482461Y-82036609D01*
X131371643Y-82121643D01*
X131286609Y-82232461D01*
X131233154Y-82361512D01*
X131214922Y-82500000D01*
X125973758Y-82500000D01*
X126491073Y-81813500D01*
X139464922Y-81813500D01*
X139483154Y-81951988D01*
X139536609Y-82081039D01*
X139621643Y-82191857D01*
X139732461Y-82276891D01*
X139861512Y-82330346D01*
X140000000Y-82348578D01*
X140008188Y-82347500D01*
X140130300Y-82331424D01*
X140138488Y-82330346D01*
X140267539Y-82276891D01*
X140378357Y-82191857D01*
X140463391Y-82081039D01*
X140516846Y-81951988D01*
X140535078Y-81813500D01*
X141464922Y-81813500D01*
X141483154Y-81951988D01*
X141536609Y-82081039D01*
X141621643Y-82191857D01*
X141732461Y-82276891D01*
X141861512Y-82330346D01*
X142000000Y-82348578D01*
X142008188Y-82347500D01*
X142130300Y-82331424D01*
X142138488Y-82330346D01*
X142267539Y-82276891D01*
X142378357Y-82191857D01*
X142463391Y-82081039D01*
X142516846Y-81951988D01*
X142535078Y-81813500D01*
X142516846Y-81675012D01*
X142463391Y-81545961D01*
X142378357Y-81435143D01*
X142267539Y-81350109D01*
X142138488Y-81296654D01*
X142000000Y-81278422D01*
X141861512Y-81296654D01*
X141732461Y-81350109D01*
X141621643Y-81435143D01*
X141536609Y-81545961D01*
X141483154Y-81675012D01*
X141464922Y-81813500D01*
X140535078Y-81813500D01*
X140516846Y-81675012D01*
X140463391Y-81545961D01*
X140378357Y-81435143D01*
X140267539Y-81350109D01*
X140138488Y-81296654D01*
X140024687Y-81281672D01*
X139999607Y-81270577D01*
X139975313Y-81281672D01*
X139861512Y-81296654D01*
X139732461Y-81350109D01*
X139621643Y-81435143D01*
X139536609Y-81545961D01*
X139483154Y-81675012D01*
X139464922Y-81813500D01*
X126491073Y-81813500D01*
X126575464Y-81701509D01*
X126578170Y-81698046D01*
X126603001Y-81667383D01*
X126862483Y-81346949D01*
X127228329Y-80895168D01*
X127231156Y-80891799D01*
X127908929Y-80112110D01*
X127911871Y-80108841D01*
X128013367Y-80000000D01*
X132964922Y-80000000D01*
X132983154Y-80138488D01*
X133036609Y-80267539D01*
X133121643Y-80378357D01*
X133232461Y-80463391D01*
X133361512Y-80516846D01*
X133500000Y-80535078D01*
X133508188Y-80534000D01*
X133512374Y-80533449D01*
X133638488Y-80516846D01*
X133679158Y-80500000D01*
X139464922Y-80500000D01*
X139483154Y-80638488D01*
X139536609Y-80767539D01*
X139621643Y-80878357D01*
X139732461Y-80963391D01*
X139861512Y-81016846D01*
X139869700Y-81017924D01*
X139975313Y-81031828D01*
X140000393Y-81042923D01*
X140024687Y-81031828D01*
X140130300Y-81017924D01*
X140138488Y-81016846D01*
X140179158Y-81000000D01*
X145214922Y-81000000D01*
X145233154Y-81138488D01*
X145286609Y-81267539D01*
X145371643Y-81378357D01*
X145482461Y-81463391D01*
X145611512Y-81516846D01*
X145750000Y-81535078D01*
X145758188Y-81534000D01*
X145880300Y-81517924D01*
X145888488Y-81516846D01*
X146017539Y-81463391D01*
X146128357Y-81378357D01*
X146213391Y-81267539D01*
X146266846Y-81138488D01*
X146285078Y-81000000D01*
X146266846Y-80861512D01*
X146213391Y-80732461D01*
X146128357Y-80621643D01*
X146017539Y-80536609D01*
X145888488Y-80483154D01*
X145750000Y-80464922D01*
X145611512Y-80483154D01*
X145482461Y-80536609D01*
X145371643Y-80621643D01*
X145286609Y-80732461D01*
X145233154Y-80861512D01*
X145214922Y-81000000D01*
X140179158Y-81000000D01*
X140267539Y-80963391D01*
X140378357Y-80878357D01*
X140463391Y-80767539D01*
X140516846Y-80638488D01*
X140535078Y-80500000D01*
X140516846Y-80361512D01*
X140506398Y-80336288D01*
X140498808Y-80265699D01*
X140530586Y-80202212D01*
X140591643Y-80165983D01*
X140662595Y-80168516D01*
X140699507Y-80188104D01*
X140732461Y-80213391D01*
X140861512Y-80266846D01*
X141000000Y-80285078D01*
X141008188Y-80284000D01*
X141130300Y-80267924D01*
X141138488Y-80266846D01*
X141267539Y-80213391D01*
X141378357Y-80128357D01*
X141463391Y-80017539D01*
X141470656Y-80000000D01*
X152214922Y-80000000D01*
X152233154Y-80138488D01*
X152286609Y-80267539D01*
X152371643Y-80378357D01*
X152482461Y-80463391D01*
X152611512Y-80516846D01*
X152750000Y-80535078D01*
X152758188Y-80534000D01*
X152762374Y-80533449D01*
X152888488Y-80516846D01*
X153017539Y-80463391D01*
X153128357Y-80378357D01*
X153213391Y-80267539D01*
X153266846Y-80138488D01*
X153285078Y-80000000D01*
X153266846Y-79861512D01*
X153213391Y-79732461D01*
X153128357Y-79621643D01*
X153017539Y-79536609D01*
X152888488Y-79483154D01*
X152750000Y-79464922D01*
X152611512Y-79483154D01*
X152482461Y-79536609D01*
X152371643Y-79621643D01*
X152286609Y-79732461D01*
X152233154Y-79861512D01*
X152214922Y-80000000D01*
X141470656Y-80000000D01*
X141516846Y-79888488D01*
X141535078Y-79750000D01*
X141516846Y-79611512D01*
X141463391Y-79482461D01*
X141378357Y-79371643D01*
X141267539Y-79286609D01*
X141138488Y-79233154D01*
X141000000Y-79214922D01*
X140861512Y-79233154D01*
X140732461Y-79286609D01*
X140621643Y-79371643D01*
X140536609Y-79482461D01*
X140483154Y-79611512D01*
X140464922Y-79750000D01*
X140483154Y-79888488D01*
X140486313Y-79896115D01*
X140486314Y-79896118D01*
X140493602Y-79913711D01*
X140501192Y-79984301D01*
X140469414Y-80047788D01*
X140408357Y-80084017D01*
X140337405Y-80081484D01*
X140300493Y-80061896D01*
X140267539Y-80036609D01*
X140138488Y-79983154D01*
X140000000Y-79964922D01*
X139861512Y-79983154D01*
X139732461Y-80036609D01*
X139621643Y-80121643D01*
X139536609Y-80232461D01*
X139483154Y-80361512D01*
X139464922Y-80500000D01*
X133679158Y-80500000D01*
X133767539Y-80463391D01*
X133878357Y-80378357D01*
X133963391Y-80267539D01*
X134016846Y-80138488D01*
X134035078Y-80000000D01*
X134016846Y-79861512D01*
X133963391Y-79732461D01*
X133878357Y-79621643D01*
X133767539Y-79536609D01*
X133638488Y-79483154D01*
X133500000Y-79464922D01*
X133361512Y-79483154D01*
X133232461Y-79536609D01*
X133121643Y-79621643D01*
X133036609Y-79732461D01*
X132983154Y-79861512D01*
X132964922Y-80000000D01*
X128013367Y-80000000D01*
X128502090Y-79475908D01*
X128616506Y-79353212D01*
X128619561Y-79350050D01*
X129219611Y-78750000D01*
X160214922Y-78750000D01*
X160233154Y-78888488D01*
X160286609Y-79017539D01*
X160371643Y-79128357D01*
X160482461Y-79213391D01*
X160611512Y-79266846D01*
X160750000Y-79285078D01*
X160758188Y-79284000D01*
X160762374Y-79283449D01*
X160888488Y-79266846D01*
X161017539Y-79213391D01*
X161128357Y-79128357D01*
X161213391Y-79017539D01*
X161266846Y-78888488D01*
X161285078Y-78750000D01*
X161266846Y-78611512D01*
X161213391Y-78482461D01*
X161128357Y-78371643D01*
X161017539Y-78286609D01*
X160888488Y-78233154D01*
X160750000Y-78214922D01*
X160611512Y-78233154D01*
X160482461Y-78286609D01*
X160371643Y-78371643D01*
X160286609Y-78482461D01*
X160233154Y-78611512D01*
X160214922Y-78750000D01*
X129219611Y-78750000D01*
X129350050Y-78619561D01*
X129353213Y-78616505D01*
X130108841Y-77911871D01*
X130112110Y-77908929D01*
X130891799Y-77231156D01*
X130895168Y-77228329D01*
X131698046Y-76578170D01*
X131701511Y-76575462D01*
X131790787Y-76508188D01*
X131801653Y-76500000D01*
X147714922Y-76500000D01*
X147733154Y-76638488D01*
X147786609Y-76767539D01*
X147871643Y-76878357D01*
X147982461Y-76963391D01*
X148111512Y-77016846D01*
X148250000Y-77035078D01*
X148258188Y-77034000D01*
X148380300Y-77017924D01*
X148388488Y-77016846D01*
X148517539Y-76963391D01*
X148628357Y-76878357D01*
X148713391Y-76767539D01*
X148766846Y-76638488D01*
X148785078Y-76500000D01*
X148766846Y-76361512D01*
X148713391Y-76232461D01*
X148628357Y-76121643D01*
X148517539Y-76036609D01*
X148388488Y-75983154D01*
X148250000Y-75964922D01*
X148111512Y-75983154D01*
X147982461Y-76036609D01*
X147871643Y-76121643D01*
X147786609Y-76232461D01*
X147733154Y-76361512D01*
X147714922Y-76500000D01*
X131801653Y-76500000D01*
X132526630Y-75953691D01*
X132530180Y-75951112D01*
X133376476Y-75358531D01*
X133380121Y-75356072D01*
X133913164Y-75009909D01*
X134246582Y-74793385D01*
X134250279Y-74791074D01*
X134318638Y-74750000D01*
X139464922Y-74750000D01*
X139483154Y-74888488D01*
X139536609Y-75017539D01*
X139621643Y-75128357D01*
X139732461Y-75213391D01*
X139861512Y-75266846D01*
X140000000Y-75285078D01*
X140008188Y-75284000D01*
X140130300Y-75267924D01*
X140138488Y-75266846D01*
X140267539Y-75213391D01*
X140378357Y-75128357D01*
X140463391Y-75017539D01*
X140516846Y-74888488D01*
X140535078Y-74750000D01*
X159464922Y-74750000D01*
X159483154Y-74888488D01*
X159536609Y-75017539D01*
X159621643Y-75128357D01*
X159732461Y-75213391D01*
X159861512Y-75266846D01*
X160000000Y-75285078D01*
X160008188Y-75284000D01*
X160130300Y-75267924D01*
X160138488Y-75266846D01*
X160267539Y-75213391D01*
X160378357Y-75128357D01*
X160463391Y-75017539D01*
X160516846Y-74888488D01*
X160535078Y-74750000D01*
X160516846Y-74611512D01*
X160463391Y-74482461D01*
X160378357Y-74371643D01*
X160267539Y-74286609D01*
X160138488Y-74233154D01*
X160000000Y-74214922D01*
X159861512Y-74233154D01*
X159732461Y-74286609D01*
X159621643Y-74371643D01*
X159536609Y-74482461D01*
X159483154Y-74611512D01*
X159464922Y-74750000D01*
X140535078Y-74750000D01*
X140516846Y-74611512D01*
X140463391Y-74482461D01*
X140378357Y-74371643D01*
X140267539Y-74286609D01*
X140138488Y-74233154D01*
X140000000Y-74214922D01*
X139861512Y-74233154D01*
X139732461Y-74286609D01*
X139621643Y-74371643D01*
X139536609Y-74482461D01*
X139483154Y-74611512D01*
X139464922Y-74750000D01*
X134318638Y-74750000D01*
X135135885Y-74258949D01*
X135139659Y-74256770D01*
X136043261Y-73755895D01*
X136047144Y-73753830D01*
X136150388Y-73701225D01*
X136967708Y-73284779D01*
X136971600Y-73282881D01*
X137907975Y-72846242D01*
X137911966Y-72844465D01*
X138440080Y-72620294D01*
X138862997Y-72440777D01*
X138867075Y-72439130D01*
X139831567Y-72068896D01*
X139835699Y-72067392D01*
X140812548Y-71731036D01*
X140816731Y-71729677D01*
X141804697Y-71427625D01*
X141808916Y-71426414D01*
X142806866Y-71159015D01*
X142811133Y-71157951D01*
X143028143Y-71107850D01*
X143817808Y-70925542D01*
X143822088Y-70924632D01*
X144836250Y-70727499D01*
X144840535Y-70726743D01*
X145593140Y-70607542D01*
X145860978Y-70565121D01*
X145865333Y-70564509D01*
X146890753Y-70438603D01*
X146895127Y-70438143D01*
X147924357Y-70348097D01*
X147928745Y-70347791D01*
X148960419Y-70293723D01*
X148964814Y-70293569D01*
X149213010Y-70289237D01*
X149997823Y-70275538D01*
X150002177Y-70275538D01*
X150786990Y-70289237D01*
G37*
%TD.AperFunction*%
%TD*%
M02*
