%TF.GenerationSoftware,KiCad,Pcbnew,6.0.7+dfsg-1~bpo11+1*%
%TF.CreationDate,2022-09-06T20:28:52+02:00*%
%TF.ProjectId,pcb,7063622e-6b69-4636-9164-5f7063625858,0.1*%
%TF.SameCoordinates,Original*%
%TF.FileFunction,Soldermask,Bot*%
%TF.FilePolarity,Negative*%
%FSLAX46Y46*%
G04 Gerber Fmt 4.6, Leading zero omitted, Abs format (unit mm)*
G04 Created by KiCad (PCBNEW 6.0.7+dfsg-1~bpo11+1) date 2022-09-06 20:28:52*
%MOMM*%
%LPD*%
G01*
G04 APERTURE LIST*
G04 Aperture macros list*
%AMRoundRect*
0 Rectangle with rounded corners*
0 $1 Rounding radius*
0 $2 $3 $4 $5 $6 $7 $8 $9 X,Y pos of 4 corners*
0 Add a 4 corners polygon primitive as box body*
4,1,4,$2,$3,$4,$5,$6,$7,$8,$9,$2,$3,0*
0 Add four circle primitives for the rounded corners*
1,1,$1+$1,$2,$3*
1,1,$1+$1,$4,$5*
1,1,$1+$1,$6,$7*
1,1,$1+$1,$8,$9*
0 Add four rect primitives between the rounded corners*
20,1,$1+$1,$2,$3,$4,$5,0*
20,1,$1+$1,$4,$5,$6,$7,0*
20,1,$1+$1,$6,$7,$8,$9,0*
20,1,$1+$1,$8,$9,$2,$3,0*%
G04 Aperture macros list end*
%ADD10O,1.050000X0.750000*%
%ADD11C,0.750000*%
%ADD12O,0.900000X1.500000*%
%ADD13RoundRect,0.050000X0.525000X0.600000X-0.525000X0.600000X-0.525000X-0.600000X0.525000X-0.600000X0*%
%ADD14RoundRect,0.050000X0.600000X-0.525000X0.600000X0.525000X-0.600000X0.525000X-0.600000X-0.525000X0*%
%ADD15RoundRect,0.050000X0.257115X-0.754663X0.782115X0.154663X-0.257115X0.754663X-0.782115X-0.154663X0*%
%ADD16RoundRect,0.050000X0.154663X0.782115X-0.754663X0.257115X-0.154663X-0.782115X0.754663X-0.257115X0*%
%ADD17RoundRect,0.050000X-0.754663X-0.257115X0.154663X-0.782115X0.754663X0.257115X-0.154663X0.782115X0*%
%ADD18RoundRect,0.050000X-0.257115X0.754663X-0.782115X-0.154663X0.257115X-0.754663X0.782115X0.154663X0*%
%ADD19RoundRect,0.050000X0.782115X-0.154663X0.257115X0.754663X-0.782115X0.154663X-0.257115X-0.754663X0*%
%ADD20RoundRect,0.050000X-0.782115X0.154663X-0.257115X-0.754663X0.782115X-0.154663X0.257115X0.754663X0*%
%ADD21RoundRect,0.050000X0.754663X0.257115X-0.154663X0.782115X-0.754663X-0.257115X0.154663X-0.782115X0*%
%ADD22RoundRect,0.050000X-0.450000X-0.700000X0.450000X-0.700000X0.450000X0.700000X-0.450000X0.700000X0*%
%ADD23RoundRect,0.050000X-0.154663X-0.782115X0.754663X-0.257115X0.154663X0.782115X-0.754663X0.257115X0*%
%ADD24RoundRect,0.050000X-0.525000X-0.600000X0.525000X-0.600000X0.525000X0.600000X-0.525000X0.600000X0*%
%ADD25RoundRect,0.050000X-0.600000X0.525000X-0.600000X-0.525000X0.600000X-0.525000X0.600000X0.525000X0*%
G04 APERTURE END LIST*
D10*
%TO.C,X1*%
X153600000Y-120080000D03*
D11*
X146400000Y-120080000D03*
D12*
X154130000Y-121330000D03*
X145510000Y-127280000D03*
X145870000Y-121330000D03*
X154490000Y-127280000D03*
%TD*%
D13*
%TO.C,V17*%
X175000000Y-99050000D03*
X175000000Y-100950000D03*
%TD*%
D14*
%TO.C,V14*%
X150950000Y-125000000D03*
X149050000Y-125000000D03*
%TD*%
D15*
%TO.C,V13*%
X138322724Y-122126000D03*
X136677276Y-121176000D03*
%TD*%
D16*
%TO.C,V18*%
X171176000Y-86677276D03*
X172126000Y-88322724D03*
%TD*%
D13*
%TO.C,V29*%
X167500000Y-99050000D03*
X167500000Y-100950000D03*
%TD*%
D15*
%TO.C,V25*%
X142072724Y-115630000D03*
X140427276Y-114680000D03*
%TD*%
D17*
%TO.C,V10*%
X127874000Y-88322724D03*
X128824000Y-86677276D03*
%TD*%
D18*
%TO.C,V19*%
X161677276Y-77874000D03*
X163322724Y-78824000D03*
%TD*%
D19*
%TO.C,V15*%
X163322724Y-121176000D03*
X161677276Y-122126000D03*
%TD*%
D20*
%TO.C,V9*%
X136677276Y-78824000D03*
X138322724Y-77874000D03*
%TD*%
D21*
%TO.C,V16*%
X172126000Y-111677276D03*
X171176000Y-113322724D03*
%TD*%
D18*
%TO.C,V31*%
X157927276Y-84370000D03*
X159572724Y-85320000D03*
%TD*%
D16*
%TO.C,V30*%
X164680000Y-90427276D03*
X165630000Y-92072724D03*
%TD*%
D20*
%TO.C,V21*%
X140427276Y-85320000D03*
X142072724Y-84370000D03*
%TD*%
D19*
%TO.C,V27*%
X159572724Y-114680000D03*
X157927276Y-115630000D03*
%TD*%
D21*
%TO.C,V28*%
X165630000Y-107927276D03*
X164680000Y-109572724D03*
%TD*%
D22*
%TO.C,V34*%
X149050000Y-100000000D03*
X150950000Y-100000000D03*
%TD*%
D23*
%TO.C,V12*%
X128824000Y-113322724D03*
X127874000Y-111677276D03*
%TD*%
D24*
%TO.C,V23*%
X132500000Y-100950000D03*
X132500000Y-99050000D03*
%TD*%
D23*
%TO.C,V24*%
X135320000Y-109572724D03*
X134370000Y-107927276D03*
%TD*%
D25*
%TO.C,V8*%
X149050000Y-75000000D03*
X150950000Y-75000000D03*
%TD*%
%TO.C,V20*%
X149050000Y-82500000D03*
X150950000Y-82500000D03*
%TD*%
D17*
%TO.C,V22*%
X134370000Y-92072724D03*
X135320000Y-90427276D03*
%TD*%
D24*
%TO.C,V11*%
X125000000Y-100950000D03*
X125000000Y-99050000D03*
%TD*%
D14*
%TO.C,V26*%
X150950000Y-117500000D03*
X149050000Y-117500000D03*
%TD*%
M02*
