%TF.GenerationSoftware,KiCad,Pcbnew,6.0.7+dfsg-1~bpo11+1*%
%TF.CreationDate,2022-09-06T20:28:51+02:00*%
%TF.ProjectId,pcb,7063622e-6b69-4636-9164-5f7063625858,0.1*%
%TF.SameCoordinates,Original*%
%TF.FileFunction,Legend,Top*%
%TF.FilePolarity,Positive*%
%FSLAX46Y46*%
G04 Gerber Fmt 4.6, Leading zero omitted, Abs format (unit mm)*
G04 Created by KiCad (PCBNEW 6.0.7+dfsg-1~bpo11+1) date 2022-09-06 20:28:51*
%MOMM*%
%LPD*%
G01*
G04 APERTURE LIST*
%ADD10C,0.150000*%
%ADD11C,0.062500*%
%ADD12C,0.300000*%
%ADD13C,0.120000*%
%ADD14C,0.200000*%
%ADD15C,0.250000*%
%ADD16C,0.100000*%
%ADD17C,0.160000*%
G04 APERTURE END LIST*
D10*
X172000000Y-106250000D02*
X173000000Y-106250000D01*
X170000001Y-109250000D02*
G75*
G03*
X170000001Y-109250000I-70711J0D01*
G01*
X166000000Y-106250000D02*
X167000000Y-106250000D01*
X137570711Y-84500000D02*
G75*
G03*
X137570711Y-84500000I-70711J0D01*
G01*
X133241421Y-100050000D02*
G75*
G03*
X133241421Y-100050000I-70711J0D01*
G01*
X134570711Y-112029290D02*
G75*
G03*
X134570711Y-112029290I-70711J0D01*
G01*
X131520711Y-89600000D02*
G75*
G03*
X131520711Y-89600000I-70711J0D01*
G01*
X172500000Y-106750000D02*
X172500000Y-105750000D01*
D11*
X176319285Y-105524285D02*
X176555000Y-105524285D01*
X176602142Y-105540000D01*
X176633571Y-105571428D01*
X176649285Y-105618571D01*
X176649285Y-105650000D01*
X176649285Y-105210000D02*
X176649285Y-105367142D01*
X176319285Y-105367142D01*
X176617857Y-104911428D02*
X176633571Y-104927142D01*
X176649285Y-104974285D01*
X176649285Y-105005714D01*
X176633571Y-105052857D01*
X176602142Y-105084285D01*
X176570714Y-105100000D01*
X176507857Y-105115714D01*
X176460714Y-105115714D01*
X176397857Y-105100000D01*
X176366428Y-105084285D01*
X176335000Y-105052857D01*
X176319285Y-105005714D01*
X176319285Y-104974285D01*
X176335000Y-104927142D01*
X176350714Y-104911428D01*
X176319285Y-104675714D02*
X176555000Y-104675714D01*
X176602142Y-104691428D01*
X176633571Y-104722857D01*
X176649285Y-104770000D01*
X176649285Y-104801428D01*
X176649285Y-104361428D02*
X176649285Y-104518571D01*
X176319285Y-104518571D01*
X176617857Y-104062857D02*
X176633571Y-104078571D01*
X176649285Y-104125714D01*
X176649285Y-104157142D01*
X176633571Y-104204285D01*
X176602142Y-104235714D01*
X176570714Y-104251428D01*
X176507857Y-104267142D01*
X176460714Y-104267142D01*
X176397857Y-104251428D01*
X176366428Y-104235714D01*
X176335000Y-104204285D01*
X176319285Y-104157142D01*
X176319285Y-104125714D01*
X176335000Y-104078571D01*
X176350714Y-104062857D01*
X176319285Y-103827142D02*
X176555000Y-103827142D01*
X176602142Y-103842857D01*
X176633571Y-103874285D01*
X176649285Y-103921428D01*
X176649285Y-103952857D01*
X176649285Y-103512857D02*
X176649285Y-103670000D01*
X176319285Y-103670000D01*
X176617857Y-103214285D02*
X176633571Y-103230000D01*
X176649285Y-103277142D01*
X176649285Y-103308571D01*
X176633571Y-103355714D01*
X176602142Y-103387142D01*
X176570714Y-103402857D01*
X176507857Y-103418571D01*
X176460714Y-103418571D01*
X176397857Y-103402857D01*
X176366428Y-103387142D01*
X176335000Y-103355714D01*
X176319285Y-103308571D01*
X176319285Y-103277142D01*
X176335000Y-103230000D01*
X176350714Y-103214285D01*
X176319285Y-102978571D02*
X176555000Y-102978571D01*
X176602142Y-102994285D01*
X176633571Y-103025714D01*
X176649285Y-103072857D01*
X176649285Y-103104285D01*
X176649285Y-102664285D02*
X176649285Y-102821428D01*
X176319285Y-102821428D01*
X176617857Y-102365714D02*
X176633571Y-102381428D01*
X176649285Y-102428571D01*
X176649285Y-102460000D01*
X176633571Y-102507142D01*
X176602142Y-102538571D01*
X176570714Y-102554285D01*
X176507857Y-102570000D01*
X176460714Y-102570000D01*
X176397857Y-102554285D01*
X176366428Y-102538571D01*
X176335000Y-102507142D01*
X176319285Y-102460000D01*
X176319285Y-102428571D01*
X176335000Y-102381428D01*
X176350714Y-102365714D01*
D12*
X152652633Y-85149642D02*
X152857991Y-85221071D01*
X153215133Y-85221071D01*
X153366919Y-85149642D01*
X153447276Y-85078214D01*
X153536562Y-84935357D01*
X153554419Y-84792500D01*
X153500848Y-84649642D01*
X153438348Y-84578214D01*
X153304419Y-84506785D01*
X153027633Y-84435357D01*
X152893705Y-84363928D01*
X152831205Y-84292500D01*
X152777633Y-84149642D01*
X152795491Y-84006785D01*
X152884776Y-83863928D01*
X152965133Y-83792500D01*
X153116919Y-83721071D01*
X153474062Y-83721071D01*
X153679419Y-83792500D01*
X154143705Y-85221071D02*
X154268705Y-84221071D01*
X154250848Y-84363928D02*
X154331205Y-84292500D01*
X154482991Y-84221071D01*
X154697276Y-84221071D01*
X154831205Y-84292500D01*
X154884776Y-84435357D01*
X154786562Y-85221071D01*
X154884776Y-84435357D02*
X154974062Y-84292500D01*
X155125848Y-84221071D01*
X155340133Y-84221071D01*
X155474062Y-84292500D01*
X155527633Y-84435357D01*
X155429419Y-85221071D01*
X156786562Y-85221071D02*
X156884776Y-84435357D01*
X156831205Y-84292500D01*
X156697276Y-84221071D01*
X156411562Y-84221071D01*
X156259776Y-84292500D01*
X156795491Y-85149642D02*
X156643705Y-85221071D01*
X156286562Y-85221071D01*
X156152633Y-85149642D01*
X156099062Y-85006785D01*
X156116919Y-84863928D01*
X156206205Y-84721071D01*
X156357991Y-84649642D01*
X156715133Y-84649642D01*
X156866919Y-84578214D01*
X157500848Y-85221071D02*
X157625848Y-84221071D01*
X157590133Y-84506785D02*
X157679419Y-84363928D01*
X157759776Y-84292500D01*
X157911562Y-84221071D01*
X158054419Y-84221071D01*
X158340133Y-84221071D02*
X158911562Y-84221071D01*
X158616919Y-83721071D02*
X158456205Y-85006785D01*
X158509776Y-85149642D01*
X158643705Y-85221071D01*
X158786562Y-85221071D01*
X159331205Y-83721071D02*
X159500848Y-85221071D01*
X159920491Y-84149642D01*
X160072276Y-85221071D01*
X160616919Y-83721071D01*
X161643705Y-85221071D02*
X161741919Y-84435357D01*
X161688348Y-84292500D01*
X161554419Y-84221071D01*
X161268705Y-84221071D01*
X161116919Y-84292500D01*
X161652633Y-85149642D02*
X161500848Y-85221071D01*
X161143705Y-85221071D01*
X161009776Y-85149642D01*
X160956205Y-85006785D01*
X160974062Y-84863928D01*
X161063348Y-84721071D01*
X161215133Y-84649642D01*
X161572276Y-84649642D01*
X161724062Y-84578214D01*
X162268705Y-84221071D02*
X162840133Y-84221071D01*
X162545491Y-83721071D02*
X162384776Y-85006785D01*
X162438348Y-85149642D01*
X162572276Y-85221071D01*
X162715133Y-85221071D01*
X163866919Y-85149642D02*
X163715133Y-85221071D01*
X163429419Y-85221071D01*
X163295491Y-85149642D01*
X163232991Y-85078214D01*
X163179419Y-84935357D01*
X163232991Y-84506785D01*
X163322276Y-84363928D01*
X163402633Y-84292500D01*
X163554419Y-84221071D01*
X163840133Y-84221071D01*
X163974062Y-84292500D01*
X164500848Y-85221071D02*
X164688348Y-83721071D01*
X165143705Y-85221071D02*
X165241919Y-84435357D01*
X165188348Y-84292500D01*
X165054419Y-84221071D01*
X164840133Y-84221071D01*
X164688348Y-84292500D01*
X164607991Y-84363928D01*
X166982991Y-84221071D02*
X167215133Y-85221071D01*
X167697276Y-84221071D01*
X168929419Y-85221071D02*
X168072276Y-85221071D01*
X168500848Y-85221071D02*
X168688348Y-83721071D01*
X168518705Y-83935357D01*
X168357991Y-84078214D01*
X168206205Y-84149642D01*
X169590133Y-85078214D02*
X169652633Y-85149642D01*
X169572276Y-85221071D01*
X169509776Y-85149642D01*
X169590133Y-85078214D01*
X169572276Y-85221071D01*
X170759776Y-83721071D02*
X170902633Y-83721071D01*
X171036562Y-83792500D01*
X171099062Y-83863928D01*
X171152633Y-84006785D01*
X171188348Y-84292500D01*
X171143705Y-84649642D01*
X171036562Y-84935357D01*
X170947276Y-85078214D01*
X170866919Y-85149642D01*
X170715133Y-85221071D01*
X170572276Y-85221071D01*
X170438348Y-85149642D01*
X170375848Y-85078214D01*
X170322276Y-84935357D01*
X170286562Y-84649642D01*
X170331205Y-84292500D01*
X170438348Y-84006785D01*
X170527633Y-83863928D01*
X170607991Y-83792500D01*
X170759776Y-83721071D01*
X157759776Y-87564642D02*
X157965133Y-87636071D01*
X158322276Y-87636071D01*
X158474062Y-87564642D01*
X158554419Y-87493214D01*
X158643705Y-87350357D01*
X158661562Y-87207500D01*
X158607991Y-87064642D01*
X158545491Y-86993214D01*
X158411562Y-86921785D01*
X158134776Y-86850357D01*
X158000848Y-86778928D01*
X157938348Y-86707500D01*
X157884776Y-86564642D01*
X157902633Y-86421785D01*
X157991919Y-86278928D01*
X158072276Y-86207500D01*
X158224062Y-86136071D01*
X158581205Y-86136071D01*
X158786562Y-86207500D01*
X159831205Y-87564642D02*
X159679419Y-87636071D01*
X159393705Y-87636071D01*
X159259776Y-87564642D01*
X159206205Y-87421785D01*
X159277633Y-86850357D01*
X159366919Y-86707500D01*
X159518705Y-86636071D01*
X159804419Y-86636071D01*
X159938348Y-86707500D01*
X159991919Y-86850357D01*
X159974062Y-86993214D01*
X159241919Y-87136071D01*
X160661562Y-86636071D02*
X160474062Y-88136071D01*
X160652633Y-86707500D02*
X160804419Y-86636071D01*
X161090133Y-86636071D01*
X161224062Y-86707500D01*
X161286562Y-86778928D01*
X161340133Y-86921785D01*
X161286562Y-87350357D01*
X161197276Y-87493214D01*
X161116919Y-87564642D01*
X160965133Y-87636071D01*
X160679419Y-87636071D01*
X160545491Y-87564642D01*
X163295491Y-86136071D02*
X163116919Y-86421785D01*
X163849062Y-86278928D02*
X163929419Y-86207500D01*
X164081205Y-86136071D01*
X164438348Y-86136071D01*
X164572276Y-86207500D01*
X164634776Y-86278928D01*
X164688348Y-86421785D01*
X164670491Y-86564642D01*
X164572276Y-86778928D01*
X163607991Y-87636071D01*
X164536562Y-87636071D01*
X165277633Y-86278928D02*
X165357991Y-86207500D01*
X165509776Y-86136071D01*
X165866919Y-86136071D01*
X166000848Y-86207500D01*
X166063348Y-86278928D01*
X166116919Y-86421785D01*
X166099062Y-86564642D01*
X166000848Y-86778928D01*
X165036562Y-87636071D01*
X165965133Y-87636071D01*
D10*
X125773809Y-112404761D02*
X125916666Y-112452380D01*
X126154761Y-112452380D01*
X126250000Y-112404761D01*
X126297619Y-112357142D01*
X126345238Y-112261904D01*
X126345238Y-112166666D01*
X126297619Y-112071428D01*
X126250000Y-112023809D01*
X126154761Y-111976190D01*
X125964285Y-111928571D01*
X125869047Y-111880952D01*
X125821428Y-111833333D01*
X125773809Y-111738095D01*
X125773809Y-111642857D01*
X125821428Y-111547619D01*
X125869047Y-111500000D01*
X125964285Y-111452380D01*
X126202380Y-111452380D01*
X126345238Y-111500000D01*
X126630952Y-111452380D02*
X127202380Y-111452380D01*
X126916666Y-112452380D02*
X126916666Y-111452380D01*
X127488095Y-112166666D02*
X127964285Y-112166666D01*
X127392857Y-112452380D02*
X127726190Y-111452380D01*
X128059523Y-112452380D01*
X128250000Y-111452380D02*
X128821428Y-111452380D01*
X128535714Y-112452380D02*
X128535714Y-111452380D01*
X129154761Y-111452380D02*
X129154761Y-112261904D01*
X129202380Y-112357142D01*
X129250000Y-112404761D01*
X129345238Y-112452380D01*
X129535714Y-112452380D01*
X129630952Y-112404761D01*
X129678571Y-112357142D01*
X129726190Y-112261904D01*
X129726190Y-111452380D01*
X130154761Y-112404761D02*
X130297619Y-112452380D01*
X130535714Y-112452380D01*
X130630952Y-112404761D01*
X130678571Y-112357142D01*
X130726190Y-112261904D01*
X130726190Y-112166666D01*
X130678571Y-112071428D01*
X130630952Y-112023809D01*
X130535714Y-111976190D01*
X130345238Y-111928571D01*
X130250000Y-111880952D01*
X130202380Y-111833333D01*
X130154761Y-111738095D01*
X130154761Y-111642857D01*
X130202380Y-111547619D01*
X130250000Y-111500000D01*
X130345238Y-111452380D01*
X130583333Y-111452380D01*
X130726190Y-111500000D01*
%TO.C,X5*%
X123293092Y-91281021D02*
X124494629Y-91308496D01*
X123675477Y-90734920D02*
X124112245Y-91854598D01*
X124167114Y-90032790D02*
X123893982Y-90422862D01*
X124256741Y-90735001D01*
X124245047Y-90668680D01*
X124260666Y-90563353D01*
X124397232Y-90368317D01*
X124490866Y-90317615D01*
X124557186Y-90305921D01*
X124662514Y-90321540D01*
X124857550Y-90458106D01*
X124908251Y-90551740D01*
X124919945Y-90618060D01*
X124904326Y-90723388D01*
X124767760Y-90918424D01*
X124674127Y-90969125D01*
X124607806Y-90980819D01*
X133157136Y-89227868D02*
X133278083Y-89138159D01*
X133414648Y-88943123D01*
X133430268Y-88837795D01*
X133418573Y-88771475D01*
X133367872Y-88677841D01*
X133289858Y-88623215D01*
X133184530Y-88607596D01*
X133118210Y-88619290D01*
X133024576Y-88669991D01*
X132876316Y-88798707D01*
X132782683Y-88849408D01*
X132716362Y-88861103D01*
X132611035Y-88845483D01*
X132533020Y-88790857D01*
X132482319Y-88697224D01*
X132470625Y-88630903D01*
X132486244Y-88525576D01*
X132622810Y-88330539D01*
X132743756Y-88240831D01*
X132895941Y-87940467D02*
X133851659Y-88319007D01*
X133375803Y-87753281D01*
X134070164Y-88006949D01*
X133387578Y-87238337D01*
X134425235Y-87499855D02*
X133606083Y-86926279D01*
X133742649Y-86731242D01*
X133863596Y-86641534D01*
X133996237Y-86618146D01*
X134101564Y-86633765D01*
X134284907Y-86704010D01*
X134401928Y-86785950D01*
X134530644Y-86934210D01*
X134581345Y-87027843D01*
X134604734Y-87160484D01*
X134561801Y-87304819D01*
X134425235Y-87499855D01*
%TO.C,V7*%
X134690476Y-111452380D02*
X135023809Y-112452380D01*
X135357142Y-111452380D01*
X135595238Y-111452380D02*
X136261904Y-111452380D01*
X135833333Y-112452380D01*
%TO.C,Y2*%
X136273809Y-97476190D02*
X136273809Y-97952380D01*
X135940476Y-96952380D02*
X136273809Y-97476190D01*
X136607142Y-96952380D01*
X136892857Y-97047619D02*
X136940476Y-97000000D01*
X137035714Y-96952380D01*
X137273809Y-96952380D01*
X137369047Y-97000000D01*
X137416666Y-97047619D01*
X137464285Y-97142857D01*
X137464285Y-97238095D01*
X137416666Y-97380952D01*
X136845238Y-97952380D01*
X137464285Y-97952380D01*
%TO.C,V5*%
X157940476Y-117952380D02*
X158273809Y-118952380D01*
X158607142Y-117952380D01*
X159416666Y-117952380D02*
X158940476Y-117952380D01*
X158892857Y-118428571D01*
X158940476Y-118380952D01*
X159035714Y-118333333D01*
X159273809Y-118333333D01*
X159369047Y-118380952D01*
X159416666Y-118428571D01*
X159464285Y-118523809D01*
X159464285Y-118761904D01*
X159416666Y-118857142D01*
X159369047Y-118904761D01*
X159273809Y-118952380D01*
X159035714Y-118952380D01*
X158940476Y-118904761D01*
X158892857Y-118857142D01*
%TO.C,C10*%
X136857142Y-105107142D02*
X136809523Y-105154761D01*
X136666666Y-105202380D01*
X136571428Y-105202380D01*
X136428571Y-105154761D01*
X136333333Y-105059523D01*
X136285714Y-104964285D01*
X136238095Y-104773809D01*
X136238095Y-104630952D01*
X136285714Y-104440476D01*
X136333333Y-104345238D01*
X136428571Y-104250000D01*
X136571428Y-104202380D01*
X136666666Y-104202380D01*
X136809523Y-104250000D01*
X136857142Y-104297619D01*
X137809523Y-105202380D02*
X137238095Y-105202380D01*
X137523809Y-105202380D02*
X137523809Y-104202380D01*
X137428571Y-104345238D01*
X137333333Y-104440476D01*
X137238095Y-104488095D01*
X138428571Y-104202380D02*
X138523809Y-104202380D01*
X138619047Y-104250000D01*
X138666666Y-104297619D01*
X138714285Y-104392857D01*
X138761904Y-104583333D01*
X138761904Y-104821428D01*
X138714285Y-105011904D01*
X138666666Y-105107142D01*
X138619047Y-105154761D01*
X138523809Y-105202380D01*
X138428571Y-105202380D01*
X138333333Y-105154761D01*
X138285714Y-105107142D01*
X138238095Y-105011904D01*
X138190476Y-104821428D01*
X138190476Y-104583333D01*
X138238095Y-104392857D01*
X138285714Y-104297619D01*
X138333333Y-104250000D01*
X138428571Y-104202380D01*
%TO.C,TP2*%
X154517857Y-87875000D02*
X154446428Y-87839285D01*
X154339285Y-87839285D01*
X154232142Y-87875000D01*
X154160714Y-87946428D01*
X154125000Y-88017857D01*
X154089285Y-88160714D01*
X154089285Y-88267857D01*
X154125000Y-88410714D01*
X154160714Y-88482142D01*
X154232142Y-88553571D01*
X154339285Y-88589285D01*
X154410714Y-88589285D01*
X154517857Y-88553571D01*
X154553571Y-88517857D01*
X154553571Y-88267857D01*
X154410714Y-88267857D01*
X154875000Y-88089285D02*
X154875000Y-88589285D01*
X154875000Y-88160714D02*
X154910714Y-88125000D01*
X154982142Y-88089285D01*
X155089285Y-88089285D01*
X155160714Y-88125000D01*
X155196428Y-88196428D01*
X155196428Y-88589285D01*
X155875000Y-88589285D02*
X155875000Y-87839285D01*
X155875000Y-88553571D02*
X155803571Y-88589285D01*
X155660714Y-88589285D01*
X155589285Y-88553571D01*
X155553571Y-88517857D01*
X155517857Y-88446428D01*
X155517857Y-88232142D01*
X155553571Y-88160714D01*
X155589285Y-88125000D01*
X155660714Y-88089285D01*
X155803571Y-88089285D01*
X155875000Y-88125000D01*
%TO.C,X2*%
X168690476Y-94102380D02*
X169357142Y-95102380D01*
X169357142Y-94102380D02*
X168690476Y-95102380D01*
X169690476Y-94197619D02*
X169738095Y-94150000D01*
X169833333Y-94102380D01*
X170071428Y-94102380D01*
X170166666Y-94150000D01*
X170214285Y-94197619D01*
X170261904Y-94292857D01*
X170261904Y-94388095D01*
X170214285Y-94530952D01*
X169642857Y-95102380D01*
X170261904Y-95102380D01*
X166357142Y-96078571D02*
X166500000Y-96126190D01*
X166547619Y-96173809D01*
X166595238Y-96269047D01*
X166595238Y-96411904D01*
X166547619Y-96507142D01*
X166500000Y-96554761D01*
X166404761Y-96602380D01*
X166023809Y-96602380D01*
X166023809Y-95602380D01*
X166357142Y-95602380D01*
X166452380Y-95650000D01*
X166500000Y-95697619D01*
X166547619Y-95792857D01*
X166547619Y-95888095D01*
X166500000Y-95983333D01*
X166452380Y-96030952D01*
X166357142Y-96078571D01*
X166023809Y-96078571D01*
X167452380Y-96602380D02*
X167452380Y-96078571D01*
X167404761Y-95983333D01*
X167309523Y-95935714D01*
X167119047Y-95935714D01*
X167023809Y-95983333D01*
X167452380Y-96554761D02*
X167357142Y-96602380D01*
X167119047Y-96602380D01*
X167023809Y-96554761D01*
X166976190Y-96459523D01*
X166976190Y-96364285D01*
X167023809Y-96269047D01*
X167119047Y-96221428D01*
X167357142Y-96221428D01*
X167452380Y-96173809D01*
X167785714Y-95935714D02*
X168166666Y-95935714D01*
X167928571Y-95602380D02*
X167928571Y-96459523D01*
X167976190Y-96554761D01*
X168071428Y-96602380D01*
X168166666Y-96602380D01*
X168500000Y-96221428D02*
X169261904Y-96221428D01*
X170309523Y-96507142D02*
X170261904Y-96554761D01*
X170119047Y-96602380D01*
X170023809Y-96602380D01*
X169880952Y-96554761D01*
X169785714Y-96459523D01*
X169738095Y-96364285D01*
X169690476Y-96173809D01*
X169690476Y-96030952D01*
X169738095Y-95840476D01*
X169785714Y-95745238D01*
X169880952Y-95650000D01*
X170023809Y-95602380D01*
X170119047Y-95602380D01*
X170261904Y-95650000D01*
X170309523Y-95697619D01*
X170880952Y-96602380D02*
X170785714Y-96554761D01*
X170738095Y-96507142D01*
X170690476Y-96411904D01*
X170690476Y-96126190D01*
X170738095Y-96030952D01*
X170785714Y-95983333D01*
X170880952Y-95935714D01*
X171023809Y-95935714D01*
X171119047Y-95983333D01*
X171166666Y-96030952D01*
X171214285Y-96126190D01*
X171214285Y-96411904D01*
X171166666Y-96507142D01*
X171119047Y-96554761D01*
X171023809Y-96602380D01*
X170880952Y-96602380D01*
X171642857Y-95935714D02*
X171642857Y-96602380D01*
X171642857Y-96030952D02*
X171690476Y-95983333D01*
X171785714Y-95935714D01*
X171928571Y-95935714D01*
X172023809Y-95983333D01*
X172071428Y-96078571D01*
X172071428Y-96602380D01*
X172547619Y-95935714D02*
X172547619Y-96602380D01*
X172547619Y-96030952D02*
X172595238Y-95983333D01*
X172690476Y-95935714D01*
X172833333Y-95935714D01*
X172928571Y-95983333D01*
X172976190Y-96078571D01*
X172976190Y-96602380D01*
%TO.C,R25*%
X149357142Y-98952380D02*
X149023809Y-98476190D01*
X148785714Y-98952380D02*
X148785714Y-97952380D01*
X149166666Y-97952380D01*
X149261904Y-98000000D01*
X149309523Y-98047619D01*
X149357142Y-98142857D01*
X149357142Y-98285714D01*
X149309523Y-98380952D01*
X149261904Y-98428571D01*
X149166666Y-98476190D01*
X148785714Y-98476190D01*
X149738095Y-98047619D02*
X149785714Y-98000000D01*
X149880952Y-97952380D01*
X150119047Y-97952380D01*
X150214285Y-98000000D01*
X150261904Y-98047619D01*
X150309523Y-98142857D01*
X150309523Y-98238095D01*
X150261904Y-98380952D01*
X149690476Y-98952380D01*
X150309523Y-98952380D01*
X151214285Y-97952380D02*
X150738095Y-97952380D01*
X150690476Y-98428571D01*
X150738095Y-98380952D01*
X150833333Y-98333333D01*
X151071428Y-98333333D01*
X151166666Y-98380952D01*
X151214285Y-98428571D01*
X151261904Y-98523809D01*
X151261904Y-98761904D01*
X151214285Y-98857142D01*
X151166666Y-98904761D01*
X151071428Y-98952380D01*
X150833333Y-98952380D01*
X150738095Y-98904761D01*
X150690476Y-98857142D01*
%TO.C,V32*%
X143714285Y-96952380D02*
X144047619Y-97952380D01*
X144380952Y-96952380D01*
X144619047Y-96952380D02*
X145238095Y-96952380D01*
X144904761Y-97333333D01*
X145047619Y-97333333D01*
X145142857Y-97380952D01*
X145190476Y-97428571D01*
X145238095Y-97523809D01*
X145238095Y-97761904D01*
X145190476Y-97857142D01*
X145142857Y-97904761D01*
X145047619Y-97952380D01*
X144761904Y-97952380D01*
X144666666Y-97904761D01*
X144619047Y-97857142D01*
X145619047Y-97047619D02*
X145666666Y-97000000D01*
X145761904Y-96952380D01*
X146000000Y-96952380D01*
X146095238Y-97000000D01*
X146142857Y-97047619D01*
X146190476Y-97142857D01*
X146190476Y-97238095D01*
X146142857Y-97380952D01*
X145571428Y-97952380D01*
X146190476Y-97952380D01*
%TO.C,C5*%
X156583333Y-114357142D02*
X156535714Y-114404761D01*
X156392857Y-114452380D01*
X156297619Y-114452380D01*
X156154761Y-114404761D01*
X156059523Y-114309523D01*
X156011904Y-114214285D01*
X155964285Y-114023809D01*
X155964285Y-113880952D01*
X156011904Y-113690476D01*
X156059523Y-113595238D01*
X156154761Y-113500000D01*
X156297619Y-113452380D01*
X156392857Y-113452380D01*
X156535714Y-113500000D01*
X156583333Y-113547619D01*
X157488095Y-113452380D02*
X157011904Y-113452380D01*
X156964285Y-113928571D01*
X157011904Y-113880952D01*
X157107142Y-113833333D01*
X157345238Y-113833333D01*
X157440476Y-113880952D01*
X157488095Y-113928571D01*
X157535714Y-114023809D01*
X157535714Y-114261904D01*
X157488095Y-114357142D01*
X157440476Y-114404761D01*
X157345238Y-114452380D01*
X157107142Y-114452380D01*
X157011904Y-114404761D01*
X156964285Y-114357142D01*
%TO.C,R23*%
X137533142Y-92654380D02*
X137199809Y-92178190D01*
X136961714Y-92654380D02*
X136961714Y-91654380D01*
X137342666Y-91654380D01*
X137437904Y-91702000D01*
X137485523Y-91749619D01*
X137533142Y-91844857D01*
X137533142Y-91987714D01*
X137485523Y-92082952D01*
X137437904Y-92130571D01*
X137342666Y-92178190D01*
X136961714Y-92178190D01*
X137914095Y-91749619D02*
X137961714Y-91702000D01*
X138056952Y-91654380D01*
X138295047Y-91654380D01*
X138390285Y-91702000D01*
X138437904Y-91749619D01*
X138485523Y-91844857D01*
X138485523Y-91940095D01*
X138437904Y-92082952D01*
X137866476Y-92654380D01*
X138485523Y-92654380D01*
X138818857Y-91654380D02*
X139437904Y-91654380D01*
X139104571Y-92035333D01*
X139247428Y-92035333D01*
X139342666Y-92082952D01*
X139390285Y-92130571D01*
X139437904Y-92225809D01*
X139437904Y-92463904D01*
X139390285Y-92559142D01*
X139342666Y-92606761D01*
X139247428Y-92654380D01*
X138961714Y-92654380D01*
X138866476Y-92606761D01*
X138818857Y-92559142D01*
%TO.C,R7*%
X162393333Y-99512380D02*
X162060000Y-99036190D01*
X161821904Y-99512380D02*
X161821904Y-98512380D01*
X162202857Y-98512380D01*
X162298095Y-98560000D01*
X162345714Y-98607619D01*
X162393333Y-98702857D01*
X162393333Y-98845714D01*
X162345714Y-98940952D01*
X162298095Y-98988571D01*
X162202857Y-99036190D01*
X161821904Y-99036190D01*
X162726666Y-98512380D02*
X163393333Y-98512380D01*
X162964761Y-99512380D01*
%TO.C,TP10*%
X137446428Y-115127500D02*
X138196428Y-115127500D01*
X138053571Y-116017857D02*
X138017857Y-116053571D01*
X137910714Y-116089285D01*
X137839285Y-116089285D01*
X137732142Y-116053571D01*
X137660714Y-115982142D01*
X137625000Y-115910714D01*
X137589285Y-115767857D01*
X137589285Y-115660714D01*
X137625000Y-115517857D01*
X137660714Y-115446428D01*
X137732142Y-115375000D01*
X137839285Y-115339285D01*
X137910714Y-115339285D01*
X138017857Y-115375000D01*
X138053571Y-115410714D01*
X138196428Y-115127500D02*
X138982142Y-115127500D01*
X138375000Y-116089285D02*
X138375000Y-115339285D01*
X138375000Y-115696428D02*
X138803571Y-115696428D01*
X138803571Y-116089285D02*
X138803571Y-115339285D01*
X138982142Y-115127500D02*
X139732142Y-115127500D01*
X139589285Y-116089285D02*
X139339285Y-115732142D01*
X139160714Y-116089285D02*
X139160714Y-115339285D01*
X139446428Y-115339285D01*
X139517857Y-115375000D01*
X139553571Y-115410714D01*
X139589285Y-115482142D01*
X139589285Y-115589285D01*
X139553571Y-115660714D01*
X139517857Y-115696428D01*
X139446428Y-115732142D01*
X139160714Y-115732142D01*
X139732142Y-115127500D02*
X140482142Y-115127500D01*
X140303571Y-115375000D02*
X140232142Y-115339285D01*
X140125000Y-115339285D01*
X140017857Y-115375000D01*
X139946428Y-115446428D01*
X139910714Y-115517857D01*
X139875000Y-115660714D01*
X139875000Y-115767857D01*
X139910714Y-115910714D01*
X139946428Y-115982142D01*
X140017857Y-116053571D01*
X140125000Y-116089285D01*
X140196428Y-116089285D01*
X140303571Y-116053571D01*
X140339285Y-116017857D01*
X140339285Y-115767857D01*
X140196428Y-115767857D01*
X140482142Y-115127500D02*
X141053571Y-115127500D01*
X140482142Y-116160714D02*
X141053571Y-116160714D01*
X141053571Y-115127500D02*
X141803571Y-115127500D01*
X141232142Y-116089285D02*
X141232142Y-115339285D01*
X141517857Y-115339285D01*
X141589285Y-115375000D01*
X141625000Y-115410714D01*
X141660714Y-115482142D01*
X141660714Y-115589285D01*
X141625000Y-115660714D01*
X141589285Y-115696428D01*
X141517857Y-115732142D01*
X141232142Y-115732142D01*
X141803571Y-115127500D02*
X142553571Y-115127500D01*
X142375000Y-115375000D02*
X142303571Y-115339285D01*
X142196428Y-115339285D01*
X142089285Y-115375000D01*
X142017857Y-115446428D01*
X141982142Y-115517857D01*
X141946428Y-115660714D01*
X141946428Y-115767857D01*
X141982142Y-115910714D01*
X142017857Y-115982142D01*
X142089285Y-116053571D01*
X142196428Y-116089285D01*
X142267857Y-116089285D01*
X142375000Y-116053571D01*
X142410714Y-116017857D01*
X142410714Y-115767857D01*
X142267857Y-115767857D01*
%TO.C,C20*%
X141857142Y-99607142D02*
X141809523Y-99654761D01*
X141666666Y-99702380D01*
X141571428Y-99702380D01*
X141428571Y-99654761D01*
X141333333Y-99559523D01*
X141285714Y-99464285D01*
X141238095Y-99273809D01*
X141238095Y-99130952D01*
X141285714Y-98940476D01*
X141333333Y-98845238D01*
X141428571Y-98750000D01*
X141571428Y-98702380D01*
X141666666Y-98702380D01*
X141809523Y-98750000D01*
X141857142Y-98797619D01*
X142238095Y-98797619D02*
X142285714Y-98750000D01*
X142380952Y-98702380D01*
X142619047Y-98702380D01*
X142714285Y-98750000D01*
X142761904Y-98797619D01*
X142809523Y-98892857D01*
X142809523Y-98988095D01*
X142761904Y-99130952D01*
X142190476Y-99702380D01*
X142809523Y-99702380D01*
X143428571Y-98702380D02*
X143523809Y-98702380D01*
X143619047Y-98750000D01*
X143666666Y-98797619D01*
X143714285Y-98892857D01*
X143761904Y-99083333D01*
X143761904Y-99321428D01*
X143714285Y-99511904D01*
X143666666Y-99607142D01*
X143619047Y-99654761D01*
X143523809Y-99702380D01*
X143428571Y-99702380D01*
X143333333Y-99654761D01*
X143285714Y-99607142D01*
X143238095Y-99511904D01*
X143190476Y-99321428D01*
X143190476Y-99083333D01*
X143238095Y-98892857D01*
X143285714Y-98797619D01*
X143333333Y-98750000D01*
X143428571Y-98702380D01*
%TO.C,R18*%
X163857142Y-76452380D02*
X163523809Y-75976190D01*
X163285714Y-76452380D02*
X163285714Y-75452380D01*
X163666666Y-75452380D01*
X163761904Y-75500000D01*
X163809523Y-75547619D01*
X163857142Y-75642857D01*
X163857142Y-75785714D01*
X163809523Y-75880952D01*
X163761904Y-75928571D01*
X163666666Y-75976190D01*
X163285714Y-75976190D01*
X164809523Y-76452380D02*
X164238095Y-76452380D01*
X164523809Y-76452380D02*
X164523809Y-75452380D01*
X164428571Y-75595238D01*
X164333333Y-75690476D01*
X164238095Y-75738095D01*
X165380952Y-75880952D02*
X165285714Y-75833333D01*
X165238095Y-75785714D01*
X165190476Y-75690476D01*
X165190476Y-75642857D01*
X165238095Y-75547619D01*
X165285714Y-75500000D01*
X165380952Y-75452380D01*
X165571428Y-75452380D01*
X165666666Y-75500000D01*
X165714285Y-75547619D01*
X165761904Y-75642857D01*
X165761904Y-75690476D01*
X165714285Y-75785714D01*
X165666666Y-75833333D01*
X165571428Y-75880952D01*
X165380952Y-75880952D01*
X165285714Y-75928571D01*
X165238095Y-75976190D01*
X165190476Y-76071428D01*
X165190476Y-76261904D01*
X165238095Y-76357142D01*
X165285714Y-76404761D01*
X165380952Y-76452380D01*
X165571428Y-76452380D01*
X165666666Y-76404761D01*
X165714285Y-76357142D01*
X165761904Y-76261904D01*
X165761904Y-76071428D01*
X165714285Y-75976190D01*
X165666666Y-75928571D01*
X165571428Y-75880952D01*
%TO.C,R1*%
X157333333Y-120202380D02*
X157000000Y-119726190D01*
X156761904Y-120202380D02*
X156761904Y-119202380D01*
X157142857Y-119202380D01*
X157238095Y-119250000D01*
X157285714Y-119297619D01*
X157333333Y-119392857D01*
X157333333Y-119535714D01*
X157285714Y-119630952D01*
X157238095Y-119678571D01*
X157142857Y-119726190D01*
X156761904Y-119726190D01*
X158285714Y-120202380D02*
X157714285Y-120202380D01*
X158000000Y-120202380D02*
X158000000Y-119202380D01*
X157904761Y-119345238D01*
X157809523Y-119440476D01*
X157714285Y-119488095D01*
%TO.C,S3*%
X155411019Y-75951103D02*
X155537403Y-76032974D01*
X155767914Y-76092588D01*
X155872042Y-76070332D01*
X155930067Y-76036152D01*
X156000015Y-75955871D01*
X156023860Y-75863666D01*
X156001604Y-75759539D01*
X155967424Y-75701513D01*
X155887143Y-75631566D01*
X155714657Y-75537772D01*
X155634375Y-75467824D01*
X155600195Y-75409799D01*
X155577939Y-75305671D01*
X155601785Y-75213467D01*
X155671733Y-75133185D01*
X155729758Y-75099006D01*
X155833885Y-75076749D01*
X156064396Y-75136363D01*
X156190780Y-75218234D01*
X156525419Y-75255592D02*
X157124749Y-75410589D01*
X156706650Y-75695947D01*
X156844957Y-75731716D01*
X156925238Y-75801664D01*
X156959418Y-75859689D01*
X156981674Y-75963816D01*
X156922060Y-76194328D01*
X156852112Y-76274609D01*
X156794087Y-76308789D01*
X156689960Y-76331045D01*
X156413346Y-76259508D01*
X156333064Y-76189560D01*
X156298885Y-76131535D01*
X154500071Y-76852967D02*
X154626455Y-76934837D01*
X154660635Y-76992862D01*
X154682891Y-77096990D01*
X154647123Y-77235297D01*
X154577175Y-77315578D01*
X154519150Y-77349758D01*
X154415022Y-77372014D01*
X154046204Y-77276631D01*
X154296584Y-76308484D01*
X154619300Y-76391944D01*
X154699582Y-76461892D01*
X154733761Y-76519917D01*
X154756018Y-76624044D01*
X154732172Y-76716249D01*
X154662224Y-76796531D01*
X154604199Y-76830710D01*
X154500071Y-76852967D01*
X154177356Y-76769507D01*
X155126425Y-76523095D02*
X155679652Y-76666170D01*
X155152659Y-77562780D02*
X155403039Y-76594632D01*
X155751988Y-77717777D02*
X156002368Y-76749630D01*
X156305215Y-77860851D01*
X156555595Y-76892704D01*
X157273363Y-78111231D02*
X156720136Y-77968157D01*
X156996749Y-78039694D02*
X157247129Y-77071547D01*
X157119156Y-77186008D01*
X157003106Y-77254367D01*
X156898979Y-77276623D01*
%TO.C,C16*%
X133794590Y-99691432D02*
X133746971Y-99739051D01*
X133604114Y-99786670D01*
X133508876Y-99786670D01*
X133366019Y-99739051D01*
X133270781Y-99643813D01*
X133223162Y-99548575D01*
X133175543Y-99358099D01*
X133175543Y-99215242D01*
X133223162Y-99024766D01*
X133270781Y-98929528D01*
X133366019Y-98834290D01*
X133508876Y-98786670D01*
X133604114Y-98786670D01*
X133746971Y-98834290D01*
X133794590Y-98881909D01*
X134746971Y-99786670D02*
X134175543Y-99786670D01*
X134461257Y-99786670D02*
X134461257Y-98786670D01*
X134366019Y-98929528D01*
X134270781Y-99024766D01*
X134175543Y-99072385D01*
X135604114Y-98786670D02*
X135413638Y-98786670D01*
X135318400Y-98834290D01*
X135270781Y-98881909D01*
X135175543Y-99024766D01*
X135127924Y-99215242D01*
X135127924Y-99596194D01*
X135175543Y-99691432D01*
X135223162Y-99739051D01*
X135318400Y-99786670D01*
X135508876Y-99786670D01*
X135604114Y-99739051D01*
X135651733Y-99691432D01*
X135699352Y-99596194D01*
X135699352Y-99358099D01*
X135651733Y-99262861D01*
X135604114Y-99215242D01*
X135508876Y-99167623D01*
X135318400Y-99167623D01*
X135223162Y-99215242D01*
X135175543Y-99262861D01*
X135127924Y-99358099D01*
%TO.C,V6*%
X129190476Y-93952380D02*
X129523809Y-94952380D01*
X129857142Y-93952380D01*
X130619047Y-93952380D02*
X130428571Y-93952380D01*
X130333333Y-94000000D01*
X130285714Y-94047619D01*
X130190476Y-94190476D01*
X130142857Y-94380952D01*
X130142857Y-94761904D01*
X130190476Y-94857142D01*
X130238095Y-94904761D01*
X130333333Y-94952380D01*
X130523809Y-94952380D01*
X130619047Y-94904761D01*
X130666666Y-94857142D01*
X130714285Y-94761904D01*
X130714285Y-94523809D01*
X130666666Y-94428571D01*
X130619047Y-94380952D01*
X130523809Y-94333333D01*
X130333333Y-94333333D01*
X130238095Y-94380952D01*
X130190476Y-94428571D01*
X130142857Y-94523809D01*
%TO.C,R13*%
X165357142Y-124452380D02*
X165023809Y-123976190D01*
X164785714Y-124452380D02*
X164785714Y-123452380D01*
X165166666Y-123452380D01*
X165261904Y-123500000D01*
X165309523Y-123547619D01*
X165357142Y-123642857D01*
X165357142Y-123785714D01*
X165309523Y-123880952D01*
X165261904Y-123928571D01*
X165166666Y-123976190D01*
X164785714Y-123976190D01*
X166309523Y-124452380D02*
X165738095Y-124452380D01*
X166023809Y-124452380D02*
X166023809Y-123452380D01*
X165928571Y-123595238D01*
X165833333Y-123690476D01*
X165738095Y-123738095D01*
X166642857Y-123452380D02*
X167261904Y-123452380D01*
X166928571Y-123833333D01*
X167071428Y-123833333D01*
X167166666Y-123880952D01*
X167214285Y-123928571D01*
X167261904Y-124023809D01*
X167261904Y-124261904D01*
X167214285Y-124357142D01*
X167166666Y-124404761D01*
X167071428Y-124452380D01*
X166785714Y-124452380D01*
X166690476Y-124404761D01*
X166642857Y-124357142D01*
%TO.C,C9*%
X124583333Y-110107142D02*
X124535714Y-110154761D01*
X124392857Y-110202380D01*
X124297619Y-110202380D01*
X124154761Y-110154761D01*
X124059523Y-110059523D01*
X124011904Y-109964285D01*
X123964285Y-109773809D01*
X123964285Y-109630952D01*
X124011904Y-109440476D01*
X124059523Y-109345238D01*
X124154761Y-109250000D01*
X124297619Y-109202380D01*
X124392857Y-109202380D01*
X124535714Y-109250000D01*
X124583333Y-109297619D01*
X125059523Y-110202380D02*
X125250000Y-110202380D01*
X125345238Y-110154761D01*
X125392857Y-110107142D01*
X125488095Y-109964285D01*
X125535714Y-109773809D01*
X125535714Y-109392857D01*
X125488095Y-109297619D01*
X125440476Y-109250000D01*
X125345238Y-109202380D01*
X125154761Y-109202380D01*
X125059523Y-109250000D01*
X125011904Y-109297619D01*
X124964285Y-109392857D01*
X124964285Y-109630952D01*
X125011904Y-109726190D01*
X125059523Y-109773809D01*
X125154761Y-109821428D01*
X125345238Y-109821428D01*
X125440476Y-109773809D01*
X125488095Y-109726190D01*
X125535714Y-109630952D01*
%TO.C,R17*%
X134857142Y-76452380D02*
X134523809Y-75976190D01*
X134285714Y-76452380D02*
X134285714Y-75452380D01*
X134666666Y-75452380D01*
X134761904Y-75500000D01*
X134809523Y-75547619D01*
X134857142Y-75642857D01*
X134857142Y-75785714D01*
X134809523Y-75880952D01*
X134761904Y-75928571D01*
X134666666Y-75976190D01*
X134285714Y-75976190D01*
X135809523Y-76452380D02*
X135238095Y-76452380D01*
X135523809Y-76452380D02*
X135523809Y-75452380D01*
X135428571Y-75595238D01*
X135333333Y-75690476D01*
X135238095Y-75738095D01*
X136142857Y-75452380D02*
X136809523Y-75452380D01*
X136380952Y-76452380D01*
%TO.C,TP6*%
X129017857Y-115625000D02*
X128946428Y-115589285D01*
X128839285Y-115589285D01*
X128732142Y-115625000D01*
X128660714Y-115696428D01*
X128625000Y-115767857D01*
X128589285Y-115910714D01*
X128589285Y-116017857D01*
X128625000Y-116160714D01*
X128660714Y-116232142D01*
X128732142Y-116303571D01*
X128839285Y-116339285D01*
X128910714Y-116339285D01*
X129017857Y-116303571D01*
X129053571Y-116267857D01*
X129053571Y-116017857D01*
X128910714Y-116017857D01*
X129375000Y-115839285D02*
X129375000Y-116339285D01*
X129375000Y-115910714D02*
X129410714Y-115875000D01*
X129482142Y-115839285D01*
X129589285Y-115839285D01*
X129660714Y-115875000D01*
X129696428Y-115946428D01*
X129696428Y-116339285D01*
X130375000Y-116339285D02*
X130375000Y-115589285D01*
X130375000Y-116303571D02*
X130303571Y-116339285D01*
X130160714Y-116339285D01*
X130089285Y-116303571D01*
X130053571Y-116267857D01*
X130017857Y-116196428D01*
X130017857Y-115982142D01*
X130053571Y-115910714D01*
X130089285Y-115875000D01*
X130160714Y-115839285D01*
X130303571Y-115839285D01*
X130375000Y-115875000D01*
%TO.C,R20*%
X148107142Y-101702380D02*
X147773809Y-101226190D01*
X147535714Y-101702380D02*
X147535714Y-100702380D01*
X147916666Y-100702380D01*
X148011904Y-100750000D01*
X148059523Y-100797619D01*
X148107142Y-100892857D01*
X148107142Y-101035714D01*
X148059523Y-101130952D01*
X148011904Y-101178571D01*
X147916666Y-101226190D01*
X147535714Y-101226190D01*
X148488095Y-100797619D02*
X148535714Y-100750000D01*
X148630952Y-100702380D01*
X148869047Y-100702380D01*
X148964285Y-100750000D01*
X149011904Y-100797619D01*
X149059523Y-100892857D01*
X149059523Y-100988095D01*
X149011904Y-101130952D01*
X148440476Y-101702380D01*
X149059523Y-101702380D01*
X149678571Y-100702380D02*
X149773809Y-100702380D01*
X149869047Y-100750000D01*
X149916666Y-100797619D01*
X149964285Y-100892857D01*
X150011904Y-101083333D01*
X150011904Y-101321428D01*
X149964285Y-101511904D01*
X149916666Y-101607142D01*
X149869047Y-101654761D01*
X149773809Y-101702380D01*
X149678571Y-101702380D01*
X149583333Y-101654761D01*
X149535714Y-101607142D01*
X149488095Y-101511904D01*
X149440476Y-101321428D01*
X149440476Y-101083333D01*
X149488095Y-100892857D01*
X149535714Y-100797619D01*
X149583333Y-100750000D01*
X149678571Y-100702380D01*
%TO.C,R2*%
X143833333Y-117952380D02*
X143500000Y-117476190D01*
X143261904Y-117952380D02*
X143261904Y-116952380D01*
X143642857Y-116952380D01*
X143738095Y-117000000D01*
X143785714Y-117047619D01*
X143833333Y-117142857D01*
X143833333Y-117285714D01*
X143785714Y-117380952D01*
X143738095Y-117428571D01*
X143642857Y-117476190D01*
X143261904Y-117476190D01*
X144214285Y-117047619D02*
X144261904Y-117000000D01*
X144357142Y-116952380D01*
X144595238Y-116952380D01*
X144690476Y-117000000D01*
X144738095Y-117047619D01*
X144785714Y-117142857D01*
X144785714Y-117238095D01*
X144738095Y-117380952D01*
X144166666Y-117952380D01*
X144785714Y-117952380D01*
%TO.C,X1*%
X143190476Y-127452380D02*
X143857142Y-128452380D01*
X143857142Y-127452380D02*
X143190476Y-128452380D01*
X144761904Y-128452380D02*
X144190476Y-128452380D01*
X144476190Y-128452380D02*
X144476190Y-127452380D01*
X144380952Y-127595238D01*
X144285714Y-127690476D01*
X144190476Y-127738095D01*
%TO.C,L2*%
X154833333Y-107452380D02*
X154357142Y-107452380D01*
X154357142Y-106452380D01*
X155119047Y-106547619D02*
X155166666Y-106500000D01*
X155261904Y-106452380D01*
X155500000Y-106452380D01*
X155595238Y-106500000D01*
X155642857Y-106547619D01*
X155690476Y-106642857D01*
X155690476Y-106738095D01*
X155642857Y-106880952D01*
X155071428Y-107452380D01*
X155690476Y-107452380D01*
%TO.C,TP4*%
X161732142Y-104696428D02*
X161839285Y-104732142D01*
X161875000Y-104767857D01*
X161910714Y-104839285D01*
X161910714Y-104946428D01*
X161875000Y-105017857D01*
X161839285Y-105053571D01*
X161767857Y-105089285D01*
X161482142Y-105089285D01*
X161482142Y-104339285D01*
X161732142Y-104339285D01*
X161803571Y-104375000D01*
X161839285Y-104410714D01*
X161875000Y-104482142D01*
X161875000Y-104553571D01*
X161839285Y-104625000D01*
X161803571Y-104660714D01*
X161732142Y-104696428D01*
X161482142Y-104696428D01*
X162196428Y-104875000D02*
X162553571Y-104875000D01*
X162125000Y-105089285D02*
X162375000Y-104339285D01*
X162625000Y-105089285D01*
X162767857Y-104339285D02*
X163196428Y-104339285D01*
X162982142Y-105089285D02*
X162982142Y-104339285D01*
X163446428Y-104803571D02*
X164017857Y-104803571D01*
%TO.C,S1*%
X149238095Y-76654761D02*
X149380952Y-76702380D01*
X149619047Y-76702380D01*
X149714285Y-76654761D01*
X149761904Y-76607142D01*
X149809523Y-76511904D01*
X149809523Y-76416666D01*
X149761904Y-76321428D01*
X149714285Y-76273809D01*
X149619047Y-76226190D01*
X149428571Y-76178571D01*
X149333333Y-76130952D01*
X149285714Y-76083333D01*
X149238095Y-75988095D01*
X149238095Y-75892857D01*
X149285714Y-75797619D01*
X149333333Y-75750000D01*
X149428571Y-75702380D01*
X149666666Y-75702380D01*
X149809523Y-75750000D01*
X150761904Y-76702380D02*
X150190476Y-76702380D01*
X150476190Y-76702380D02*
X150476190Y-75702380D01*
X150380952Y-75845238D01*
X150285714Y-75940476D01*
X150190476Y-75988095D01*
X148428571Y-77535714D02*
X148428571Y-78202380D01*
X148428571Y-77630952D02*
X148476190Y-77583333D01*
X148571428Y-77535714D01*
X148714285Y-77535714D01*
X148809523Y-77583333D01*
X148857142Y-77678571D01*
X148857142Y-78202380D01*
X149904761Y-78202380D02*
X149571428Y-77726190D01*
X149333333Y-78202380D02*
X149333333Y-77202380D01*
X149714285Y-77202380D01*
X149809523Y-77250000D01*
X149857142Y-77297619D01*
X149904761Y-77392857D01*
X149904761Y-77535714D01*
X149857142Y-77630952D01*
X149809523Y-77678571D01*
X149714285Y-77726190D01*
X149333333Y-77726190D01*
X150285714Y-78154761D02*
X150428571Y-78202380D01*
X150666666Y-78202380D01*
X150761904Y-78154761D01*
X150809523Y-78107142D01*
X150857142Y-78011904D01*
X150857142Y-77916666D01*
X150809523Y-77821428D01*
X150761904Y-77773809D01*
X150666666Y-77726190D01*
X150476190Y-77678571D01*
X150380952Y-77630952D01*
X150333333Y-77583333D01*
X150285714Y-77488095D01*
X150285714Y-77392857D01*
X150333333Y-77297619D01*
X150380952Y-77250000D01*
X150476190Y-77202380D01*
X150714285Y-77202380D01*
X150857142Y-77250000D01*
X151142857Y-77202380D02*
X151714285Y-77202380D01*
X151428571Y-78202380D02*
X151428571Y-77202380D01*
%TO.C,C1*%
X175345333Y-109107142D02*
X175297714Y-109154761D01*
X175154857Y-109202380D01*
X175059619Y-109202380D01*
X174916761Y-109154761D01*
X174821523Y-109059523D01*
X174773904Y-108964285D01*
X174726285Y-108773809D01*
X174726285Y-108630952D01*
X174773904Y-108440476D01*
X174821523Y-108345238D01*
X174916761Y-108250000D01*
X175059619Y-108202380D01*
X175154857Y-108202380D01*
X175297714Y-108250000D01*
X175345333Y-108297619D01*
X176297714Y-109202380D02*
X175726285Y-109202380D01*
X176012000Y-109202380D02*
X176012000Y-108202380D01*
X175916761Y-108345238D01*
X175821523Y-108440476D01*
X175726285Y-108488095D01*
%TO.C,S2*%
X142999672Y-76041730D02*
X143149902Y-76052063D01*
X143380413Y-75992449D01*
X143460695Y-75922501D01*
X143494875Y-75864476D01*
X143517131Y-75760348D01*
X143493285Y-75668144D01*
X143423337Y-75587862D01*
X143365312Y-75553683D01*
X143261185Y-75531426D01*
X143064853Y-75533015D01*
X142960726Y-75510759D01*
X142902700Y-75476579D01*
X142832752Y-75396298D01*
X142808907Y-75304093D01*
X142831163Y-75199966D01*
X142865343Y-75141941D01*
X142945624Y-75071993D01*
X143176136Y-75012378D01*
X143326365Y-75022712D01*
X143707106Y-74973432D02*
X143741286Y-74915406D01*
X143821568Y-74845458D01*
X144052079Y-74785844D01*
X144156206Y-74808101D01*
X144214231Y-74842280D01*
X144284179Y-74922562D01*
X144308025Y-75014766D01*
X144297691Y-75164996D01*
X143887538Y-75861297D01*
X144486868Y-75706300D01*
X142714303Y-77258725D02*
X142864532Y-77269058D01*
X142922558Y-77303238D01*
X142992506Y-77383519D01*
X143028274Y-77521826D01*
X143006018Y-77625954D01*
X142971838Y-77683979D01*
X142891557Y-77753927D01*
X142522738Y-77849310D01*
X142272358Y-76881162D01*
X142595074Y-76797702D01*
X142699202Y-76819959D01*
X142757227Y-76854138D01*
X142827175Y-76934420D01*
X142851020Y-77026624D01*
X142828764Y-77130752D01*
X142794585Y-77188777D01*
X142714303Y-77258725D01*
X142391587Y-77342185D01*
X143102199Y-76666551D02*
X143655426Y-76523476D01*
X143629193Y-77563161D02*
X143378813Y-76595013D01*
X144228522Y-77408164D02*
X143978142Y-76440016D01*
X144781750Y-77265090D01*
X144531370Y-76296942D01*
X145176801Y-76130022D02*
X145269006Y-76106176D01*
X145373133Y-76128433D01*
X145431158Y-76162612D01*
X145501106Y-76242894D01*
X145594900Y-76415380D01*
X145654514Y-76645891D01*
X145656103Y-76842223D01*
X145633847Y-76946351D01*
X145599668Y-77004376D01*
X145519386Y-77074324D01*
X145427181Y-77098170D01*
X145323054Y-77075913D01*
X145265029Y-77041734D01*
X145195081Y-76961452D01*
X145101287Y-76788966D01*
X145041673Y-76558454D01*
X145040084Y-76362122D01*
X145062340Y-76257995D01*
X145096520Y-76199970D01*
X145176801Y-76130022D01*
%TO.C,C15*%
X124905142Y-100642857D02*
X124952761Y-100690476D01*
X125000380Y-100833333D01*
X125000380Y-100928571D01*
X124952761Y-101071428D01*
X124857523Y-101166666D01*
X124762285Y-101214285D01*
X124571809Y-101261904D01*
X124428952Y-101261904D01*
X124238476Y-101214285D01*
X124143238Y-101166666D01*
X124048000Y-101071428D01*
X124000380Y-100928571D01*
X124000380Y-100833333D01*
X124048000Y-100690476D01*
X124095619Y-100642857D01*
X125000380Y-99690476D02*
X125000380Y-100261904D01*
X125000380Y-99976190D02*
X124000380Y-99976190D01*
X124143238Y-100071428D01*
X124238476Y-100166666D01*
X124286095Y-100261904D01*
X124000380Y-98785714D02*
X124000380Y-99261904D01*
X124476571Y-99309523D01*
X124428952Y-99261904D01*
X124381333Y-99166666D01*
X124381333Y-98928571D01*
X124428952Y-98833333D01*
X124476571Y-98785714D01*
X124571809Y-98738095D01*
X124809904Y-98738095D01*
X124905142Y-98785714D01*
X124952761Y-98833333D01*
X125000380Y-98928571D01*
X125000380Y-99166666D01*
X124952761Y-99261904D01*
X124905142Y-99309523D01*
%TO.C,L1*%
X165333333Y-109702380D02*
X164857142Y-109702380D01*
X164857142Y-108702380D01*
X166190476Y-109702380D02*
X165619047Y-109702380D01*
X165904761Y-109702380D02*
X165904761Y-108702380D01*
X165809523Y-108845238D01*
X165714285Y-108940476D01*
X165619047Y-108988095D01*
%TO.C,C8*%
X166333333Y-113857142D02*
X166285714Y-113904761D01*
X166142857Y-113952380D01*
X166047619Y-113952380D01*
X165904761Y-113904761D01*
X165809523Y-113809523D01*
X165761904Y-113714285D01*
X165714285Y-113523809D01*
X165714285Y-113380952D01*
X165761904Y-113190476D01*
X165809523Y-113095238D01*
X165904761Y-113000000D01*
X166047619Y-112952380D01*
X166142857Y-112952380D01*
X166285714Y-113000000D01*
X166333333Y-113047619D01*
X166904761Y-113380952D02*
X166809523Y-113333333D01*
X166761904Y-113285714D01*
X166714285Y-113190476D01*
X166714285Y-113142857D01*
X166761904Y-113047619D01*
X166809523Y-113000000D01*
X166904761Y-112952380D01*
X167095238Y-112952380D01*
X167190476Y-113000000D01*
X167238095Y-113047619D01*
X167285714Y-113142857D01*
X167285714Y-113190476D01*
X167238095Y-113285714D01*
X167190476Y-113333333D01*
X167095238Y-113380952D01*
X166904761Y-113380952D01*
X166809523Y-113428571D01*
X166761904Y-113476190D01*
X166714285Y-113571428D01*
X166714285Y-113761904D01*
X166761904Y-113857142D01*
X166809523Y-113904761D01*
X166904761Y-113952380D01*
X167095238Y-113952380D01*
X167190476Y-113904761D01*
X167238095Y-113857142D01*
X167285714Y-113761904D01*
X167285714Y-113571428D01*
X167238095Y-113476190D01*
X167190476Y-113428571D01*
X167095238Y-113380952D01*
%TO.C,R21*%
X135357142Y-114702380D02*
X135023809Y-114226190D01*
X134785714Y-114702380D02*
X134785714Y-113702380D01*
X135166666Y-113702380D01*
X135261904Y-113750000D01*
X135309523Y-113797619D01*
X135357142Y-113892857D01*
X135357142Y-114035714D01*
X135309523Y-114130952D01*
X135261904Y-114178571D01*
X135166666Y-114226190D01*
X134785714Y-114226190D01*
X135738095Y-113797619D02*
X135785714Y-113750000D01*
X135880952Y-113702380D01*
X136119047Y-113702380D01*
X136214285Y-113750000D01*
X136261904Y-113797619D01*
X136309523Y-113892857D01*
X136309523Y-113988095D01*
X136261904Y-114130952D01*
X135690476Y-114702380D01*
X136309523Y-114702380D01*
X137261904Y-114702380D02*
X136690476Y-114702380D01*
X136976190Y-114702380D02*
X136976190Y-113702380D01*
X136880952Y-113845238D01*
X136785714Y-113940476D01*
X136690476Y-113988095D01*
%TO.C,TP3*%
X161732142Y-100946428D02*
X161839285Y-100982142D01*
X161875000Y-101017857D01*
X161910714Y-101089285D01*
X161910714Y-101196428D01*
X161875000Y-101267857D01*
X161839285Y-101303571D01*
X161767857Y-101339285D01*
X161482142Y-101339285D01*
X161482142Y-100589285D01*
X161732142Y-100589285D01*
X161803571Y-100625000D01*
X161839285Y-100660714D01*
X161875000Y-100732142D01*
X161875000Y-100803571D01*
X161839285Y-100875000D01*
X161803571Y-100910714D01*
X161732142Y-100946428D01*
X161482142Y-100946428D01*
X162196428Y-101125000D02*
X162553571Y-101125000D01*
X162125000Y-101339285D02*
X162375000Y-100589285D01*
X162625000Y-101339285D01*
X162767857Y-100589285D02*
X163196428Y-100589285D01*
X162982142Y-101339285D02*
X162982142Y-100589285D01*
X163446428Y-101053571D02*
X164017857Y-101053571D01*
X163732142Y-101339285D02*
X163732142Y-100767857D01*
%TO.C,FB1*%
X152916666Y-113928571D02*
X152583333Y-113928571D01*
X152583333Y-114452380D02*
X152583333Y-113452380D01*
X153059523Y-113452380D01*
X153773809Y-113928571D02*
X153916666Y-113976190D01*
X153964285Y-114023809D01*
X154011904Y-114119047D01*
X154011904Y-114261904D01*
X153964285Y-114357142D01*
X153916666Y-114404761D01*
X153821428Y-114452380D01*
X153440476Y-114452380D01*
X153440476Y-113452380D01*
X153773809Y-113452380D01*
X153869047Y-113500000D01*
X153916666Y-113547619D01*
X153964285Y-113642857D01*
X153964285Y-113738095D01*
X153916666Y-113833333D01*
X153869047Y-113880952D01*
X153773809Y-113928571D01*
X153440476Y-113928571D01*
X154964285Y-114452380D02*
X154392857Y-114452380D01*
X154678571Y-114452380D02*
X154678571Y-113452380D01*
X154583333Y-113595238D01*
X154488095Y-113690476D01*
X154392857Y-113738095D01*
%TO.C,TP1*%
X133892857Y-115589285D02*
X134357142Y-115589285D01*
X134107142Y-115875000D01*
X134214285Y-115875000D01*
X134285714Y-115910714D01*
X134321428Y-115946428D01*
X134357142Y-116017857D01*
X134357142Y-116196428D01*
X134321428Y-116267857D01*
X134285714Y-116303571D01*
X134214285Y-116339285D01*
X134000000Y-116339285D01*
X133928571Y-116303571D01*
X133892857Y-116267857D01*
X134678571Y-116267857D02*
X134714285Y-116303571D01*
X134678571Y-116339285D01*
X134642857Y-116303571D01*
X134678571Y-116267857D01*
X134678571Y-116339285D01*
X134964285Y-115589285D02*
X135428571Y-115589285D01*
X135178571Y-115875000D01*
X135285714Y-115875000D01*
X135357142Y-115910714D01*
X135392857Y-115946428D01*
X135428571Y-116017857D01*
X135428571Y-116196428D01*
X135392857Y-116267857D01*
X135357142Y-116303571D01*
X135285714Y-116339285D01*
X135071428Y-116339285D01*
X135000000Y-116303571D01*
X134964285Y-116267857D01*
X135642857Y-115589285D02*
X135892857Y-116339285D01*
X136142857Y-115589285D01*
%TO.C,TP5*%
X156125000Y-107339285D02*
X156375000Y-108089285D01*
X156625000Y-107339285D01*
X157125000Y-107696428D02*
X157232142Y-107732142D01*
X157267857Y-107767857D01*
X157303571Y-107839285D01*
X157303571Y-107946428D01*
X157267857Y-108017857D01*
X157232142Y-108053571D01*
X157160714Y-108089285D01*
X156875000Y-108089285D01*
X156875000Y-107339285D01*
X157125000Y-107339285D01*
X157196428Y-107375000D01*
X157232142Y-107410714D01*
X157267857Y-107482142D01*
X157267857Y-107553571D01*
X157232142Y-107625000D01*
X157196428Y-107660714D01*
X157125000Y-107696428D01*
X156875000Y-107696428D01*
X157625000Y-107339285D02*
X157625000Y-107946428D01*
X157660714Y-108017857D01*
X157696428Y-108053571D01*
X157767857Y-108089285D01*
X157910714Y-108089285D01*
X157982142Y-108053571D01*
X158017857Y-108017857D01*
X158053571Y-107946428D01*
X158053571Y-107339285D01*
X158375000Y-108053571D02*
X158482142Y-108089285D01*
X158660714Y-108089285D01*
X158732142Y-108053571D01*
X158767857Y-108017857D01*
X158803571Y-107946428D01*
X158803571Y-107875000D01*
X158767857Y-107803571D01*
X158732142Y-107767857D01*
X158660714Y-107732142D01*
X158517857Y-107696428D01*
X158446428Y-107660714D01*
X158410714Y-107625000D01*
X158375000Y-107553571D01*
X158375000Y-107482142D01*
X158410714Y-107410714D01*
X158446428Y-107375000D01*
X158517857Y-107339285D01*
X158696428Y-107339285D01*
X158803571Y-107375000D01*
%TO.C,R24*%
X134107142Y-79202380D02*
X133773809Y-78726190D01*
X133535714Y-79202380D02*
X133535714Y-78202380D01*
X133916666Y-78202380D01*
X134011904Y-78250000D01*
X134059523Y-78297619D01*
X134107142Y-78392857D01*
X134107142Y-78535714D01*
X134059523Y-78630952D01*
X134011904Y-78678571D01*
X133916666Y-78726190D01*
X133535714Y-78726190D01*
X134488095Y-78297619D02*
X134535714Y-78250000D01*
X134630952Y-78202380D01*
X134869047Y-78202380D01*
X134964285Y-78250000D01*
X135011904Y-78297619D01*
X135059523Y-78392857D01*
X135059523Y-78488095D01*
X135011904Y-78630952D01*
X134440476Y-79202380D01*
X135059523Y-79202380D01*
X135916666Y-78535714D02*
X135916666Y-79202380D01*
X135678571Y-78154761D02*
X135440476Y-78869047D01*
X136059523Y-78869047D01*
%TO.C,V33*%
X145214285Y-86202380D02*
X145547619Y-87202380D01*
X145880952Y-86202380D01*
X146119047Y-86202380D02*
X146738095Y-86202380D01*
X146404761Y-86583333D01*
X146547619Y-86583333D01*
X146642857Y-86630952D01*
X146690476Y-86678571D01*
X146738095Y-86773809D01*
X146738095Y-87011904D01*
X146690476Y-87107142D01*
X146642857Y-87154761D01*
X146547619Y-87202380D01*
X146261904Y-87202380D01*
X146166666Y-87154761D01*
X146119047Y-87107142D01*
X147071428Y-86202380D02*
X147690476Y-86202380D01*
X147357142Y-86583333D01*
X147500000Y-86583333D01*
X147595238Y-86630952D01*
X147642857Y-86678571D01*
X147690476Y-86773809D01*
X147690476Y-87011904D01*
X147642857Y-87107142D01*
X147595238Y-87154761D01*
X147500000Y-87202380D01*
X147214285Y-87202380D01*
X147119047Y-87154761D01*
X147071428Y-87107142D01*
%TO.C,C2*%
X162083333Y-109607142D02*
X162035714Y-109654761D01*
X161892857Y-109702380D01*
X161797619Y-109702380D01*
X161654761Y-109654761D01*
X161559523Y-109559523D01*
X161511904Y-109464285D01*
X161464285Y-109273809D01*
X161464285Y-109130952D01*
X161511904Y-108940476D01*
X161559523Y-108845238D01*
X161654761Y-108750000D01*
X161797619Y-108702380D01*
X161892857Y-108702380D01*
X162035714Y-108750000D01*
X162083333Y-108797619D01*
X162464285Y-108797619D02*
X162511904Y-108750000D01*
X162607142Y-108702380D01*
X162845238Y-108702380D01*
X162940476Y-108750000D01*
X162988095Y-108797619D01*
X163035714Y-108892857D01*
X163035714Y-108988095D01*
X162988095Y-109130952D01*
X162416666Y-109702380D01*
X163035714Y-109702380D01*
%TO.C,Y1*%
X127071809Y-109976190D02*
X127071809Y-110452380D01*
X126738476Y-109452380D02*
X127071809Y-109976190D01*
X127405142Y-109452380D01*
X128262285Y-110452380D02*
X127690857Y-110452380D01*
X127976571Y-110452380D02*
X127976571Y-109452380D01*
X127881333Y-109595238D01*
X127786095Y-109690476D01*
X127690857Y-109738095D01*
%TO.C,R22*%
X140357142Y-80952380D02*
X140023809Y-80476190D01*
X139785714Y-80952380D02*
X139785714Y-79952380D01*
X140166666Y-79952380D01*
X140261904Y-80000000D01*
X140309523Y-80047619D01*
X140357142Y-80142857D01*
X140357142Y-80285714D01*
X140309523Y-80380952D01*
X140261904Y-80428571D01*
X140166666Y-80476190D01*
X139785714Y-80476190D01*
X140738095Y-80047619D02*
X140785714Y-80000000D01*
X140880952Y-79952380D01*
X141119047Y-79952380D01*
X141214285Y-80000000D01*
X141261904Y-80047619D01*
X141309523Y-80142857D01*
X141309523Y-80238095D01*
X141261904Y-80380952D01*
X140690476Y-80952380D01*
X141309523Y-80952380D01*
X141690476Y-80047619D02*
X141738095Y-80000000D01*
X141833333Y-79952380D01*
X142071428Y-79952380D01*
X142166666Y-80000000D01*
X142214285Y-80047619D01*
X142261904Y-80142857D01*
X142261904Y-80238095D01*
X142214285Y-80380952D01*
X141642857Y-80952380D01*
X142261904Y-80952380D01*
%TO.C,TP7*%
X149553571Y-95877500D02*
X150303571Y-95877500D01*
X149732142Y-96839285D02*
X149732142Y-96089285D01*
X149910714Y-96089285D01*
X150017857Y-96125000D01*
X150089285Y-96196428D01*
X150125000Y-96267857D01*
X150160714Y-96410714D01*
X150160714Y-96517857D01*
X150125000Y-96660714D01*
X150089285Y-96732142D01*
X150017857Y-96803571D01*
X149910714Y-96839285D01*
X149732142Y-96839285D01*
X150303571Y-95877500D02*
X151053571Y-95877500D01*
X150910714Y-96767857D02*
X150875000Y-96803571D01*
X150767857Y-96839285D01*
X150696428Y-96839285D01*
X150589285Y-96803571D01*
X150517857Y-96732142D01*
X150482142Y-96660714D01*
X150446428Y-96517857D01*
X150446428Y-96410714D01*
X150482142Y-96267857D01*
X150517857Y-96196428D01*
X150589285Y-96125000D01*
X150696428Y-96089285D01*
X150767857Y-96089285D01*
X150875000Y-96125000D01*
X150910714Y-96160714D01*
X151053571Y-95877500D02*
X151803571Y-95877500D01*
X151232142Y-96839285D02*
X151232142Y-96089285D01*
X151410714Y-96089285D01*
X151517857Y-96125000D01*
X151589285Y-96196428D01*
X151625000Y-96267857D01*
X151660714Y-96410714D01*
X151660714Y-96517857D01*
X151625000Y-96660714D01*
X151589285Y-96732142D01*
X151517857Y-96803571D01*
X151410714Y-96839285D01*
X151232142Y-96839285D01*
X151803571Y-95877500D02*
X152553571Y-95877500D01*
X152410714Y-96767857D02*
X152375000Y-96803571D01*
X152267857Y-96839285D01*
X152196428Y-96839285D01*
X152089285Y-96803571D01*
X152017857Y-96732142D01*
X151982142Y-96660714D01*
X151946428Y-96517857D01*
X151946428Y-96410714D01*
X151982142Y-96267857D01*
X152017857Y-96196428D01*
X152089285Y-96125000D01*
X152196428Y-96089285D01*
X152267857Y-96089285D01*
X152375000Y-96125000D01*
X152410714Y-96160714D01*
X152553571Y-95877500D02*
X153482142Y-95877500D01*
X152732142Y-96553571D02*
X153303571Y-96553571D01*
X153482142Y-95877500D02*
X154232142Y-95877500D01*
X153910714Y-96446428D02*
X154017857Y-96482142D01*
X154053571Y-96517857D01*
X154089285Y-96589285D01*
X154089285Y-96696428D01*
X154053571Y-96767857D01*
X154017857Y-96803571D01*
X153946428Y-96839285D01*
X153660714Y-96839285D01*
X153660714Y-96089285D01*
X153910714Y-96089285D01*
X153982142Y-96125000D01*
X154017857Y-96160714D01*
X154053571Y-96232142D01*
X154053571Y-96303571D01*
X154017857Y-96375000D01*
X153982142Y-96410714D01*
X153910714Y-96446428D01*
X153660714Y-96446428D01*
X154232142Y-95877500D02*
X154875000Y-95877500D01*
X154375000Y-96625000D02*
X154732142Y-96625000D01*
X154303571Y-96839285D02*
X154553571Y-96089285D01*
X154803571Y-96839285D01*
X154875000Y-95877500D02*
X155446428Y-95877500D01*
X154946428Y-96089285D02*
X155375000Y-96089285D01*
X155160714Y-96839285D02*
X155160714Y-96089285D01*
%TO.C,C6*%
X159083333Y-104357142D02*
X159035714Y-104404761D01*
X158892857Y-104452380D01*
X158797619Y-104452380D01*
X158654761Y-104404761D01*
X158559523Y-104309523D01*
X158511904Y-104214285D01*
X158464285Y-104023809D01*
X158464285Y-103880952D01*
X158511904Y-103690476D01*
X158559523Y-103595238D01*
X158654761Y-103500000D01*
X158797619Y-103452380D01*
X158892857Y-103452380D01*
X159035714Y-103500000D01*
X159083333Y-103547619D01*
X159940476Y-103452380D02*
X159750000Y-103452380D01*
X159654761Y-103500000D01*
X159607142Y-103547619D01*
X159511904Y-103690476D01*
X159464285Y-103880952D01*
X159464285Y-104261904D01*
X159511904Y-104357142D01*
X159559523Y-104404761D01*
X159654761Y-104452380D01*
X159845238Y-104452380D01*
X159940476Y-104404761D01*
X159988095Y-104357142D01*
X160035714Y-104261904D01*
X160035714Y-104023809D01*
X159988095Y-103928571D01*
X159940476Y-103880952D01*
X159845238Y-103833333D01*
X159654761Y-103833333D01*
X159559523Y-103880952D01*
X159511904Y-103928571D01*
X159464285Y-104023809D01*
%TO.C,TP8*%
X153464285Y-93089285D02*
X153464285Y-92339285D01*
X153642857Y-92339285D01*
X153750000Y-92375000D01*
X153821428Y-92446428D01*
X153857142Y-92517857D01*
X153892857Y-92660714D01*
X153892857Y-92767857D01*
X153857142Y-92910714D01*
X153821428Y-92982142D01*
X153750000Y-93053571D01*
X153642857Y-93089285D01*
X153464285Y-93089285D01*
X154642857Y-93017857D02*
X154607142Y-93053571D01*
X154500000Y-93089285D01*
X154428571Y-93089285D01*
X154321428Y-93053571D01*
X154250000Y-92982142D01*
X154214285Y-92910714D01*
X154178571Y-92767857D01*
X154178571Y-92660714D01*
X154214285Y-92517857D01*
X154250000Y-92446428D01*
X154321428Y-92375000D01*
X154428571Y-92339285D01*
X154500000Y-92339285D01*
X154607142Y-92375000D01*
X154642857Y-92410714D01*
X154964285Y-93089285D02*
X154964285Y-92339285D01*
X155142857Y-92339285D01*
X155250000Y-92375000D01*
X155321428Y-92446428D01*
X155357142Y-92517857D01*
X155392857Y-92660714D01*
X155392857Y-92767857D01*
X155357142Y-92910714D01*
X155321428Y-92982142D01*
X155250000Y-93053571D01*
X155142857Y-93089285D01*
X154964285Y-93089285D01*
X156142857Y-93017857D02*
X156107142Y-93053571D01*
X156000000Y-93089285D01*
X155928571Y-93089285D01*
X155821428Y-93053571D01*
X155750000Y-92982142D01*
X155714285Y-92910714D01*
X155678571Y-92767857D01*
X155678571Y-92660714D01*
X155714285Y-92517857D01*
X155750000Y-92446428D01*
X155821428Y-92375000D01*
X155928571Y-92339285D01*
X156000000Y-92339285D01*
X156107142Y-92375000D01*
X156142857Y-92410714D01*
X156464285Y-92803571D02*
X157035714Y-92803571D01*
X157392857Y-93089285D02*
X157392857Y-92339285D01*
X157678571Y-92339285D01*
X157750000Y-92375000D01*
X157785714Y-92410714D01*
X157821428Y-92482142D01*
X157821428Y-92589285D01*
X157785714Y-92660714D01*
X157750000Y-92696428D01*
X157678571Y-92732142D01*
X157392857Y-92732142D01*
X158535714Y-92375000D02*
X158464285Y-92339285D01*
X158357142Y-92339285D01*
X158250000Y-92375000D01*
X158178571Y-92446428D01*
X158142857Y-92517857D01*
X158107142Y-92660714D01*
X158107142Y-92767857D01*
X158142857Y-92910714D01*
X158178571Y-92982142D01*
X158250000Y-93053571D01*
X158357142Y-93089285D01*
X158428571Y-93089285D01*
X158535714Y-93053571D01*
X158571428Y-93017857D01*
X158571428Y-92767857D01*
X158428571Y-92767857D01*
%TO.C,C19*%
X139311142Y-97595142D02*
X139263523Y-97642761D01*
X139120666Y-97690380D01*
X139025428Y-97690380D01*
X138882571Y-97642761D01*
X138787333Y-97547523D01*
X138739714Y-97452285D01*
X138692095Y-97261809D01*
X138692095Y-97118952D01*
X138739714Y-96928476D01*
X138787333Y-96833238D01*
X138882571Y-96738000D01*
X139025428Y-96690380D01*
X139120666Y-96690380D01*
X139263523Y-96738000D01*
X139311142Y-96785619D01*
X140263523Y-97690380D02*
X139692095Y-97690380D01*
X139977809Y-97690380D02*
X139977809Y-96690380D01*
X139882571Y-96833238D01*
X139787333Y-96928476D01*
X139692095Y-96976095D01*
X140739714Y-97690380D02*
X140930190Y-97690380D01*
X141025428Y-97642761D01*
X141073047Y-97595142D01*
X141168285Y-97452285D01*
X141215904Y-97261809D01*
X141215904Y-96880857D01*
X141168285Y-96785619D01*
X141120666Y-96738000D01*
X141025428Y-96690380D01*
X140834952Y-96690380D01*
X140739714Y-96738000D01*
X140692095Y-96785619D01*
X140644476Y-96880857D01*
X140644476Y-97118952D01*
X140692095Y-97214190D01*
X140739714Y-97261809D01*
X140834952Y-97309428D01*
X141025428Y-97309428D01*
X141120666Y-97261809D01*
X141168285Y-97214190D01*
X141215904Y-97118952D01*
%TO.C,R12*%
X165357142Y-122952380D02*
X165023809Y-122476190D01*
X164785714Y-122952380D02*
X164785714Y-121952380D01*
X165166666Y-121952380D01*
X165261904Y-122000000D01*
X165309523Y-122047619D01*
X165357142Y-122142857D01*
X165357142Y-122285714D01*
X165309523Y-122380952D01*
X165261904Y-122428571D01*
X165166666Y-122476190D01*
X164785714Y-122476190D01*
X166309523Y-122952380D02*
X165738095Y-122952380D01*
X166023809Y-122952380D02*
X166023809Y-121952380D01*
X165928571Y-122095238D01*
X165833333Y-122190476D01*
X165738095Y-122238095D01*
X166690476Y-122047619D02*
X166738095Y-122000000D01*
X166833333Y-121952380D01*
X167071428Y-121952380D01*
X167166666Y-122000000D01*
X167214285Y-122047619D01*
X167261904Y-122142857D01*
X167261904Y-122238095D01*
X167214285Y-122380952D01*
X166642857Y-122952380D01*
X167261904Y-122952380D01*
%TO.C,R3*%
X168608333Y-113952380D02*
X168275000Y-113476190D01*
X168036904Y-113952380D02*
X168036904Y-112952380D01*
X168417857Y-112952380D01*
X168513095Y-113000000D01*
X168560714Y-113047619D01*
X168608333Y-113142857D01*
X168608333Y-113285714D01*
X168560714Y-113380952D01*
X168513095Y-113428571D01*
X168417857Y-113476190D01*
X168036904Y-113476190D01*
X168941666Y-112952380D02*
X169560714Y-112952380D01*
X169227380Y-113333333D01*
X169370238Y-113333333D01*
X169465476Y-113380952D01*
X169513095Y-113428571D01*
X169560714Y-113523809D01*
X169560714Y-113761904D01*
X169513095Y-113857142D01*
X169465476Y-113904761D01*
X169370238Y-113952380D01*
X169084523Y-113952380D01*
X168989285Y-113904761D01*
X168941666Y-113857142D01*
%TO.C,R6*%
X162393333Y-97734380D02*
X162060000Y-97258190D01*
X161821904Y-97734380D02*
X161821904Y-96734380D01*
X162202857Y-96734380D01*
X162298095Y-96782000D01*
X162345714Y-96829619D01*
X162393333Y-96924857D01*
X162393333Y-97067714D01*
X162345714Y-97162952D01*
X162298095Y-97210571D01*
X162202857Y-97258190D01*
X161821904Y-97258190D01*
X163250476Y-96734380D02*
X163060000Y-96734380D01*
X162964761Y-96782000D01*
X162917142Y-96829619D01*
X162821904Y-96972476D01*
X162774285Y-97162952D01*
X162774285Y-97543904D01*
X162821904Y-97639142D01*
X162869523Y-97686761D01*
X162964761Y-97734380D01*
X163155238Y-97734380D01*
X163250476Y-97686761D01*
X163298095Y-97639142D01*
X163345714Y-97543904D01*
X163345714Y-97305809D01*
X163298095Y-97210571D01*
X163250476Y-97162952D01*
X163155238Y-97115333D01*
X162964761Y-97115333D01*
X162869523Y-97162952D01*
X162821904Y-97210571D01*
X162774285Y-97305809D01*
%TO.C,R11*%
X165357142Y-119452380D02*
X165023809Y-118976190D01*
X164785714Y-119452380D02*
X164785714Y-118452380D01*
X165166666Y-118452380D01*
X165261904Y-118500000D01*
X165309523Y-118547619D01*
X165357142Y-118642857D01*
X165357142Y-118785714D01*
X165309523Y-118880952D01*
X165261904Y-118928571D01*
X165166666Y-118976190D01*
X164785714Y-118976190D01*
X166309523Y-119452380D02*
X165738095Y-119452380D01*
X166023809Y-119452380D02*
X166023809Y-118452380D01*
X165928571Y-118595238D01*
X165833333Y-118690476D01*
X165738095Y-118738095D01*
X167261904Y-119452380D02*
X166690476Y-119452380D01*
X166976190Y-119452380D02*
X166976190Y-118452380D01*
X166880952Y-118595238D01*
X166785714Y-118690476D01*
X166690476Y-118738095D01*
%TO.C,L3*%
X129381333Y-105000380D02*
X128905142Y-105000380D01*
X128905142Y-104000380D01*
X129619428Y-104000380D02*
X130238476Y-104000380D01*
X129905142Y-104381333D01*
X130048000Y-104381333D01*
X130143238Y-104428952D01*
X130190857Y-104476571D01*
X130238476Y-104571809D01*
X130238476Y-104809904D01*
X130190857Y-104905142D01*
X130143238Y-104952761D01*
X130048000Y-105000380D01*
X129762285Y-105000380D01*
X129667047Y-104952761D01*
X129619428Y-104905142D01*
%TO.C,R5*%
X141083333Y-119702380D02*
X140750000Y-119226190D01*
X140511904Y-119702380D02*
X140511904Y-118702380D01*
X140892857Y-118702380D01*
X140988095Y-118750000D01*
X141035714Y-118797619D01*
X141083333Y-118892857D01*
X141083333Y-119035714D01*
X141035714Y-119130952D01*
X140988095Y-119178571D01*
X140892857Y-119226190D01*
X140511904Y-119226190D01*
X141988095Y-118702380D02*
X141511904Y-118702380D01*
X141464285Y-119178571D01*
X141511904Y-119130952D01*
X141607142Y-119083333D01*
X141845238Y-119083333D01*
X141940476Y-119130952D01*
X141988095Y-119178571D01*
X142035714Y-119273809D01*
X142035714Y-119511904D01*
X141988095Y-119607142D01*
X141940476Y-119654761D01*
X141845238Y-119702380D01*
X141607142Y-119702380D01*
X141511904Y-119654761D01*
X141464285Y-119607142D01*
%TO.C,V3*%
X148440476Y-109952380D02*
X148773809Y-110952380D01*
X149107142Y-109952380D01*
X149345238Y-109952380D02*
X149964285Y-109952380D01*
X149630952Y-110333333D01*
X149773809Y-110333333D01*
X149869047Y-110380952D01*
X149916666Y-110428571D01*
X149964285Y-110523809D01*
X149964285Y-110761904D01*
X149916666Y-110857142D01*
X149869047Y-110904761D01*
X149773809Y-110952380D01*
X149488095Y-110952380D01*
X149392857Y-110904761D01*
X149345238Y-110857142D01*
%TO.C,V2*%
X170440476Y-116202380D02*
X170773809Y-117202380D01*
X171107142Y-116202380D01*
X171392857Y-116297619D02*
X171440476Y-116250000D01*
X171535714Y-116202380D01*
X171773809Y-116202380D01*
X171869047Y-116250000D01*
X171916666Y-116297619D01*
X171964285Y-116392857D01*
X171964285Y-116488095D01*
X171916666Y-116630952D01*
X171345238Y-117202380D01*
X171964285Y-117202380D01*
%TO.C,C12*%
X132707142Y-92357142D02*
X132659523Y-92404761D01*
X132516666Y-92452380D01*
X132421428Y-92452380D01*
X132278571Y-92404761D01*
X132183333Y-92309523D01*
X132135714Y-92214285D01*
X132088095Y-92023809D01*
X132088095Y-91880952D01*
X132135714Y-91690476D01*
X132183333Y-91595238D01*
X132278571Y-91500000D01*
X132421428Y-91452380D01*
X132516666Y-91452380D01*
X132659523Y-91500000D01*
X132707142Y-91547619D01*
X133659523Y-92452380D02*
X133088095Y-92452380D01*
X133373809Y-92452380D02*
X133373809Y-91452380D01*
X133278571Y-91595238D01*
X133183333Y-91690476D01*
X133088095Y-91738095D01*
X134040476Y-91547619D02*
X134088095Y-91500000D01*
X134183333Y-91452380D01*
X134421428Y-91452380D01*
X134516666Y-91500000D01*
X134564285Y-91547619D01*
X134611904Y-91642857D01*
X134611904Y-91738095D01*
X134564285Y-91880952D01*
X133992857Y-92452380D01*
X134611904Y-92452380D01*
%TO.C,V4*%
X153190476Y-98702380D02*
X153523809Y-99702380D01*
X153857142Y-98702380D01*
X154619047Y-99035714D02*
X154619047Y-99702380D01*
X154380952Y-98654761D02*
X154142857Y-99369047D01*
X154761904Y-99369047D01*
%TO.C,L5*%
X125833333Y-96702380D02*
X125357142Y-96702380D01*
X125357142Y-95702380D01*
X126642857Y-95702380D02*
X126166666Y-95702380D01*
X126119047Y-96178571D01*
X126166666Y-96130952D01*
X126261904Y-96083333D01*
X126500000Y-96083333D01*
X126595238Y-96130952D01*
X126642857Y-96178571D01*
X126690476Y-96273809D01*
X126690476Y-96511904D01*
X126642857Y-96607142D01*
X126595238Y-96654761D01*
X126500000Y-96702380D01*
X126261904Y-96702380D01*
X126166666Y-96654761D01*
X126119047Y-96607142D01*
%TO.C,TP9*%
X141053571Y-112267857D02*
X141017857Y-112303571D01*
X140910714Y-112339285D01*
X140839285Y-112339285D01*
X140732142Y-112303571D01*
X140660714Y-112232142D01*
X140625000Y-112160714D01*
X140589285Y-112017857D01*
X140589285Y-111910714D01*
X140625000Y-111767857D01*
X140660714Y-111696428D01*
X140732142Y-111625000D01*
X140839285Y-111589285D01*
X140910714Y-111589285D01*
X141017857Y-111625000D01*
X141053571Y-111660714D01*
X141375000Y-112339285D02*
X141375000Y-111589285D01*
X141375000Y-111946428D02*
X141803571Y-111946428D01*
X141803571Y-112339285D02*
X141803571Y-111589285D01*
X142589285Y-112339285D02*
X142339285Y-111982142D01*
X142160714Y-112339285D02*
X142160714Y-111589285D01*
X142446428Y-111589285D01*
X142517857Y-111625000D01*
X142553571Y-111660714D01*
X142589285Y-111732142D01*
X142589285Y-111839285D01*
X142553571Y-111910714D01*
X142517857Y-111946428D01*
X142446428Y-111982142D01*
X142160714Y-111982142D01*
X143303571Y-111625000D02*
X143232142Y-111589285D01*
X143125000Y-111589285D01*
X143017857Y-111625000D01*
X142946428Y-111696428D01*
X142910714Y-111767857D01*
X142875000Y-111910714D01*
X142875000Y-112017857D01*
X142910714Y-112160714D01*
X142946428Y-112232142D01*
X143017857Y-112303571D01*
X143125000Y-112339285D01*
X143196428Y-112339285D01*
X143303571Y-112303571D01*
X143339285Y-112267857D01*
X143339285Y-112017857D01*
X143196428Y-112017857D01*
X143482142Y-112410714D02*
X144053571Y-112410714D01*
X144196428Y-112303571D02*
X144303571Y-112339285D01*
X144482142Y-112339285D01*
X144553571Y-112303571D01*
X144589285Y-112267857D01*
X144625000Y-112196428D01*
X144625000Y-112125000D01*
X144589285Y-112053571D01*
X144553571Y-112017857D01*
X144482142Y-111982142D01*
X144339285Y-111946428D01*
X144267857Y-111910714D01*
X144232142Y-111875000D01*
X144196428Y-111803571D01*
X144196428Y-111732142D01*
X144232142Y-111660714D01*
X144267857Y-111625000D01*
X144339285Y-111589285D01*
X144517857Y-111589285D01*
X144625000Y-111625000D01*
X144839285Y-111589285D02*
X145267857Y-111589285D01*
X145053571Y-112339285D02*
X145053571Y-111589285D01*
X145482142Y-112125000D02*
X145839285Y-112125000D01*
X145410714Y-112339285D02*
X145660714Y-111589285D01*
X145910714Y-112339285D01*
X146053571Y-111589285D02*
X146482142Y-111589285D01*
X146267857Y-112339285D02*
X146267857Y-111589285D01*
%TO.C,C13*%
X128607142Y-102357142D02*
X128559523Y-102404761D01*
X128416666Y-102452380D01*
X128321428Y-102452380D01*
X128178571Y-102404761D01*
X128083333Y-102309523D01*
X128035714Y-102214285D01*
X127988095Y-102023809D01*
X127988095Y-101880952D01*
X128035714Y-101690476D01*
X128083333Y-101595238D01*
X128178571Y-101500000D01*
X128321428Y-101452380D01*
X128416666Y-101452380D01*
X128559523Y-101500000D01*
X128607142Y-101547619D01*
X129559523Y-102452380D02*
X128988095Y-102452380D01*
X129273809Y-102452380D02*
X129273809Y-101452380D01*
X129178571Y-101595238D01*
X129083333Y-101690476D01*
X128988095Y-101738095D01*
X129892857Y-101452380D02*
X130511904Y-101452380D01*
X130178571Y-101833333D01*
X130321428Y-101833333D01*
X130416666Y-101880952D01*
X130464285Y-101928571D01*
X130511904Y-102023809D01*
X130511904Y-102261904D01*
X130464285Y-102357142D01*
X130416666Y-102404761D01*
X130321428Y-102452380D01*
X130035714Y-102452380D01*
X129940476Y-102404761D01*
X129892857Y-102357142D01*
%TO.C,R19*%
X148107142Y-106132380D02*
X147773809Y-105656190D01*
X147535714Y-106132380D02*
X147535714Y-105132380D01*
X147916666Y-105132380D01*
X148011904Y-105180000D01*
X148059523Y-105227619D01*
X148107142Y-105322857D01*
X148107142Y-105465714D01*
X148059523Y-105560952D01*
X148011904Y-105608571D01*
X147916666Y-105656190D01*
X147535714Y-105656190D01*
X149059523Y-106132380D02*
X148488095Y-106132380D01*
X148773809Y-106132380D02*
X148773809Y-105132380D01*
X148678571Y-105275238D01*
X148583333Y-105370476D01*
X148488095Y-105418095D01*
X149535714Y-106132380D02*
X149726190Y-106132380D01*
X149821428Y-106084761D01*
X149869047Y-106037142D01*
X149964285Y-105894285D01*
X150011904Y-105703809D01*
X150011904Y-105322857D01*
X149964285Y-105227619D01*
X149916666Y-105180000D01*
X149821428Y-105132380D01*
X149630952Y-105132380D01*
X149535714Y-105180000D01*
X149488095Y-105227619D01*
X149440476Y-105322857D01*
X149440476Y-105560952D01*
X149488095Y-105656190D01*
X149535714Y-105703809D01*
X149630952Y-105751428D01*
X149821428Y-105751428D01*
X149916666Y-105703809D01*
X149964285Y-105656190D01*
X150011904Y-105560952D01*
%TO.C,X4*%
X142690476Y-102452380D02*
X143357142Y-103452380D01*
X143357142Y-102452380D02*
X142690476Y-103452380D01*
X144166666Y-102785714D02*
X144166666Y-103452380D01*
X143928571Y-102404761D02*
X143690476Y-103119047D01*
X144309523Y-103119047D01*
X140404761Y-109452380D02*
X140404761Y-110261904D01*
X140452380Y-110357142D01*
X140500000Y-110404761D01*
X140595238Y-110452380D01*
X140785714Y-110452380D01*
X140880952Y-110404761D01*
X140928571Y-110357142D01*
X140976190Y-110261904D01*
X140976190Y-109452380D01*
X141404761Y-110166666D02*
X141880952Y-110166666D01*
X141309523Y-110452380D02*
X141642857Y-109452380D01*
X141976190Y-110452380D01*
X142880952Y-110452380D02*
X142547619Y-109976190D01*
X142309523Y-110452380D02*
X142309523Y-109452380D01*
X142690476Y-109452380D01*
X142785714Y-109500000D01*
X142833333Y-109547619D01*
X142880952Y-109642857D01*
X142880952Y-109785714D01*
X142833333Y-109880952D01*
X142785714Y-109928571D01*
X142690476Y-109976190D01*
X142309523Y-109976190D01*
X143166666Y-109452380D02*
X143738095Y-109452380D01*
X143452380Y-110452380D02*
X143452380Y-109452380D01*
%TO.C,R16*%
X142607142Y-79452380D02*
X142273809Y-78976190D01*
X142035714Y-79452380D02*
X142035714Y-78452380D01*
X142416666Y-78452380D01*
X142511904Y-78500000D01*
X142559523Y-78547619D01*
X142607142Y-78642857D01*
X142607142Y-78785714D01*
X142559523Y-78880952D01*
X142511904Y-78928571D01*
X142416666Y-78976190D01*
X142035714Y-78976190D01*
X143559523Y-79452380D02*
X142988095Y-79452380D01*
X143273809Y-79452380D02*
X143273809Y-78452380D01*
X143178571Y-78595238D01*
X143083333Y-78690476D01*
X142988095Y-78738095D01*
X144416666Y-78452380D02*
X144226190Y-78452380D01*
X144130952Y-78500000D01*
X144083333Y-78547619D01*
X143988095Y-78690476D01*
X143940476Y-78880952D01*
X143940476Y-79261904D01*
X143988095Y-79357142D01*
X144035714Y-79404761D01*
X144130952Y-79452380D01*
X144321428Y-79452380D01*
X144416666Y-79404761D01*
X144464285Y-79357142D01*
X144511904Y-79261904D01*
X144511904Y-79023809D01*
X144464285Y-78928571D01*
X144416666Y-78880952D01*
X144321428Y-78833333D01*
X144130952Y-78833333D01*
X144035714Y-78880952D01*
X143988095Y-78928571D01*
X143940476Y-79023809D01*
%TO.C,TP11*%
X147339285Y-93339285D02*
X147339285Y-92589285D01*
X147625000Y-92589285D01*
X147696428Y-92625000D01*
X147732142Y-92660714D01*
X147767857Y-92732142D01*
X147767857Y-92839285D01*
X147732142Y-92910714D01*
X147696428Y-92946428D01*
X147625000Y-92982142D01*
X147339285Y-92982142D01*
X148089285Y-93339285D02*
X148089285Y-92589285D01*
X148089285Y-92946428D02*
X148517857Y-92946428D01*
X148517857Y-93339285D02*
X148517857Y-92589285D01*
X149017857Y-92589285D02*
X149160714Y-92589285D01*
X149232142Y-92625000D01*
X149303571Y-92696428D01*
X149339285Y-92839285D01*
X149339285Y-93089285D01*
X149303571Y-93232142D01*
X149232142Y-93303571D01*
X149160714Y-93339285D01*
X149017857Y-93339285D01*
X148946428Y-93303571D01*
X148875000Y-93232142D01*
X148839285Y-93089285D01*
X148839285Y-92839285D01*
X148875000Y-92696428D01*
X148946428Y-92625000D01*
X149017857Y-92589285D01*
X149553571Y-92589285D02*
X149982142Y-92589285D01*
X149767857Y-93339285D02*
X149767857Y-92589285D01*
X150375000Y-92589285D02*
X150517857Y-92589285D01*
X150589285Y-92625000D01*
X150660714Y-92696428D01*
X150696428Y-92839285D01*
X150696428Y-93089285D01*
X150660714Y-93232142D01*
X150589285Y-93303571D01*
X150517857Y-93339285D01*
X150375000Y-93339285D01*
X150303571Y-93303571D01*
X150232142Y-93232142D01*
X150196428Y-93089285D01*
X150196428Y-92839285D01*
X150232142Y-92696428D01*
X150303571Y-92625000D01*
X150375000Y-92589285D01*
%TO.C,X3*%
X157440476Y-121452380D02*
X158107142Y-122452380D01*
X158107142Y-121452380D02*
X157440476Y-122452380D01*
X158392857Y-121452380D02*
X159011904Y-121452380D01*
X158678571Y-121833333D01*
X158821428Y-121833333D01*
X158916666Y-121880952D01*
X158964285Y-121928571D01*
X159011904Y-122023809D01*
X159011904Y-122261904D01*
X158964285Y-122357142D01*
X158916666Y-122404761D01*
X158821428Y-122452380D01*
X158535714Y-122452380D01*
X158440476Y-122404761D01*
X158392857Y-122357142D01*
X157083333Y-127952380D02*
X157083333Y-126952380D01*
X157654761Y-127952380D01*
X157654761Y-126952380D01*
X157988095Y-126952380D02*
X158559523Y-126952380D01*
X158273809Y-127952380D02*
X158273809Y-126952380D01*
X159464285Y-127857142D02*
X159416666Y-127904761D01*
X159273809Y-127952380D01*
X159178571Y-127952380D01*
X159035714Y-127904761D01*
X158940476Y-127809523D01*
X158892857Y-127714285D01*
X158845238Y-127523809D01*
X158845238Y-127380952D01*
X158892857Y-127190476D01*
X158940476Y-127095238D01*
X159035714Y-127000000D01*
X159178571Y-126952380D01*
X159273809Y-126952380D01*
X159416666Y-127000000D01*
X159464285Y-127047619D01*
%TO.C,V1*%
X170440476Y-111952380D02*
X170773809Y-112952380D01*
X171107142Y-111952380D01*
X171964285Y-112952380D02*
X171392857Y-112952380D01*
X171678571Y-112952380D02*
X171678571Y-111952380D01*
X171583333Y-112095238D01*
X171488095Y-112190476D01*
X171392857Y-112238095D01*
%TO.C,R8*%
X142583333Y-124202380D02*
X142250000Y-123726190D01*
X142011904Y-124202380D02*
X142011904Y-123202380D01*
X142392857Y-123202380D01*
X142488095Y-123250000D01*
X142535714Y-123297619D01*
X142583333Y-123392857D01*
X142583333Y-123535714D01*
X142535714Y-123630952D01*
X142488095Y-123678571D01*
X142392857Y-123726190D01*
X142011904Y-123726190D01*
X143154761Y-123630952D02*
X143059523Y-123583333D01*
X143011904Y-123535714D01*
X142964285Y-123440476D01*
X142964285Y-123392857D01*
X143011904Y-123297619D01*
X143059523Y-123250000D01*
X143154761Y-123202380D01*
X143345238Y-123202380D01*
X143440476Y-123250000D01*
X143488095Y-123297619D01*
X143535714Y-123392857D01*
X143535714Y-123440476D01*
X143488095Y-123535714D01*
X143440476Y-123583333D01*
X143345238Y-123630952D01*
X143154761Y-123630952D01*
X143059523Y-123678571D01*
X143011904Y-123726190D01*
X142964285Y-123821428D01*
X142964285Y-124011904D01*
X143011904Y-124107142D01*
X143059523Y-124154761D01*
X143154761Y-124202380D01*
X143345238Y-124202380D01*
X143440476Y-124154761D01*
X143488095Y-124107142D01*
X143535714Y-124011904D01*
X143535714Y-123821428D01*
X143488095Y-123726190D01*
X143440476Y-123678571D01*
X143345238Y-123630952D01*
%TO.C,L4*%
X132631333Y-108250380D02*
X132155142Y-108250380D01*
X132155142Y-107250380D01*
X133393238Y-107583714D02*
X133393238Y-108250380D01*
X133155142Y-107202761D02*
X132917047Y-107917047D01*
X133536095Y-107917047D01*
%TO.C,R15*%
X133607142Y-96202380D02*
X133273809Y-95726190D01*
X133035714Y-96202380D02*
X133035714Y-95202380D01*
X133416666Y-95202380D01*
X133511904Y-95250000D01*
X133559523Y-95297619D01*
X133607142Y-95392857D01*
X133607142Y-95535714D01*
X133559523Y-95630952D01*
X133511904Y-95678571D01*
X133416666Y-95726190D01*
X133035714Y-95726190D01*
X134559523Y-96202380D02*
X133988095Y-96202380D01*
X134273809Y-96202380D02*
X134273809Y-95202380D01*
X134178571Y-95345238D01*
X134083333Y-95440476D01*
X133988095Y-95488095D01*
X135464285Y-95202380D02*
X134988095Y-95202380D01*
X134940476Y-95678571D01*
X134988095Y-95630952D01*
X135083333Y-95583333D01*
X135321428Y-95583333D01*
X135416666Y-95630952D01*
X135464285Y-95678571D01*
X135511904Y-95773809D01*
X135511904Y-96011904D01*
X135464285Y-96107142D01*
X135416666Y-96154761D01*
X135321428Y-96202380D01*
X135083333Y-96202380D01*
X134988095Y-96154761D01*
X134940476Y-96107142D01*
%TO.C,R9*%
X142583333Y-125952380D02*
X142250000Y-125476190D01*
X142011904Y-125952380D02*
X142011904Y-124952380D01*
X142392857Y-124952380D01*
X142488095Y-125000000D01*
X142535714Y-125047619D01*
X142583333Y-125142857D01*
X142583333Y-125285714D01*
X142535714Y-125380952D01*
X142488095Y-125428571D01*
X142392857Y-125476190D01*
X142011904Y-125476190D01*
X143059523Y-125952380D02*
X143250000Y-125952380D01*
X143345238Y-125904761D01*
X143392857Y-125857142D01*
X143488095Y-125714285D01*
X143535714Y-125523809D01*
X143535714Y-125142857D01*
X143488095Y-125047619D01*
X143440476Y-125000000D01*
X143345238Y-124952380D01*
X143154761Y-124952380D01*
X143059523Y-125000000D01*
X143011904Y-125047619D01*
X142964285Y-125142857D01*
X142964285Y-125380952D01*
X143011904Y-125476190D01*
X143059523Y-125523809D01*
X143154761Y-125571428D01*
X143345238Y-125571428D01*
X143440476Y-125523809D01*
X143488095Y-125476190D01*
X143535714Y-125380952D01*
%TO.C,C11*%
X126107142Y-104607142D02*
X126059523Y-104654761D01*
X125916666Y-104702380D01*
X125821428Y-104702380D01*
X125678571Y-104654761D01*
X125583333Y-104559523D01*
X125535714Y-104464285D01*
X125488095Y-104273809D01*
X125488095Y-104130952D01*
X125535714Y-103940476D01*
X125583333Y-103845238D01*
X125678571Y-103750000D01*
X125821428Y-103702380D01*
X125916666Y-103702380D01*
X126059523Y-103750000D01*
X126107142Y-103797619D01*
X127059523Y-104702380D02*
X126488095Y-104702380D01*
X126773809Y-104702380D02*
X126773809Y-103702380D01*
X126678571Y-103845238D01*
X126583333Y-103940476D01*
X126488095Y-103988095D01*
X128011904Y-104702380D02*
X127440476Y-104702380D01*
X127726190Y-104702380D02*
X127726190Y-103702380D01*
X127630952Y-103845238D01*
X127535714Y-103940476D01*
X127440476Y-103988095D01*
%TO.C,R4*%
X176333333Y-99952380D02*
X176000000Y-99476190D01*
X175761904Y-99952380D02*
X175761904Y-98952380D01*
X176142857Y-98952380D01*
X176238095Y-99000000D01*
X176285714Y-99047619D01*
X176333333Y-99142857D01*
X176333333Y-99285714D01*
X176285714Y-99380952D01*
X176238095Y-99428571D01*
X176142857Y-99476190D01*
X175761904Y-99476190D01*
X177190476Y-99285714D02*
X177190476Y-99952380D01*
X176952380Y-98904761D02*
X176714285Y-99619047D01*
X177333333Y-99619047D01*
%TO.C,AE1*%
X120833333Y-104464666D02*
X121309523Y-104464666D01*
X120738095Y-104750380D02*
X121071428Y-103750380D01*
X121404761Y-104750380D01*
X121738095Y-104226571D02*
X122071428Y-104226571D01*
X122214285Y-104750380D02*
X121738095Y-104750380D01*
X121738095Y-103750380D01*
X122214285Y-103750380D01*
X123166666Y-104750380D02*
X122595238Y-104750380D01*
X122880952Y-104750380D02*
X122880952Y-103750380D01*
X122785714Y-103893238D01*
X122690476Y-103988476D01*
X122595238Y-104036095D01*
%TO.C,C7*%
X166333333Y-116107142D02*
X166285714Y-116154761D01*
X166142857Y-116202380D01*
X166047619Y-116202380D01*
X165904761Y-116154761D01*
X165809523Y-116059523D01*
X165761904Y-115964285D01*
X165714285Y-115773809D01*
X165714285Y-115630952D01*
X165761904Y-115440476D01*
X165809523Y-115345238D01*
X165904761Y-115250000D01*
X166047619Y-115202380D01*
X166142857Y-115202380D01*
X166285714Y-115250000D01*
X166333333Y-115297619D01*
X166666666Y-115202380D02*
X167333333Y-115202380D01*
X166904761Y-116202380D01*
%TO.C,C17*%
X139057142Y-103257142D02*
X139009523Y-103304761D01*
X138866666Y-103352380D01*
X138771428Y-103352380D01*
X138628571Y-103304761D01*
X138533333Y-103209523D01*
X138485714Y-103114285D01*
X138438095Y-102923809D01*
X138438095Y-102780952D01*
X138485714Y-102590476D01*
X138533333Y-102495238D01*
X138628571Y-102400000D01*
X138771428Y-102352380D01*
X138866666Y-102352380D01*
X139009523Y-102400000D01*
X139057142Y-102447619D01*
X140009523Y-103352380D02*
X139438095Y-103352380D01*
X139723809Y-103352380D02*
X139723809Y-102352380D01*
X139628571Y-102495238D01*
X139533333Y-102590476D01*
X139438095Y-102638095D01*
X140342857Y-102352380D02*
X141009523Y-102352380D01*
X140580952Y-103352380D01*
%TO.C,C4*%
X151333333Y-102107142D02*
X151285714Y-102154761D01*
X151142857Y-102202380D01*
X151047619Y-102202380D01*
X150904761Y-102154761D01*
X150809523Y-102059523D01*
X150761904Y-101964285D01*
X150714285Y-101773809D01*
X150714285Y-101630952D01*
X150761904Y-101440476D01*
X150809523Y-101345238D01*
X150904761Y-101250000D01*
X151047619Y-101202380D01*
X151142857Y-101202380D01*
X151285714Y-101250000D01*
X151333333Y-101297619D01*
X152190476Y-101535714D02*
X152190476Y-102202380D01*
X151952380Y-101154761D02*
X151714285Y-101869047D01*
X152333333Y-101869047D01*
%TO.C,C18*%
X123857142Y-93107142D02*
X123809523Y-93154761D01*
X123666666Y-93202380D01*
X123571428Y-93202380D01*
X123428571Y-93154761D01*
X123333333Y-93059523D01*
X123285714Y-92964285D01*
X123238095Y-92773809D01*
X123238095Y-92630952D01*
X123285714Y-92440476D01*
X123333333Y-92345238D01*
X123428571Y-92250000D01*
X123571428Y-92202380D01*
X123666666Y-92202380D01*
X123809523Y-92250000D01*
X123857142Y-92297619D01*
X124809523Y-93202380D02*
X124238095Y-93202380D01*
X124523809Y-93202380D02*
X124523809Y-92202380D01*
X124428571Y-92345238D01*
X124333333Y-92440476D01*
X124238095Y-92488095D01*
X125380952Y-92630952D02*
X125285714Y-92583333D01*
X125238095Y-92535714D01*
X125190476Y-92440476D01*
X125190476Y-92392857D01*
X125238095Y-92297619D01*
X125285714Y-92250000D01*
X125380952Y-92202380D01*
X125571428Y-92202380D01*
X125666666Y-92250000D01*
X125714285Y-92297619D01*
X125761904Y-92392857D01*
X125761904Y-92440476D01*
X125714285Y-92535714D01*
X125666666Y-92583333D01*
X125571428Y-92630952D01*
X125380952Y-92630952D01*
X125285714Y-92678571D01*
X125238095Y-92726190D01*
X125190476Y-92821428D01*
X125190476Y-93011904D01*
X125238095Y-93107142D01*
X125285714Y-93154761D01*
X125380952Y-93202380D01*
X125571428Y-93202380D01*
X125666666Y-93154761D01*
X125714285Y-93107142D01*
X125761904Y-93011904D01*
X125761904Y-92821428D01*
X125714285Y-92726190D01*
X125666666Y-92678571D01*
X125571428Y-92630952D01*
%TO.C,R14*%
X140357142Y-93702380D02*
X140023809Y-93226190D01*
X139785714Y-93702380D02*
X139785714Y-92702380D01*
X140166666Y-92702380D01*
X140261904Y-92750000D01*
X140309523Y-92797619D01*
X140357142Y-92892857D01*
X140357142Y-93035714D01*
X140309523Y-93130952D01*
X140261904Y-93178571D01*
X140166666Y-93226190D01*
X139785714Y-93226190D01*
X141309523Y-93702380D02*
X140738095Y-93702380D01*
X141023809Y-93702380D02*
X141023809Y-92702380D01*
X140928571Y-92845238D01*
X140833333Y-92940476D01*
X140738095Y-92988095D01*
X142166666Y-93035714D02*
X142166666Y-93702380D01*
X141928571Y-92654761D02*
X141690476Y-93369047D01*
X142309523Y-93369047D01*
%TO.C,C14*%
X129607142Y-110357142D02*
X129559523Y-110404761D01*
X129416666Y-110452380D01*
X129321428Y-110452380D01*
X129178571Y-110404761D01*
X129083333Y-110309523D01*
X129035714Y-110214285D01*
X128988095Y-110023809D01*
X128988095Y-109880952D01*
X129035714Y-109690476D01*
X129083333Y-109595238D01*
X129178571Y-109500000D01*
X129321428Y-109452380D01*
X129416666Y-109452380D01*
X129559523Y-109500000D01*
X129607142Y-109547619D01*
X130559523Y-110452380D02*
X129988095Y-110452380D01*
X130273809Y-110452380D02*
X130273809Y-109452380D01*
X130178571Y-109595238D01*
X130083333Y-109690476D01*
X129988095Y-109738095D01*
X131416666Y-109785714D02*
X131416666Y-110452380D01*
X131178571Y-109404761D02*
X130940476Y-110119047D01*
X131559523Y-110119047D01*
%TO.C,C3*%
X159833333Y-108607142D02*
X159785714Y-108654761D01*
X159642857Y-108702380D01*
X159547619Y-108702380D01*
X159404761Y-108654761D01*
X159309523Y-108559523D01*
X159261904Y-108464285D01*
X159214285Y-108273809D01*
X159214285Y-108130952D01*
X159261904Y-107940476D01*
X159309523Y-107845238D01*
X159404761Y-107750000D01*
X159547619Y-107702380D01*
X159642857Y-107702380D01*
X159785714Y-107750000D01*
X159833333Y-107797619D01*
X160166666Y-107702380D02*
X160785714Y-107702380D01*
X160452380Y-108083333D01*
X160595238Y-108083333D01*
X160690476Y-108130952D01*
X160738095Y-108178571D01*
X160785714Y-108273809D01*
X160785714Y-108511904D01*
X160738095Y-108607142D01*
X160690476Y-108654761D01*
X160595238Y-108702380D01*
X160309523Y-108702380D01*
X160214285Y-108654761D01*
X160166666Y-108607142D01*
%TO.C,R10*%
X165357142Y-121452380D02*
X165023809Y-120976190D01*
X164785714Y-121452380D02*
X164785714Y-120452380D01*
X165166666Y-120452380D01*
X165261904Y-120500000D01*
X165309523Y-120547619D01*
X165357142Y-120642857D01*
X165357142Y-120785714D01*
X165309523Y-120880952D01*
X165261904Y-120928571D01*
X165166666Y-120976190D01*
X164785714Y-120976190D01*
X166309523Y-121452380D02*
X165738095Y-121452380D01*
X166023809Y-121452380D02*
X166023809Y-120452380D01*
X165928571Y-120595238D01*
X165833333Y-120690476D01*
X165738095Y-120738095D01*
X166928571Y-120452380D02*
X167023809Y-120452380D01*
X167119047Y-120500000D01*
X167166666Y-120547619D01*
X167214285Y-120642857D01*
X167261904Y-120833333D01*
X167261904Y-121071428D01*
X167214285Y-121261904D01*
X167166666Y-121357142D01*
X167119047Y-121404761D01*
X167023809Y-121452380D01*
X166928571Y-121452380D01*
X166833333Y-121404761D01*
X166785714Y-121357142D01*
X166738095Y-121261904D01*
X166690476Y-121071428D01*
X166690476Y-120833333D01*
X166738095Y-120642857D01*
X166785714Y-120547619D01*
X166833333Y-120500000D01*
X166928571Y-120452380D01*
%TO.C,F1*%
X152666666Y-106928571D02*
X152333333Y-106928571D01*
X152333333Y-107452380D02*
X152333333Y-106452380D01*
X152809523Y-106452380D01*
X153714285Y-107452380D02*
X153142857Y-107452380D01*
X153428571Y-107452380D02*
X153428571Y-106452380D01*
X153333333Y-106595238D01*
X153238095Y-106690476D01*
X153142857Y-106738095D01*
D13*
%TO.C,X5*%
X131375203Y-78741528D02*
X129525419Y-81383293D01*
X124119461Y-89103801D02*
X128624797Y-92258472D01*
X131105515Y-88715639D02*
X131220231Y-88551809D01*
X131994729Y-86225298D02*
X132109444Y-86061468D01*
X124119461Y-89103801D02*
X125969245Y-86462036D01*
X128624797Y-92258472D02*
X130474581Y-89616707D01*
X126600179Y-85560969D02*
X126714894Y-85397138D01*
X133285106Y-85602862D02*
X133399821Y-85439031D01*
X128062799Y-83472131D02*
X128177514Y-83308301D01*
X134030755Y-84537964D02*
X135880539Y-81896199D01*
X128779769Y-82448191D02*
X128894485Y-82284361D01*
X127317150Y-84537029D02*
X127431865Y-84373198D01*
X131249079Y-87290196D02*
X131363795Y-87126365D01*
X131375203Y-78741528D02*
X135880539Y-81896199D01*
X129894363Y-91459884D02*
G75*
G03*
X129894363Y-91459884I-100001J0D01*
G01*
D14*
%TO.C,V7*%
X131175000Y-111175000D02*
X131175000Y-112825000D01*
X131175000Y-112825000D02*
X133500000Y-112825000D01*
X133500000Y-111175000D02*
X131175000Y-111175000D01*
D13*
%TO.C,Y2*%
X135923000Y-100723000D02*
X135923000Y-99373000D01*
X137673000Y-100723000D02*
X137673000Y-99373000D01*
D15*
%TO.C,V5*%
X158475000Y-113000000D02*
G75*
G03*
X158475000Y-113000000I-125000J0D01*
G01*
D13*
%TO.C,C10*%
X135140580Y-104260000D02*
X134859420Y-104260000D01*
X135140580Y-103240000D02*
X134859420Y-103240000D01*
%TO.C,TP2*%
X155700000Y-90000000D02*
G75*
G03*
X155700000Y-90000000I-700000J0D01*
G01*
%TO.C,X2*%
X173585000Y-104860000D02*
X171260000Y-104860000D01*
X165415000Y-104860000D02*
X167740000Y-104860000D01*
X165415000Y-99640000D02*
X173585000Y-99640000D01*
X173585000Y-99640000D02*
X173585000Y-100490000D01*
X165415000Y-100490000D02*
X165415000Y-99640000D01*
X165415000Y-104010000D02*
X165415000Y-104860000D01*
X167740000Y-104860000D02*
X167740000Y-107250000D01*
X173585000Y-104010000D02*
X173585000Y-104860000D01*
%TO.C,R25*%
X150237258Y-100522500D02*
X149762742Y-100522500D01*
X150237258Y-99477500D02*
X149762742Y-99477500D01*
D16*
%TO.C,V32*%
X145677000Y-96354000D02*
X144497000Y-96354000D01*
X145677000Y-94654000D02*
X145677000Y-96354000D01*
D14*
X146587000Y-96004000D02*
X146587000Y-96004000D01*
X146587000Y-96004000D02*
X146587000Y-96004000D01*
X146487000Y-96004000D02*
X146487000Y-96004000D01*
D16*
X144497000Y-94654000D02*
X145677000Y-94654000D01*
X144497000Y-96354000D02*
X144497000Y-94654000D01*
D14*
X146587000Y-96004000D02*
G75*
G03*
X146487000Y-96004000I-50000J0D01*
G01*
X146487000Y-96004000D02*
G75*
G03*
X146587000Y-96004000I50000J0D01*
G01*
X146587000Y-96004000D02*
G75*
G03*
X146487000Y-96004000I-50000J0D01*
G01*
D13*
%TO.C,C5*%
X157260000Y-111890580D02*
X157260000Y-111609420D01*
X156240000Y-111890580D02*
X156240000Y-111609420D01*
%TO.C,R23*%
X137653500Y-93996742D02*
X137653500Y-94471258D01*
X138698500Y-93996742D02*
X138698500Y-94471258D01*
%TO.C,R7*%
X159762742Y-98477500D02*
X160237258Y-98477500D01*
X159762742Y-99522500D02*
X160237258Y-99522500D01*
%TO.C,TP10*%
X140700000Y-113750000D02*
G75*
G03*
X140700000Y-113750000I-700000J0D01*
G01*
%TO.C,C20*%
X143004000Y-96887420D02*
X143004000Y-97168580D01*
X141984000Y-96887420D02*
X141984000Y-97168580D01*
%TO.C,R18*%
X162772500Y-76237258D02*
X162772500Y-75762742D01*
X161727500Y-76237258D02*
X161727500Y-75762742D01*
%TO.C,R1*%
X155227500Y-119987258D02*
X155227500Y-119512742D01*
X156272500Y-119987258D02*
X156272500Y-119512742D01*
%TO.C,S3*%
X155668793Y-71158021D02*
X155643755Y-71254836D01*
X159057309Y-72034351D02*
X155668793Y-71158021D01*
X154942691Y-73965649D02*
X154967729Y-73868834D01*
X155330780Y-72465020D02*
X155280704Y-72658650D01*
X158719296Y-73341350D02*
X158669220Y-73534980D01*
X159057309Y-72034351D02*
X159032271Y-72131166D01*
X158331207Y-74841979D02*
X154942691Y-73965649D01*
X158331207Y-74841979D02*
X158356245Y-74745164D01*
%TO.C,C16*%
X133740000Y-101109420D02*
X133740000Y-101390580D01*
X134760000Y-101109420D02*
X134760000Y-101390580D01*
%TO.C,V6*%
X127438000Y-95688000D02*
X127438000Y-96163000D01*
X127913000Y-100908000D02*
X127438000Y-100908000D01*
X132183000Y-100908000D02*
X132658000Y-100908000D01*
X127438000Y-100908000D02*
X127438000Y-100433000D01*
X132183000Y-95688000D02*
X132658000Y-95688000D01*
X132658000Y-95688000D02*
X132658000Y-96163000D01*
X127913000Y-95688000D02*
X127438000Y-95688000D01*
%TO.C,R13*%
X162762742Y-124477500D02*
X163237258Y-124477500D01*
X162762742Y-125522500D02*
X163237258Y-125522500D01*
%TO.C,C9*%
X124288000Y-107313580D02*
X124288000Y-107032420D01*
X125308000Y-107313580D02*
X125308000Y-107032420D01*
%TO.C,R17*%
X138272500Y-76237258D02*
X138272500Y-75762742D01*
X137227500Y-76237258D02*
X137227500Y-75762742D01*
%TO.C,TP6*%
X130200000Y-117750000D02*
G75*
G03*
X130200000Y-117750000I-700000J0D01*
G01*
%TO.C,R20*%
X148512742Y-103022500D02*
X148987258Y-103022500D01*
X148512742Y-101977500D02*
X148987258Y-101977500D01*
%TO.C,R2*%
X144522500Y-119512742D02*
X144522500Y-119987258D01*
X143477500Y-119512742D02*
X143477500Y-119987258D01*
%TO.C,X1*%
X154600000Y-128830000D02*
X154600000Y-128080000D01*
X154600000Y-119170000D02*
X154600000Y-126480000D01*
X145400000Y-128830000D02*
X154600000Y-128830000D01*
X154600000Y-119170000D02*
X153000000Y-119170000D01*
X145400000Y-128830000D02*
X145400000Y-128080000D01*
X145400000Y-119170000D02*
X145400000Y-126480000D01*
X145400000Y-119170000D02*
X147000000Y-119170000D01*
%TO.C,L2*%
X155738748Y-106110000D02*
X156261252Y-106110000D01*
X155738748Y-103890000D02*
X156261252Y-103890000D01*
%TO.C,TP4*%
X163450000Y-106500000D02*
G75*
G03*
X163450000Y-106500000I-700000J0D01*
G01*
%TO.C,S1*%
X148250000Y-79000000D02*
X148250000Y-79150000D01*
X151750000Y-79000000D02*
X148250000Y-79000000D01*
X151750000Y-81000000D02*
X148250000Y-81000000D01*
X151750000Y-79000000D02*
X151750000Y-79150000D01*
X148250000Y-81000000D02*
X148250000Y-80850000D01*
X151750000Y-81000000D02*
X151750000Y-80850000D01*
%TO.C,C1*%
X176010000Y-110859420D02*
X176010000Y-111140580D01*
X174990000Y-110859420D02*
X174990000Y-111140580D01*
%TO.C,S2*%
X141668793Y-74841979D02*
X141643755Y-74745164D01*
X144331207Y-71158021D02*
X144356245Y-71254836D01*
X144669220Y-72465020D02*
X144719296Y-72658650D01*
X145057309Y-73965649D02*
X145032271Y-73868834D01*
X140942691Y-72034351D02*
X140967729Y-72131166D01*
X144331207Y-71158021D02*
X140942691Y-72034351D01*
X141280704Y-73341350D02*
X141330780Y-73534980D01*
X145057309Y-73965649D02*
X141668793Y-74841979D01*
%TO.C,C15*%
X126558000Y-99907420D02*
X126558000Y-100188580D01*
X125538000Y-99907420D02*
X125538000Y-100188580D01*
%TO.C,L1*%
X165337221Y-111260000D02*
X165662779Y-111260000D01*
X165337221Y-110240000D02*
X165662779Y-110240000D01*
%TO.C,C8*%
X164240000Y-113615580D02*
X164240000Y-113334420D01*
X165260000Y-113615580D02*
X165260000Y-113334420D01*
%TO.C,R21*%
X132512742Y-113727500D02*
X132987258Y-113727500D01*
X132512742Y-114772500D02*
X132987258Y-114772500D01*
%TO.C,TP3*%
X163450000Y-102750000D02*
G75*
G03*
X163450000Y-102750000I-700000J0D01*
G01*
%TO.C,FB1*%
X154310000Y-111100378D02*
X154310000Y-111899622D01*
X153190000Y-111100378D02*
X153190000Y-111899622D01*
%TO.C,TP1*%
X135700000Y-117750000D02*
G75*
G03*
X135700000Y-117750000I-700000J0D01*
G01*
%TO.C,TP5*%
X156700000Y-109000000D02*
G75*
G03*
X156700000Y-109000000I-700000J0D01*
G01*
%TO.C,R24*%
X138237258Y-79272500D02*
X137762742Y-79272500D01*
X138237258Y-78227500D02*
X137762742Y-78227500D01*
%TO.C,V33*%
X138140000Y-89860000D02*
X138140000Y-89385000D01*
X143885000Y-83640000D02*
X144360000Y-83640000D01*
X144360000Y-83640000D02*
X144360000Y-84115000D01*
X138615000Y-89860000D02*
X138140000Y-89860000D01*
X144360000Y-89860000D02*
X144360000Y-89385000D01*
X143885000Y-89860000D02*
X144360000Y-89860000D01*
X138615000Y-83640000D02*
X138140000Y-83640000D01*
%TO.C,C2*%
X162109420Y-110240000D02*
X162390580Y-110240000D01*
X162109420Y-111260000D02*
X162390580Y-111260000D01*
%TO.C,Y1*%
X126148000Y-105273000D02*
X126148000Y-108573000D01*
X128948000Y-105273000D02*
X126148000Y-105273000D01*
%TO.C,R22*%
X138237258Y-81022500D02*
X137762742Y-81022500D01*
X138237258Y-79977500D02*
X137762742Y-79977500D01*
%TO.C,TP7*%
X153200000Y-94500000D02*
G75*
G03*
X153200000Y-94500000I-700000J0D01*
G01*
%TO.C,C6*%
X158740000Y-101890580D02*
X158740000Y-101609420D01*
X159760000Y-101890580D02*
X159760000Y-101609420D01*
%TO.C,TP8*%
X156700000Y-94500000D02*
G75*
G03*
X156700000Y-94500000I-700000J0D01*
G01*
%TO.C,C19*%
X139938580Y-99010000D02*
X139657420Y-99010000D01*
X139938580Y-97990000D02*
X139657420Y-97990000D01*
%TO.C,R12*%
X163237258Y-122477500D02*
X162762742Y-122477500D01*
X163237258Y-123522500D02*
X162762742Y-123522500D01*
%TO.C,R3*%
X168477500Y-111237258D02*
X168477500Y-110762742D01*
X169522500Y-111237258D02*
X169522500Y-110762742D01*
%TO.C,R6*%
X159762742Y-97772500D02*
X160237258Y-97772500D01*
X159762742Y-96727500D02*
X160237258Y-96727500D01*
%TO.C,R11*%
X162737258Y-118477500D02*
X162262742Y-118477500D01*
X162737258Y-119522500D02*
X162262742Y-119522500D01*
%TO.C,L3*%
X131960779Y-105058000D02*
X131635221Y-105058000D01*
X131960779Y-104038000D02*
X131635221Y-104038000D01*
%TO.C,R5*%
X141487258Y-121022500D02*
X141012742Y-121022500D01*
X141487258Y-119977500D02*
X141012742Y-119977500D01*
%TO.C,V3*%
X150100000Y-112600000D02*
X149600000Y-112600000D01*
X151500000Y-113900000D02*
X151500000Y-112600000D01*
X150400000Y-113900000D02*
X149600000Y-113900000D01*
D16*
X151000000Y-110950000D02*
X151000000Y-110950000D01*
X151000000Y-110850000D02*
X151000000Y-110850000D01*
D13*
X148500000Y-113900000D02*
X148500000Y-112600000D01*
D16*
X151000000Y-110850000D02*
G75*
G03*
X151000000Y-110950000I0J-50000D01*
G01*
X151000000Y-110950000D02*
G75*
G03*
X151000000Y-110850000I0J50000D01*
G01*
D14*
%TO.C,V2*%
X172900000Y-113100000D02*
X172900000Y-113100000D01*
D16*
X173250000Y-115500000D02*
X173250000Y-113500000D01*
X171250000Y-115500000D02*
X171250000Y-113500000D01*
D14*
X172900000Y-112900000D02*
X172900000Y-112900000D01*
X172900000Y-113100000D02*
G75*
G03*
X172900000Y-112900000I0J100000D01*
G01*
X172900000Y-112900000D02*
G75*
G03*
X172900000Y-113100000I0J-100000D01*
G01*
D13*
%TO.C,C12*%
X133609420Y-93490000D02*
X133890580Y-93490000D01*
X133609420Y-94510000D02*
X133890580Y-94510000D01*
D15*
%TO.C,V4*%
X154775000Y-102900000D02*
G75*
G03*
X154775000Y-102900000I-125000J0D01*
G01*
D13*
%TO.C,L5*%
X125135221Y-97026000D02*
X125460779Y-97026000D01*
X125135221Y-98046000D02*
X125460779Y-98046000D01*
%TO.C,TP9*%
X144200000Y-113750000D02*
G75*
G03*
X144200000Y-113750000I-700000J0D01*
G01*
%TO.C,C13*%
X131657420Y-103308000D02*
X131938580Y-103308000D01*
X131657420Y-102288000D02*
X131938580Y-102288000D01*
%TO.C,R19*%
X148987258Y-103727500D02*
X148512742Y-103727500D01*
X148987258Y-104772500D02*
X148512742Y-104772500D01*
%TO.C,X4*%
X138986000Y-103886000D02*
X144986000Y-103886000D01*
X144986000Y-108966000D02*
X138986000Y-108966000D01*
X138986000Y-108966000D02*
X138986000Y-103886000D01*
X144986000Y-103886000D02*
X144986000Y-108966000D01*
X140036000Y-108426000D02*
G75*
G03*
X140036000Y-108426000I-50000J0D01*
G01*
%TO.C,R16*%
X146272500Y-78762742D02*
X146272500Y-79237258D01*
X145227500Y-78762742D02*
X145227500Y-79237258D01*
%TO.C,TP11*%
X149700000Y-94500000D02*
G75*
G03*
X149700000Y-94500000I-700000J0D01*
G01*
%TO.C,X3*%
X155710000Y-122714000D02*
X160790000Y-122714000D01*
X160790000Y-122714000D02*
X160790000Y-126714000D01*
X160790000Y-126714000D02*
X155710000Y-126714000D01*
X155710000Y-126714000D02*
X155710000Y-122714000D01*
X156300000Y-123714000D02*
G75*
G03*
X156300000Y-123714000I-50000J0D01*
G01*
D14*
%TO.C,V1*%
X171875000Y-108750000D02*
X172625000Y-108750000D01*
X171875000Y-111750000D02*
X171875000Y-108750000D01*
X172625000Y-108750000D02*
X172625000Y-111750000D01*
X172625000Y-111750000D02*
X171875000Y-111750000D01*
X170375000Y-108650000D02*
X171525000Y-108650000D01*
D13*
%TO.C,R8*%
X140012742Y-124272500D02*
X140487258Y-124272500D01*
X140012742Y-123227500D02*
X140487258Y-123227500D01*
%TO.C,L4*%
X132635221Y-106808000D02*
X132960779Y-106808000D01*
X132635221Y-105788000D02*
X132960779Y-105788000D01*
%TO.C,R15*%
X136772500Y-95012742D02*
X136772500Y-95487258D01*
X135727500Y-95012742D02*
X135727500Y-95487258D01*
%TO.C,R9*%
X140012742Y-124977500D02*
X140487258Y-124977500D01*
X140012742Y-126022500D02*
X140487258Y-126022500D01*
%TO.C,C11*%
X126890580Y-102490000D02*
X126609420Y-102490000D01*
X126890580Y-103510000D02*
X126609420Y-103510000D01*
%TO.C,R4*%
X178210000Y-106177064D02*
X178210000Y-101822936D01*
X174790000Y-106177064D02*
X174790000Y-101822936D01*
%TO.C,AE1*%
X120548000Y-96548000D02*
X123548000Y-96548000D01*
X123548000Y-103548000D02*
X120548000Y-103548000D01*
X123548000Y-96548000D02*
X123548000Y-103548000D01*
X120548000Y-103548000D02*
X120548000Y-96548000D01*
D17*
X122128000Y-96048000D02*
G75*
G03*
X122128000Y-96048000I-80000J0D01*
G01*
D13*
%TO.C,C7*%
X165260000Y-116584420D02*
X165260000Y-116865580D01*
X164240000Y-116584420D02*
X164240000Y-116865580D01*
%TO.C,C17*%
X139890580Y-100990000D02*
X139609420Y-100990000D01*
X139890580Y-102010000D02*
X139609420Y-102010000D01*
%TO.C,C4*%
X152740000Y-101609420D02*
X152740000Y-101890580D01*
X153760000Y-101609420D02*
X153760000Y-101890580D01*
%TO.C,C18*%
X125010000Y-95140580D02*
X125010000Y-94859420D01*
X123990000Y-95140580D02*
X123990000Y-94859420D01*
%TO.C,R14*%
X139477500Y-95012742D02*
X139477500Y-95487258D01*
X140522500Y-95012742D02*
X140522500Y-95487258D01*
%TO.C,C14*%
X130808000Y-107313580D02*
X130808000Y-107032420D01*
X129788000Y-107313580D02*
X129788000Y-107032420D01*
%TO.C,C3*%
X159510000Y-110390580D02*
X159510000Y-110109420D01*
X158490000Y-110390580D02*
X158490000Y-110109420D01*
%TO.C,R10*%
X162737258Y-120477500D02*
X162262742Y-120477500D01*
X162737258Y-121522500D02*
X162262742Y-121522500D01*
%TO.C,F1*%
X152828733Y-109010000D02*
X153171267Y-109010000D01*
X152828733Y-107990000D02*
X153171267Y-107990000D01*
%TD*%
M02*
