%TF.GenerationSoftware,KiCad,Pcbnew,6.0.7+dfsg-1~bpo11+1*%
%TF.CreationDate,2022-09-06T20:28:52+02:00*%
%TF.ProjectId,pcb,7063622e-6b69-4636-9164-5f7063625858,0.1*%
%TF.SameCoordinates,Original*%
%TF.FileFunction,Soldermask,Top*%
%TF.FilePolarity,Negative*%
%FSLAX46Y46*%
G04 Gerber Fmt 4.6, Leading zero omitted, Abs format (unit mm)*
G04 Created by KiCad (PCBNEW 6.0.7+dfsg-1~bpo11+1) date 2022-09-06 20:28:52*
%MOMM*%
%LPD*%
G01*
G04 APERTURE LIST*
G04 Aperture macros list*
%AMRoundRect*
0 Rectangle with rounded corners*
0 $1 Rounding radius*
0 $2 $3 $4 $5 $6 $7 $8 $9 X,Y pos of 4 corners*
0 Add a 4 corners polygon primitive as box body*
4,1,4,$2,$3,$4,$5,$6,$7,$8,$9,$2,$3,0*
0 Add four circle primitives for the rounded corners*
1,1,$1+$1,$2,$3*
1,1,$1+$1,$4,$5*
1,1,$1+$1,$6,$7*
1,1,$1+$1,$8,$9*
0 Add four rect primitives between the rounded corners*
20,1,$1+$1,$2,$3,$4,$5,0*
20,1,$1+$1,$4,$5,$6,$7,0*
20,1,$1+$1,$6,$7,$8,$9,0*
20,1,$1+$1,$8,$9,$2,$3,0*%
G04 Aperture macros list end*
%ADD10RoundRect,0.050000X1.200941X-0.377014X-0.765023X0.999570X-1.200941X0.377014X0.765023X-0.999570X0*%
%ADD11RoundRect,0.050000X0.475000X-0.475000X0.475000X0.475000X-0.475000X0.475000X-0.475000X-0.475000X0*%
%ADD12RoundRect,0.050000X0.900000X-0.500000X0.900000X0.500000X-0.900000X0.500000X-0.900000X-0.500000X0*%
%ADD13RoundRect,0.050000X0.400000X-0.150000X0.400000X0.150000X-0.400000X0.150000X-0.400000X-0.150000X0*%
%ADD14RoundRect,0.050000X-0.150000X-0.400000X0.150000X-0.400000X0.150000X0.400000X-0.150000X0.400000X0*%
%ADD15RoundRect,0.050000X-1.400000X-1.400000X1.400000X-1.400000X1.400000X1.400000X-1.400000X1.400000X0*%
%ADD16RoundRect,0.275000X0.225000X0.250000X-0.225000X0.250000X-0.225000X-0.250000X0.225000X-0.250000X0*%
%ADD17C,1.100000*%
%ADD18RoundRect,0.300000X-0.250000X-2.500000X0.250000X-2.500000X0.250000X2.500000X-0.250000X2.500000X0*%
%ADD19RoundRect,0.300000X-0.550000X-1.250000X0.550000X-1.250000X0.550000X1.250000X-0.550000X1.250000X0*%
%ADD20RoundRect,0.250000X0.200000X0.275000X-0.200000X0.275000X-0.200000X-0.275000X0.200000X-0.275000X0*%
%ADD21RoundRect,0.050000X0.125000X0.150000X-0.125000X0.150000X-0.125000X-0.150000X0.125000X-0.150000X0*%
%ADD22RoundRect,0.275000X0.250000X-0.225000X0.250000X0.225000X-0.250000X0.225000X-0.250000X-0.225000X0*%
%ADD23RoundRect,0.250000X-0.275000X0.200000X-0.275000X-0.200000X0.275000X-0.200000X0.275000X0.200000X0*%
%ADD24RoundRect,0.250000X-0.200000X-0.275000X0.200000X-0.275000X0.200000X0.275000X-0.200000X0.275000X0*%
%ADD25RoundRect,0.275000X-0.250000X0.225000X-0.250000X-0.225000X0.250000X-0.225000X0.250000X0.225000X0*%
%ADD26RoundRect,0.250000X0.275000X-0.200000X0.275000X0.200000X-0.275000X0.200000X-0.275000X-0.200000X0*%
%ADD27RoundRect,0.050000X0.809153X0.333012X-0.546254X0.683544X-0.809153X-0.333012X0.546254X-0.683544X0*%
%ADD28RoundRect,0.112500X0.337500X0.062500X-0.337500X0.062500X-0.337500X-0.062500X0.337500X-0.062500X0*%
%ADD29RoundRect,0.112500X0.062500X0.337500X-0.062500X0.337500X-0.062500X-0.337500X0.062500X-0.337500X0*%
%ADD30RoundRect,0.050000X1.800000X1.800000X-1.800000X1.800000X-1.800000X-1.800000X1.800000X-1.800000X0*%
%ADD31O,1.050000X0.750000*%
%ADD32C,0.750000*%
%ADD33RoundRect,0.050000X-0.150000X-0.350000X0.150000X-0.350000X0.150000X0.350000X-0.150000X0.350000X0*%
%ADD34O,0.900000X1.500000*%
%ADD35RoundRect,0.300000X-0.375000X-0.850000X0.375000X-0.850000X0.375000X0.850000X-0.375000X0.850000X0*%
%ADD36RoundRect,0.050000X0.275000X0.750000X-0.275000X0.750000X-0.275000X-0.750000X0.275000X-0.750000X0*%
%ADD37RoundRect,0.050000X0.546254X0.683544X-0.809153X0.333012X-0.546254X-0.683544X0.809153X-0.333012X0*%
%ADD38RoundRect,0.268750X-0.218750X-0.256250X0.218750X-0.256250X0.218750X0.256250X-0.218750X0.256250X0*%
%ADD39RoundRect,0.268750X-0.381250X0.218750X-0.381250X-0.218750X0.381250X-0.218750X0.381250X0.218750X0*%
%ADD40RoundRect,0.112500X-0.375000X-0.062500X0.375000X-0.062500X0.375000X0.062500X-0.375000X0.062500X0*%
%ADD41RoundRect,0.112500X-0.062500X-0.375000X0.062500X-0.375000X0.062500X0.375000X-0.062500X0.375000X0*%
%ADD42RoundRect,0.050000X-2.050000X-2.050000X2.050000X-2.050000X2.050000X2.050000X-2.050000X2.050000X0*%
%ADD43RoundRect,0.275000X-0.225000X-0.250000X0.225000X-0.250000X0.225000X0.250000X-0.225000X0.250000X0*%
%ADD44RoundRect,0.050000X-0.500000X0.575000X-0.500000X-0.575000X0.500000X-0.575000X0.500000X0.575000X0*%
%ADD45RoundRect,0.268750X0.218750X0.256250X-0.218750X0.256250X-0.218750X-0.256250X0.218750X-0.256250X0*%
%ADD46RoundRect,0.050000X0.550000X0.700000X-0.550000X0.700000X-0.550000X-0.700000X0.550000X-0.700000X0*%
%ADD47RoundRect,0.050000X0.450000X0.700000X-0.450000X0.700000X-0.450000X-0.700000X0.450000X-0.700000X0*%
%ADD48RoundRect,0.050000X0.200000X0.212500X-0.200000X0.212500X-0.200000X-0.212500X0.200000X-0.212500X0*%
%ADD49RoundRect,0.050000X0.325000X0.450000X-0.325000X0.450000X-0.325000X-0.450000X0.325000X-0.450000X0*%
%ADD50RoundRect,0.050000X0.100000X0.400000X-0.100000X0.400000X-0.100000X-0.400000X0.100000X-0.400000X0*%
%ADD51RoundRect,0.050000X1.275000X-0.900000X1.275000X0.900000X-1.275000X0.900000X-1.275000X-0.900000X0*%
%ADD52RoundRect,0.050000X-0.500000X-1.500000X0.500000X-1.500000X0.500000X1.500000X-0.500000X1.500000X0*%
%ADD53RoundRect,0.050000X-1.500000X0.500000X-1.500000X-0.500000X1.500000X-0.500000X1.500000X0.500000X0*%
%ADD54RoundRect,0.050000X0.575000X-0.300000X0.575000X0.300000X-0.575000X0.300000X-0.575000X-0.300000X0*%
%ADD55RoundRect,0.300000X1.425000X-0.362500X1.425000X0.362500X-1.425000X0.362500X-1.425000X-0.362500X0*%
%ADD56RoundRect,0.050000X-1.100000X0.550000X-1.100000X-0.550000X1.100000X-0.550000X1.100000X0.550000X0*%
%ADD57RoundRect,0.287500X-0.287500X-0.237500X0.287500X-0.237500X0.287500X0.237500X-0.287500X0.237500X0*%
G04 APERTURE END LIST*
D10*
%TO.C,X5*%
X130140462Y-88699120D03*
X126945769Y-86462172D03*
X130868904Y-87658797D03*
X127674211Y-85421849D03*
X131597346Y-86618474D03*
X128402654Y-84381526D03*
X132325789Y-85578151D03*
X129131096Y-83341203D03*
X133054231Y-84537828D03*
X129859538Y-82300880D03*
%TD*%
D11*
%TO.C,V7*%
X132000000Y-112000000D03*
X133500000Y-112000000D03*
%TD*%
D12*
%TO.C,Y2*%
X136798000Y-98798000D03*
X136798000Y-101298000D03*
%TD*%
D13*
%TO.C,V5*%
X158750000Y-113750000D03*
X158750000Y-114250000D03*
X158750000Y-114750000D03*
X158750000Y-115250000D03*
X158750000Y-115750000D03*
X158750000Y-116250000D03*
D14*
X159500000Y-117000000D03*
X160000000Y-117000000D03*
X160500000Y-117000000D03*
X161000000Y-117000000D03*
X161500000Y-117000000D03*
X162000000Y-117000000D03*
D13*
X162750000Y-116250000D03*
X162750000Y-115750000D03*
X162750000Y-115250000D03*
X162750000Y-114750000D03*
X162750000Y-114250000D03*
X162750000Y-113750000D03*
D14*
X162000000Y-113000000D03*
X161500000Y-113000000D03*
X161000000Y-113000000D03*
X160500000Y-113000000D03*
X160000000Y-113000000D03*
X159500000Y-113000000D03*
D15*
X160750000Y-115000000D03*
%TD*%
D16*
%TO.C,C10*%
X135775000Y-103750000D03*
X134225000Y-103750000D03*
%TD*%
D17*
%TO.C,TP2*%
X155000000Y-90000000D03*
%TD*%
D18*
%TO.C,X2*%
X168500000Y-104500000D03*
X170500000Y-104500000D03*
D19*
X166100000Y-102250000D03*
X172900000Y-102250000D03*
%TD*%
D20*
%TO.C,R25*%
X150825000Y-100000000D03*
X149175000Y-100000000D03*
%TD*%
D21*
%TO.C,V32*%
X145307000Y-95964000D03*
X145307000Y-95504000D03*
X145307000Y-95044000D03*
X144867000Y-95044000D03*
X144867000Y-95504000D03*
X144867000Y-95964000D03*
%TD*%
D22*
%TO.C,C5*%
X156750000Y-112525000D03*
X156750000Y-110975000D03*
%TD*%
D23*
%TO.C,R23*%
X138176000Y-93409000D03*
X138176000Y-95059000D03*
%TD*%
D24*
%TO.C,R7*%
X159175000Y-99000000D03*
X160825000Y-99000000D03*
%TD*%
D17*
%TO.C,TP10*%
X140000000Y-113750000D03*
%TD*%
D25*
%TO.C,C20*%
X142494000Y-96253000D03*
X142494000Y-97803000D03*
%TD*%
D26*
%TO.C,R18*%
X162250000Y-76825000D03*
X162250000Y-75175000D03*
%TD*%
%TO.C,R1*%
X155750000Y-120575000D03*
X155750000Y-118925000D03*
%TD*%
D27*
%TO.C,S3*%
X155438860Y-71847409D03*
X158924191Y-72748777D03*
X158561140Y-74152591D03*
X155075809Y-73251223D03*
%TD*%
D25*
%TO.C,C16*%
X134250000Y-100475000D03*
X134250000Y-102025000D03*
%TD*%
D28*
%TO.C,V6*%
X132498000Y-100048000D03*
X132498000Y-99548000D03*
X132498000Y-99048000D03*
X132498000Y-98548000D03*
X132498000Y-98048000D03*
X132498000Y-97548000D03*
X132498000Y-97048000D03*
X132498000Y-96548000D03*
D29*
X131798000Y-95848000D03*
X131298000Y-95848000D03*
X130798000Y-95848000D03*
X130298000Y-95848000D03*
X129798000Y-95848000D03*
X129298000Y-95848000D03*
X128798000Y-95848000D03*
X128298000Y-95848000D03*
D28*
X127598000Y-96548000D03*
X127598000Y-97048000D03*
X127598000Y-97548000D03*
X127598000Y-98048000D03*
X127598000Y-98548000D03*
X127598000Y-99048000D03*
X127598000Y-99548000D03*
X127598000Y-100048000D03*
D29*
X128298000Y-100748000D03*
X128798000Y-100748000D03*
X129298000Y-100748000D03*
X129798000Y-100748000D03*
X130298000Y-100748000D03*
X130798000Y-100748000D03*
X131298000Y-100748000D03*
X131798000Y-100748000D03*
D30*
X130048000Y-98298000D03*
%TD*%
D24*
%TO.C,R13*%
X162175000Y-125000000D03*
X163825000Y-125000000D03*
%TD*%
D22*
%TO.C,C9*%
X124798000Y-107948000D03*
X124798000Y-106398000D03*
%TD*%
D26*
%TO.C,R17*%
X137750000Y-76825000D03*
X137750000Y-75175000D03*
%TD*%
D17*
%TO.C,TP6*%
X129500000Y-117750000D03*
%TD*%
D24*
%TO.C,R20*%
X147925000Y-102500000D03*
X149575000Y-102500000D03*
%TD*%
D23*
%TO.C,R2*%
X144000000Y-118925000D03*
X144000000Y-120575000D03*
%TD*%
D31*
%TO.C,X1*%
X153600000Y-120080000D03*
D32*
X146400000Y-120080000D03*
D33*
X147250000Y-119420000D03*
X147750000Y-119420000D03*
X148250000Y-119420000D03*
X148750000Y-119420000D03*
X149250000Y-119420000D03*
X149750000Y-119420000D03*
X150250000Y-119420000D03*
X150750000Y-119420000D03*
X151250000Y-119420000D03*
X151750000Y-119420000D03*
X152250000Y-119420000D03*
X152750000Y-119420000D03*
X152500000Y-121120000D03*
X152000000Y-121120000D03*
X151500000Y-121120000D03*
X151000000Y-121120000D03*
X150500000Y-121120000D03*
X150000000Y-121120000D03*
X149500000Y-121120000D03*
X149000000Y-121120000D03*
X148500000Y-121120000D03*
X148000000Y-121120000D03*
X147500000Y-121120000D03*
X147000000Y-121120000D03*
D34*
X154130000Y-121330000D03*
X145510000Y-127280000D03*
X145870000Y-121330000D03*
X154490000Y-127280000D03*
%TD*%
D35*
%TO.C,L2*%
X154925000Y-105000000D03*
X157075000Y-105000000D03*
%TD*%
D17*
%TO.C,TP4*%
X162750000Y-106500000D03*
%TD*%
D36*
%TO.C,S1*%
X148375000Y-80000000D03*
X151625000Y-80000000D03*
%TD*%
D25*
%TO.C,C1*%
X175500000Y-110225000D03*
X175500000Y-111775000D03*
%TD*%
D37*
%TO.C,S2*%
X144561140Y-71847409D03*
X141075809Y-72748777D03*
X144924191Y-73251223D03*
X141438860Y-74152591D03*
%TD*%
D25*
%TO.C,C15*%
X126048000Y-99273000D03*
X126048000Y-100823000D03*
%TD*%
D38*
%TO.C,L1*%
X164712500Y-110750000D03*
X166287500Y-110750000D03*
%TD*%
D22*
%TO.C,C8*%
X164750000Y-114250000D03*
X164750000Y-112700000D03*
%TD*%
D24*
%TO.C,R21*%
X131925000Y-114250000D03*
X133575000Y-114250000D03*
%TD*%
D17*
%TO.C,TP3*%
X162750000Y-102750000D03*
%TD*%
D39*
%TO.C,FB1*%
X153750000Y-110437500D03*
X153750000Y-112562500D03*
%TD*%
D17*
%TO.C,TP1*%
X135000000Y-117750000D03*
%TD*%
%TO.C,TP5*%
X156000000Y-109000000D03*
%TD*%
D20*
%TO.C,R24*%
X138825000Y-78750000D03*
X137175000Y-78750000D03*
%TD*%
D40*
%TO.C,V33*%
X138312500Y-84500000D03*
X138312500Y-85000000D03*
X138312500Y-85500000D03*
X138312500Y-86000000D03*
X138312500Y-86500000D03*
X138312500Y-87000000D03*
X138312500Y-87500000D03*
X138312500Y-88000000D03*
X138312500Y-88500000D03*
X138312500Y-89000000D03*
D41*
X139000000Y-89687500D03*
X139500000Y-89687500D03*
X140000000Y-89687500D03*
X140500000Y-89687500D03*
X141000000Y-89687500D03*
X141500000Y-89687500D03*
X142000000Y-89687500D03*
X142500000Y-89687500D03*
X143000000Y-89687500D03*
X143500000Y-89687500D03*
D40*
X144187500Y-89000000D03*
X144187500Y-88500000D03*
X144187500Y-88000000D03*
X144187500Y-87500000D03*
X144187500Y-87000000D03*
X144187500Y-86500000D03*
X144187500Y-86000000D03*
X144187500Y-85500000D03*
X144187500Y-85000000D03*
X144187500Y-84500000D03*
D41*
X143500000Y-83812500D03*
X143000000Y-83812500D03*
X142500000Y-83812500D03*
X142000000Y-83812500D03*
X141500000Y-83812500D03*
X141000000Y-83812500D03*
X140500000Y-83812500D03*
X140000000Y-83812500D03*
X139500000Y-83812500D03*
X139000000Y-83812500D03*
D42*
X141250000Y-86750000D03*
%TD*%
D43*
%TO.C,C2*%
X161475000Y-110750000D03*
X163025000Y-110750000D03*
%TD*%
D44*
%TO.C,Y1*%
X126848000Y-106048000D03*
X126848000Y-107798000D03*
X128248000Y-107798000D03*
X128248000Y-106048000D03*
%TD*%
D20*
%TO.C,R22*%
X138825000Y-80500000D03*
X137175000Y-80500000D03*
%TD*%
D17*
%TO.C,TP7*%
X152500000Y-94500000D03*
%TD*%
D22*
%TO.C,C6*%
X159250000Y-102525000D03*
X159250000Y-100975000D03*
%TD*%
D17*
%TO.C,TP8*%
X156000000Y-94500000D03*
%TD*%
D16*
%TO.C,C19*%
X140573000Y-98500000D03*
X139023000Y-98500000D03*
%TD*%
D20*
%TO.C,R12*%
X163825000Y-123000000D03*
X162175000Y-123000000D03*
%TD*%
D26*
%TO.C,R3*%
X169000000Y-111825000D03*
X169000000Y-110175000D03*
%TD*%
D24*
%TO.C,R6*%
X159175000Y-97250000D03*
X160825000Y-97250000D03*
%TD*%
D20*
%TO.C,R11*%
X163325000Y-119000000D03*
X161675000Y-119000000D03*
%TD*%
D45*
%TO.C,L3*%
X132585500Y-104548000D03*
X131010500Y-104548000D03*
%TD*%
D20*
%TO.C,R5*%
X142075000Y-120500000D03*
X140425000Y-120500000D03*
%TD*%
D46*
%TO.C,V3*%
X150750000Y-112150000D03*
D47*
X149050000Y-112150000D03*
X149050000Y-114350000D03*
X150950000Y-114350000D03*
%TD*%
D48*
%TO.C,V2*%
X172900000Y-113562000D03*
X172250000Y-113562000D03*
X171600000Y-113562000D03*
X171600000Y-115438000D03*
X172250000Y-115438000D03*
X172900000Y-115438000D03*
D49*
X171775000Y-114500000D03*
X172725000Y-114500000D03*
%TD*%
D43*
%TO.C,C12*%
X132975000Y-94000000D03*
X134525000Y-94000000D03*
%TD*%
D50*
%TO.C,V4*%
X155250000Y-102500000D03*
X155650000Y-102500000D03*
X156050000Y-102500000D03*
X156450000Y-102500000D03*
X156850000Y-102500000D03*
X157250000Y-102500000D03*
X157250000Y-99500000D03*
X156850000Y-99500000D03*
X156450000Y-99500000D03*
X156050000Y-99500000D03*
X155650000Y-99500000D03*
X155250000Y-99500000D03*
D51*
X156250000Y-101000000D03*
%TD*%
D38*
%TO.C,L5*%
X124510500Y-97536000D03*
X126085500Y-97536000D03*
%TD*%
D17*
%TO.C,TP9*%
X143500000Y-113750000D03*
%TD*%
D43*
%TO.C,C13*%
X131023000Y-102798000D03*
X132573000Y-102798000D03*
%TD*%
D20*
%TO.C,R19*%
X149575000Y-104250000D03*
X147925000Y-104250000D03*
%TD*%
D52*
%TO.C,X4*%
X139986000Y-106426000D03*
X141986000Y-106426000D03*
X143986000Y-106426000D03*
%TD*%
D23*
%TO.C,R16*%
X145750000Y-78175000D03*
X145750000Y-79825000D03*
%TD*%
D17*
%TO.C,TP11*%
X149000000Y-94500000D03*
%TD*%
D53*
%TO.C,X3*%
X158250000Y-123714000D03*
X158250000Y-125714000D03*
%TD*%
D54*
%TO.C,V1*%
X170950000Y-109300000D03*
X170950000Y-110250000D03*
X170950000Y-111200000D03*
X173550000Y-111200000D03*
X173550000Y-110250000D03*
X173550000Y-109300000D03*
%TD*%
D24*
%TO.C,R8*%
X139425000Y-123750000D03*
X141075000Y-123750000D03*
%TD*%
D38*
%TO.C,L4*%
X132010500Y-106298000D03*
X133585500Y-106298000D03*
%TD*%
D23*
%TO.C,R15*%
X136250000Y-94425000D03*
X136250000Y-96075000D03*
%TD*%
D24*
%TO.C,R9*%
X139425000Y-125500000D03*
X141075000Y-125500000D03*
%TD*%
D16*
%TO.C,C11*%
X127525000Y-103000000D03*
X125975000Y-103000000D03*
%TD*%
D55*
%TO.C,R4*%
X176500000Y-106962500D03*
X176500000Y-101037500D03*
%TD*%
D56*
%TO.C,AE1*%
X122048000Y-97498000D03*
X122048000Y-102598000D03*
%TD*%
D25*
%TO.C,C7*%
X164750000Y-115950000D03*
X164750000Y-117500000D03*
%TD*%
D16*
%TO.C,C17*%
X140525000Y-101500000D03*
X138975000Y-101500000D03*
%TD*%
D25*
%TO.C,C4*%
X153250000Y-100975000D03*
X153250000Y-102525000D03*
%TD*%
D22*
%TO.C,C18*%
X124500000Y-95775000D03*
X124500000Y-94225000D03*
%TD*%
D23*
%TO.C,R14*%
X140000000Y-94425000D03*
X140000000Y-96075000D03*
%TD*%
D22*
%TO.C,C14*%
X130298000Y-107948000D03*
X130298000Y-106398000D03*
%TD*%
%TO.C,C3*%
X159000000Y-111025000D03*
X159000000Y-109475000D03*
%TD*%
D20*
%TO.C,R10*%
X163325000Y-121000000D03*
X161675000Y-121000000D03*
%TD*%
D57*
%TO.C,F1*%
X152125000Y-108500000D03*
X153875000Y-108500000D03*
%TD*%
G36*
X151689255Y-120737155D02*
G01*
X151695291Y-120741189D01*
X151753885Y-120757714D01*
X151804675Y-120741212D01*
X151810745Y-120737155D01*
X151812740Y-120737024D01*
X151813852Y-120738687D01*
X151813519Y-120739929D01*
X151805691Y-120751645D01*
X151802000Y-120770199D01*
X151802000Y-121469801D01*
X151805691Y-121488355D01*
X151813519Y-121500071D01*
X151813650Y-121502067D01*
X151811987Y-121503178D01*
X151810745Y-121502845D01*
X151804709Y-121498811D01*
X151746115Y-121482286D01*
X151695325Y-121498788D01*
X151689255Y-121502845D01*
X151687260Y-121502976D01*
X151686148Y-121501313D01*
X151686481Y-121500071D01*
X151694309Y-121488355D01*
X151698000Y-121469801D01*
X151698000Y-120770199D01*
X151694309Y-120751645D01*
X151686481Y-120739929D01*
X151686350Y-120737933D01*
X151688013Y-120736822D01*
X151689255Y-120737155D01*
G37*
G36*
X149189255Y-120737155D02*
G01*
X149195291Y-120741189D01*
X149253885Y-120757714D01*
X149304675Y-120741212D01*
X149310745Y-120737155D01*
X149312740Y-120737024D01*
X149313852Y-120738687D01*
X149313519Y-120739929D01*
X149305691Y-120751645D01*
X149302000Y-120770199D01*
X149302000Y-121469801D01*
X149305691Y-121488355D01*
X149313519Y-121500071D01*
X149313650Y-121502067D01*
X149311987Y-121503178D01*
X149310745Y-121502845D01*
X149304709Y-121498811D01*
X149246115Y-121482286D01*
X149195325Y-121498788D01*
X149189255Y-121502845D01*
X149187260Y-121502976D01*
X149186148Y-121501313D01*
X149186481Y-121500071D01*
X149194309Y-121488355D01*
X149198000Y-121469801D01*
X149198000Y-120770199D01*
X149194309Y-120751645D01*
X149186481Y-120739929D01*
X149186350Y-120737933D01*
X149188013Y-120736822D01*
X149189255Y-120737155D01*
G37*
G36*
X147189255Y-120737155D02*
G01*
X147195291Y-120741189D01*
X147253885Y-120757714D01*
X147304675Y-120741212D01*
X147310745Y-120737155D01*
X147312740Y-120737024D01*
X147313852Y-120738687D01*
X147313519Y-120739929D01*
X147305691Y-120751645D01*
X147302000Y-120770199D01*
X147302000Y-121469801D01*
X147305691Y-121488355D01*
X147313519Y-121500071D01*
X147313650Y-121502067D01*
X147311987Y-121503178D01*
X147310745Y-121502845D01*
X147304709Y-121498811D01*
X147246115Y-121482286D01*
X147195325Y-121498788D01*
X147189255Y-121502845D01*
X147187260Y-121502976D01*
X147186148Y-121501313D01*
X147186481Y-121500071D01*
X147194309Y-121488355D01*
X147198000Y-121469801D01*
X147198000Y-120770199D01*
X147194309Y-120751645D01*
X147186481Y-120739929D01*
X147186350Y-120737933D01*
X147188013Y-120736822D01*
X147189255Y-120737155D01*
G37*
G36*
X148189255Y-120737155D02*
G01*
X148195291Y-120741189D01*
X148253885Y-120757714D01*
X148304675Y-120741212D01*
X148310745Y-120737155D01*
X148312740Y-120737024D01*
X148313852Y-120738687D01*
X148313519Y-120739929D01*
X148305691Y-120751645D01*
X148302000Y-120770199D01*
X148302000Y-121469801D01*
X148305691Y-121488355D01*
X148313519Y-121500071D01*
X148313650Y-121502067D01*
X148311987Y-121503178D01*
X148310745Y-121502845D01*
X148304709Y-121498811D01*
X148246115Y-121482286D01*
X148195325Y-121498788D01*
X148189255Y-121502845D01*
X148187260Y-121502976D01*
X148186148Y-121501313D01*
X148186481Y-121500071D01*
X148194309Y-121488355D01*
X148198000Y-121469801D01*
X148198000Y-120770199D01*
X148194309Y-120751645D01*
X148186481Y-120739929D01*
X148186350Y-120737933D01*
X148188013Y-120736822D01*
X148189255Y-120737155D01*
G37*
G36*
X150189255Y-120737155D02*
G01*
X150195291Y-120741189D01*
X150253885Y-120757714D01*
X150304675Y-120741212D01*
X150310745Y-120737155D01*
X150312740Y-120737024D01*
X150313852Y-120738687D01*
X150313519Y-120739929D01*
X150305691Y-120751645D01*
X150302000Y-120770199D01*
X150302000Y-121469801D01*
X150305691Y-121488355D01*
X150313519Y-121500071D01*
X150313650Y-121502067D01*
X150311987Y-121503178D01*
X150310745Y-121502845D01*
X150304709Y-121498811D01*
X150246115Y-121482286D01*
X150195325Y-121498788D01*
X150189255Y-121502845D01*
X150187260Y-121502976D01*
X150186148Y-121501313D01*
X150186481Y-121500071D01*
X150194309Y-121488355D01*
X150198000Y-121469801D01*
X150198000Y-120770199D01*
X150194309Y-120751645D01*
X150186481Y-120739929D01*
X150186350Y-120737933D01*
X150188013Y-120736822D01*
X150189255Y-120737155D01*
G37*
G36*
X152189255Y-120737155D02*
G01*
X152195291Y-120741189D01*
X152253885Y-120757714D01*
X152304675Y-120741212D01*
X152310745Y-120737155D01*
X152312740Y-120737024D01*
X152313852Y-120738687D01*
X152313519Y-120739929D01*
X152305691Y-120751645D01*
X152302000Y-120770199D01*
X152302000Y-121469801D01*
X152305691Y-121488355D01*
X152313519Y-121500071D01*
X152313650Y-121502067D01*
X152311987Y-121503178D01*
X152310745Y-121502845D01*
X152304709Y-121498811D01*
X152246115Y-121482286D01*
X152195325Y-121498788D01*
X152189255Y-121502845D01*
X152187260Y-121502976D01*
X152186148Y-121501313D01*
X152186481Y-121500071D01*
X152194309Y-121488355D01*
X152198000Y-121469801D01*
X152198000Y-120770199D01*
X152194309Y-120751645D01*
X152186481Y-120739929D01*
X152186350Y-120737933D01*
X152188013Y-120736822D01*
X152189255Y-120737155D01*
G37*
G36*
X151189255Y-120737155D02*
G01*
X151195291Y-120741189D01*
X151253885Y-120757714D01*
X151304675Y-120741212D01*
X151310745Y-120737155D01*
X151312740Y-120737024D01*
X151313852Y-120738687D01*
X151313519Y-120739929D01*
X151305691Y-120751645D01*
X151302000Y-120770199D01*
X151302000Y-121469801D01*
X151305691Y-121488355D01*
X151313519Y-121500071D01*
X151313650Y-121502067D01*
X151311987Y-121503178D01*
X151310745Y-121502845D01*
X151304709Y-121498811D01*
X151246115Y-121482286D01*
X151195325Y-121498788D01*
X151189255Y-121502845D01*
X151187260Y-121502976D01*
X151186148Y-121501313D01*
X151186481Y-121500071D01*
X151194309Y-121488355D01*
X151198000Y-121469801D01*
X151198000Y-120770199D01*
X151194309Y-120751645D01*
X151186481Y-120739929D01*
X151186350Y-120737933D01*
X151188013Y-120736822D01*
X151189255Y-120737155D01*
G37*
G36*
X147689255Y-120737155D02*
G01*
X147695291Y-120741189D01*
X147753885Y-120757714D01*
X147804675Y-120741212D01*
X147810745Y-120737155D01*
X147812740Y-120737024D01*
X147813852Y-120738687D01*
X147813519Y-120739929D01*
X147805691Y-120751645D01*
X147802000Y-120770199D01*
X147802000Y-121469801D01*
X147805691Y-121488355D01*
X147813519Y-121500071D01*
X147813650Y-121502067D01*
X147811987Y-121503178D01*
X147810745Y-121502845D01*
X147804709Y-121498811D01*
X147746115Y-121482286D01*
X147695325Y-121498788D01*
X147689255Y-121502845D01*
X147687260Y-121502976D01*
X147686148Y-121501313D01*
X147686481Y-121500071D01*
X147694309Y-121488355D01*
X147698000Y-121469801D01*
X147698000Y-120770199D01*
X147694309Y-120751645D01*
X147686481Y-120739929D01*
X147686350Y-120737933D01*
X147688013Y-120736822D01*
X147689255Y-120737155D01*
G37*
G36*
X150689255Y-120737155D02*
G01*
X150695291Y-120741189D01*
X150753885Y-120757714D01*
X150804675Y-120741212D01*
X150810745Y-120737155D01*
X150812740Y-120737024D01*
X150813852Y-120738687D01*
X150813519Y-120739929D01*
X150805691Y-120751645D01*
X150802000Y-120770199D01*
X150802000Y-121469801D01*
X150805691Y-121488355D01*
X150813519Y-121500071D01*
X150813650Y-121502067D01*
X150811987Y-121503178D01*
X150810745Y-121502845D01*
X150804709Y-121498811D01*
X150746115Y-121482286D01*
X150695325Y-121498788D01*
X150689255Y-121502845D01*
X150687260Y-121502976D01*
X150686148Y-121501313D01*
X150686481Y-121500071D01*
X150694309Y-121488355D01*
X150698000Y-121469801D01*
X150698000Y-120770199D01*
X150694309Y-120751645D01*
X150686481Y-120739929D01*
X150686350Y-120737933D01*
X150688013Y-120736822D01*
X150689255Y-120737155D01*
G37*
G36*
X149689255Y-120737155D02*
G01*
X149695291Y-120741189D01*
X149753885Y-120757714D01*
X149804675Y-120741212D01*
X149810745Y-120737155D01*
X149812740Y-120737024D01*
X149813852Y-120738687D01*
X149813519Y-120739929D01*
X149805691Y-120751645D01*
X149802000Y-120770199D01*
X149802000Y-121469801D01*
X149805691Y-121488355D01*
X149813519Y-121500071D01*
X149813650Y-121502067D01*
X149811987Y-121503178D01*
X149810745Y-121502845D01*
X149804709Y-121498811D01*
X149746115Y-121482286D01*
X149695325Y-121498788D01*
X149689255Y-121502845D01*
X149687260Y-121502976D01*
X149686148Y-121501313D01*
X149686481Y-121500071D01*
X149694309Y-121488355D01*
X149698000Y-121469801D01*
X149698000Y-120770199D01*
X149694309Y-120751645D01*
X149686481Y-120739929D01*
X149686350Y-120737933D01*
X149688013Y-120736822D01*
X149689255Y-120737155D01*
G37*
G36*
X148689255Y-120737155D02*
G01*
X148695291Y-120741189D01*
X148753885Y-120757714D01*
X148804675Y-120741212D01*
X148810745Y-120737155D01*
X148812740Y-120737024D01*
X148813852Y-120738687D01*
X148813519Y-120739929D01*
X148805691Y-120751645D01*
X148802000Y-120770199D01*
X148802000Y-121469801D01*
X148805691Y-121488355D01*
X148813519Y-121500071D01*
X148813650Y-121502067D01*
X148811987Y-121503178D01*
X148810745Y-121502845D01*
X148804709Y-121498811D01*
X148746115Y-121482286D01*
X148695325Y-121498788D01*
X148689255Y-121502845D01*
X148687260Y-121502976D01*
X148686148Y-121501313D01*
X148686481Y-121500071D01*
X148694309Y-121488355D01*
X148698000Y-121469801D01*
X148698000Y-120770199D01*
X148694309Y-120751645D01*
X148686481Y-120739929D01*
X148686350Y-120737933D01*
X148688013Y-120736822D01*
X148689255Y-120737155D01*
G37*
G36*
X149939255Y-119037155D02*
G01*
X149945291Y-119041189D01*
X150003885Y-119057714D01*
X150054675Y-119041212D01*
X150060745Y-119037155D01*
X150062740Y-119037024D01*
X150063852Y-119038687D01*
X150063519Y-119039929D01*
X150055691Y-119051645D01*
X150052000Y-119070199D01*
X150052000Y-119769801D01*
X150055691Y-119788355D01*
X150063519Y-119800071D01*
X150063650Y-119802067D01*
X150061987Y-119803178D01*
X150060745Y-119802845D01*
X150054709Y-119798811D01*
X149996115Y-119782286D01*
X149945325Y-119798788D01*
X149939255Y-119802845D01*
X149937260Y-119802976D01*
X149936148Y-119801313D01*
X149936481Y-119800071D01*
X149944309Y-119788355D01*
X149948000Y-119769801D01*
X149948000Y-119070199D01*
X149944309Y-119051645D01*
X149936481Y-119039929D01*
X149936350Y-119037933D01*
X149938013Y-119036822D01*
X149939255Y-119037155D01*
G37*
G36*
X149439255Y-119037155D02*
G01*
X149445291Y-119041189D01*
X149503885Y-119057714D01*
X149554675Y-119041212D01*
X149560745Y-119037155D01*
X149562740Y-119037024D01*
X149563852Y-119038687D01*
X149563519Y-119039929D01*
X149555691Y-119051645D01*
X149552000Y-119070199D01*
X149552000Y-119769801D01*
X149555691Y-119788355D01*
X149563519Y-119800071D01*
X149563650Y-119802067D01*
X149561987Y-119803178D01*
X149560745Y-119802845D01*
X149554709Y-119798811D01*
X149496115Y-119782286D01*
X149445325Y-119798788D01*
X149439255Y-119802845D01*
X149437260Y-119802976D01*
X149436148Y-119801313D01*
X149436481Y-119800071D01*
X149444309Y-119788355D01*
X149448000Y-119769801D01*
X149448000Y-119070199D01*
X149444309Y-119051645D01*
X149436481Y-119039929D01*
X149436350Y-119037933D01*
X149438013Y-119036822D01*
X149439255Y-119037155D01*
G37*
G36*
X150439255Y-119037155D02*
G01*
X150445291Y-119041189D01*
X150503885Y-119057714D01*
X150554675Y-119041212D01*
X150560745Y-119037155D01*
X150562740Y-119037024D01*
X150563852Y-119038687D01*
X150563519Y-119039929D01*
X150555691Y-119051645D01*
X150552000Y-119070199D01*
X150552000Y-119769801D01*
X150555691Y-119788355D01*
X150563519Y-119800071D01*
X150563650Y-119802067D01*
X150561987Y-119803178D01*
X150560745Y-119802845D01*
X150554709Y-119798811D01*
X150496115Y-119782286D01*
X150445325Y-119798788D01*
X150439255Y-119802845D01*
X150437260Y-119802976D01*
X150436148Y-119801313D01*
X150436481Y-119800071D01*
X150444309Y-119788355D01*
X150448000Y-119769801D01*
X150448000Y-119070199D01*
X150444309Y-119051645D01*
X150436481Y-119039929D01*
X150436350Y-119037933D01*
X150438013Y-119036822D01*
X150439255Y-119037155D01*
G37*
G36*
X148939255Y-119037155D02*
G01*
X148945291Y-119041189D01*
X149003885Y-119057714D01*
X149054675Y-119041212D01*
X149060745Y-119037155D01*
X149062740Y-119037024D01*
X149063852Y-119038687D01*
X149063519Y-119039929D01*
X149055691Y-119051645D01*
X149052000Y-119070199D01*
X149052000Y-119769801D01*
X149055691Y-119788355D01*
X149063519Y-119800071D01*
X149063650Y-119802067D01*
X149061987Y-119803178D01*
X149060745Y-119802845D01*
X149054709Y-119798811D01*
X148996115Y-119782286D01*
X148945325Y-119798788D01*
X148939255Y-119802845D01*
X148937260Y-119802976D01*
X148936148Y-119801313D01*
X148936481Y-119800071D01*
X148944309Y-119788355D01*
X148948000Y-119769801D01*
X148948000Y-119070199D01*
X148944309Y-119051645D01*
X148936481Y-119039929D01*
X148936350Y-119037933D01*
X148938013Y-119036822D01*
X148939255Y-119037155D01*
G37*
G36*
X152439255Y-119037155D02*
G01*
X152445291Y-119041189D01*
X152503885Y-119057714D01*
X152554675Y-119041212D01*
X152560745Y-119037155D01*
X152562740Y-119037024D01*
X152563852Y-119038687D01*
X152563519Y-119039929D01*
X152555691Y-119051645D01*
X152552000Y-119070199D01*
X152552000Y-119769801D01*
X152555691Y-119788355D01*
X152563519Y-119800071D01*
X152563650Y-119802067D01*
X152561987Y-119803178D01*
X152560745Y-119802845D01*
X152554709Y-119798811D01*
X152496115Y-119782286D01*
X152445325Y-119798788D01*
X152439255Y-119802845D01*
X152437260Y-119802976D01*
X152436148Y-119801313D01*
X152436481Y-119800071D01*
X152444309Y-119788355D01*
X152448000Y-119769801D01*
X152448000Y-119070199D01*
X152444309Y-119051645D01*
X152436481Y-119039929D01*
X152436350Y-119037933D01*
X152438013Y-119036822D01*
X152439255Y-119037155D01*
G37*
G36*
X148439255Y-119037155D02*
G01*
X148445291Y-119041189D01*
X148503885Y-119057714D01*
X148554675Y-119041212D01*
X148560745Y-119037155D01*
X148562740Y-119037024D01*
X148563852Y-119038687D01*
X148563519Y-119039929D01*
X148555691Y-119051645D01*
X148552000Y-119070199D01*
X148552000Y-119769801D01*
X148555691Y-119788355D01*
X148563519Y-119800071D01*
X148563650Y-119802067D01*
X148561987Y-119803178D01*
X148560745Y-119802845D01*
X148554709Y-119798811D01*
X148496115Y-119782286D01*
X148445325Y-119798788D01*
X148439255Y-119802845D01*
X148437260Y-119802976D01*
X148436148Y-119801313D01*
X148436481Y-119800071D01*
X148444309Y-119788355D01*
X148448000Y-119769801D01*
X148448000Y-119070199D01*
X148444309Y-119051645D01*
X148436481Y-119039929D01*
X148436350Y-119037933D01*
X148438013Y-119036822D01*
X148439255Y-119037155D01*
G37*
G36*
X150939255Y-119037155D02*
G01*
X150945291Y-119041189D01*
X151003885Y-119057714D01*
X151054675Y-119041212D01*
X151060745Y-119037155D01*
X151062740Y-119037024D01*
X151063852Y-119038687D01*
X151063519Y-119039929D01*
X151055691Y-119051645D01*
X151052000Y-119070199D01*
X151052000Y-119769801D01*
X151055691Y-119788355D01*
X151063519Y-119800071D01*
X151063650Y-119802067D01*
X151061987Y-119803178D01*
X151060745Y-119802845D01*
X151054709Y-119798811D01*
X150996115Y-119782286D01*
X150945325Y-119798788D01*
X150939255Y-119802845D01*
X150937260Y-119802976D01*
X150936148Y-119801313D01*
X150936481Y-119800071D01*
X150944309Y-119788355D01*
X150948000Y-119769801D01*
X150948000Y-119070199D01*
X150944309Y-119051645D01*
X150936481Y-119039929D01*
X150936350Y-119037933D01*
X150938013Y-119036822D01*
X150939255Y-119037155D01*
G37*
G36*
X147439255Y-119037155D02*
G01*
X147445291Y-119041189D01*
X147503885Y-119057714D01*
X147554675Y-119041212D01*
X147560745Y-119037155D01*
X147562740Y-119037024D01*
X147563852Y-119038687D01*
X147563519Y-119039929D01*
X147555691Y-119051645D01*
X147552000Y-119070199D01*
X147552000Y-119769801D01*
X147555691Y-119788355D01*
X147563519Y-119800071D01*
X147563650Y-119802067D01*
X147561987Y-119803178D01*
X147560745Y-119802845D01*
X147554709Y-119798811D01*
X147496115Y-119782286D01*
X147445325Y-119798788D01*
X147439255Y-119802845D01*
X147437260Y-119802976D01*
X147436148Y-119801313D01*
X147436481Y-119800071D01*
X147444309Y-119788355D01*
X147448000Y-119769801D01*
X147448000Y-119070199D01*
X147444309Y-119051645D01*
X147436481Y-119039929D01*
X147436350Y-119037933D01*
X147438013Y-119036822D01*
X147439255Y-119037155D01*
G37*
G36*
X151439255Y-119037155D02*
G01*
X151445291Y-119041189D01*
X151503885Y-119057714D01*
X151554675Y-119041212D01*
X151560745Y-119037155D01*
X151562740Y-119037024D01*
X151563852Y-119038687D01*
X151563519Y-119039929D01*
X151555691Y-119051645D01*
X151552000Y-119070199D01*
X151552000Y-119769801D01*
X151555691Y-119788355D01*
X151563519Y-119800071D01*
X151563650Y-119802067D01*
X151561987Y-119803178D01*
X151560745Y-119802845D01*
X151554709Y-119798811D01*
X151496115Y-119782286D01*
X151445325Y-119798788D01*
X151439255Y-119802845D01*
X151437260Y-119802976D01*
X151436148Y-119801313D01*
X151436481Y-119800071D01*
X151444309Y-119788355D01*
X151448000Y-119769801D01*
X151448000Y-119070199D01*
X151444309Y-119051645D01*
X151436481Y-119039929D01*
X151436350Y-119037933D01*
X151438013Y-119036822D01*
X151439255Y-119037155D01*
G37*
G36*
X147939255Y-119037155D02*
G01*
X147945291Y-119041189D01*
X148003885Y-119057714D01*
X148054675Y-119041212D01*
X148060745Y-119037155D01*
X148062740Y-119037024D01*
X148063852Y-119038687D01*
X148063519Y-119039929D01*
X148055691Y-119051645D01*
X148052000Y-119070199D01*
X148052000Y-119769801D01*
X148055691Y-119788355D01*
X148063519Y-119800071D01*
X148063650Y-119802067D01*
X148061987Y-119803178D01*
X148060745Y-119802845D01*
X148054709Y-119798811D01*
X147996115Y-119782286D01*
X147945325Y-119798788D01*
X147939255Y-119802845D01*
X147937260Y-119802976D01*
X147936148Y-119801313D01*
X147936481Y-119800071D01*
X147944309Y-119788355D01*
X147948000Y-119769801D01*
X147948000Y-119070199D01*
X147944309Y-119051645D01*
X147936481Y-119039929D01*
X147936350Y-119037933D01*
X147938013Y-119036822D01*
X147939255Y-119037155D01*
G37*
G36*
X151939255Y-119037155D02*
G01*
X151945291Y-119041189D01*
X152003885Y-119057714D01*
X152054675Y-119041212D01*
X152060745Y-119037155D01*
X152062740Y-119037024D01*
X152063852Y-119038687D01*
X152063519Y-119039929D01*
X152055691Y-119051645D01*
X152052000Y-119070199D01*
X152052000Y-119769801D01*
X152055691Y-119788355D01*
X152063519Y-119800071D01*
X152063650Y-119802067D01*
X152061987Y-119803178D01*
X152060745Y-119802845D01*
X152054709Y-119798811D01*
X151996115Y-119782286D01*
X151945325Y-119798788D01*
X151939255Y-119802845D01*
X151937260Y-119802976D01*
X151936148Y-119801313D01*
X151936481Y-119800071D01*
X151944309Y-119788355D01*
X151948000Y-119769801D01*
X151948000Y-119070199D01*
X151944309Y-119051645D01*
X151936481Y-119039929D01*
X151936350Y-119037933D01*
X151938013Y-119036822D01*
X151939255Y-119037155D01*
G37*
G36*
X161689255Y-112567155D02*
G01*
X161695291Y-112571189D01*
X161753885Y-112587714D01*
X161804675Y-112571212D01*
X161810745Y-112567155D01*
X161812740Y-112567024D01*
X161813852Y-112568687D01*
X161813519Y-112569929D01*
X161805691Y-112581645D01*
X161802000Y-112600199D01*
X161802000Y-113399801D01*
X161805691Y-113418355D01*
X161816087Y-113433913D01*
X161831645Y-113444309D01*
X161850199Y-113448000D01*
X162149801Y-113448000D01*
X162168355Y-113444309D01*
X162183913Y-113433913D01*
X162191741Y-113422199D01*
X162193535Y-113421314D01*
X162195198Y-113422426D01*
X162195366Y-113423700D01*
X162192504Y-113438086D01*
X162192514Y-113438453D01*
X162182671Y-113473352D01*
X162203612Y-113530115D01*
X162253919Y-113563729D01*
X162314585Y-113561345D01*
X162320578Y-113558292D01*
X162322575Y-113558397D01*
X162323483Y-113560179D01*
X162322597Y-113561737D01*
X162316087Y-113566087D01*
X162305691Y-113581645D01*
X162302000Y-113600199D01*
X162302000Y-113899801D01*
X162305691Y-113918355D01*
X162316087Y-113933913D01*
X162331645Y-113944309D01*
X162350199Y-113948000D01*
X163149801Y-113948000D01*
X163168355Y-113944309D01*
X163180071Y-113936481D01*
X163182067Y-113936350D01*
X163183178Y-113938013D01*
X163182845Y-113939255D01*
X163178811Y-113945291D01*
X163162286Y-114003885D01*
X163178788Y-114054675D01*
X163182845Y-114060745D01*
X163182976Y-114062740D01*
X163181313Y-114063852D01*
X163180071Y-114063519D01*
X163168355Y-114055691D01*
X163149801Y-114052000D01*
X162350199Y-114052000D01*
X162331645Y-114055691D01*
X162316087Y-114066087D01*
X162305691Y-114081645D01*
X162302000Y-114100199D01*
X162302000Y-114399801D01*
X162305691Y-114418355D01*
X162316087Y-114433913D01*
X162331645Y-114444309D01*
X162350199Y-114448000D01*
X163149801Y-114448000D01*
X163168355Y-114444309D01*
X163180071Y-114436481D01*
X163182067Y-114436350D01*
X163183178Y-114438013D01*
X163182845Y-114439255D01*
X163178811Y-114445291D01*
X163162286Y-114503885D01*
X163178788Y-114554675D01*
X163182845Y-114560745D01*
X163182976Y-114562740D01*
X163181313Y-114563852D01*
X163180071Y-114563519D01*
X163168355Y-114555691D01*
X163149801Y-114552000D01*
X162350199Y-114552000D01*
X162331645Y-114555691D01*
X162316087Y-114566087D01*
X162305691Y-114581645D01*
X162302000Y-114600199D01*
X162302000Y-114899801D01*
X162305691Y-114918355D01*
X162316087Y-114933913D01*
X162331645Y-114944309D01*
X162350199Y-114948000D01*
X163149801Y-114948000D01*
X163168355Y-114944309D01*
X163180071Y-114936481D01*
X163182067Y-114936350D01*
X163183178Y-114938013D01*
X163182845Y-114939255D01*
X163178811Y-114945291D01*
X163162286Y-115003885D01*
X163178788Y-115054675D01*
X163182845Y-115060745D01*
X163182976Y-115062740D01*
X163181313Y-115063852D01*
X163180071Y-115063519D01*
X163168355Y-115055691D01*
X163149801Y-115052000D01*
X162350199Y-115052000D01*
X162331645Y-115055691D01*
X162316087Y-115066087D01*
X162305691Y-115081645D01*
X162302000Y-115100199D01*
X162302000Y-115399801D01*
X162305691Y-115418355D01*
X162316087Y-115433913D01*
X162331645Y-115444309D01*
X162350199Y-115448000D01*
X163149801Y-115448000D01*
X163168355Y-115444309D01*
X163180071Y-115436481D01*
X163182067Y-115436350D01*
X163183178Y-115438013D01*
X163182845Y-115439255D01*
X163178811Y-115445291D01*
X163162286Y-115503885D01*
X163178788Y-115554675D01*
X163182845Y-115560745D01*
X163182976Y-115562740D01*
X163181313Y-115563852D01*
X163180071Y-115563519D01*
X163168355Y-115555691D01*
X163149801Y-115552000D01*
X162350199Y-115552000D01*
X162331645Y-115555691D01*
X162316087Y-115566087D01*
X162305691Y-115581645D01*
X162302000Y-115600199D01*
X162302000Y-115899801D01*
X162305691Y-115918355D01*
X162316087Y-115933913D01*
X162331645Y-115944309D01*
X162350199Y-115948000D01*
X163149801Y-115948000D01*
X163168355Y-115944309D01*
X163180071Y-115936481D01*
X163182067Y-115936350D01*
X163183178Y-115938013D01*
X163182845Y-115939255D01*
X163178811Y-115945291D01*
X163162286Y-116003885D01*
X163178788Y-116054675D01*
X163182845Y-116060745D01*
X163182976Y-116062740D01*
X163181313Y-116063852D01*
X163180071Y-116063519D01*
X163168355Y-116055691D01*
X163149801Y-116052000D01*
X162350199Y-116052000D01*
X162331645Y-116055691D01*
X162316087Y-116066087D01*
X162305691Y-116081645D01*
X162302000Y-116100199D01*
X162302000Y-116399801D01*
X162305691Y-116418355D01*
X162316087Y-116433913D01*
X162327801Y-116441741D01*
X162328686Y-116443535D01*
X162327574Y-116445198D01*
X162326300Y-116445366D01*
X162311914Y-116442504D01*
X162311547Y-116442514D01*
X162276648Y-116432671D01*
X162219885Y-116453612D01*
X162186271Y-116503919D01*
X162188655Y-116564585D01*
X162191708Y-116570578D01*
X162191603Y-116572575D01*
X162189821Y-116573483D01*
X162188263Y-116572597D01*
X162183913Y-116566087D01*
X162168355Y-116555691D01*
X162149801Y-116552000D01*
X161850199Y-116552000D01*
X161831645Y-116555691D01*
X161816087Y-116566087D01*
X161805691Y-116581645D01*
X161802000Y-116600199D01*
X161802000Y-117399801D01*
X161805691Y-117418355D01*
X161813519Y-117430071D01*
X161813650Y-117432067D01*
X161811987Y-117433178D01*
X161810745Y-117432845D01*
X161804709Y-117428811D01*
X161746115Y-117412286D01*
X161695325Y-117428788D01*
X161689255Y-117432845D01*
X161687260Y-117432976D01*
X161686148Y-117431313D01*
X161686481Y-117430071D01*
X161694309Y-117418355D01*
X161698000Y-117399801D01*
X161698000Y-116600199D01*
X161694309Y-116581645D01*
X161683913Y-116566087D01*
X161668355Y-116555691D01*
X161649801Y-116552000D01*
X161350199Y-116552000D01*
X161331645Y-116555691D01*
X161316087Y-116566087D01*
X161305691Y-116581645D01*
X161302000Y-116600199D01*
X161302000Y-117399801D01*
X161305691Y-117418355D01*
X161313519Y-117430071D01*
X161313650Y-117432067D01*
X161311987Y-117433178D01*
X161310745Y-117432845D01*
X161304709Y-117428811D01*
X161246115Y-117412286D01*
X161195325Y-117428788D01*
X161189255Y-117432845D01*
X161187260Y-117432976D01*
X161186148Y-117431313D01*
X161186481Y-117430071D01*
X161194309Y-117418355D01*
X161198000Y-117399801D01*
X161198000Y-116600199D01*
X161194309Y-116581645D01*
X161183913Y-116566087D01*
X161168355Y-116555691D01*
X161149801Y-116552000D01*
X160850199Y-116552000D01*
X160831645Y-116555691D01*
X160816087Y-116566087D01*
X160805691Y-116581645D01*
X160802000Y-116600199D01*
X160802000Y-117399801D01*
X160805691Y-117418355D01*
X160813519Y-117430071D01*
X160813650Y-117432067D01*
X160811987Y-117433178D01*
X160810745Y-117432845D01*
X160804709Y-117428811D01*
X160746115Y-117412286D01*
X160695325Y-117428788D01*
X160689255Y-117432845D01*
X160687260Y-117432976D01*
X160686148Y-117431313D01*
X160686481Y-117430071D01*
X160694309Y-117418355D01*
X160698000Y-117399801D01*
X160698000Y-116600199D01*
X160694309Y-116581645D01*
X160683913Y-116566087D01*
X160668355Y-116555691D01*
X160649801Y-116552000D01*
X160350199Y-116552000D01*
X160331645Y-116555691D01*
X160316087Y-116566087D01*
X160305691Y-116581645D01*
X160302000Y-116600199D01*
X160302000Y-117399801D01*
X160305691Y-117418355D01*
X160313519Y-117430071D01*
X160313650Y-117432067D01*
X160311987Y-117433178D01*
X160310745Y-117432845D01*
X160304709Y-117428811D01*
X160246115Y-117412286D01*
X160195325Y-117428788D01*
X160189255Y-117432845D01*
X160187260Y-117432976D01*
X160186148Y-117431313D01*
X160186481Y-117430071D01*
X160194309Y-117418355D01*
X160198000Y-117399801D01*
X160198000Y-116600199D01*
X160194309Y-116581645D01*
X160183913Y-116566087D01*
X160168355Y-116555691D01*
X160149801Y-116552000D01*
X159850199Y-116552000D01*
X159831645Y-116555691D01*
X159816087Y-116566087D01*
X159805691Y-116581645D01*
X159802000Y-116600199D01*
X159802000Y-117399801D01*
X159805691Y-117418355D01*
X159813519Y-117430071D01*
X159813650Y-117432067D01*
X159811987Y-117433178D01*
X159810745Y-117432845D01*
X159804709Y-117428811D01*
X159746115Y-117412286D01*
X159695325Y-117428788D01*
X159689255Y-117432845D01*
X159687260Y-117432976D01*
X159686148Y-117431313D01*
X159686481Y-117430071D01*
X159694309Y-117418355D01*
X159698000Y-117399801D01*
X159698000Y-116600199D01*
X159694309Y-116581645D01*
X159683913Y-116566087D01*
X159668355Y-116555691D01*
X159649801Y-116552000D01*
X159350199Y-116552000D01*
X159331645Y-116555691D01*
X159316087Y-116566087D01*
X159308259Y-116577801D01*
X159306465Y-116578686D01*
X159304802Y-116577574D01*
X159304634Y-116576300D01*
X159307496Y-116561914D01*
X159307486Y-116561547D01*
X159317329Y-116526648D01*
X159296388Y-116469885D01*
X159246081Y-116436271D01*
X159185415Y-116438655D01*
X159179422Y-116441708D01*
X159177425Y-116441603D01*
X159176517Y-116439821D01*
X159177403Y-116438263D01*
X159183913Y-116433913D01*
X159194309Y-116418355D01*
X159198000Y-116399801D01*
X159302000Y-116399801D01*
X159305691Y-116418355D01*
X159316087Y-116433913D01*
X159331645Y-116444309D01*
X159350199Y-116448000D01*
X162149801Y-116448000D01*
X162168355Y-116444309D01*
X162183913Y-116433913D01*
X162194309Y-116418355D01*
X162198000Y-116399801D01*
X162198000Y-113600199D01*
X162194309Y-113581645D01*
X162183913Y-113566087D01*
X162168355Y-113555691D01*
X162149801Y-113552000D01*
X159350199Y-113552000D01*
X159331645Y-113555691D01*
X159316087Y-113566087D01*
X159305691Y-113581645D01*
X159302000Y-113600199D01*
X159302000Y-116399801D01*
X159198000Y-116399801D01*
X159198000Y-116100199D01*
X159194309Y-116081645D01*
X159183913Y-116066087D01*
X159168355Y-116055691D01*
X159149801Y-116052000D01*
X158350199Y-116052000D01*
X158331645Y-116055691D01*
X158319929Y-116063519D01*
X158317933Y-116063650D01*
X158316822Y-116061987D01*
X158317155Y-116060745D01*
X158321189Y-116054709D01*
X158337714Y-115996115D01*
X158321212Y-115945325D01*
X158317155Y-115939255D01*
X158317024Y-115937260D01*
X158318687Y-115936148D01*
X158319929Y-115936481D01*
X158331645Y-115944309D01*
X158350199Y-115948000D01*
X159149801Y-115948000D01*
X159168355Y-115944309D01*
X159183913Y-115933913D01*
X159194309Y-115918355D01*
X159198000Y-115899801D01*
X159198000Y-115600199D01*
X159194309Y-115581645D01*
X159183913Y-115566087D01*
X159168355Y-115555691D01*
X159149801Y-115552000D01*
X158350199Y-115552000D01*
X158331645Y-115555691D01*
X158319929Y-115563519D01*
X158317933Y-115563650D01*
X158316822Y-115561987D01*
X158317155Y-115560745D01*
X158321189Y-115554709D01*
X158337714Y-115496115D01*
X158321212Y-115445325D01*
X158317155Y-115439255D01*
X158317024Y-115437260D01*
X158318687Y-115436148D01*
X158319929Y-115436481D01*
X158331645Y-115444309D01*
X158350199Y-115448000D01*
X159149801Y-115448000D01*
X159168355Y-115444309D01*
X159183913Y-115433913D01*
X159194309Y-115418355D01*
X159198000Y-115399801D01*
X159198000Y-115100199D01*
X159194309Y-115081645D01*
X159183913Y-115066087D01*
X159168355Y-115055691D01*
X159149801Y-115052000D01*
X158350199Y-115052000D01*
X158331645Y-115055691D01*
X158319929Y-115063519D01*
X158317933Y-115063650D01*
X158316822Y-115061987D01*
X158317155Y-115060745D01*
X158321189Y-115054709D01*
X158337714Y-114996115D01*
X158321212Y-114945325D01*
X158317155Y-114939255D01*
X158317024Y-114937260D01*
X158318687Y-114936148D01*
X158319929Y-114936481D01*
X158331645Y-114944309D01*
X158350199Y-114948000D01*
X159149801Y-114948000D01*
X159168355Y-114944309D01*
X159183913Y-114933913D01*
X159194309Y-114918355D01*
X159198000Y-114899801D01*
X159198000Y-114600199D01*
X159194309Y-114581645D01*
X159183913Y-114566087D01*
X159168355Y-114555691D01*
X159149801Y-114552000D01*
X158350199Y-114552000D01*
X158331645Y-114555691D01*
X158319929Y-114563519D01*
X158317933Y-114563650D01*
X158316822Y-114561987D01*
X158317155Y-114560745D01*
X158321189Y-114554709D01*
X158337714Y-114496115D01*
X158321212Y-114445325D01*
X158317155Y-114439255D01*
X158317024Y-114437260D01*
X158318687Y-114436148D01*
X158319929Y-114436481D01*
X158331645Y-114444309D01*
X158350199Y-114448000D01*
X159149801Y-114448000D01*
X159168355Y-114444309D01*
X159183913Y-114433913D01*
X159194309Y-114418355D01*
X159198000Y-114399801D01*
X159198000Y-114100199D01*
X159194309Y-114081645D01*
X159183913Y-114066087D01*
X159168355Y-114055691D01*
X159149801Y-114052000D01*
X158350199Y-114052000D01*
X158331645Y-114055691D01*
X158319929Y-114063519D01*
X158317933Y-114063650D01*
X158316822Y-114061987D01*
X158317155Y-114060745D01*
X158321189Y-114054709D01*
X158337714Y-113996115D01*
X158321212Y-113945325D01*
X158317155Y-113939255D01*
X158317024Y-113937260D01*
X158318687Y-113936148D01*
X158319929Y-113936481D01*
X158331645Y-113944309D01*
X158350199Y-113948000D01*
X159149801Y-113948000D01*
X159168355Y-113944309D01*
X159183913Y-113933913D01*
X159194309Y-113918355D01*
X159198000Y-113899801D01*
X159198000Y-113600199D01*
X159194309Y-113581645D01*
X159183913Y-113566087D01*
X159172199Y-113558259D01*
X159171314Y-113556465D01*
X159172426Y-113554802D01*
X159173700Y-113554634D01*
X159188086Y-113557496D01*
X159188453Y-113557486D01*
X159223352Y-113567329D01*
X159280115Y-113546388D01*
X159313729Y-113496081D01*
X159311345Y-113435415D01*
X159308292Y-113429422D01*
X159308397Y-113427425D01*
X159310179Y-113426517D01*
X159311737Y-113427403D01*
X159316087Y-113433913D01*
X159331645Y-113444309D01*
X159350199Y-113448000D01*
X159649801Y-113448000D01*
X159668355Y-113444309D01*
X159683913Y-113433913D01*
X159694309Y-113418355D01*
X159698000Y-113399801D01*
X159698000Y-112600199D01*
X159694309Y-112581645D01*
X159686481Y-112569929D01*
X159686350Y-112567933D01*
X159688013Y-112566822D01*
X159689255Y-112567155D01*
X159695291Y-112571189D01*
X159753885Y-112587714D01*
X159804675Y-112571212D01*
X159810745Y-112567155D01*
X159812740Y-112567024D01*
X159813852Y-112568687D01*
X159813519Y-112569929D01*
X159805691Y-112581645D01*
X159802000Y-112600199D01*
X159802000Y-113399801D01*
X159805691Y-113418355D01*
X159816087Y-113433913D01*
X159831645Y-113444309D01*
X159850199Y-113448000D01*
X160149801Y-113448000D01*
X160168355Y-113444309D01*
X160183913Y-113433913D01*
X160194309Y-113418355D01*
X160198000Y-113399801D01*
X160198000Y-112600199D01*
X160194309Y-112581645D01*
X160186481Y-112569929D01*
X160186350Y-112567933D01*
X160188013Y-112566822D01*
X160189255Y-112567155D01*
X160195291Y-112571189D01*
X160253885Y-112587714D01*
X160304675Y-112571212D01*
X160310745Y-112567155D01*
X160312740Y-112567024D01*
X160313852Y-112568687D01*
X160313519Y-112569929D01*
X160305691Y-112581645D01*
X160302000Y-112600199D01*
X160302000Y-113399801D01*
X160305691Y-113418355D01*
X160316087Y-113433913D01*
X160331645Y-113444309D01*
X160350199Y-113448000D01*
X160649801Y-113448000D01*
X160668355Y-113444309D01*
X160683913Y-113433913D01*
X160694309Y-113418355D01*
X160698000Y-113399801D01*
X160698000Y-112600199D01*
X160694309Y-112581645D01*
X160686481Y-112569929D01*
X160686350Y-112567933D01*
X160688013Y-112566822D01*
X160689255Y-112567155D01*
X160695291Y-112571189D01*
X160753885Y-112587714D01*
X160804675Y-112571212D01*
X160810745Y-112567155D01*
X160812740Y-112567024D01*
X160813852Y-112568687D01*
X160813519Y-112569929D01*
X160805691Y-112581645D01*
X160802000Y-112600199D01*
X160802000Y-113399801D01*
X160805691Y-113418355D01*
X160816087Y-113433913D01*
X160831645Y-113444309D01*
X160850199Y-113448000D01*
X161149801Y-113448000D01*
X161168355Y-113444309D01*
X161183913Y-113433913D01*
X161194309Y-113418355D01*
X161198000Y-113399801D01*
X161198000Y-112600199D01*
X161194309Y-112581645D01*
X161186481Y-112569929D01*
X161186350Y-112567933D01*
X161188013Y-112566822D01*
X161189255Y-112567155D01*
X161195291Y-112571189D01*
X161253885Y-112587714D01*
X161304675Y-112571212D01*
X161310745Y-112567155D01*
X161312740Y-112567024D01*
X161313852Y-112568687D01*
X161313519Y-112569929D01*
X161305691Y-112581645D01*
X161302000Y-112600199D01*
X161302000Y-113399801D01*
X161305691Y-113418355D01*
X161316087Y-113433913D01*
X161331645Y-113444309D01*
X161350199Y-113448000D01*
X161649801Y-113448000D01*
X161668355Y-113444309D01*
X161683913Y-113433913D01*
X161694309Y-113418355D01*
X161698000Y-113399801D01*
X161698000Y-112600199D01*
X161694309Y-112581645D01*
X161686481Y-112569929D01*
X161686350Y-112567933D01*
X161688013Y-112566822D01*
X161689255Y-112567155D01*
G37*
G36*
X172497523Y-115205252D02*
G01*
X172541118Y-115239619D01*
X172601573Y-115241993D01*
X172651977Y-115208314D01*
X172653973Y-115208183D01*
X172655084Y-115209846D01*
X172655050Y-115210367D01*
X172652000Y-115225699D01*
X172652000Y-115650301D01*
X172655677Y-115668787D01*
X172655034Y-115670681D01*
X172653072Y-115671071D01*
X172652477Y-115670748D01*
X172608882Y-115636381D01*
X172548427Y-115634007D01*
X172498023Y-115667686D01*
X172496027Y-115667817D01*
X172494916Y-115666154D01*
X172494950Y-115665633D01*
X172498000Y-115650301D01*
X172498000Y-115225699D01*
X172494323Y-115207213D01*
X172494966Y-115205319D01*
X172496928Y-115204929D01*
X172497523Y-115205252D01*
G37*
G36*
X171847523Y-115205252D02*
G01*
X171891118Y-115239619D01*
X171951573Y-115241993D01*
X172001977Y-115208314D01*
X172003973Y-115208183D01*
X172005084Y-115209846D01*
X172005050Y-115210367D01*
X172002000Y-115225699D01*
X172002000Y-115650301D01*
X172005677Y-115668787D01*
X172005034Y-115670681D01*
X172003072Y-115671071D01*
X172002477Y-115670748D01*
X171958882Y-115636381D01*
X171898427Y-115634007D01*
X171848023Y-115667686D01*
X171846027Y-115667817D01*
X171844916Y-115666154D01*
X171844950Y-115665633D01*
X171848000Y-115650301D01*
X171848000Y-115225699D01*
X171844323Y-115207213D01*
X171844966Y-115205319D01*
X171846928Y-115204929D01*
X171847523Y-115205252D01*
G37*
G36*
X171450199Y-114998000D02*
G01*
X171876973Y-114998000D01*
X171878705Y-114999000D01*
X171878705Y-115001000D01*
X171877591Y-115001902D01*
X171819435Y-115020798D01*
X171783871Y-115069747D01*
X171783871Y-115130227D01*
X171819999Y-115177954D01*
X171820247Y-115179938D01*
X171818652Y-115181146D01*
X171818014Y-115181123D01*
X171799801Y-115177500D01*
X171402673Y-115177500D01*
X171400941Y-115176500D01*
X171400941Y-115174500D01*
X171401696Y-115173755D01*
X171451098Y-115146090D01*
X171476430Y-115091147D01*
X171464610Y-115031722D01*
X171433843Y-114998436D01*
X171433402Y-114996485D01*
X171434871Y-114995127D01*
X171435702Y-114995116D01*
X171450199Y-114998000D01*
G37*
G36*
X173066287Y-114995740D02*
G01*
X173066677Y-114997702D01*
X173066354Y-114998297D01*
X173028943Y-115045754D01*
X173026569Y-115106209D01*
X173060231Y-115156587D01*
X173097317Y-115173684D01*
X173098472Y-115175317D01*
X173097634Y-115177133D01*
X173096480Y-115177500D01*
X172700199Y-115177500D01*
X172682134Y-115181093D01*
X172680240Y-115180450D01*
X172679850Y-115178488D01*
X172680173Y-115177893D01*
X172714869Y-115133881D01*
X172717244Y-115073426D01*
X172683642Y-115023138D01*
X172622368Y-115001890D01*
X172621059Y-115000377D01*
X172621714Y-114998488D01*
X172623023Y-114998000D01*
X173049801Y-114998000D01*
X173064393Y-114995097D01*
X173066287Y-114995740D01*
G37*
G36*
X171819760Y-113819550D02*
G01*
X171820150Y-113821512D01*
X171819827Y-113822107D01*
X171785131Y-113866119D01*
X171782756Y-113926574D01*
X171816358Y-113976862D01*
X171877632Y-113998110D01*
X171878941Y-113999623D01*
X171878286Y-114001512D01*
X171876977Y-114002000D01*
X171450199Y-114002000D01*
X171435607Y-114004903D01*
X171433713Y-114004260D01*
X171433323Y-114002298D01*
X171433646Y-114001703D01*
X171471057Y-113954246D01*
X171473431Y-113893791D01*
X171439769Y-113843413D01*
X171402683Y-113826316D01*
X171401528Y-113824683D01*
X171402366Y-113822867D01*
X171403520Y-113822500D01*
X171799801Y-113822500D01*
X171817866Y-113818907D01*
X171819760Y-113819550D01*
G37*
G36*
X172681986Y-113818877D02*
G01*
X172700199Y-113822500D01*
X173097327Y-113822500D01*
X173099059Y-113823500D01*
X173099059Y-113825500D01*
X173098304Y-113826245D01*
X173048902Y-113853910D01*
X173023570Y-113908853D01*
X173035390Y-113968278D01*
X173066157Y-114001564D01*
X173066598Y-114003515D01*
X173065129Y-114004873D01*
X173064298Y-114004884D01*
X173049801Y-114002000D01*
X172623027Y-114002000D01*
X172621295Y-114001000D01*
X172621295Y-113999000D01*
X172622409Y-113998098D01*
X172680565Y-113979202D01*
X172716129Y-113930253D01*
X172716129Y-113869773D01*
X172680001Y-113822046D01*
X172679753Y-113820062D01*
X172681348Y-113818854D01*
X172681986Y-113818877D01*
G37*
G36*
X172497523Y-113329252D02*
G01*
X172541118Y-113363619D01*
X172601573Y-113365993D01*
X172651977Y-113332314D01*
X172653973Y-113332183D01*
X172655084Y-113333846D01*
X172655050Y-113334367D01*
X172652000Y-113349699D01*
X172652000Y-113774301D01*
X172655677Y-113792787D01*
X172655034Y-113794681D01*
X172653072Y-113795071D01*
X172652477Y-113794748D01*
X172608882Y-113760381D01*
X172548427Y-113758007D01*
X172498023Y-113791686D01*
X172496027Y-113791817D01*
X172494916Y-113790154D01*
X172494950Y-113789633D01*
X172498000Y-113774301D01*
X172498000Y-113349699D01*
X172494323Y-113331213D01*
X172494966Y-113329319D01*
X172496928Y-113328929D01*
X172497523Y-113329252D01*
G37*
G36*
X171847523Y-113329252D02*
G01*
X171891118Y-113363619D01*
X171951573Y-113365993D01*
X172001977Y-113332314D01*
X172003973Y-113332183D01*
X172005084Y-113333846D01*
X172005050Y-113334367D01*
X172002000Y-113349699D01*
X172002000Y-113774301D01*
X172005677Y-113792787D01*
X172005034Y-113794681D01*
X172003072Y-113795071D01*
X172002477Y-113794748D01*
X171958882Y-113760381D01*
X171898427Y-113758007D01*
X171848023Y-113791686D01*
X171846027Y-113791817D01*
X171844916Y-113790154D01*
X171844950Y-113789633D01*
X171848000Y-113774301D01*
X171848000Y-113349699D01*
X171844323Y-113331213D01*
X171844966Y-113329319D01*
X171846928Y-113328929D01*
X171847523Y-113329252D01*
G37*
G36*
X157491782Y-101949000D02*
G01*
X157491782Y-101951000D01*
X157490668Y-101951902D01*
X157432512Y-101970798D01*
X157396911Y-102019799D01*
X157393987Y-102069367D01*
X157395366Y-102076301D01*
X157394723Y-102078195D01*
X157392761Y-102078585D01*
X157391741Y-102077802D01*
X157383913Y-102066087D01*
X157368355Y-102055691D01*
X157349801Y-102052000D01*
X157150199Y-102052000D01*
X157131645Y-102055691D01*
X157116087Y-102066087D01*
X157105691Y-102081645D01*
X157102000Y-102100199D01*
X157102000Y-102899801D01*
X157105691Y-102918355D01*
X157113519Y-102930071D01*
X157113650Y-102932067D01*
X157111987Y-102933178D01*
X157110745Y-102932845D01*
X157104709Y-102928811D01*
X157046115Y-102912286D01*
X156995325Y-102928788D01*
X156989255Y-102932845D01*
X156987260Y-102932976D01*
X156986148Y-102931313D01*
X156986481Y-102930071D01*
X156994309Y-102918355D01*
X156998000Y-102899801D01*
X156998000Y-102100199D01*
X156994309Y-102081645D01*
X156983913Y-102066087D01*
X156968355Y-102055691D01*
X156949801Y-102052000D01*
X156750199Y-102052000D01*
X156731645Y-102055691D01*
X156716087Y-102066087D01*
X156705691Y-102081645D01*
X156702000Y-102100199D01*
X156702000Y-102899801D01*
X156705691Y-102918355D01*
X156713519Y-102930071D01*
X156713650Y-102932067D01*
X156711987Y-102933178D01*
X156710745Y-102932845D01*
X156704709Y-102928811D01*
X156646115Y-102912286D01*
X156595325Y-102928788D01*
X156589255Y-102932845D01*
X156587260Y-102932976D01*
X156586148Y-102931313D01*
X156586481Y-102930071D01*
X156594309Y-102918355D01*
X156598000Y-102899801D01*
X156598000Y-102100199D01*
X156594309Y-102081645D01*
X156583913Y-102066087D01*
X156568355Y-102055691D01*
X156549801Y-102052000D01*
X156350199Y-102052000D01*
X156331645Y-102055691D01*
X156316087Y-102066087D01*
X156305691Y-102081645D01*
X156302000Y-102100199D01*
X156302000Y-102899801D01*
X156305691Y-102918355D01*
X156313519Y-102930071D01*
X156313650Y-102932067D01*
X156311987Y-102933178D01*
X156310745Y-102932845D01*
X156304709Y-102928811D01*
X156246115Y-102912286D01*
X156195325Y-102928788D01*
X156189255Y-102932845D01*
X156187260Y-102932976D01*
X156186148Y-102931313D01*
X156186481Y-102930071D01*
X156194309Y-102918355D01*
X156198000Y-102899801D01*
X156198000Y-102100199D01*
X156194309Y-102081645D01*
X156183913Y-102066087D01*
X156168355Y-102055691D01*
X156149801Y-102052000D01*
X155950199Y-102052000D01*
X155931645Y-102055691D01*
X155916087Y-102066087D01*
X155905691Y-102081645D01*
X155902000Y-102100199D01*
X155902000Y-102899801D01*
X155905691Y-102918355D01*
X155913519Y-102930071D01*
X155913650Y-102932067D01*
X155911987Y-102933178D01*
X155910745Y-102932845D01*
X155904709Y-102928811D01*
X155846115Y-102912286D01*
X155795325Y-102928788D01*
X155789255Y-102932845D01*
X155787260Y-102932976D01*
X155786148Y-102931313D01*
X155786481Y-102930071D01*
X155794309Y-102918355D01*
X155798000Y-102899801D01*
X155798000Y-102100199D01*
X155794309Y-102081645D01*
X155783913Y-102066087D01*
X155768355Y-102055691D01*
X155749801Y-102052000D01*
X155550199Y-102052000D01*
X155531645Y-102055691D01*
X155516087Y-102066087D01*
X155505691Y-102081645D01*
X155502000Y-102100199D01*
X155502000Y-102899801D01*
X155505691Y-102918355D01*
X155513519Y-102930071D01*
X155513650Y-102932067D01*
X155511987Y-102933178D01*
X155510745Y-102932845D01*
X155504709Y-102928811D01*
X155446115Y-102912286D01*
X155395325Y-102928788D01*
X155389255Y-102932845D01*
X155387260Y-102932976D01*
X155386148Y-102931313D01*
X155386481Y-102930071D01*
X155394309Y-102918355D01*
X155398000Y-102899801D01*
X155398000Y-102100199D01*
X155394309Y-102081645D01*
X155383913Y-102066087D01*
X155368355Y-102055691D01*
X155349801Y-102052000D01*
X155150199Y-102052000D01*
X155131645Y-102055691D01*
X155116087Y-102066087D01*
X155108258Y-102077803D01*
X155106464Y-102078688D01*
X155104801Y-102077577D01*
X155104633Y-102076302D01*
X155106001Y-102069427D01*
X155098852Y-102009015D01*
X155057736Y-101964537D01*
X155009442Y-101951935D01*
X155008019Y-101950530D01*
X155008524Y-101948595D01*
X155009947Y-101948000D01*
X157490050Y-101948000D01*
X157491782Y-101949000D01*
G37*
G36*
X130466560Y-100370331D02*
G01*
X130514118Y-100407822D01*
X130574573Y-100410197D01*
X130625122Y-100376421D01*
X130628985Y-100371105D01*
X130630812Y-100370292D01*
X130632430Y-100371468D01*
X130632565Y-100372671D01*
X130625000Y-100410699D01*
X130625000Y-101085301D01*
X130632640Y-101123708D01*
X130631997Y-101125602D01*
X130630035Y-101125992D01*
X130629440Y-101125669D01*
X130581882Y-101088178D01*
X130521427Y-101085803D01*
X130470878Y-101119579D01*
X130467015Y-101124895D01*
X130465188Y-101125708D01*
X130463570Y-101124532D01*
X130463435Y-101123329D01*
X130471000Y-101085301D01*
X130471000Y-100410699D01*
X130463360Y-100372292D01*
X130464003Y-100370398D01*
X130465965Y-100370008D01*
X130466560Y-100370331D01*
G37*
G36*
X128966560Y-100370331D02*
G01*
X129014118Y-100407822D01*
X129074573Y-100410197D01*
X129125122Y-100376421D01*
X129128985Y-100371105D01*
X129130812Y-100370292D01*
X129132430Y-100371468D01*
X129132565Y-100372671D01*
X129125000Y-100410699D01*
X129125000Y-101085301D01*
X129132640Y-101123708D01*
X129131997Y-101125602D01*
X129130035Y-101125992D01*
X129129440Y-101125669D01*
X129081882Y-101088178D01*
X129021427Y-101085803D01*
X128970878Y-101119579D01*
X128967015Y-101124895D01*
X128965188Y-101125708D01*
X128963570Y-101124532D01*
X128963435Y-101123329D01*
X128971000Y-101085301D01*
X128971000Y-100410699D01*
X128963360Y-100372292D01*
X128964003Y-100370398D01*
X128965965Y-100370008D01*
X128966560Y-100370331D01*
G37*
G36*
X128466560Y-100370331D02*
G01*
X128514118Y-100407822D01*
X128574573Y-100410197D01*
X128625122Y-100376421D01*
X128628985Y-100371105D01*
X128630812Y-100370292D01*
X128632430Y-100371468D01*
X128632565Y-100372671D01*
X128625000Y-100410699D01*
X128625000Y-101085301D01*
X128632640Y-101123708D01*
X128631997Y-101125602D01*
X128630035Y-101125992D01*
X128629440Y-101125669D01*
X128581882Y-101088178D01*
X128521427Y-101085803D01*
X128470878Y-101119579D01*
X128467015Y-101124895D01*
X128465188Y-101125708D01*
X128463570Y-101124532D01*
X128463435Y-101123329D01*
X128471000Y-101085301D01*
X128471000Y-100410699D01*
X128463360Y-100372292D01*
X128464003Y-100370398D01*
X128465965Y-100370008D01*
X128466560Y-100370331D01*
G37*
G36*
X130966560Y-100370331D02*
G01*
X131014118Y-100407822D01*
X131074573Y-100410197D01*
X131125122Y-100376421D01*
X131128985Y-100371105D01*
X131130812Y-100370292D01*
X131132430Y-100371468D01*
X131132565Y-100372671D01*
X131125000Y-100410699D01*
X131125000Y-101085301D01*
X131132640Y-101123708D01*
X131131997Y-101125602D01*
X131130035Y-101125992D01*
X131129440Y-101125669D01*
X131081882Y-101088178D01*
X131021427Y-101085803D01*
X130970878Y-101119579D01*
X130967015Y-101124895D01*
X130965188Y-101125708D01*
X130963570Y-101124532D01*
X130963435Y-101123329D01*
X130971000Y-101085301D01*
X130971000Y-100410699D01*
X130963360Y-100372292D01*
X130964003Y-100370398D01*
X130965965Y-100370008D01*
X130966560Y-100370331D01*
G37*
G36*
X129966560Y-100370331D02*
G01*
X130014118Y-100407822D01*
X130074573Y-100410197D01*
X130125122Y-100376421D01*
X130128985Y-100371105D01*
X130130812Y-100370292D01*
X130132430Y-100371468D01*
X130132565Y-100372671D01*
X130125000Y-100410699D01*
X130125000Y-101085301D01*
X130132640Y-101123708D01*
X130131997Y-101125602D01*
X130130035Y-101125992D01*
X130129440Y-101125669D01*
X130081882Y-101088178D01*
X130021427Y-101085803D01*
X129970878Y-101119579D01*
X129967015Y-101124895D01*
X129965188Y-101125708D01*
X129963570Y-101124532D01*
X129963435Y-101123329D01*
X129971000Y-101085301D01*
X129971000Y-100410699D01*
X129963360Y-100372292D01*
X129964003Y-100370398D01*
X129965965Y-100370008D01*
X129966560Y-100370331D01*
G37*
G36*
X131466560Y-100370331D02*
G01*
X131514118Y-100407822D01*
X131574573Y-100410197D01*
X131625122Y-100376421D01*
X131628985Y-100371105D01*
X131630812Y-100370292D01*
X131632430Y-100371468D01*
X131632565Y-100372671D01*
X131625000Y-100410699D01*
X131625000Y-101085301D01*
X131632640Y-101123708D01*
X131631997Y-101125602D01*
X131630035Y-101125992D01*
X131629440Y-101125669D01*
X131581882Y-101088178D01*
X131521427Y-101085803D01*
X131470878Y-101119579D01*
X131467015Y-101124895D01*
X131465188Y-101125708D01*
X131463570Y-101124532D01*
X131463435Y-101123329D01*
X131471000Y-101085301D01*
X131471000Y-100410699D01*
X131463360Y-100372292D01*
X131464003Y-100370398D01*
X131465965Y-100370008D01*
X131466560Y-100370331D01*
G37*
G36*
X129466560Y-100370331D02*
G01*
X129514118Y-100407822D01*
X129574573Y-100410197D01*
X129625122Y-100376421D01*
X129628985Y-100371105D01*
X129630812Y-100370292D01*
X129632430Y-100371468D01*
X129632565Y-100372671D01*
X129625000Y-100410699D01*
X129625000Y-101085301D01*
X129632640Y-101123708D01*
X129631997Y-101125602D01*
X129630035Y-101125992D01*
X129629440Y-101125669D01*
X129581882Y-101088178D01*
X129521427Y-101085803D01*
X129470878Y-101119579D01*
X129467015Y-101124895D01*
X129465188Y-101125708D01*
X129463570Y-101124532D01*
X129463435Y-101123329D01*
X129471000Y-101085301D01*
X129471000Y-100410699D01*
X129463360Y-100372292D01*
X129464003Y-100370398D01*
X129465965Y-100370008D01*
X129466560Y-100370331D01*
G37*
G36*
X129994168Y-100147000D02*
G01*
X129994168Y-100149000D01*
X129993054Y-100149902D01*
X129934895Y-100168800D01*
X129899332Y-100217748D01*
X129899333Y-100278229D01*
X129934935Y-100325260D01*
X129935183Y-100327244D01*
X129933588Y-100328452D01*
X129932229Y-100328130D01*
X129902773Y-100308449D01*
X129860301Y-100300000D01*
X129735699Y-100300000D01*
X129693227Y-100308449D01*
X129664082Y-100327922D01*
X129662086Y-100328053D01*
X129660975Y-100326390D01*
X129661400Y-100325021D01*
X129695409Y-100281883D01*
X129697784Y-100221428D01*
X129664183Y-100171139D01*
X129602908Y-100149890D01*
X129601599Y-100148377D01*
X129602254Y-100146488D01*
X129603563Y-100146000D01*
X129992436Y-100146000D01*
X129994168Y-100147000D01*
G37*
G36*
X129494169Y-100147000D02*
G01*
X129494169Y-100149000D01*
X129493055Y-100149902D01*
X129434896Y-100168799D01*
X129399332Y-100217748D01*
X129399332Y-100278228D01*
X129434935Y-100325259D01*
X129435183Y-100327243D01*
X129433588Y-100328451D01*
X129432229Y-100328129D01*
X129402773Y-100308449D01*
X129360301Y-100300000D01*
X129235699Y-100300000D01*
X129193227Y-100308449D01*
X129164082Y-100327922D01*
X129162086Y-100328053D01*
X129160975Y-100326390D01*
X129161400Y-100325021D01*
X129195409Y-100281883D01*
X129197784Y-100221428D01*
X129164183Y-100171139D01*
X129102908Y-100149890D01*
X129101599Y-100148377D01*
X129102254Y-100146488D01*
X129103563Y-100146000D01*
X129492437Y-100146000D01*
X129494169Y-100147000D01*
G37*
G36*
X130494166Y-100147000D02*
G01*
X130494166Y-100149000D01*
X130493052Y-100149902D01*
X130434896Y-100168798D01*
X130399332Y-100217747D01*
X130399332Y-100278227D01*
X130434933Y-100325259D01*
X130435181Y-100327243D01*
X130433586Y-100328451D01*
X130432227Y-100328129D01*
X130402773Y-100308449D01*
X130360301Y-100300000D01*
X130235699Y-100300000D01*
X130193227Y-100308449D01*
X130164082Y-100327922D01*
X130162086Y-100328053D01*
X130160975Y-100326390D01*
X130161400Y-100325021D01*
X130195410Y-100281878D01*
X130197783Y-100221423D01*
X130164181Y-100171136D01*
X130102910Y-100149890D01*
X130101601Y-100148377D01*
X130102256Y-100146488D01*
X130103565Y-100146000D01*
X130492434Y-100146000D01*
X130494166Y-100147000D01*
G37*
G36*
X130994166Y-100147000D02*
G01*
X130994166Y-100149000D01*
X130993052Y-100149902D01*
X130934896Y-100168798D01*
X130899332Y-100217747D01*
X130899332Y-100278227D01*
X130934933Y-100325259D01*
X130935181Y-100327243D01*
X130933586Y-100328451D01*
X130932227Y-100328129D01*
X130902773Y-100308449D01*
X130860301Y-100300000D01*
X130735699Y-100300000D01*
X130693227Y-100308449D01*
X130664082Y-100327922D01*
X130662086Y-100328053D01*
X130660975Y-100326390D01*
X130661400Y-100325021D01*
X130695410Y-100281878D01*
X130697783Y-100221423D01*
X130664181Y-100171136D01*
X130602911Y-100149890D01*
X130601602Y-100148377D01*
X130602257Y-100146488D01*
X130603566Y-100146000D01*
X130992434Y-100146000D01*
X130994166Y-100147000D01*
G37*
G36*
X128994169Y-100147000D02*
G01*
X128994169Y-100149000D01*
X128993055Y-100149902D01*
X128934896Y-100168799D01*
X128899332Y-100217748D01*
X128899332Y-100278228D01*
X128934935Y-100325259D01*
X128935183Y-100327243D01*
X128933588Y-100328451D01*
X128932229Y-100328129D01*
X128902773Y-100308449D01*
X128860301Y-100300000D01*
X128735699Y-100300000D01*
X128693227Y-100308449D01*
X128664082Y-100327922D01*
X128662086Y-100328053D01*
X128660975Y-100326390D01*
X128661400Y-100325021D01*
X128695409Y-100281880D01*
X128697782Y-100221425D01*
X128664181Y-100171137D01*
X128602907Y-100149890D01*
X128601598Y-100148377D01*
X128602253Y-100146488D01*
X128603562Y-100146000D01*
X128992437Y-100146000D01*
X128994169Y-100147000D01*
G37*
G36*
X131494165Y-100147000D02*
G01*
X131494165Y-100149000D01*
X131493051Y-100149902D01*
X131434895Y-100168798D01*
X131399331Y-100217747D01*
X131399331Y-100278227D01*
X131434934Y-100325259D01*
X131435182Y-100327243D01*
X131433587Y-100328451D01*
X131432228Y-100328129D01*
X131402773Y-100308449D01*
X131360301Y-100300000D01*
X131235699Y-100300000D01*
X131193227Y-100308449D01*
X131164082Y-100327922D01*
X131162086Y-100328053D01*
X131160975Y-100326390D01*
X131161400Y-100325021D01*
X131195410Y-100281878D01*
X131197783Y-100221423D01*
X131164181Y-100171136D01*
X131102911Y-100149890D01*
X131101602Y-100148377D01*
X131102257Y-100146488D01*
X131103566Y-100146000D01*
X131492433Y-100146000D01*
X131494165Y-100147000D01*
G37*
G36*
X128218665Y-100134972D02*
G01*
X128229645Y-100142309D01*
X128248199Y-100146000D01*
X128492438Y-100146000D01*
X128494170Y-100147000D01*
X128494170Y-100149000D01*
X128493056Y-100149902D01*
X128434897Y-100168799D01*
X128399333Y-100217748D01*
X128399333Y-100278228D01*
X128434934Y-100325259D01*
X128435182Y-100327243D01*
X128433587Y-100328451D01*
X128432228Y-100328129D01*
X128402773Y-100308449D01*
X128360301Y-100300000D01*
X128235699Y-100300000D01*
X128197763Y-100307546D01*
X128195869Y-100306903D01*
X128195479Y-100304941D01*
X128196262Y-100303921D01*
X128206963Y-100296771D01*
X128205909Y-100295193D01*
X128205778Y-100293197D01*
X128206595Y-100292337D01*
X128228300Y-100280179D01*
X128253624Y-100225232D01*
X128241798Y-100165808D01*
X128216085Y-100137993D01*
X128215644Y-100136042D01*
X128217113Y-100134684D01*
X128218665Y-100134972D01*
G37*
G36*
X131881175Y-100136015D02*
G01*
X131880842Y-100137257D01*
X131878189Y-100141227D01*
X131878097Y-100141354D01*
X131847748Y-100179851D01*
X131845373Y-100240306D01*
X131879034Y-100290684D01*
X131887664Y-100294663D01*
X131888819Y-100296296D01*
X131888747Y-100296578D01*
X131899738Y-100303921D01*
X131900623Y-100305715D01*
X131899512Y-100307378D01*
X131898237Y-100307546D01*
X131860301Y-100300000D01*
X131735699Y-100300000D01*
X131693227Y-100308449D01*
X131664082Y-100327922D01*
X131662086Y-100328053D01*
X131660975Y-100326390D01*
X131661400Y-100325021D01*
X131695410Y-100281880D01*
X131697785Y-100221425D01*
X131664183Y-100171137D01*
X131602912Y-100149890D01*
X131601603Y-100148377D01*
X131602258Y-100146488D01*
X131603567Y-100146000D01*
X131847801Y-100146000D01*
X131866355Y-100142309D01*
X131878068Y-100134483D01*
X131880064Y-100134352D01*
X131881175Y-100136015D01*
G37*
G36*
X128199512Y-99852258D02*
G01*
X128200000Y-99853567D01*
X128200000Y-100097801D01*
X128203691Y-100116355D01*
X128211517Y-100128068D01*
X128211648Y-100130064D01*
X128209985Y-100131175D01*
X128208743Y-100130842D01*
X128204773Y-100128189D01*
X128204646Y-100128097D01*
X128166149Y-100097748D01*
X128105694Y-100095373D01*
X128055316Y-100129034D01*
X128051337Y-100137664D01*
X128049704Y-100138819D01*
X128049422Y-100138747D01*
X128042079Y-100149738D01*
X128040285Y-100150623D01*
X128038622Y-100149512D01*
X128038454Y-100148237D01*
X128046000Y-100110301D01*
X128046000Y-99985699D01*
X128037551Y-99943227D01*
X128018078Y-99914082D01*
X128017947Y-99912086D01*
X128019610Y-99910975D01*
X128020979Y-99911400D01*
X128064120Y-99945410D01*
X128124575Y-99947785D01*
X128174863Y-99914183D01*
X128196110Y-99852912D01*
X128197623Y-99851603D01*
X128199512Y-99852258D01*
G37*
G36*
X131899902Y-99852944D02*
G01*
X131918799Y-99911103D01*
X131967748Y-99946667D01*
X132028228Y-99946667D01*
X132075259Y-99911066D01*
X132077243Y-99910818D01*
X132078451Y-99912413D01*
X132078129Y-99913772D01*
X132058449Y-99943227D01*
X132050000Y-99985699D01*
X132050000Y-100110301D01*
X132057546Y-100148237D01*
X132056903Y-100150131D01*
X132054941Y-100150521D01*
X132053921Y-100149738D01*
X132046771Y-100139037D01*
X132045193Y-100140091D01*
X132043197Y-100140222D01*
X132042337Y-100139405D01*
X132030179Y-100117700D01*
X131975232Y-100092376D01*
X131915808Y-100104202D01*
X131887993Y-100129915D01*
X131886042Y-100130356D01*
X131884684Y-100128887D01*
X131884972Y-100127335D01*
X131892309Y-100116355D01*
X131896000Y-100097801D01*
X131896000Y-99853562D01*
X131897000Y-99851830D01*
X131899000Y-99851830D01*
X131899902Y-99852944D01*
G37*
G36*
X156989255Y-99067155D02*
G01*
X156995291Y-99071189D01*
X157053885Y-99087714D01*
X157104675Y-99071212D01*
X157110745Y-99067155D01*
X157112740Y-99067024D01*
X157113852Y-99068687D01*
X157113519Y-99069929D01*
X157105691Y-99081645D01*
X157102000Y-99100199D01*
X157102000Y-99899801D01*
X157105691Y-99918355D01*
X157116087Y-99933913D01*
X157131645Y-99944309D01*
X157150199Y-99948000D01*
X157349801Y-99948000D01*
X157368355Y-99944309D01*
X157383913Y-99933913D01*
X157391742Y-99922197D01*
X157393536Y-99921312D01*
X157395199Y-99922423D01*
X157395367Y-99923698D01*
X157393999Y-99930573D01*
X157401148Y-99990985D01*
X157442264Y-100035463D01*
X157490558Y-100048065D01*
X157491981Y-100049470D01*
X157491476Y-100051405D01*
X157490053Y-100052000D01*
X155009950Y-100052000D01*
X155008218Y-100051000D01*
X155008218Y-100049000D01*
X155009332Y-100048098D01*
X155067488Y-100029202D01*
X155103089Y-99980201D01*
X155106013Y-99930633D01*
X155104634Y-99923699D01*
X155105277Y-99921805D01*
X155107239Y-99921415D01*
X155108259Y-99922198D01*
X155116087Y-99933913D01*
X155131645Y-99944309D01*
X155150199Y-99948000D01*
X155349801Y-99948000D01*
X155368355Y-99944309D01*
X155383913Y-99933913D01*
X155394309Y-99918355D01*
X155398000Y-99899801D01*
X155398000Y-99100199D01*
X155394309Y-99081645D01*
X155386481Y-99069929D01*
X155386350Y-99067933D01*
X155388013Y-99066822D01*
X155389255Y-99067155D01*
X155395291Y-99071189D01*
X155453885Y-99087714D01*
X155504675Y-99071212D01*
X155510745Y-99067155D01*
X155512740Y-99067024D01*
X155513852Y-99068687D01*
X155513519Y-99069929D01*
X155505691Y-99081645D01*
X155502000Y-99100199D01*
X155502000Y-99899801D01*
X155505691Y-99918355D01*
X155516087Y-99933913D01*
X155531645Y-99944309D01*
X155550199Y-99948000D01*
X155749801Y-99948000D01*
X155768355Y-99944309D01*
X155783913Y-99933913D01*
X155794309Y-99918355D01*
X155798000Y-99899801D01*
X155798000Y-99100199D01*
X155794309Y-99081645D01*
X155786481Y-99069929D01*
X155786350Y-99067933D01*
X155788013Y-99066822D01*
X155789255Y-99067155D01*
X155795291Y-99071189D01*
X155853885Y-99087714D01*
X155904675Y-99071212D01*
X155910745Y-99067155D01*
X155912740Y-99067024D01*
X155913852Y-99068687D01*
X155913519Y-99069929D01*
X155905691Y-99081645D01*
X155902000Y-99100199D01*
X155902000Y-99899801D01*
X155905691Y-99918355D01*
X155916087Y-99933913D01*
X155931645Y-99944309D01*
X155950199Y-99948000D01*
X156149801Y-99948000D01*
X156168355Y-99944309D01*
X156183913Y-99933913D01*
X156194309Y-99918355D01*
X156198000Y-99899801D01*
X156198000Y-99100199D01*
X156194309Y-99081645D01*
X156186481Y-99069929D01*
X156186350Y-99067933D01*
X156188013Y-99066822D01*
X156189255Y-99067155D01*
X156195291Y-99071189D01*
X156253885Y-99087714D01*
X156304675Y-99071212D01*
X156310745Y-99067155D01*
X156312740Y-99067024D01*
X156313852Y-99068687D01*
X156313519Y-99069929D01*
X156305691Y-99081645D01*
X156302000Y-99100199D01*
X156302000Y-99899801D01*
X156305691Y-99918355D01*
X156316087Y-99933913D01*
X156331645Y-99944309D01*
X156350199Y-99948000D01*
X156549801Y-99948000D01*
X156568355Y-99944309D01*
X156583913Y-99933913D01*
X156594309Y-99918355D01*
X156598000Y-99899801D01*
X156598000Y-99100199D01*
X156594309Y-99081645D01*
X156586481Y-99069929D01*
X156586350Y-99067933D01*
X156588013Y-99066822D01*
X156589255Y-99067155D01*
X156595291Y-99071189D01*
X156653885Y-99087714D01*
X156704675Y-99071212D01*
X156710745Y-99067155D01*
X156712740Y-99067024D01*
X156713852Y-99068687D01*
X156713519Y-99069929D01*
X156705691Y-99081645D01*
X156702000Y-99100199D01*
X156702000Y-99899801D01*
X156705691Y-99918355D01*
X156716087Y-99933913D01*
X156731645Y-99944309D01*
X156750199Y-99948000D01*
X156949801Y-99948000D01*
X156968355Y-99944309D01*
X156983913Y-99933913D01*
X156994309Y-99918355D01*
X156998000Y-99899801D01*
X156998000Y-99100199D01*
X156994309Y-99081645D01*
X156986481Y-99069929D01*
X156986350Y-99067933D01*
X156988013Y-99066822D01*
X156989255Y-99067155D01*
G37*
G36*
X132875602Y-99714003D02*
G01*
X132875992Y-99715965D01*
X132875669Y-99716560D01*
X132838178Y-99764118D01*
X132835803Y-99824573D01*
X132869579Y-99875122D01*
X132874895Y-99878985D01*
X132875708Y-99880812D01*
X132874532Y-99882430D01*
X132873329Y-99882565D01*
X132835301Y-99875000D01*
X132160699Y-99875000D01*
X132122292Y-99882640D01*
X132120398Y-99881997D01*
X132120008Y-99880035D01*
X132120331Y-99879440D01*
X132157822Y-99831882D01*
X132160197Y-99771427D01*
X132126421Y-99720878D01*
X132121105Y-99717015D01*
X132120292Y-99715188D01*
X132121468Y-99713570D01*
X132122671Y-99713435D01*
X132160699Y-99721000D01*
X132835301Y-99721000D01*
X132873708Y-99713360D01*
X132875602Y-99714003D01*
G37*
G36*
X127975602Y-99714003D02*
G01*
X127975992Y-99715965D01*
X127975669Y-99716560D01*
X127938178Y-99764118D01*
X127935803Y-99824573D01*
X127969579Y-99875122D01*
X127974895Y-99878985D01*
X127975708Y-99880812D01*
X127974532Y-99882430D01*
X127973329Y-99882565D01*
X127935301Y-99875000D01*
X127260699Y-99875000D01*
X127222292Y-99882640D01*
X127220398Y-99881997D01*
X127220008Y-99880035D01*
X127220331Y-99879440D01*
X127257822Y-99831882D01*
X127260197Y-99771427D01*
X127226421Y-99720878D01*
X127221105Y-99717015D01*
X127220292Y-99715188D01*
X127221468Y-99713570D01*
X127222671Y-99713435D01*
X127260699Y-99721000D01*
X127935301Y-99721000D01*
X127973708Y-99713360D01*
X127975602Y-99714003D01*
G37*
G36*
X131899902Y-99352945D02*
G01*
X131918799Y-99411104D01*
X131967748Y-99446668D01*
X132028228Y-99446668D01*
X132075259Y-99411065D01*
X132077243Y-99410817D01*
X132078451Y-99412412D01*
X132078129Y-99413771D01*
X132058449Y-99443227D01*
X132050000Y-99485699D01*
X132050000Y-99610301D01*
X132058449Y-99652773D01*
X132077922Y-99681918D01*
X132078053Y-99683914D01*
X132076390Y-99685025D01*
X132075021Y-99684600D01*
X132031880Y-99650591D01*
X131971425Y-99648218D01*
X131921137Y-99681819D01*
X131899890Y-99743093D01*
X131898377Y-99744402D01*
X131896488Y-99743747D01*
X131896000Y-99742438D01*
X131896000Y-99353563D01*
X131897000Y-99351831D01*
X131899000Y-99351831D01*
X131899902Y-99352945D01*
G37*
G36*
X128199512Y-99352257D02*
G01*
X128200000Y-99353566D01*
X128200000Y-99742433D01*
X128199000Y-99744165D01*
X128197000Y-99744165D01*
X128196098Y-99743051D01*
X128177202Y-99684895D01*
X128128253Y-99649331D01*
X128067773Y-99649331D01*
X128020741Y-99684934D01*
X128018757Y-99685182D01*
X128017549Y-99683587D01*
X128017871Y-99682228D01*
X128037551Y-99652773D01*
X128046000Y-99610301D01*
X128046000Y-99485699D01*
X128037551Y-99443227D01*
X128018078Y-99414082D01*
X128017947Y-99412086D01*
X128019610Y-99410975D01*
X128020979Y-99411400D01*
X128064122Y-99445410D01*
X128124577Y-99447783D01*
X128174864Y-99414181D01*
X128196110Y-99352911D01*
X128197623Y-99351602D01*
X128199512Y-99352257D01*
G37*
G36*
X132875602Y-99214003D02*
G01*
X132875992Y-99215965D01*
X132875669Y-99216560D01*
X132838178Y-99264118D01*
X132835803Y-99324573D01*
X132869579Y-99375122D01*
X132874895Y-99378985D01*
X132875708Y-99380812D01*
X132874532Y-99382430D01*
X132873329Y-99382565D01*
X132835301Y-99375000D01*
X132160699Y-99375000D01*
X132122292Y-99382640D01*
X132120398Y-99381997D01*
X132120008Y-99380035D01*
X132120331Y-99379440D01*
X132157822Y-99331882D01*
X132160197Y-99271427D01*
X132126421Y-99220878D01*
X132121105Y-99217015D01*
X132120292Y-99215188D01*
X132121468Y-99213570D01*
X132122671Y-99213435D01*
X132160699Y-99221000D01*
X132835301Y-99221000D01*
X132873708Y-99213360D01*
X132875602Y-99214003D01*
G37*
G36*
X127975602Y-99214003D02*
G01*
X127975992Y-99215965D01*
X127975669Y-99216560D01*
X127938178Y-99264118D01*
X127935803Y-99324573D01*
X127969579Y-99375122D01*
X127974895Y-99378985D01*
X127975708Y-99380812D01*
X127974532Y-99382430D01*
X127973329Y-99382565D01*
X127935301Y-99375000D01*
X127260699Y-99375000D01*
X127222292Y-99382640D01*
X127220398Y-99381997D01*
X127220008Y-99380035D01*
X127220331Y-99379440D01*
X127257822Y-99331882D01*
X127260197Y-99271427D01*
X127226421Y-99220878D01*
X127221105Y-99217015D01*
X127220292Y-99215188D01*
X127221468Y-99213570D01*
X127222671Y-99213435D01*
X127260699Y-99221000D01*
X127935301Y-99221000D01*
X127973708Y-99213360D01*
X127975602Y-99214003D01*
G37*
G36*
X131899902Y-98852945D02*
G01*
X131918799Y-98911104D01*
X131967748Y-98946668D01*
X132028228Y-98946668D01*
X132075259Y-98911065D01*
X132077243Y-98910817D01*
X132078451Y-98912412D01*
X132078129Y-98913771D01*
X132058449Y-98943227D01*
X132050000Y-98985699D01*
X132050000Y-99110301D01*
X132058449Y-99152773D01*
X132077922Y-99181918D01*
X132078053Y-99183914D01*
X132076390Y-99185025D01*
X132075021Y-99184600D01*
X132031883Y-99150591D01*
X131971428Y-99148216D01*
X131921139Y-99181817D01*
X131899890Y-99243092D01*
X131898377Y-99244401D01*
X131896488Y-99243746D01*
X131896000Y-99242437D01*
X131896000Y-98853563D01*
X131897000Y-98851831D01*
X131899000Y-98851831D01*
X131899902Y-98852945D01*
G37*
G36*
X128199512Y-98852257D02*
G01*
X128200000Y-98853566D01*
X128200000Y-99242434D01*
X128199000Y-99244166D01*
X128197000Y-99244166D01*
X128196098Y-99243052D01*
X128177202Y-99184896D01*
X128128253Y-99149332D01*
X128067773Y-99149332D01*
X128020741Y-99184933D01*
X128018757Y-99185181D01*
X128017549Y-99183586D01*
X128017871Y-99182227D01*
X128037551Y-99152773D01*
X128046000Y-99110301D01*
X128046000Y-98985699D01*
X128037551Y-98943227D01*
X128018078Y-98914082D01*
X128017947Y-98912086D01*
X128019610Y-98910975D01*
X128020979Y-98911400D01*
X128064122Y-98945410D01*
X128124577Y-98947783D01*
X128174864Y-98914181D01*
X128196110Y-98852911D01*
X128197623Y-98851602D01*
X128199512Y-98852257D01*
G37*
G36*
X132875602Y-98714003D02*
G01*
X132875992Y-98715965D01*
X132875669Y-98716560D01*
X132838178Y-98764118D01*
X132835803Y-98824573D01*
X132869579Y-98875122D01*
X132874895Y-98878985D01*
X132875708Y-98880812D01*
X132874532Y-98882430D01*
X132873329Y-98882565D01*
X132835301Y-98875000D01*
X132160699Y-98875000D01*
X132122292Y-98882640D01*
X132120398Y-98881997D01*
X132120008Y-98880035D01*
X132120331Y-98879440D01*
X132157822Y-98831882D01*
X132160197Y-98771427D01*
X132126421Y-98720878D01*
X132121105Y-98717015D01*
X132120292Y-98715188D01*
X132121468Y-98713570D01*
X132122671Y-98713435D01*
X132160699Y-98721000D01*
X132835301Y-98721000D01*
X132873708Y-98713360D01*
X132875602Y-98714003D01*
G37*
G36*
X127975602Y-98714003D02*
G01*
X127975992Y-98715965D01*
X127975669Y-98716560D01*
X127938178Y-98764118D01*
X127935803Y-98824573D01*
X127969579Y-98875122D01*
X127974895Y-98878985D01*
X127975708Y-98880812D01*
X127974532Y-98882430D01*
X127973329Y-98882565D01*
X127935301Y-98875000D01*
X127260699Y-98875000D01*
X127222292Y-98882640D01*
X127220398Y-98881997D01*
X127220008Y-98880035D01*
X127220331Y-98879440D01*
X127257822Y-98831882D01*
X127260197Y-98771427D01*
X127226421Y-98720878D01*
X127221105Y-98717015D01*
X127220292Y-98715188D01*
X127221468Y-98713570D01*
X127222671Y-98713435D01*
X127260699Y-98721000D01*
X127935301Y-98721000D01*
X127973708Y-98713360D01*
X127975602Y-98714003D01*
G37*
G36*
X131899902Y-98352946D02*
G01*
X131918800Y-98411105D01*
X131967748Y-98446668D01*
X132028229Y-98446667D01*
X132075260Y-98411065D01*
X132077244Y-98410817D01*
X132078452Y-98412412D01*
X132078130Y-98413771D01*
X132058449Y-98443227D01*
X132050000Y-98485699D01*
X132050000Y-98610301D01*
X132058449Y-98652773D01*
X132077922Y-98681918D01*
X132078053Y-98683914D01*
X132076390Y-98685025D01*
X132075021Y-98684600D01*
X132031883Y-98650591D01*
X131971428Y-98648216D01*
X131921139Y-98681817D01*
X131899890Y-98743092D01*
X131898377Y-98744401D01*
X131896488Y-98743746D01*
X131896000Y-98742437D01*
X131896000Y-98353564D01*
X131897000Y-98351832D01*
X131899000Y-98351832D01*
X131899902Y-98352946D01*
G37*
G36*
X128199512Y-98352255D02*
G01*
X128200000Y-98353564D01*
X128200000Y-98742434D01*
X128199000Y-98744166D01*
X128197000Y-98744166D01*
X128196098Y-98743052D01*
X128177202Y-98684896D01*
X128128253Y-98649332D01*
X128067773Y-98649332D01*
X128020741Y-98684933D01*
X128018757Y-98685181D01*
X128017549Y-98683586D01*
X128017871Y-98682227D01*
X128037551Y-98652773D01*
X128046000Y-98610301D01*
X128046000Y-98485699D01*
X128037551Y-98443227D01*
X128018078Y-98414082D01*
X128017947Y-98412086D01*
X128019610Y-98410975D01*
X128020979Y-98411400D01*
X128064122Y-98445410D01*
X128124577Y-98447783D01*
X128174864Y-98414181D01*
X128196110Y-98352909D01*
X128197623Y-98351600D01*
X128199512Y-98352255D01*
G37*
G36*
X132875602Y-98214003D02*
G01*
X132875992Y-98215965D01*
X132875669Y-98216560D01*
X132838178Y-98264118D01*
X132835803Y-98324573D01*
X132869579Y-98375122D01*
X132874895Y-98378985D01*
X132875708Y-98380812D01*
X132874532Y-98382430D01*
X132873329Y-98382565D01*
X132835301Y-98375000D01*
X132160699Y-98375000D01*
X132122292Y-98382640D01*
X132120398Y-98381997D01*
X132120008Y-98380035D01*
X132120331Y-98379440D01*
X132157822Y-98331882D01*
X132160197Y-98271427D01*
X132126421Y-98220878D01*
X132121105Y-98217015D01*
X132120292Y-98215188D01*
X132121468Y-98213570D01*
X132122671Y-98213435D01*
X132160699Y-98221000D01*
X132835301Y-98221000D01*
X132873708Y-98213360D01*
X132875602Y-98214003D01*
G37*
G36*
X127975602Y-98214003D02*
G01*
X127975992Y-98215965D01*
X127975669Y-98216560D01*
X127938178Y-98264118D01*
X127935803Y-98324573D01*
X127969579Y-98375122D01*
X127974895Y-98378985D01*
X127975708Y-98380812D01*
X127974532Y-98382430D01*
X127973329Y-98382565D01*
X127935301Y-98375000D01*
X127260699Y-98375000D01*
X127222292Y-98382640D01*
X127220398Y-98381997D01*
X127220008Y-98380035D01*
X127220331Y-98379440D01*
X127257822Y-98331882D01*
X127260197Y-98271427D01*
X127226421Y-98220878D01*
X127221105Y-98217015D01*
X127220292Y-98215188D01*
X127221468Y-98213570D01*
X127222671Y-98213435D01*
X127260699Y-98221000D01*
X127935301Y-98221000D01*
X127973708Y-98213360D01*
X127975602Y-98214003D01*
G37*
G36*
X131899902Y-97852948D02*
G01*
X131918798Y-97911104D01*
X131967747Y-97946668D01*
X132028227Y-97946668D01*
X132075259Y-97911067D01*
X132077243Y-97910819D01*
X132078451Y-97912414D01*
X132078129Y-97913773D01*
X132058449Y-97943227D01*
X132050000Y-97985699D01*
X132050000Y-98110301D01*
X132058449Y-98152773D01*
X132077922Y-98181918D01*
X132078053Y-98183914D01*
X132076390Y-98185025D01*
X132075021Y-98184600D01*
X132031878Y-98150590D01*
X131971423Y-98148217D01*
X131921136Y-98181819D01*
X131899890Y-98243090D01*
X131898377Y-98244399D01*
X131896488Y-98243744D01*
X131896000Y-98242435D01*
X131896000Y-97853566D01*
X131897000Y-97851834D01*
X131899000Y-97851834D01*
X131899902Y-97852948D01*
G37*
G36*
X128199512Y-97852254D02*
G01*
X128200000Y-97853563D01*
X128200000Y-98242436D01*
X128199000Y-98244168D01*
X128197000Y-98244168D01*
X128196098Y-98243054D01*
X128177200Y-98184895D01*
X128128252Y-98149332D01*
X128067771Y-98149333D01*
X128020740Y-98184935D01*
X128018756Y-98185183D01*
X128017548Y-98183588D01*
X128017870Y-98182229D01*
X128037551Y-98152773D01*
X128046000Y-98110301D01*
X128046000Y-97985699D01*
X128037551Y-97943227D01*
X128018078Y-97914082D01*
X128017947Y-97912086D01*
X128019610Y-97910975D01*
X128020979Y-97911400D01*
X128064117Y-97945409D01*
X128124572Y-97947784D01*
X128174861Y-97914183D01*
X128196110Y-97852908D01*
X128197623Y-97851599D01*
X128199512Y-97852254D01*
G37*
G36*
X127975602Y-97714003D02*
G01*
X127975992Y-97715965D01*
X127975669Y-97716560D01*
X127938178Y-97764118D01*
X127935803Y-97824573D01*
X127969579Y-97875122D01*
X127974895Y-97878985D01*
X127975708Y-97880812D01*
X127974532Y-97882430D01*
X127973329Y-97882565D01*
X127935301Y-97875000D01*
X127260699Y-97875000D01*
X127222292Y-97882640D01*
X127220398Y-97881997D01*
X127220008Y-97880035D01*
X127220331Y-97879440D01*
X127257822Y-97831882D01*
X127260197Y-97771427D01*
X127226421Y-97720878D01*
X127221105Y-97717015D01*
X127220292Y-97715188D01*
X127221468Y-97713570D01*
X127222671Y-97713435D01*
X127260699Y-97721000D01*
X127935301Y-97721000D01*
X127973708Y-97713360D01*
X127975602Y-97714003D01*
G37*
G36*
X132875602Y-97714003D02*
G01*
X132875992Y-97715965D01*
X132875669Y-97716560D01*
X132838178Y-97764118D01*
X132835803Y-97824573D01*
X132869579Y-97875122D01*
X132874895Y-97878985D01*
X132875708Y-97880812D01*
X132874532Y-97882430D01*
X132873329Y-97882565D01*
X132835301Y-97875000D01*
X132160699Y-97875000D01*
X132122292Y-97882640D01*
X132120398Y-97881997D01*
X132120008Y-97880035D01*
X132120331Y-97879440D01*
X132157822Y-97831882D01*
X132160197Y-97771427D01*
X132126421Y-97720878D01*
X132121105Y-97717015D01*
X132120292Y-97715188D01*
X132121468Y-97713570D01*
X132122671Y-97713435D01*
X132160699Y-97721000D01*
X132835301Y-97721000D01*
X132873708Y-97713360D01*
X132875602Y-97714003D01*
G37*
G36*
X131899902Y-97352948D02*
G01*
X131918798Y-97411104D01*
X131967747Y-97446668D01*
X132028227Y-97446668D01*
X132075259Y-97411067D01*
X132077243Y-97410819D01*
X132078451Y-97412414D01*
X132078129Y-97413773D01*
X132058449Y-97443227D01*
X132050000Y-97485699D01*
X132050000Y-97610301D01*
X132058449Y-97652773D01*
X132077922Y-97681918D01*
X132078053Y-97683914D01*
X132076390Y-97685025D01*
X132075021Y-97684600D01*
X132031878Y-97650590D01*
X131971423Y-97648217D01*
X131921136Y-97681819D01*
X131899890Y-97743089D01*
X131898377Y-97744398D01*
X131896488Y-97743743D01*
X131896000Y-97742434D01*
X131896000Y-97353566D01*
X131897000Y-97351834D01*
X131899000Y-97351834D01*
X131899902Y-97352948D01*
G37*
G36*
X128199512Y-97352254D02*
G01*
X128200000Y-97353563D01*
X128200000Y-97742437D01*
X128199000Y-97744169D01*
X128197000Y-97744169D01*
X128196098Y-97743055D01*
X128177201Y-97684896D01*
X128128252Y-97649332D01*
X128067772Y-97649332D01*
X128020741Y-97684935D01*
X128018757Y-97685183D01*
X128017549Y-97683588D01*
X128017871Y-97682229D01*
X128037551Y-97652773D01*
X128046000Y-97610301D01*
X128046000Y-97485699D01*
X128037551Y-97443227D01*
X128018078Y-97414082D01*
X128017947Y-97412086D01*
X128019610Y-97410975D01*
X128020979Y-97411400D01*
X128064117Y-97445409D01*
X128124572Y-97447784D01*
X128174861Y-97414183D01*
X128196110Y-97352908D01*
X128197623Y-97351599D01*
X128199512Y-97352254D01*
G37*
G36*
X132875602Y-97214003D02*
G01*
X132875992Y-97215965D01*
X132875669Y-97216560D01*
X132838178Y-97264118D01*
X132835803Y-97324573D01*
X132869579Y-97375122D01*
X132874895Y-97378985D01*
X132875708Y-97380812D01*
X132874532Y-97382430D01*
X132873329Y-97382565D01*
X132835301Y-97375000D01*
X132160699Y-97375000D01*
X132122292Y-97382640D01*
X132120398Y-97381997D01*
X132120008Y-97380035D01*
X132120331Y-97379440D01*
X132157822Y-97331882D01*
X132160197Y-97271427D01*
X132126421Y-97220878D01*
X132121105Y-97217015D01*
X132120292Y-97215188D01*
X132121468Y-97213570D01*
X132122671Y-97213435D01*
X132160699Y-97221000D01*
X132835301Y-97221000D01*
X132873708Y-97213360D01*
X132875602Y-97214003D01*
G37*
G36*
X127975602Y-97214003D02*
G01*
X127975992Y-97215965D01*
X127975669Y-97216560D01*
X127938178Y-97264118D01*
X127935803Y-97324573D01*
X127969579Y-97375122D01*
X127974895Y-97378985D01*
X127975708Y-97380812D01*
X127974532Y-97382430D01*
X127973329Y-97382565D01*
X127935301Y-97375000D01*
X127260699Y-97375000D01*
X127222292Y-97382640D01*
X127220398Y-97381997D01*
X127220008Y-97380035D01*
X127220331Y-97379440D01*
X127257822Y-97331882D01*
X127260197Y-97271427D01*
X127226421Y-97220878D01*
X127221105Y-97217015D01*
X127220292Y-97215188D01*
X127221468Y-97213570D01*
X127222671Y-97213435D01*
X127260699Y-97221000D01*
X127935301Y-97221000D01*
X127973708Y-97213360D01*
X127975602Y-97214003D01*
G37*
G36*
X131899902Y-96852949D02*
G01*
X131918798Y-96911105D01*
X131967747Y-96946669D01*
X132028227Y-96946669D01*
X132075259Y-96911066D01*
X132077243Y-96910818D01*
X132078451Y-96912413D01*
X132078129Y-96913772D01*
X132058449Y-96943227D01*
X132050000Y-96985699D01*
X132050000Y-97110301D01*
X132058449Y-97152773D01*
X132077922Y-97181918D01*
X132078053Y-97183914D01*
X132076390Y-97185025D01*
X132075021Y-97184600D01*
X132031878Y-97150590D01*
X131971423Y-97148217D01*
X131921136Y-97181819D01*
X131899890Y-97243089D01*
X131898377Y-97244398D01*
X131896488Y-97243743D01*
X131896000Y-97242434D01*
X131896000Y-96853567D01*
X131897000Y-96851835D01*
X131899000Y-96851835D01*
X131899902Y-96852949D01*
G37*
G36*
X128199512Y-96852253D02*
G01*
X128200000Y-96853562D01*
X128200000Y-97242437D01*
X128199000Y-97244169D01*
X128197000Y-97244169D01*
X128196098Y-97243055D01*
X128177201Y-97184896D01*
X128128252Y-97149332D01*
X128067772Y-97149332D01*
X128020741Y-97184935D01*
X128018757Y-97185183D01*
X128017549Y-97183588D01*
X128017871Y-97182229D01*
X128037551Y-97152773D01*
X128046000Y-97110301D01*
X128046000Y-96985699D01*
X128037551Y-96943227D01*
X128018078Y-96914082D01*
X128017947Y-96912086D01*
X128019610Y-96910975D01*
X128020979Y-96911400D01*
X128064120Y-96945409D01*
X128124575Y-96947782D01*
X128174863Y-96914181D01*
X128196110Y-96852907D01*
X128197623Y-96851598D01*
X128199512Y-96852253D01*
G37*
G36*
X127975602Y-96714003D02*
G01*
X127975992Y-96715965D01*
X127975669Y-96716560D01*
X127938178Y-96764118D01*
X127935803Y-96824573D01*
X127969579Y-96875122D01*
X127974895Y-96878985D01*
X127975708Y-96880812D01*
X127974532Y-96882430D01*
X127973329Y-96882565D01*
X127935301Y-96875000D01*
X127260699Y-96875000D01*
X127222292Y-96882640D01*
X127220398Y-96881997D01*
X127220008Y-96880035D01*
X127220331Y-96879440D01*
X127257822Y-96831882D01*
X127260197Y-96771427D01*
X127226421Y-96720878D01*
X127221105Y-96717015D01*
X127220292Y-96715188D01*
X127221468Y-96713570D01*
X127222671Y-96713435D01*
X127260699Y-96721000D01*
X127935301Y-96721000D01*
X127973708Y-96713360D01*
X127975602Y-96714003D01*
G37*
G36*
X132875602Y-96714003D02*
G01*
X132875992Y-96715965D01*
X132875669Y-96716560D01*
X132838178Y-96764118D01*
X132835803Y-96824573D01*
X132869579Y-96875122D01*
X132874895Y-96878985D01*
X132875708Y-96880812D01*
X132874532Y-96882430D01*
X132873329Y-96882565D01*
X132835301Y-96875000D01*
X132160699Y-96875000D01*
X132122292Y-96882640D01*
X132120398Y-96881997D01*
X132120008Y-96880035D01*
X132120331Y-96879440D01*
X132157822Y-96831882D01*
X132160197Y-96771427D01*
X132126421Y-96720878D01*
X132121105Y-96717015D01*
X132120292Y-96715188D01*
X132121468Y-96713570D01*
X132122671Y-96713435D01*
X132160699Y-96721000D01*
X132835301Y-96721000D01*
X132873708Y-96713360D01*
X132875602Y-96714003D01*
G37*
G36*
X132057378Y-96446488D02*
G01*
X132057546Y-96447763D01*
X132050000Y-96485699D01*
X132050000Y-96610301D01*
X132058449Y-96652773D01*
X132077922Y-96681918D01*
X132078053Y-96683914D01*
X132076390Y-96685025D01*
X132075021Y-96684600D01*
X132031880Y-96650590D01*
X131971425Y-96648215D01*
X131921137Y-96681817D01*
X131899890Y-96743088D01*
X131898377Y-96744397D01*
X131896488Y-96743742D01*
X131896000Y-96742433D01*
X131896000Y-96498199D01*
X131892309Y-96479645D01*
X131884483Y-96467932D01*
X131884352Y-96465936D01*
X131886015Y-96464825D01*
X131887257Y-96465158D01*
X131891227Y-96467811D01*
X131891354Y-96467903D01*
X131929851Y-96498252D01*
X131990306Y-96500627D01*
X132040684Y-96466966D01*
X132044663Y-96458336D01*
X132046296Y-96457181D01*
X132046578Y-96457253D01*
X132053921Y-96446262D01*
X132055715Y-96445377D01*
X132057378Y-96446488D01*
G37*
G36*
X128042079Y-96446262D02*
G01*
X128049229Y-96456963D01*
X128050807Y-96455909D01*
X128052803Y-96455778D01*
X128053663Y-96456595D01*
X128065821Y-96478300D01*
X128120768Y-96503624D01*
X128180192Y-96491798D01*
X128208007Y-96466085D01*
X128209958Y-96465644D01*
X128211316Y-96467113D01*
X128211028Y-96468665D01*
X128203691Y-96479645D01*
X128200000Y-96498199D01*
X128200000Y-96742438D01*
X128199000Y-96744170D01*
X128197000Y-96744170D01*
X128196098Y-96743056D01*
X128177201Y-96684897D01*
X128128252Y-96649333D01*
X128067772Y-96649333D01*
X128020741Y-96684934D01*
X128018757Y-96685182D01*
X128017549Y-96683587D01*
X128017871Y-96682228D01*
X128037551Y-96652773D01*
X128046000Y-96610301D01*
X128046000Y-96485699D01*
X128038454Y-96447763D01*
X128039097Y-96445869D01*
X128041059Y-96445479D01*
X128042079Y-96446262D01*
G37*
G36*
X128435025Y-96269610D02*
G01*
X128434600Y-96270979D01*
X128400590Y-96314120D01*
X128398215Y-96374575D01*
X128431817Y-96424863D01*
X128493088Y-96446110D01*
X128494397Y-96447623D01*
X128493742Y-96449512D01*
X128492433Y-96450000D01*
X128248199Y-96450000D01*
X128229645Y-96453691D01*
X128217932Y-96461517D01*
X128215936Y-96461648D01*
X128214825Y-96459985D01*
X128215158Y-96458743D01*
X128217811Y-96454773D01*
X128217903Y-96454646D01*
X128248252Y-96416149D01*
X128250627Y-96355694D01*
X128216966Y-96305316D01*
X128208336Y-96301337D01*
X128207181Y-96299704D01*
X128207253Y-96299422D01*
X128196262Y-96292079D01*
X128195377Y-96290285D01*
X128196488Y-96288622D01*
X128197763Y-96288454D01*
X128235699Y-96296000D01*
X128360301Y-96296000D01*
X128402773Y-96287551D01*
X128431918Y-96268078D01*
X128433914Y-96267947D01*
X128435025Y-96269610D01*
G37*
G36*
X131663772Y-96267871D02*
G01*
X131693227Y-96287551D01*
X131735699Y-96296000D01*
X131860301Y-96296000D01*
X131898237Y-96288454D01*
X131900131Y-96289097D01*
X131900521Y-96291059D01*
X131899738Y-96292079D01*
X131889037Y-96299229D01*
X131890091Y-96300807D01*
X131890222Y-96302803D01*
X131889405Y-96303663D01*
X131867700Y-96315821D01*
X131842376Y-96370768D01*
X131854202Y-96430192D01*
X131879915Y-96458007D01*
X131880356Y-96459958D01*
X131878887Y-96461316D01*
X131877335Y-96461028D01*
X131866355Y-96453691D01*
X131847801Y-96450000D01*
X131603562Y-96450000D01*
X131601830Y-96449000D01*
X131601830Y-96447000D01*
X131602944Y-96446098D01*
X131661103Y-96427201D01*
X131696667Y-96378252D01*
X131696667Y-96317772D01*
X131661066Y-96270741D01*
X131660818Y-96268757D01*
X131662413Y-96267549D01*
X131663772Y-96267871D01*
G37*
G36*
X128663772Y-96267871D02*
G01*
X128693227Y-96287551D01*
X128735699Y-96296000D01*
X128860301Y-96296000D01*
X128902773Y-96287551D01*
X128931918Y-96268078D01*
X128933914Y-96267947D01*
X128935025Y-96269610D01*
X128934600Y-96270979D01*
X128900590Y-96314122D01*
X128898217Y-96374577D01*
X128931819Y-96424864D01*
X128993089Y-96446110D01*
X128994398Y-96447623D01*
X128993743Y-96449512D01*
X128992434Y-96450000D01*
X128603567Y-96450000D01*
X128601835Y-96449000D01*
X128601835Y-96447000D01*
X128602949Y-96446098D01*
X128661105Y-96427202D01*
X128696669Y-96378253D01*
X128696669Y-96317773D01*
X128661066Y-96270741D01*
X128660818Y-96268757D01*
X128662413Y-96267549D01*
X128663772Y-96267871D01*
G37*
G36*
X129663773Y-96267871D02*
G01*
X129693227Y-96287551D01*
X129735699Y-96296000D01*
X129860301Y-96296000D01*
X129902773Y-96287551D01*
X129931918Y-96268078D01*
X129933914Y-96267947D01*
X129935025Y-96269610D01*
X129934600Y-96270979D01*
X129900590Y-96314122D01*
X129898217Y-96374577D01*
X129931819Y-96424864D01*
X129993090Y-96446110D01*
X129994399Y-96447623D01*
X129993744Y-96449512D01*
X129992435Y-96450000D01*
X129603566Y-96450000D01*
X129601834Y-96449000D01*
X129601834Y-96447000D01*
X129602948Y-96446098D01*
X129661104Y-96427202D01*
X129696668Y-96378253D01*
X129696668Y-96317773D01*
X129661067Y-96270741D01*
X129660819Y-96268757D01*
X129662414Y-96267549D01*
X129663773Y-96267871D01*
G37*
G36*
X129163773Y-96267871D02*
G01*
X129193227Y-96287551D01*
X129235699Y-96296000D01*
X129360301Y-96296000D01*
X129402773Y-96287551D01*
X129431918Y-96268078D01*
X129433914Y-96267947D01*
X129435025Y-96269610D01*
X129434600Y-96270979D01*
X129400590Y-96314122D01*
X129398217Y-96374577D01*
X129431819Y-96424864D01*
X129493089Y-96446110D01*
X129494398Y-96447623D01*
X129493743Y-96449512D01*
X129492434Y-96450000D01*
X129103566Y-96450000D01*
X129101834Y-96449000D01*
X129101834Y-96447000D01*
X129102948Y-96446098D01*
X129161104Y-96427202D01*
X129196668Y-96378253D01*
X129196668Y-96317773D01*
X129161067Y-96270741D01*
X129160819Y-96268757D01*
X129162414Y-96267549D01*
X129163773Y-96267871D01*
G37*
G36*
X130163771Y-96267870D02*
G01*
X130193227Y-96287551D01*
X130235699Y-96296000D01*
X130360301Y-96296000D01*
X130402773Y-96287551D01*
X130431918Y-96268078D01*
X130433914Y-96267947D01*
X130435025Y-96269610D01*
X130434600Y-96270979D01*
X130400591Y-96314117D01*
X130398216Y-96374572D01*
X130431817Y-96424861D01*
X130492775Y-96446000D01*
X130603247Y-96446000D01*
X130661104Y-96427201D01*
X130696668Y-96378252D01*
X130696668Y-96317772D01*
X130661065Y-96270741D01*
X130660817Y-96268757D01*
X130662412Y-96267549D01*
X130663771Y-96267871D01*
X130693227Y-96287551D01*
X130735699Y-96296000D01*
X130860301Y-96296000D01*
X130902773Y-96287551D01*
X130931918Y-96268078D01*
X130933914Y-96267947D01*
X130935025Y-96269610D01*
X130934600Y-96270979D01*
X130900591Y-96314117D01*
X130898216Y-96374572D01*
X130931817Y-96424861D01*
X130992775Y-96446000D01*
X131103247Y-96446000D01*
X131161104Y-96427201D01*
X131196668Y-96378252D01*
X131196668Y-96317772D01*
X131161065Y-96270741D01*
X131160817Y-96268757D01*
X131162412Y-96267549D01*
X131163771Y-96267871D01*
X131193227Y-96287551D01*
X131235699Y-96296000D01*
X131360301Y-96296000D01*
X131402773Y-96287551D01*
X131431918Y-96268078D01*
X131433914Y-96267947D01*
X131435025Y-96269610D01*
X131434600Y-96270979D01*
X131400591Y-96314120D01*
X131398218Y-96374575D01*
X131431819Y-96424863D01*
X131493093Y-96446110D01*
X131494402Y-96447623D01*
X131493747Y-96449512D01*
X131492438Y-96450000D01*
X130103564Y-96450000D01*
X130101832Y-96449000D01*
X130101832Y-96447000D01*
X130102946Y-96446098D01*
X130161105Y-96427200D01*
X130196668Y-96378252D01*
X130196667Y-96317771D01*
X130161065Y-96270740D01*
X130160817Y-96268756D01*
X130162412Y-96267548D01*
X130163771Y-96267870D01*
G37*
G36*
X130466560Y-95470331D02*
G01*
X130514118Y-95507822D01*
X130574573Y-95510197D01*
X130625122Y-95476421D01*
X130628985Y-95471105D01*
X130630812Y-95470292D01*
X130632430Y-95471468D01*
X130632565Y-95472671D01*
X130625000Y-95510699D01*
X130625000Y-96185301D01*
X130632640Y-96223708D01*
X130631997Y-96225602D01*
X130630035Y-96225992D01*
X130629440Y-96225669D01*
X130581882Y-96188178D01*
X130521427Y-96185803D01*
X130470878Y-96219579D01*
X130467015Y-96224895D01*
X130465188Y-96225708D01*
X130463570Y-96224532D01*
X130463435Y-96223329D01*
X130471000Y-96185301D01*
X130471000Y-95510699D01*
X130463360Y-95472292D01*
X130464003Y-95470398D01*
X130465965Y-95470008D01*
X130466560Y-95470331D01*
G37*
G36*
X130966560Y-95470331D02*
G01*
X131014118Y-95507822D01*
X131074573Y-95510197D01*
X131125122Y-95476421D01*
X131128985Y-95471105D01*
X131130812Y-95470292D01*
X131132430Y-95471468D01*
X131132565Y-95472671D01*
X131125000Y-95510699D01*
X131125000Y-96185301D01*
X131132640Y-96223708D01*
X131131997Y-96225602D01*
X131130035Y-96225992D01*
X131129440Y-96225669D01*
X131081882Y-96188178D01*
X131021427Y-96185803D01*
X130970878Y-96219579D01*
X130967015Y-96224895D01*
X130965188Y-96225708D01*
X130963570Y-96224532D01*
X130963435Y-96223329D01*
X130971000Y-96185301D01*
X130971000Y-95510699D01*
X130963360Y-95472292D01*
X130964003Y-95470398D01*
X130965965Y-95470008D01*
X130966560Y-95470331D01*
G37*
G36*
X128466560Y-95470331D02*
G01*
X128514118Y-95507822D01*
X128574573Y-95510197D01*
X128625122Y-95476421D01*
X128628985Y-95471105D01*
X128630812Y-95470292D01*
X128632430Y-95471468D01*
X128632565Y-95472671D01*
X128625000Y-95510699D01*
X128625000Y-96185301D01*
X128632640Y-96223708D01*
X128631997Y-96225602D01*
X128630035Y-96225992D01*
X128629440Y-96225669D01*
X128581882Y-96188178D01*
X128521427Y-96185803D01*
X128470878Y-96219579D01*
X128467015Y-96224895D01*
X128465188Y-96225708D01*
X128463570Y-96224532D01*
X128463435Y-96223329D01*
X128471000Y-96185301D01*
X128471000Y-95510699D01*
X128463360Y-95472292D01*
X128464003Y-95470398D01*
X128465965Y-95470008D01*
X128466560Y-95470331D01*
G37*
G36*
X131466560Y-95470331D02*
G01*
X131514118Y-95507822D01*
X131574573Y-95510197D01*
X131625122Y-95476421D01*
X131628985Y-95471105D01*
X131630812Y-95470292D01*
X131632430Y-95471468D01*
X131632565Y-95472671D01*
X131625000Y-95510699D01*
X131625000Y-96185301D01*
X131632640Y-96223708D01*
X131631997Y-96225602D01*
X131630035Y-96225992D01*
X131629440Y-96225669D01*
X131581882Y-96188178D01*
X131521427Y-96185803D01*
X131470878Y-96219579D01*
X131467015Y-96224895D01*
X131465188Y-96225708D01*
X131463570Y-96224532D01*
X131463435Y-96223329D01*
X131471000Y-96185301D01*
X131471000Y-95510699D01*
X131463360Y-95472292D01*
X131464003Y-95470398D01*
X131465965Y-95470008D01*
X131466560Y-95470331D01*
G37*
G36*
X128966560Y-95470331D02*
G01*
X129014118Y-95507822D01*
X129074573Y-95510197D01*
X129125122Y-95476421D01*
X129128985Y-95471105D01*
X129130812Y-95470292D01*
X129132430Y-95471468D01*
X129132565Y-95472671D01*
X129125000Y-95510699D01*
X129125000Y-96185301D01*
X129132640Y-96223708D01*
X129131997Y-96225602D01*
X129130035Y-96225992D01*
X129129440Y-96225669D01*
X129081882Y-96188178D01*
X129021427Y-96185803D01*
X128970878Y-96219579D01*
X128967015Y-96224895D01*
X128965188Y-96225708D01*
X128963570Y-96224532D01*
X128963435Y-96223329D01*
X128971000Y-96185301D01*
X128971000Y-95510699D01*
X128963360Y-95472292D01*
X128964003Y-95470398D01*
X128965965Y-95470008D01*
X128966560Y-95470331D01*
G37*
G36*
X129966560Y-95470331D02*
G01*
X130014118Y-95507822D01*
X130074573Y-95510197D01*
X130125122Y-95476421D01*
X130128985Y-95471105D01*
X130130812Y-95470292D01*
X130132430Y-95471468D01*
X130132565Y-95472671D01*
X130125000Y-95510699D01*
X130125000Y-96185301D01*
X130132640Y-96223708D01*
X130131997Y-96225602D01*
X130130035Y-96225992D01*
X130129440Y-96225669D01*
X130081882Y-96188178D01*
X130021427Y-96185803D01*
X129970878Y-96219579D01*
X129967015Y-96224895D01*
X129965188Y-96225708D01*
X129963570Y-96224532D01*
X129963435Y-96223329D01*
X129971000Y-96185301D01*
X129971000Y-95510699D01*
X129963360Y-95472292D01*
X129964003Y-95470398D01*
X129965965Y-95470008D01*
X129966560Y-95470331D01*
G37*
G36*
X129466560Y-95470331D02*
G01*
X129514118Y-95507822D01*
X129574573Y-95510197D01*
X129625122Y-95476421D01*
X129628985Y-95471105D01*
X129630812Y-95470292D01*
X129632430Y-95471468D01*
X129632565Y-95472671D01*
X129625000Y-95510699D01*
X129625000Y-96185301D01*
X129632640Y-96223708D01*
X129631997Y-96225602D01*
X129630035Y-96225992D01*
X129629440Y-96225669D01*
X129581882Y-96188178D01*
X129521427Y-96185803D01*
X129470878Y-96219579D01*
X129467015Y-96224895D01*
X129465188Y-96225708D01*
X129463570Y-96224532D01*
X129463435Y-96223329D01*
X129471000Y-96185301D01*
X129471000Y-95510699D01*
X129463360Y-95472292D01*
X129464003Y-95470398D01*
X129465965Y-95470008D01*
X129466560Y-95470331D01*
G37*
G36*
X145031256Y-94861157D02*
G01*
X145032290Y-94861848D01*
X145090883Y-94878374D01*
X145141676Y-94861871D01*
X145142744Y-94861157D01*
X145144739Y-94861026D01*
X145145851Y-94862689D01*
X145145518Y-94863931D01*
X145137691Y-94875645D01*
X145134000Y-94894199D01*
X145134000Y-95193801D01*
X145137691Y-95212355D01*
X145148087Y-95227913D01*
X145163645Y-95238309D01*
X145182199Y-95242000D01*
X145431801Y-95242000D01*
X145450355Y-95238309D01*
X145465913Y-95227913D01*
X145468985Y-95223316D01*
X145470779Y-95222431D01*
X145472442Y-95223542D01*
X145472573Y-95224970D01*
X145457649Y-95277883D01*
X145472050Y-95322208D01*
X145471634Y-95324164D01*
X145469732Y-95324782D01*
X145468485Y-95323937D01*
X145465913Y-95320087D01*
X145450355Y-95309691D01*
X145431801Y-95306000D01*
X145182199Y-95306000D01*
X145163645Y-95309691D01*
X145148087Y-95320087D01*
X145137691Y-95335645D01*
X145134000Y-95354199D01*
X145134000Y-95653801D01*
X145137691Y-95672355D01*
X145148087Y-95687913D01*
X145163645Y-95698309D01*
X145182199Y-95702000D01*
X145431801Y-95702000D01*
X145450355Y-95698309D01*
X145465913Y-95687913D01*
X145468985Y-95683316D01*
X145470779Y-95682431D01*
X145472442Y-95683542D01*
X145472573Y-95684970D01*
X145457649Y-95737883D01*
X145472050Y-95782208D01*
X145471634Y-95784164D01*
X145469732Y-95784782D01*
X145468485Y-95783937D01*
X145465913Y-95780087D01*
X145450355Y-95769691D01*
X145431801Y-95766000D01*
X145182199Y-95766000D01*
X145163645Y-95769691D01*
X145148087Y-95780087D01*
X145137691Y-95795645D01*
X145134000Y-95814199D01*
X145134000Y-96113801D01*
X145137691Y-96132355D01*
X145145518Y-96144069D01*
X145145649Y-96146065D01*
X145143986Y-96147176D01*
X145142744Y-96146843D01*
X145141710Y-96146152D01*
X145083117Y-96129626D01*
X145032324Y-96146129D01*
X145031256Y-96146843D01*
X145029261Y-96146974D01*
X145028149Y-96145311D01*
X145028482Y-96144069D01*
X145036309Y-96132355D01*
X145040000Y-96113801D01*
X145040000Y-95814199D01*
X145036309Y-95795645D01*
X145025913Y-95780087D01*
X145010355Y-95769691D01*
X144991801Y-95766000D01*
X144742199Y-95766000D01*
X144723645Y-95769691D01*
X144708087Y-95780087D01*
X144705015Y-95784684D01*
X144703221Y-95785569D01*
X144701558Y-95784458D01*
X144701427Y-95783030D01*
X144716351Y-95730117D01*
X144701950Y-95685792D01*
X144702366Y-95683836D01*
X144704268Y-95683218D01*
X144705515Y-95684063D01*
X144708087Y-95687913D01*
X144723645Y-95698309D01*
X144742199Y-95702000D01*
X144991801Y-95702000D01*
X145010355Y-95698309D01*
X145025913Y-95687913D01*
X145036309Y-95672355D01*
X145040000Y-95653801D01*
X145040000Y-95354199D01*
X145036309Y-95335645D01*
X145025913Y-95320087D01*
X145010355Y-95309691D01*
X144991801Y-95306000D01*
X144742199Y-95306000D01*
X144723645Y-95309691D01*
X144708087Y-95320087D01*
X144705015Y-95324684D01*
X144703221Y-95325569D01*
X144701558Y-95324458D01*
X144701427Y-95323030D01*
X144716351Y-95270117D01*
X144701950Y-95225792D01*
X144702366Y-95223836D01*
X144704268Y-95223218D01*
X144705515Y-95224063D01*
X144708087Y-95227913D01*
X144723645Y-95238309D01*
X144742199Y-95242000D01*
X144991801Y-95242000D01*
X145010355Y-95238309D01*
X145025913Y-95227913D01*
X145036309Y-95212355D01*
X145040000Y-95193801D01*
X145040000Y-94894199D01*
X145036309Y-94875645D01*
X145028482Y-94863931D01*
X145028351Y-94861935D01*
X145030014Y-94860824D01*
X145031256Y-94861157D01*
G37*
G36*
X140668560Y-89272331D02*
G01*
X140716118Y-89309822D01*
X140776573Y-89312197D01*
X140827122Y-89278421D01*
X140830985Y-89273105D01*
X140832812Y-89272292D01*
X140834430Y-89273468D01*
X140834565Y-89274671D01*
X140827000Y-89312699D01*
X140827000Y-90062301D01*
X140834640Y-90100708D01*
X140833997Y-90102602D01*
X140832035Y-90102992D01*
X140831440Y-90102669D01*
X140783882Y-90065178D01*
X140723427Y-90062803D01*
X140672878Y-90096579D01*
X140669015Y-90101895D01*
X140667188Y-90102708D01*
X140665570Y-90101532D01*
X140665435Y-90100329D01*
X140673000Y-90062301D01*
X140673000Y-89312699D01*
X140665360Y-89274292D01*
X140666003Y-89272398D01*
X140667965Y-89272008D01*
X140668560Y-89272331D01*
G37*
G36*
X141168560Y-89272331D02*
G01*
X141216118Y-89309822D01*
X141276573Y-89312197D01*
X141327122Y-89278421D01*
X141330985Y-89273105D01*
X141332812Y-89272292D01*
X141334430Y-89273468D01*
X141334565Y-89274671D01*
X141327000Y-89312699D01*
X141327000Y-90062301D01*
X141334640Y-90100708D01*
X141333997Y-90102602D01*
X141332035Y-90102992D01*
X141331440Y-90102669D01*
X141283882Y-90065178D01*
X141223427Y-90062803D01*
X141172878Y-90096579D01*
X141169015Y-90101895D01*
X141167188Y-90102708D01*
X141165570Y-90101532D01*
X141165435Y-90100329D01*
X141173000Y-90062301D01*
X141173000Y-89312699D01*
X141165360Y-89274292D01*
X141166003Y-89272398D01*
X141167965Y-89272008D01*
X141168560Y-89272331D01*
G37*
G36*
X143168560Y-89272331D02*
G01*
X143216118Y-89309822D01*
X143276573Y-89312197D01*
X143327122Y-89278421D01*
X143330985Y-89273105D01*
X143332812Y-89272292D01*
X143334430Y-89273468D01*
X143334565Y-89274671D01*
X143327000Y-89312699D01*
X143327000Y-90062301D01*
X143334640Y-90100708D01*
X143333997Y-90102602D01*
X143332035Y-90102992D01*
X143331440Y-90102669D01*
X143283882Y-90065178D01*
X143223427Y-90062803D01*
X143172878Y-90096579D01*
X143169015Y-90101895D01*
X143167188Y-90102708D01*
X143165570Y-90101532D01*
X143165435Y-90100329D01*
X143173000Y-90062301D01*
X143173000Y-89312699D01*
X143165360Y-89274292D01*
X143166003Y-89272398D01*
X143167965Y-89272008D01*
X143168560Y-89272331D01*
G37*
G36*
X142668560Y-89272331D02*
G01*
X142716118Y-89309822D01*
X142776573Y-89312197D01*
X142827122Y-89278421D01*
X142830985Y-89273105D01*
X142832812Y-89272292D01*
X142834430Y-89273468D01*
X142834565Y-89274671D01*
X142827000Y-89312699D01*
X142827000Y-90062301D01*
X142834640Y-90100708D01*
X142833997Y-90102602D01*
X142832035Y-90102992D01*
X142831440Y-90102669D01*
X142783882Y-90065178D01*
X142723427Y-90062803D01*
X142672878Y-90096579D01*
X142669015Y-90101895D01*
X142667188Y-90102708D01*
X142665570Y-90101532D01*
X142665435Y-90100329D01*
X142673000Y-90062301D01*
X142673000Y-89312699D01*
X142665360Y-89274292D01*
X142666003Y-89272398D01*
X142667965Y-89272008D01*
X142668560Y-89272331D01*
G37*
G36*
X140168560Y-89272331D02*
G01*
X140216118Y-89309822D01*
X140276573Y-89312197D01*
X140327122Y-89278421D01*
X140330985Y-89273105D01*
X140332812Y-89272292D01*
X140334430Y-89273468D01*
X140334565Y-89274671D01*
X140327000Y-89312699D01*
X140327000Y-90062301D01*
X140334640Y-90100708D01*
X140333997Y-90102602D01*
X140332035Y-90102992D01*
X140331440Y-90102669D01*
X140283882Y-90065178D01*
X140223427Y-90062803D01*
X140172878Y-90096579D01*
X140169015Y-90101895D01*
X140167188Y-90102708D01*
X140165570Y-90101532D01*
X140165435Y-90100329D01*
X140173000Y-90062301D01*
X140173000Y-89312699D01*
X140165360Y-89274292D01*
X140166003Y-89272398D01*
X140167965Y-89272008D01*
X140168560Y-89272331D01*
G37*
G36*
X139668560Y-89272331D02*
G01*
X139716118Y-89309822D01*
X139776573Y-89312197D01*
X139827122Y-89278421D01*
X139830985Y-89273105D01*
X139832812Y-89272292D01*
X139834430Y-89273468D01*
X139834565Y-89274671D01*
X139827000Y-89312699D01*
X139827000Y-90062301D01*
X139834640Y-90100708D01*
X139833997Y-90102602D01*
X139832035Y-90102992D01*
X139831440Y-90102669D01*
X139783882Y-90065178D01*
X139723427Y-90062803D01*
X139672878Y-90096579D01*
X139669015Y-90101895D01*
X139667188Y-90102708D01*
X139665570Y-90101532D01*
X139665435Y-90100329D01*
X139673000Y-90062301D01*
X139673000Y-89312699D01*
X139665360Y-89274292D01*
X139666003Y-89272398D01*
X139667965Y-89272008D01*
X139668560Y-89272331D01*
G37*
G36*
X139168560Y-89272331D02*
G01*
X139216118Y-89309822D01*
X139276573Y-89312197D01*
X139327122Y-89278421D01*
X139330985Y-89273105D01*
X139332812Y-89272292D01*
X139334430Y-89273468D01*
X139334565Y-89274671D01*
X139327000Y-89312699D01*
X139327000Y-90062301D01*
X139334640Y-90100708D01*
X139333997Y-90102602D01*
X139332035Y-90102992D01*
X139331440Y-90102669D01*
X139283882Y-90065178D01*
X139223427Y-90062803D01*
X139172878Y-90096579D01*
X139169015Y-90101895D01*
X139167188Y-90102708D01*
X139165570Y-90101532D01*
X139165435Y-90100329D01*
X139173000Y-90062301D01*
X139173000Y-89312699D01*
X139165360Y-89274292D01*
X139166003Y-89272398D01*
X139167965Y-89272008D01*
X139168560Y-89272331D01*
G37*
G36*
X142168560Y-89272331D02*
G01*
X142216118Y-89309822D01*
X142276573Y-89312197D01*
X142327122Y-89278421D01*
X142330985Y-89273105D01*
X142332812Y-89272292D01*
X142334430Y-89273468D01*
X142334565Y-89274671D01*
X142327000Y-89312699D01*
X142327000Y-90062301D01*
X142334640Y-90100708D01*
X142333997Y-90102602D01*
X142332035Y-90102992D01*
X142331440Y-90102669D01*
X142283882Y-90065178D01*
X142223427Y-90062803D01*
X142172878Y-90096579D01*
X142169015Y-90101895D01*
X142167188Y-90102708D01*
X142165570Y-90101532D01*
X142165435Y-90100329D01*
X142173000Y-90062301D01*
X142173000Y-89312699D01*
X142165360Y-89274292D01*
X142166003Y-89272398D01*
X142167965Y-89272008D01*
X142168560Y-89272331D01*
G37*
G36*
X141668560Y-89272331D02*
G01*
X141716118Y-89309822D01*
X141776573Y-89312197D01*
X141827122Y-89278421D01*
X141830985Y-89273105D01*
X141832812Y-89272292D01*
X141834430Y-89273468D01*
X141834565Y-89274671D01*
X141827000Y-89312699D01*
X141827000Y-90062301D01*
X141834640Y-90100708D01*
X141833997Y-90102602D01*
X141832035Y-90102992D01*
X141831440Y-90102669D01*
X141783882Y-90065178D01*
X141723427Y-90062803D01*
X141672878Y-90096579D01*
X141669015Y-90101895D01*
X141667188Y-90102708D01*
X141665570Y-90101532D01*
X141665435Y-90100329D01*
X141673000Y-90062301D01*
X141673000Y-89312699D01*
X141665360Y-89274292D01*
X141666003Y-89272398D01*
X141667965Y-89272008D01*
X141668560Y-89272331D01*
G37*
G36*
X138727602Y-88666003D02*
G01*
X138727992Y-88667965D01*
X138727669Y-88668560D01*
X138690178Y-88716118D01*
X138687803Y-88776573D01*
X138721579Y-88827122D01*
X138726895Y-88830985D01*
X138727708Y-88832812D01*
X138726532Y-88834430D01*
X138725329Y-88834565D01*
X138687301Y-88827000D01*
X137937699Y-88827000D01*
X137899292Y-88834640D01*
X137897398Y-88833997D01*
X137897008Y-88832035D01*
X137897331Y-88831440D01*
X137934822Y-88783882D01*
X137937197Y-88723427D01*
X137903421Y-88672878D01*
X137898105Y-88669015D01*
X137897292Y-88667188D01*
X137898468Y-88665570D01*
X137899671Y-88665435D01*
X137937699Y-88673000D01*
X138687301Y-88673000D01*
X138725708Y-88665360D01*
X138727602Y-88666003D01*
G37*
G36*
X144602602Y-88666003D02*
G01*
X144602992Y-88667965D01*
X144602669Y-88668560D01*
X144565178Y-88716118D01*
X144562803Y-88776573D01*
X144596579Y-88827122D01*
X144601895Y-88830985D01*
X144602708Y-88832812D01*
X144601532Y-88834430D01*
X144600329Y-88834565D01*
X144562301Y-88827000D01*
X143812699Y-88827000D01*
X143774292Y-88834640D01*
X143772398Y-88833997D01*
X143772008Y-88832035D01*
X143772331Y-88831440D01*
X143809822Y-88783882D01*
X143812197Y-88723427D01*
X143778421Y-88672878D01*
X143773105Y-88669015D01*
X143772292Y-88667188D01*
X143773468Y-88665570D01*
X143774671Y-88665435D01*
X143812699Y-88673000D01*
X144562301Y-88673000D01*
X144600708Y-88665360D01*
X144602602Y-88666003D01*
G37*
G36*
X138727602Y-88166003D02*
G01*
X138727992Y-88167965D01*
X138727669Y-88168560D01*
X138690178Y-88216118D01*
X138687803Y-88276573D01*
X138721579Y-88327122D01*
X138726895Y-88330985D01*
X138727708Y-88332812D01*
X138726532Y-88334430D01*
X138725329Y-88334565D01*
X138687301Y-88327000D01*
X137937699Y-88327000D01*
X137899292Y-88334640D01*
X137897398Y-88333997D01*
X137897008Y-88332035D01*
X137897331Y-88331440D01*
X137934822Y-88283882D01*
X137937197Y-88223427D01*
X137903421Y-88172878D01*
X137898105Y-88169015D01*
X137897292Y-88167188D01*
X137898468Y-88165570D01*
X137899671Y-88165435D01*
X137937699Y-88173000D01*
X138687301Y-88173000D01*
X138725708Y-88165360D01*
X138727602Y-88166003D01*
G37*
G36*
X144602602Y-88166003D02*
G01*
X144602992Y-88167965D01*
X144602669Y-88168560D01*
X144565178Y-88216118D01*
X144562803Y-88276573D01*
X144596579Y-88327122D01*
X144601895Y-88330985D01*
X144602708Y-88332812D01*
X144601532Y-88334430D01*
X144600329Y-88334565D01*
X144562301Y-88327000D01*
X143812699Y-88327000D01*
X143774292Y-88334640D01*
X143772398Y-88333997D01*
X143772008Y-88332035D01*
X143772331Y-88331440D01*
X143809822Y-88283882D01*
X143812197Y-88223427D01*
X143778421Y-88172878D01*
X143773105Y-88169015D01*
X143772292Y-88167188D01*
X143773468Y-88165570D01*
X143774671Y-88165435D01*
X143812699Y-88173000D01*
X144562301Y-88173000D01*
X144600708Y-88165360D01*
X144602602Y-88166003D01*
G37*
G36*
X138727602Y-87666003D02*
G01*
X138727992Y-87667965D01*
X138727669Y-87668560D01*
X138690178Y-87716118D01*
X138687803Y-87776573D01*
X138721579Y-87827122D01*
X138726895Y-87830985D01*
X138727708Y-87832812D01*
X138726532Y-87834430D01*
X138725329Y-87834565D01*
X138687301Y-87827000D01*
X137937699Y-87827000D01*
X137899292Y-87834640D01*
X137897398Y-87833997D01*
X137897008Y-87832035D01*
X137897331Y-87831440D01*
X137934822Y-87783882D01*
X137937197Y-87723427D01*
X137903421Y-87672878D01*
X137898105Y-87669015D01*
X137897292Y-87667188D01*
X137898468Y-87665570D01*
X137899671Y-87665435D01*
X137937699Y-87673000D01*
X138687301Y-87673000D01*
X138725708Y-87665360D01*
X138727602Y-87666003D01*
G37*
G36*
X144602602Y-87666003D02*
G01*
X144602992Y-87667965D01*
X144602669Y-87668560D01*
X144565178Y-87716118D01*
X144562803Y-87776573D01*
X144596579Y-87827122D01*
X144601895Y-87830985D01*
X144602708Y-87832812D01*
X144601532Y-87834430D01*
X144600329Y-87834565D01*
X144562301Y-87827000D01*
X143812699Y-87827000D01*
X143774292Y-87834640D01*
X143772398Y-87833997D01*
X143772008Y-87832035D01*
X143772331Y-87831440D01*
X143809822Y-87783882D01*
X143812197Y-87723427D01*
X143778421Y-87672878D01*
X143773105Y-87669015D01*
X143772292Y-87667188D01*
X143773468Y-87665570D01*
X143774671Y-87665435D01*
X143812699Y-87673000D01*
X144562301Y-87673000D01*
X144600708Y-87665360D01*
X144602602Y-87666003D01*
G37*
G36*
X144602602Y-87166003D02*
G01*
X144602992Y-87167965D01*
X144602669Y-87168560D01*
X144565178Y-87216118D01*
X144562803Y-87276573D01*
X144596579Y-87327122D01*
X144601895Y-87330985D01*
X144602708Y-87332812D01*
X144601532Y-87334430D01*
X144600329Y-87334565D01*
X144562301Y-87327000D01*
X143812699Y-87327000D01*
X143774292Y-87334640D01*
X143772398Y-87333997D01*
X143772008Y-87332035D01*
X143772331Y-87331440D01*
X143809822Y-87283882D01*
X143812197Y-87223427D01*
X143778421Y-87172878D01*
X143773105Y-87169015D01*
X143772292Y-87167188D01*
X143773468Y-87165570D01*
X143774671Y-87165435D01*
X143812699Y-87173000D01*
X144562301Y-87173000D01*
X144600708Y-87165360D01*
X144602602Y-87166003D01*
G37*
G36*
X138727602Y-87166003D02*
G01*
X138727992Y-87167965D01*
X138727669Y-87168560D01*
X138690178Y-87216118D01*
X138687803Y-87276573D01*
X138721579Y-87327122D01*
X138726895Y-87330985D01*
X138727708Y-87332812D01*
X138726532Y-87334430D01*
X138725329Y-87334565D01*
X138687301Y-87327000D01*
X137937699Y-87327000D01*
X137899292Y-87334640D01*
X137897398Y-87333997D01*
X137897008Y-87332035D01*
X137897331Y-87331440D01*
X137934822Y-87283882D01*
X137937197Y-87223427D01*
X137903421Y-87172878D01*
X137898105Y-87169015D01*
X137897292Y-87167188D01*
X137898468Y-87165570D01*
X137899671Y-87165435D01*
X137937699Y-87173000D01*
X138687301Y-87173000D01*
X138725708Y-87165360D01*
X138727602Y-87166003D01*
G37*
G36*
X144602602Y-86666003D02*
G01*
X144602992Y-86667965D01*
X144602669Y-86668560D01*
X144565178Y-86716118D01*
X144562803Y-86776573D01*
X144596579Y-86827122D01*
X144601895Y-86830985D01*
X144602708Y-86832812D01*
X144601532Y-86834430D01*
X144600329Y-86834565D01*
X144562301Y-86827000D01*
X143812699Y-86827000D01*
X143774292Y-86834640D01*
X143772398Y-86833997D01*
X143772008Y-86832035D01*
X143772331Y-86831440D01*
X143809822Y-86783882D01*
X143812197Y-86723427D01*
X143778421Y-86672878D01*
X143773105Y-86669015D01*
X143772292Y-86667188D01*
X143773468Y-86665570D01*
X143774671Y-86665435D01*
X143812699Y-86673000D01*
X144562301Y-86673000D01*
X144600708Y-86665360D01*
X144602602Y-86666003D01*
G37*
G36*
X138727602Y-86666003D02*
G01*
X138727992Y-86667965D01*
X138727669Y-86668560D01*
X138690178Y-86716118D01*
X138687803Y-86776573D01*
X138721579Y-86827122D01*
X138726895Y-86830985D01*
X138727708Y-86832812D01*
X138726532Y-86834430D01*
X138725329Y-86834565D01*
X138687301Y-86827000D01*
X137937699Y-86827000D01*
X137899292Y-86834640D01*
X137897398Y-86833997D01*
X137897008Y-86832035D01*
X137897331Y-86831440D01*
X137934822Y-86783882D01*
X137937197Y-86723427D01*
X137903421Y-86672878D01*
X137898105Y-86669015D01*
X137897292Y-86667188D01*
X137898468Y-86665570D01*
X137899671Y-86665435D01*
X137937699Y-86673000D01*
X138687301Y-86673000D01*
X138725708Y-86665360D01*
X138727602Y-86666003D01*
G37*
G36*
X144602602Y-86166003D02*
G01*
X144602992Y-86167965D01*
X144602669Y-86168560D01*
X144565178Y-86216118D01*
X144562803Y-86276573D01*
X144596579Y-86327122D01*
X144601895Y-86330985D01*
X144602708Y-86332812D01*
X144601532Y-86334430D01*
X144600329Y-86334565D01*
X144562301Y-86327000D01*
X143812699Y-86327000D01*
X143774292Y-86334640D01*
X143772398Y-86333997D01*
X143772008Y-86332035D01*
X143772331Y-86331440D01*
X143809822Y-86283882D01*
X143812197Y-86223427D01*
X143778421Y-86172878D01*
X143773105Y-86169015D01*
X143772292Y-86167188D01*
X143773468Y-86165570D01*
X143774671Y-86165435D01*
X143812699Y-86173000D01*
X144562301Y-86173000D01*
X144600708Y-86165360D01*
X144602602Y-86166003D01*
G37*
G36*
X138727602Y-86166003D02*
G01*
X138727992Y-86167965D01*
X138727669Y-86168560D01*
X138690178Y-86216118D01*
X138687803Y-86276573D01*
X138721579Y-86327122D01*
X138726895Y-86330985D01*
X138727708Y-86332812D01*
X138726532Y-86334430D01*
X138725329Y-86334565D01*
X138687301Y-86327000D01*
X137937699Y-86327000D01*
X137899292Y-86334640D01*
X137897398Y-86333997D01*
X137897008Y-86332035D01*
X137897331Y-86331440D01*
X137934822Y-86283882D01*
X137937197Y-86223427D01*
X137903421Y-86172878D01*
X137898105Y-86169015D01*
X137897292Y-86167188D01*
X137898468Y-86165570D01*
X137899671Y-86165435D01*
X137937699Y-86173000D01*
X138687301Y-86173000D01*
X138725708Y-86165360D01*
X138727602Y-86166003D01*
G37*
G36*
X138727602Y-85666003D02*
G01*
X138727992Y-85667965D01*
X138727669Y-85668560D01*
X138690178Y-85716118D01*
X138687803Y-85776573D01*
X138721579Y-85827122D01*
X138726895Y-85830985D01*
X138727708Y-85832812D01*
X138726532Y-85834430D01*
X138725329Y-85834565D01*
X138687301Y-85827000D01*
X137937699Y-85827000D01*
X137899292Y-85834640D01*
X137897398Y-85833997D01*
X137897008Y-85832035D01*
X137897331Y-85831440D01*
X137934822Y-85783882D01*
X137937197Y-85723427D01*
X137903421Y-85672878D01*
X137898105Y-85669015D01*
X137897292Y-85667188D01*
X137898468Y-85665570D01*
X137899671Y-85665435D01*
X137937699Y-85673000D01*
X138687301Y-85673000D01*
X138725708Y-85665360D01*
X138727602Y-85666003D01*
G37*
G36*
X144602602Y-85666003D02*
G01*
X144602992Y-85667965D01*
X144602669Y-85668560D01*
X144565178Y-85716118D01*
X144562803Y-85776573D01*
X144596579Y-85827122D01*
X144601895Y-85830985D01*
X144602708Y-85832812D01*
X144601532Y-85834430D01*
X144600329Y-85834565D01*
X144562301Y-85827000D01*
X143812699Y-85827000D01*
X143774292Y-85834640D01*
X143772398Y-85833997D01*
X143772008Y-85832035D01*
X143772331Y-85831440D01*
X143809822Y-85783882D01*
X143812197Y-85723427D01*
X143778421Y-85672878D01*
X143773105Y-85669015D01*
X143772292Y-85667188D01*
X143773468Y-85665570D01*
X143774671Y-85665435D01*
X143812699Y-85673000D01*
X144562301Y-85673000D01*
X144600708Y-85665360D01*
X144602602Y-85666003D01*
G37*
G36*
X144602602Y-85166003D02*
G01*
X144602992Y-85167965D01*
X144602669Y-85168560D01*
X144565178Y-85216118D01*
X144562803Y-85276573D01*
X144596579Y-85327122D01*
X144601895Y-85330985D01*
X144602708Y-85332812D01*
X144601532Y-85334430D01*
X144600329Y-85334565D01*
X144562301Y-85327000D01*
X143812699Y-85327000D01*
X143774292Y-85334640D01*
X143772398Y-85333997D01*
X143772008Y-85332035D01*
X143772331Y-85331440D01*
X143809822Y-85283882D01*
X143812197Y-85223427D01*
X143778421Y-85172878D01*
X143773105Y-85169015D01*
X143772292Y-85167188D01*
X143773468Y-85165570D01*
X143774671Y-85165435D01*
X143812699Y-85173000D01*
X144562301Y-85173000D01*
X144600708Y-85165360D01*
X144602602Y-85166003D01*
G37*
G36*
X138727602Y-85166003D02*
G01*
X138727992Y-85167965D01*
X138727669Y-85168560D01*
X138690178Y-85216118D01*
X138687803Y-85276573D01*
X138721579Y-85327122D01*
X138726895Y-85330985D01*
X138727708Y-85332812D01*
X138726532Y-85334430D01*
X138725329Y-85334565D01*
X138687301Y-85327000D01*
X137937699Y-85327000D01*
X137899292Y-85334640D01*
X137897398Y-85333997D01*
X137897008Y-85332035D01*
X137897331Y-85331440D01*
X137934822Y-85283882D01*
X137937197Y-85223427D01*
X137903421Y-85172878D01*
X137898105Y-85169015D01*
X137897292Y-85167188D01*
X137898468Y-85165570D01*
X137899671Y-85165435D01*
X137937699Y-85173000D01*
X138687301Y-85173000D01*
X138725708Y-85165360D01*
X138727602Y-85166003D01*
G37*
G36*
X138727602Y-84666003D02*
G01*
X138727992Y-84667965D01*
X138727669Y-84668560D01*
X138690178Y-84716118D01*
X138687803Y-84776573D01*
X138721579Y-84827122D01*
X138726895Y-84830985D01*
X138727708Y-84832812D01*
X138726532Y-84834430D01*
X138725329Y-84834565D01*
X138687301Y-84827000D01*
X137937699Y-84827000D01*
X137899292Y-84834640D01*
X137897398Y-84833997D01*
X137897008Y-84832035D01*
X137897331Y-84831440D01*
X137934822Y-84783882D01*
X137937197Y-84723427D01*
X137903421Y-84672878D01*
X137898105Y-84669015D01*
X137897292Y-84667188D01*
X137898468Y-84665570D01*
X137899671Y-84665435D01*
X137937699Y-84673000D01*
X138687301Y-84673000D01*
X138725708Y-84665360D01*
X138727602Y-84666003D01*
G37*
G36*
X144602602Y-84666003D02*
G01*
X144602992Y-84667965D01*
X144602669Y-84668560D01*
X144565178Y-84716118D01*
X144562803Y-84776573D01*
X144596579Y-84827122D01*
X144601895Y-84830985D01*
X144602708Y-84832812D01*
X144601532Y-84834430D01*
X144600329Y-84834565D01*
X144562301Y-84827000D01*
X143812699Y-84827000D01*
X143774292Y-84834640D01*
X143772398Y-84833997D01*
X143772008Y-84832035D01*
X143772331Y-84831440D01*
X143809822Y-84783882D01*
X143812197Y-84723427D01*
X143778421Y-84672878D01*
X143773105Y-84669015D01*
X143772292Y-84667188D01*
X143773468Y-84665570D01*
X143774671Y-84665435D01*
X143812699Y-84673000D01*
X144562301Y-84673000D01*
X144600708Y-84665360D01*
X144602602Y-84666003D01*
G37*
G36*
X140168560Y-83397331D02*
G01*
X140216118Y-83434822D01*
X140276573Y-83437197D01*
X140327122Y-83403421D01*
X140330985Y-83398105D01*
X140332812Y-83397292D01*
X140334430Y-83398468D01*
X140334565Y-83399671D01*
X140327000Y-83437699D01*
X140327000Y-84187301D01*
X140334640Y-84225708D01*
X140333997Y-84227602D01*
X140332035Y-84227992D01*
X140331440Y-84227669D01*
X140283882Y-84190178D01*
X140223427Y-84187803D01*
X140172878Y-84221579D01*
X140169015Y-84226895D01*
X140167188Y-84227708D01*
X140165570Y-84226532D01*
X140165435Y-84225329D01*
X140173000Y-84187301D01*
X140173000Y-83437699D01*
X140165360Y-83399292D01*
X140166003Y-83397398D01*
X140167965Y-83397008D01*
X140168560Y-83397331D01*
G37*
G36*
X141168560Y-83397331D02*
G01*
X141216118Y-83434822D01*
X141276573Y-83437197D01*
X141327122Y-83403421D01*
X141330985Y-83398105D01*
X141332812Y-83397292D01*
X141334430Y-83398468D01*
X141334565Y-83399671D01*
X141327000Y-83437699D01*
X141327000Y-84187301D01*
X141334640Y-84225708D01*
X141333997Y-84227602D01*
X141332035Y-84227992D01*
X141331440Y-84227669D01*
X141283882Y-84190178D01*
X141223427Y-84187803D01*
X141172878Y-84221579D01*
X141169015Y-84226895D01*
X141167188Y-84227708D01*
X141165570Y-84226532D01*
X141165435Y-84225329D01*
X141173000Y-84187301D01*
X141173000Y-83437699D01*
X141165360Y-83399292D01*
X141166003Y-83397398D01*
X141167965Y-83397008D01*
X141168560Y-83397331D01*
G37*
G36*
X141668560Y-83397331D02*
G01*
X141716118Y-83434822D01*
X141776573Y-83437197D01*
X141827122Y-83403421D01*
X141830985Y-83398105D01*
X141832812Y-83397292D01*
X141834430Y-83398468D01*
X141834565Y-83399671D01*
X141827000Y-83437699D01*
X141827000Y-84187301D01*
X141834640Y-84225708D01*
X141833997Y-84227602D01*
X141832035Y-84227992D01*
X141831440Y-84227669D01*
X141783882Y-84190178D01*
X141723427Y-84187803D01*
X141672878Y-84221579D01*
X141669015Y-84226895D01*
X141667188Y-84227708D01*
X141665570Y-84226532D01*
X141665435Y-84225329D01*
X141673000Y-84187301D01*
X141673000Y-83437699D01*
X141665360Y-83399292D01*
X141666003Y-83397398D01*
X141667965Y-83397008D01*
X141668560Y-83397331D01*
G37*
G36*
X142668560Y-83397331D02*
G01*
X142716118Y-83434822D01*
X142776573Y-83437197D01*
X142827122Y-83403421D01*
X142830985Y-83398105D01*
X142832812Y-83397292D01*
X142834430Y-83398468D01*
X142834565Y-83399671D01*
X142827000Y-83437699D01*
X142827000Y-84187301D01*
X142834640Y-84225708D01*
X142833997Y-84227602D01*
X142832035Y-84227992D01*
X142831440Y-84227669D01*
X142783882Y-84190178D01*
X142723427Y-84187803D01*
X142672878Y-84221579D01*
X142669015Y-84226895D01*
X142667188Y-84227708D01*
X142665570Y-84226532D01*
X142665435Y-84225329D01*
X142673000Y-84187301D01*
X142673000Y-83437699D01*
X142665360Y-83399292D01*
X142666003Y-83397398D01*
X142667965Y-83397008D01*
X142668560Y-83397331D01*
G37*
G36*
X139668560Y-83397331D02*
G01*
X139716118Y-83434822D01*
X139776573Y-83437197D01*
X139827122Y-83403421D01*
X139830985Y-83398105D01*
X139832812Y-83397292D01*
X139834430Y-83398468D01*
X139834565Y-83399671D01*
X139827000Y-83437699D01*
X139827000Y-84187301D01*
X139834640Y-84225708D01*
X139833997Y-84227602D01*
X139832035Y-84227992D01*
X139831440Y-84227669D01*
X139783882Y-84190178D01*
X139723427Y-84187803D01*
X139672878Y-84221579D01*
X139669015Y-84226895D01*
X139667188Y-84227708D01*
X139665570Y-84226532D01*
X139665435Y-84225329D01*
X139673000Y-84187301D01*
X139673000Y-83437699D01*
X139665360Y-83399292D01*
X139666003Y-83397398D01*
X139667965Y-83397008D01*
X139668560Y-83397331D01*
G37*
G36*
X143168560Y-83397331D02*
G01*
X143216118Y-83434822D01*
X143276573Y-83437197D01*
X143327122Y-83403421D01*
X143330985Y-83398105D01*
X143332812Y-83397292D01*
X143334430Y-83398468D01*
X143334565Y-83399671D01*
X143327000Y-83437699D01*
X143327000Y-84187301D01*
X143334640Y-84225708D01*
X143333997Y-84227602D01*
X143332035Y-84227992D01*
X143331440Y-84227669D01*
X143283882Y-84190178D01*
X143223427Y-84187803D01*
X143172878Y-84221579D01*
X143169015Y-84226895D01*
X143167188Y-84227708D01*
X143165570Y-84226532D01*
X143165435Y-84225329D01*
X143173000Y-84187301D01*
X143173000Y-83437699D01*
X143165360Y-83399292D01*
X143166003Y-83397398D01*
X143167965Y-83397008D01*
X143168560Y-83397331D01*
G37*
G36*
X142168560Y-83397331D02*
G01*
X142216118Y-83434822D01*
X142276573Y-83437197D01*
X142327122Y-83403421D01*
X142330985Y-83398105D01*
X142332812Y-83397292D01*
X142334430Y-83398468D01*
X142334565Y-83399671D01*
X142327000Y-83437699D01*
X142327000Y-84187301D01*
X142334640Y-84225708D01*
X142333997Y-84227602D01*
X142332035Y-84227992D01*
X142331440Y-84227669D01*
X142283882Y-84190178D01*
X142223427Y-84187803D01*
X142172878Y-84221579D01*
X142169015Y-84226895D01*
X142167188Y-84227708D01*
X142165570Y-84226532D01*
X142165435Y-84225329D01*
X142173000Y-84187301D01*
X142173000Y-83437699D01*
X142165360Y-83399292D01*
X142166003Y-83397398D01*
X142167965Y-83397008D01*
X142168560Y-83397331D01*
G37*
G36*
X140668560Y-83397331D02*
G01*
X140716118Y-83434822D01*
X140776573Y-83437197D01*
X140827122Y-83403421D01*
X140830985Y-83398105D01*
X140832812Y-83397292D01*
X140834430Y-83398468D01*
X140834565Y-83399671D01*
X140827000Y-83437699D01*
X140827000Y-84187301D01*
X140834640Y-84225708D01*
X140833997Y-84227602D01*
X140832035Y-84227992D01*
X140831440Y-84227669D01*
X140783882Y-84190178D01*
X140723427Y-84187803D01*
X140672878Y-84221579D01*
X140669015Y-84226895D01*
X140667188Y-84227708D01*
X140665570Y-84226532D01*
X140665435Y-84225329D01*
X140673000Y-84187301D01*
X140673000Y-83437699D01*
X140665360Y-83399292D01*
X140666003Y-83397398D01*
X140667965Y-83397008D01*
X140668560Y-83397331D01*
G37*
G36*
X139168560Y-83397331D02*
G01*
X139216118Y-83434822D01*
X139276573Y-83437197D01*
X139327122Y-83403421D01*
X139330985Y-83398105D01*
X139332812Y-83397292D01*
X139334430Y-83398468D01*
X139334565Y-83399671D01*
X139327000Y-83437699D01*
X139327000Y-84187301D01*
X139334640Y-84225708D01*
X139333997Y-84227602D01*
X139332035Y-84227992D01*
X139331440Y-84227669D01*
X139283882Y-84190178D01*
X139223427Y-84187803D01*
X139172878Y-84221579D01*
X139169015Y-84226895D01*
X139167188Y-84227708D01*
X139165570Y-84226532D01*
X139165435Y-84225329D01*
X139173000Y-84187301D01*
X139173000Y-83437699D01*
X139165360Y-83399292D01*
X139166003Y-83397398D01*
X139167965Y-83397008D01*
X139168560Y-83397331D01*
G37*
M02*
