G04*
G04 #@! TF.GenerationSoftware,Altium Limited,Altium Designer,18.0.12 (696)*
G04*
G04 Layer_Physical_Order=1*
G04 Layer_Color=255*
%FSLAX24Y24*%
%MOIN*%
G70*
G01*
G75*
%ADD11C,0.0060*%
%ADD13R,0.0118X0.0106*%
%ADD14R,0.0106X0.0118*%
%ADD15R,0.0374X0.0335*%
%ADD16R,0.0295X0.0315*%
%ADD17R,0.0236X0.0197*%
%ADD18R,0.0295X0.0551*%
%ADD19C,0.0076*%
%ADD27C,0.0100*%
%ADD28C,0.0080*%
%ADD29C,0.0090*%
%ADD30C,0.0300*%
%ADD31R,0.0150X0.0300*%
%ADD32C,0.0197*%
%ADD33C,0.0118*%
G36*
X1838Y1421D02*
X1819Y1403D01*
X1321D01*
X1301Y1401D01*
X1281Y1397D01*
X1262Y1389D01*
X1245Y1378D01*
X1229Y1365D01*
X1165Y1301D01*
X1148Y1300D01*
X1125Y1295D01*
X1103Y1288D01*
X1082Y1277D01*
X1062Y1264D01*
X1045Y1249D01*
X1029Y1231D01*
X1016Y1212D01*
X1006Y1191D01*
X999Y1169D01*
X994Y1146D01*
X993Y1129D01*
X979Y1115D01*
X966Y1099D01*
X955Y1082D01*
X947Y1063D01*
X942Y1043D01*
X941Y1023D01*
Y860D01*
X885D01*
Y611D01*
X847Y573D01*
X443D01*
X422Y571D01*
X402Y567D01*
X383Y559D01*
X366Y548D01*
X350Y535D01*
X305Y490D01*
X290Y499D01*
X273Y506D01*
X255Y511D01*
X236Y512D01*
X202Y550D01*
X199Y558D01*
Y690D01*
X234Y724D01*
X357D01*
Y704D01*
X526D01*
Y903D01*
Y1101D01*
X357D01*
Y1081D01*
X28D01*
Y1218D01*
X-81D01*
Y1065D01*
X-181D01*
Y1218D01*
X-259D01*
Y1523D01*
X-279D01*
Y1956D01*
X-444D01*
X-448Y1965D01*
X-457Y1980D01*
X-468Y1993D01*
X-523Y2048D01*
X-504Y2094D01*
X1838D01*
Y1421D01*
D02*
G37*
G36*
X-290Y912D02*
X-270D01*
Y708D01*
X-306Y673D01*
X-557Y924D01*
X-558Y926D01*
X-575Y943D01*
X-556Y989D01*
X-290D01*
Y912D01*
D02*
G37*
G36*
X-1087Y2083D02*
X-933D01*
Y1983D01*
X-1087D01*
Y1976D01*
X-1404D01*
Y1738D01*
X-1411D01*
Y1585D01*
X-1461D01*
Y1535D01*
X-1620D01*
Y1432D01*
X-1600D01*
Y1227D01*
X-1484D01*
X-1479Y1226D01*
X-1461Y1224D01*
X-1384D01*
Y1009D01*
X-1124D01*
X-512Y397D01*
X-512Y394D01*
X-511Y375D01*
X-506Y357D01*
X-499Y340D01*
X-490Y324D01*
X-487Y321D01*
X-481Y295D01*
D01*
D01*
Y232D01*
X-456Y207D01*
X-394D01*
Y107D01*
X-456D01*
X-503Y60D01*
X-555D01*
D01*
D01*
X-807D01*
Y210D01*
X-787D01*
Y313D01*
X-1105D01*
Y210D01*
X-1085D01*
Y60D01*
X-1182D01*
Y60D01*
X-1228Y70D01*
X-1239Y80D01*
X-1261Y95D01*
X-1285Y106D01*
X-1309Y115D01*
X-1335Y120D01*
X-1361Y122D01*
X-1571D01*
X-1571Y122D01*
X-1681D01*
Y2094D01*
X-1087D01*
Y2083D01*
D02*
G37*
G36*
X1838Y1124D02*
Y880D01*
X1694D01*
Y623D01*
Y365D01*
X1838D01*
Y200D01*
X1802Y168D01*
X1347D01*
Y-11D01*
X1342Y-19D01*
X1302Y-49D01*
X1297Y-49D01*
X1279Y-48D01*
X1238Y-16D01*
X1231Y-5D01*
Y168D01*
X1064D01*
Y203D01*
X911D01*
Y303D01*
X1064D01*
Y385D01*
X1341D01*
Y860D01*
X1202D01*
Y947D01*
X1218Y950D01*
X1240Y957D01*
X1261Y968D01*
X1280Y981D01*
X1298Y996D01*
X1313Y1014D01*
X1326Y1033D01*
X1336Y1054D01*
X1344Y1076D01*
X1349Y1099D01*
X1350Y1117D01*
X1375Y1142D01*
X1819D01*
X1838Y1124D01*
D02*
G37*
G36*
X1802Y-543D02*
X1838Y-575D01*
Y-1130D01*
X1039D01*
Y-983D01*
X1109D01*
Y-830D01*
X1209D01*
Y-983D01*
X1369D01*
Y-830D01*
X1419D01*
Y-780D01*
X1578D01*
Y-677D01*
X1558D01*
Y-622D01*
X1637Y-543D01*
X1802D01*
D02*
G37*
G36*
X577Y-966D02*
X578Y-968D01*
Y-1130D01*
X389D01*
Y-1010D01*
X396Y-998D01*
X439Y-966D01*
X462Y-965D01*
X485Y-960D01*
X507Y-953D01*
X528Y-942D01*
X528Y-942D01*
X577Y-966D01*
D02*
G37*
G36*
X-618Y-226D02*
X-609Y-268D01*
X-614Y-274D01*
X-623Y-289D01*
X-630Y-305D01*
X-634Y-322D01*
X-635Y-339D01*
Y-1130D01*
X-1681D01*
Y-279D01*
X-1571D01*
X-1571Y-279D01*
X-1361D01*
X-1335Y-278D01*
X-1309Y-272D01*
X-1285Y-264D01*
X-1261Y-252D01*
X-1239Y-238D01*
X-1228Y-228D01*
X-1182Y-218D01*
X-1182Y-218D01*
X-916D01*
Y-218D01*
X-621D01*
X-618Y-226D01*
D02*
G37*
%LPC*%
G36*
X794Y1101D02*
X626D01*
Y953D01*
X794D01*
Y1101D01*
D02*
G37*
G36*
Y853D02*
X626D01*
Y704D01*
X794D01*
Y853D01*
D02*
G37*
G36*
X-1511Y1738D02*
X-1620D01*
Y1635D01*
X-1511D01*
Y1738D01*
D02*
G37*
G36*
X-787Y517D02*
X-896D01*
Y413D01*
X-787D01*
Y517D01*
D02*
G37*
G36*
X-996D02*
X-1105D01*
Y413D01*
X-996D01*
Y517D01*
D02*
G37*
G36*
X1594Y880D02*
X1397D01*
Y673D01*
X1594D01*
Y880D01*
D02*
G37*
G36*
Y573D02*
X1397D01*
Y365D01*
X1594D01*
Y573D01*
D02*
G37*
G36*
X1578Y-880D02*
X1469D01*
Y-983D01*
X1578D01*
Y-880D01*
D02*
G37*
%LPD*%
D11*
X1003Y-450D02*
Y-187D01*
Y-450D02*
X1159Y-605D01*
X1574Y-450D02*
Y-187D01*
X1419Y-605D02*
X1574Y-450D01*
X1279Y-187D02*
X1574D01*
X699Y43D02*
X773D01*
X446Y79D02*
X765Y-240D01*
X434Y-79D02*
X645Y-290D01*
X394Y-79D02*
X434D01*
X525Y-607D02*
Y-339D01*
X422Y-236D02*
X525Y-339D01*
X394Y-236D02*
X422D01*
X765Y-508D02*
Y-240D01*
X645Y-558D02*
Y-290D01*
X394Y79D02*
X446D01*
X773Y43D02*
X1003Y-187D01*
X929Y-1137D02*
Y-672D01*
X765Y-508D02*
X929Y-672D01*
X809Y-1137D02*
Y-721D01*
X645Y-558D02*
X809Y-721D01*
X689Y-1137D02*
Y-771D01*
X525Y-607D02*
X689Y-771D01*
X-831Y1043D02*
Y1483D01*
X-1117Y1158D02*
Y1256D01*
X-683Y2053D02*
X-546Y1915D01*
Y1709D02*
Y1915D01*
X-1195Y1335D02*
X-1117Y1256D01*
X-1461Y1335D02*
X-1195D01*
X-831Y1483D02*
X-605Y1709D01*
X-546D01*
X-1117Y1158D02*
X-394Y435D01*
Y394D02*
Y435D01*
X-636Y847D02*
Y848D01*
Y847D02*
X-236Y447D01*
Y394D02*
Y447D01*
X-831Y1043D02*
X-636Y848D01*
X-422Y-236D02*
X-394D01*
X-525Y-339D02*
X-422Y-236D01*
X-525Y-1137D02*
Y-339D01*
X-405Y-405D02*
X-394Y-394D01*
X-405Y-1137D02*
Y-405D01*
X-236Y-422D02*
Y-394D01*
X-285Y-471D02*
X-236Y-422D01*
X-285Y-1137D02*
Y-471D01*
X-165Y-521D02*
X-79Y-435D01*
Y-394D01*
X-165Y-1137D02*
Y-521D01*
X-45Y-571D02*
X79Y-447D01*
Y-394D01*
X236Y-459D02*
Y-394D01*
X75Y-621D02*
X236Y-459D01*
X-45Y-1137D02*
Y-571D01*
X75Y-1137D02*
Y-621D01*
D13*
X-946Y363D02*
D03*
Y139D02*
D03*
X-131Y1065D02*
D03*
Y840D02*
D03*
X230Y-777D02*
D03*
Y-1001D02*
D03*
X1419Y-605D02*
D03*
Y-830D02*
D03*
X-1461Y1360D02*
D03*
Y1585D02*
D03*
X1159Y-830D02*
D03*
Y-605D02*
D03*
D14*
X-1049Y-79D02*
D03*
X-1274Y-79D02*
D03*
X-619Y-79D02*
D03*
X-843D02*
D03*
X911Y253D02*
D03*
X687D02*
D03*
X-709Y2033D02*
D03*
X-933D02*
D03*
D15*
X-546Y1709D02*
D03*
Y1256D02*
D03*
X-1117Y1709D02*
D03*
Y1256D02*
D03*
D16*
X1644Y623D02*
D03*
X1113D02*
D03*
D17*
X182Y903D02*
D03*
X576D02*
D03*
D18*
X1003Y-187D02*
D03*
X1574D02*
D03*
D19*
X394Y-236D02*
D03*
X236D02*
D03*
X79D02*
D03*
X-79D02*
D03*
X-236D02*
D03*
X-394D02*
D03*
X394Y-79D02*
D03*
X236D02*
D03*
X79D02*
D03*
X-79D02*
D03*
X-236D02*
D03*
X-394D02*
D03*
X394Y79D02*
D03*
X236D02*
D03*
X79D02*
D03*
X-79D02*
D03*
X-236Y-394D02*
D03*
X-394D02*
D03*
X394D02*
D03*
X236D02*
D03*
X79D02*
D03*
X-79D02*
D03*
X394Y236D02*
D03*
X236D02*
D03*
X79D02*
D03*
X-79D02*
D03*
X-394Y157D02*
D03*
X394Y394D02*
D03*
X236D02*
D03*
X79D02*
D03*
X-79D02*
D03*
X-236D02*
D03*
X-394D02*
D03*
D27*
X-471Y913D02*
X-401D01*
X-131Y1065D02*
Y1273D01*
X-171Y1313D02*
X-131Y1273D01*
X-145Y1065D02*
X-131D01*
X-298Y913D02*
X-145Y1065D01*
X-401Y913D02*
X-298D01*
X1071Y613D02*
Y1023D01*
X1171Y1123D02*
X1321Y1273D01*
X1071Y1023D02*
X1171Y1123D01*
X1321Y1273D02*
X1819D01*
X-546Y987D02*
Y1256D01*
Y987D02*
X-471Y913D01*
X394Y394D02*
X443Y443D01*
X-1215Y1610D02*
X-1117Y1709D01*
X-1461Y1610D02*
X-1215D01*
X-1117Y1709D02*
X-959Y1867D01*
Y2033D01*
X-1178Y1709D02*
X-1117D01*
X-1471Y2003D02*
X-1178Y1709D01*
X901Y443D02*
X1071Y613D01*
X443Y443D02*
X901D01*
D28*
X230Y-777D02*
X468D01*
X79Y394D02*
Y739D01*
X232Y893D01*
X-951Y-79D02*
X-946Y-74D01*
Y139D01*
X392Y-1001D02*
X439Y-1047D01*
X230Y-1001D02*
X392D01*
X468Y-777D02*
X479Y-787D01*
X-79Y394D02*
Y610D01*
X-131Y663D02*
Y815D01*
Y663D02*
X-79Y610D01*
X394Y-493D02*
Y-394D01*
X230Y-656D02*
X394Y-493D01*
X230Y-751D02*
Y-656D01*
X-79Y236D02*
X79D01*
X-79Y-79D02*
Y79D01*
X79D01*
X-79Y-79D02*
X79D01*
X80Y-81D02*
Y76D01*
X-77Y76D02*
Y234D01*
X80Y76D02*
Y234D01*
X394Y236D02*
X687D01*
D29*
X-951Y-79D02*
X-846D01*
X-1049D02*
X-951D01*
X-1054D02*
X-1049D01*
X-619Y-79D02*
X-394D01*
D30*
X-1571Y-79D02*
X-1361D01*
D31*
X-1646Y-79D02*
D03*
D32*
X-171Y1313D02*
D03*
X299Y613D02*
D03*
X-946Y613D02*
D03*
X-1171Y903D02*
D03*
X-1601Y-1027D02*
D03*
X-741Y-317D02*
D03*
X-1601Y-401D02*
D03*
Y241D02*
D03*
X0Y0D02*
D03*
Y157D02*
D03*
X1171Y1123D02*
D03*
X-1471Y2013D02*
D03*
X569Y1233D02*
D03*
X-401Y913D02*
D03*
X-658Y195D02*
D03*
X1749Y253D02*
D03*
X-1601Y1013D02*
D03*
X1649Y993D02*
D03*
X1149Y253D02*
D03*
X291Y2003D02*
D03*
X1589Y1973D02*
D03*
X1749Y-1047D02*
D03*
X-741Y-1027D02*
D03*
X439Y-787D02*
D03*
Y-1047D02*
D03*
X1149D02*
D03*
D33*
X1279Y-187D02*
D03*
X699Y43D02*
D03*
X236Y-236D02*
D03*
X-236Y-79D02*
D03*
Y-236D02*
D03*
X-79D02*
D03*
X79D02*
D03*
X236Y-79D02*
D03*
Y79D02*
D03*
Y236D02*
D03*
M02*
