G04*
G04 #@! TF.GenerationSoftware,Altium Limited,Altium Designer,18.0.12 (696)*
G04*
G04 Layer_Color=8388736*
%FSLAX24Y24*%
%MOIN*%
G70*
G01*
G75*
%ADD22R,0.0178X0.0166*%
%ADD23R,0.0166X0.0178*%
%ADD24R,0.0316X0.0257*%
%ADD25R,0.0375X0.0355*%
%ADD26R,0.0434X0.0395*%
%ADD27R,0.0355X0.0375*%
%ADD28R,0.0257X0.0296*%
%ADD29R,0.0355X0.0611*%
%ADD30C,0.0116*%
D22*
X-946Y363D02*
D03*
Y139D02*
D03*
X-131Y1065D02*
D03*
Y840D02*
D03*
X230Y-777D02*
D03*
Y-1001D02*
D03*
X1419Y-605D02*
D03*
Y-830D02*
D03*
X-1461Y1360D02*
D03*
Y1585D02*
D03*
X1159Y-830D02*
D03*
Y-605D02*
D03*
D23*
X-1049Y-79D02*
D03*
X-1274Y-79D02*
D03*
X-619Y-79D02*
D03*
X-843D02*
D03*
X911Y253D02*
D03*
X687D02*
D03*
X-709Y2033D02*
D03*
X-933D02*
D03*
D24*
X986Y1713D02*
D03*
X612D02*
D03*
D25*
X649Y1308D02*
D03*
Y777D02*
D03*
D26*
X-546Y1709D02*
D03*
Y1256D02*
D03*
X-1117Y1709D02*
D03*
Y1256D02*
D03*
D27*
X1644Y623D02*
D03*
X1113D02*
D03*
D28*
X239Y1689D02*
D03*
Y1296D02*
D03*
D29*
X1003Y-187D02*
D03*
X1574D02*
D03*
D30*
X394Y-236D02*
D03*
X236D02*
D03*
X79D02*
D03*
X-79D02*
D03*
X-236D02*
D03*
X-394D02*
D03*
X394Y-79D02*
D03*
X236D02*
D03*
X79D02*
D03*
X-79D02*
D03*
X-236D02*
D03*
X-394D02*
D03*
X394Y79D02*
D03*
X236D02*
D03*
X79D02*
D03*
X-79D02*
D03*
X-236Y-394D02*
D03*
X-394D02*
D03*
X394D02*
D03*
X236D02*
D03*
X79D02*
D03*
X-79D02*
D03*
X394Y236D02*
D03*
X236D02*
D03*
X79D02*
D03*
X-79D02*
D03*
X-394Y157D02*
D03*
X394Y394D02*
D03*
X236D02*
D03*
X79D02*
D03*
X-79D02*
D03*
X-236D02*
D03*
X-394D02*
D03*
M02*
