G04*
G04 #@! TF.GenerationSoftware,Altium Limited,Altium Designer,18.0.12 (696)*
G04*
G04 Layer_Color=65535*
%FSLAX24Y24*%
%MOIN*%
G70*
G01*
G75*
%ADD10C,0.0049*%
%ADD11C,0.0060*%
%ADD12C,0.0079*%
D10*
X-562Y585D02*
G03*
X-562Y585I-24J0D01*
G01*
X-1033Y320D02*
Y444D01*
X-860D01*
Y320D02*
Y444D01*
X-1033Y58D02*
Y182D01*
X-860Y58D02*
Y182D01*
X-1033Y58D02*
X-860D01*
X-1354Y-165D02*
Y8D01*
X-968Y-165D02*
Y8D01*
X-1092Y-165D02*
X-968D01*
X-1354D02*
X-1230D01*
X-1092Y8D02*
X-968D01*
X-1354D02*
X-1230D01*
X-662Y8D02*
X-538D01*
Y-165D02*
Y8D01*
X-662Y-165D02*
X-538D01*
X-924Y8D02*
X-800D01*
X-924Y-165D02*
X-800D01*
X-924D02*
Y8D01*
X-45Y1021D02*
Y1145D01*
Y760D02*
Y884D01*
X-218Y1145D02*
X-45D01*
X-218Y1021D02*
Y1145D01*
Y760D02*
X-45D01*
X-218D02*
Y884D01*
X317Y-820D02*
Y-696D01*
Y-1082D02*
Y-958D01*
X143Y-696D02*
X317D01*
X143Y-820D02*
Y-696D01*
Y-1082D02*
X317D01*
X143D02*
Y-958D01*
X868Y339D02*
X992D01*
Y166D02*
Y339D01*
X868Y166D02*
X992D01*
X606Y339D02*
X730D01*
X606Y166D02*
X730D01*
X606D02*
Y339D01*
X1505Y-649D02*
Y-525D01*
Y-910D02*
Y-786D01*
X1332Y-525D02*
X1505D01*
X1332Y-649D02*
Y-525D01*
Y-910D02*
X1505D01*
X1332D02*
Y-786D01*
X-752Y2119D02*
X-628D01*
Y1946D02*
Y2119D01*
X-752Y1946D02*
X-628D01*
X-1014Y2119D02*
X-890D01*
X-1014Y1946D02*
X-890D01*
X-1014D02*
Y2119D01*
X-1375Y1541D02*
Y1665D01*
Y1280D02*
Y1404D01*
X-1548Y1665D02*
X-1375D01*
X-1548Y1541D02*
Y1665D01*
Y1280D02*
X-1375D01*
X-1548D02*
Y1404D01*
X1072Y-910D02*
Y-786D01*
Y-649D02*
Y-525D01*
Y-910D02*
X1245D01*
Y-786D01*
X1072Y-525D02*
X1245D01*
Y-649D02*
Y-525D01*
X-512Y-508D02*
Y508D01*
Y-508D02*
X512D01*
Y508D01*
X-512D02*
X512D01*
X-1330Y-311D02*
Y-507D01*
X-1198D01*
X-1002D02*
X-1133D01*
X-1002Y-376D01*
Y-343D01*
X-1034Y-311D01*
X-1100D01*
X-1133Y-343D01*
X-1127Y271D02*
X-1094Y304D01*
Y370D01*
X-1127Y403D01*
X-1258D01*
X-1291Y370D01*
Y304D01*
X-1258Y271D01*
X-1127Y206D02*
X-1094Y173D01*
Y107D01*
X-1127Y75D01*
X-1160D01*
X-1193Y107D01*
Y140D01*
Y107D01*
X-1226Y75D01*
X-1258D01*
X-1291Y107D01*
Y173D01*
X-1258Y206D01*
X-327Y891D02*
X-294Y924D01*
Y990D01*
X-327Y1023D01*
X-458D01*
X-491Y990D01*
Y924D01*
X-458Y891D01*
X-294Y695D02*
X-327Y760D01*
X-393Y826D01*
X-458D01*
X-491Y793D01*
Y727D01*
X-458Y695D01*
X-426D01*
X-393Y727D01*
Y826D01*
X-862Y-311D02*
Y-507D01*
X-731D01*
X-665D02*
X-599D01*
X-632D01*
Y-311D01*
X-665Y-343D01*
X33Y-859D02*
X66Y-826D01*
Y-760D01*
X33Y-727D01*
X-98D01*
X-131Y-760D01*
Y-826D01*
X-98Y-859D01*
X66Y-1055D02*
Y-924D01*
X-33D01*
X-0Y-990D01*
Y-1023D01*
X-33Y-1055D01*
X-98D01*
X-131Y-1023D01*
Y-957D01*
X-98Y-924D01*
X1330Y317D02*
X1297Y349D01*
X1232D01*
X1199Y317D01*
Y185D01*
X1232Y153D01*
X1297D01*
X1330Y185D01*
X1494Y153D02*
Y349D01*
X1396Y251D01*
X1527D01*
X-961Y1019D02*
X-830Y823D01*
Y1019D02*
X-961Y823D01*
X-764D02*
X-699D01*
X-732D01*
Y1019D01*
X-764Y987D01*
X1733Y-669D02*
X1766Y-636D01*
Y-570D01*
X1733Y-537D01*
X1602D01*
X1569Y-570D01*
Y-636D01*
X1602Y-669D01*
X1569Y-734D02*
Y-800D01*
Y-767D01*
X1766D01*
X1733Y-734D01*
Y-898D02*
X1766Y-931D01*
Y-997D01*
X1733Y-1029D01*
X1602D01*
X1569Y-997D01*
Y-931D01*
X1602Y-898D01*
X1733D01*
X1300Y1057D02*
X1267Y1089D01*
X1202D01*
X1169Y1057D01*
Y925D01*
X1202Y893D01*
X1267D01*
X1300Y925D01*
X1366Y1089D02*
X1497D01*
Y1057D01*
X1366Y925D01*
Y893D01*
X210Y1287D02*
X177Y1319D01*
X112D01*
X79Y1287D01*
Y1155D01*
X112Y1123D01*
X177D01*
X210Y1155D01*
X276Y1287D02*
X308Y1319D01*
X374D01*
X407Y1287D01*
Y1254D01*
X374Y1221D01*
X407Y1188D01*
Y1155D01*
X374Y1123D01*
X308D01*
X276Y1155D01*
Y1188D01*
X308Y1221D01*
X276Y1254D01*
Y1287D01*
X308Y1221D02*
X374D01*
X-420Y2097D02*
X-453Y2129D01*
X-518D01*
X-551Y2097D01*
Y1965D01*
X-518Y1933D01*
X-453D01*
X-420Y1965D01*
X-223Y1933D02*
X-354D01*
X-223Y2064D01*
Y2097D01*
X-256Y2129D01*
X-322D01*
X-354Y2097D01*
X-1387Y1061D02*
X-1354Y1094D01*
Y1160D01*
X-1387Y1193D01*
X-1518D01*
X-1551Y1160D01*
Y1094D01*
X-1518Y1061D01*
X-1551Y996D02*
Y930D01*
Y963D01*
X-1354D01*
X-1387Y996D01*
X973Y-659D02*
X1006Y-626D01*
Y-560D01*
X973Y-527D01*
X842D01*
X809Y-560D01*
Y-626D01*
X842Y-659D01*
Y-724D02*
X809Y-757D01*
Y-823D01*
X842Y-855D01*
X973D01*
X1006Y-823D01*
Y-757D01*
X973Y-724D01*
X940D01*
X907Y-757D01*
Y-855D01*
X-501Y-591D02*
Y-755D01*
X-468Y-787D01*
X-403D01*
X-370Y-755D01*
Y-591D01*
X-304Y-787D02*
X-239D01*
X-272D01*
Y-591D01*
X-304Y-623D01*
X806Y-27D02*
X609Y-159D01*
X806D02*
X609Y-27D01*
Y-355D02*
Y-224D01*
X740Y-355D01*
X773D01*
X806Y-323D01*
Y-257D01*
X773Y-224D01*
D11*
X-406Y1459D02*
Y1506D01*
X-894Y1829D02*
X-768D01*
X-894Y1136D02*
X-768D01*
X-1256Y1459D02*
Y1506D01*
X1477Y819D02*
X1841D01*
Y426D02*
Y819D01*
X1477Y426D02*
X1841D01*
X916Y819D02*
X1280D01*
X916Y426D02*
X1280D01*
X916D02*
Y819D01*
X24Y1040D02*
X280D01*
X477D02*
X733D01*
X24Y765D02*
Y1040D01*
Y765D02*
X280D01*
X733D02*
Y1040D01*
X477Y765D02*
X733D01*
D12*
X1339Y741D02*
X1418D01*
X1339Y504D02*
X1418D01*
X1194Y49D02*
X1383D01*
X1194Y-424D02*
X1383D01*
M02*
