G04*
G04 #@! TF.GenerationSoftware,Altium Limited,Altium Designer,18.0.12 (696)*
G04*
G04 Layer_Physical_Order=2*
G04 Layer_Color=36540*
%FSLAX24Y24*%
%MOIN*%
G70*
G01*
G75*
%ADD11C,0.0060*%
%ADD32C,0.0197*%
%ADD33C,0.0118*%
G36*
X1838Y-1130D02*
X305D01*
Y-973D01*
X336Y-952D01*
X355Y-945D01*
X370Y-953D01*
X392Y-960D01*
X415Y-965D01*
X439Y-966D01*
X462Y-965D01*
X485Y-960D01*
X507Y-953D01*
X528Y-942D01*
X548Y-929D01*
X565Y-914D01*
X581Y-896D01*
X594Y-877D01*
X604Y-856D01*
X611Y-834D01*
X616Y-811D01*
X618Y-787D01*
X616Y-764D01*
X611Y-741D01*
X604Y-719D01*
X594Y-698D01*
X581Y-679D01*
X565Y-661D01*
X548Y-646D01*
X528Y-633D01*
X507Y-622D01*
X485Y-615D01*
X462Y-610D01*
X439Y-609D01*
X415Y-610D01*
X392Y-615D01*
X370Y-622D01*
X368Y-624D01*
X321Y-599D01*
X318Y-558D01*
X463Y-413D01*
X475Y-399D01*
X484Y-385D01*
X490Y-369D01*
X494Y-352D01*
X496Y-335D01*
Y-192D01*
X538Y-171D01*
X545Y-171D01*
X640Y-266D01*
X653Y-277D01*
X668Y-286D01*
X684Y-292D01*
X701Y-296D01*
X718Y-298D01*
X1194D01*
X1197Y-300D01*
X1215Y-312D01*
X1236Y-320D01*
X1257Y-325D01*
X1279Y-327D01*
X1301Y-325D01*
X1322Y-320D01*
X1342Y-312D01*
X1361Y-300D01*
X1377Y-286D01*
X1392Y-269D01*
X1403Y-251D01*
X1411Y-231D01*
X1417Y-209D01*
X1418Y-187D01*
X1417Y-166D01*
X1411Y-144D01*
X1403Y-124D01*
X1392Y-105D01*
X1377Y-89D01*
X1361Y-75D01*
X1342Y-63D01*
X1322Y-55D01*
X1301Y-50D01*
X1279Y-48D01*
X1257Y-50D01*
X1236Y-55D01*
X1215Y-63D01*
X1197Y-75D01*
X1194Y-77D01*
X845D01*
X833Y-64D01*
X819Y-27D01*
X823Y-21D01*
X831Y-1D01*
X837Y21D01*
X838Y43D01*
X837Y64D01*
X831Y86D01*
X823Y106D01*
X812Y125D01*
X797Y141D01*
X781Y155D01*
X762Y167D01*
X742Y175D01*
X721Y180D01*
X717Y181D01*
X583Y314D01*
X570Y325D01*
X555Y335D01*
X539Y341D01*
X522Y345D01*
X505Y347D01*
X321D01*
X318Y349D01*
X300Y361D01*
X279Y369D01*
X258Y374D01*
X236Y376D01*
X214Y374D01*
X193Y369D01*
X173Y361D01*
X154Y349D01*
X138Y335D01*
X123Y318D01*
X112Y300D01*
X104Y279D01*
X98Y258D01*
X97Y236D01*
X98Y214D01*
X104Y193D01*
X112Y173D01*
X121Y157D01*
X112Y142D01*
X104Y122D01*
X98Y101D01*
X97Y79D01*
X98Y57D01*
X104Y36D01*
X112Y15D01*
X121Y0D01*
X112Y-15D01*
X104Y-36D01*
X98Y-57D01*
X85Y-85D01*
X57Y-98D01*
X36Y-104D01*
X15Y-112D01*
X0Y-121D01*
X-15Y-112D01*
X-36Y-104D01*
X-57Y-98D01*
X-79Y-97D01*
X-98Y-57D01*
X-104Y-36D01*
X-112Y-15D01*
X-123Y3D01*
X-138Y20D01*
X-154Y34D01*
X-173Y46D01*
X-193Y54D01*
X-214Y59D01*
X-236Y61D01*
X-258Y59D01*
X-279Y54D01*
X-300Y46D01*
X-318Y34D01*
X-331Y23D01*
X-340Y20D01*
X-354Y11D01*
X-368Y-1D01*
X-385Y-18D01*
X-431Y1D01*
X-431Y343D01*
X-1681Y343D01*
Y2094D01*
X1838D01*
Y-1130D01*
D02*
G37*
G36*
X-515D02*
X-1681D01*
Y-500D01*
X-515D01*
Y-1130D01*
D02*
G37*
%LPC*%
G36*
X1171Y1301D02*
X1148Y1300D01*
X1125Y1295D01*
X1103Y1288D01*
X1082Y1277D01*
X1062Y1264D01*
X1045Y1249D01*
X1029Y1231D01*
X1016Y1212D01*
X1006Y1191D01*
X999Y1169D01*
X994Y1146D01*
X992Y1123D01*
X994Y1099D01*
X999Y1076D01*
X1006Y1054D01*
X1016Y1033D01*
X1029Y1014D01*
X1045Y996D01*
X1062Y981D01*
X1082Y968D01*
X1103Y957D01*
X1125Y950D01*
X1148Y945D01*
X1171Y944D01*
X1195Y945D01*
X1218Y950D01*
X1240Y957D01*
X1261Y968D01*
X1280Y981D01*
X1298Y996D01*
X1313Y1014D01*
X1326Y1033D01*
X1336Y1054D01*
X1344Y1076D01*
X1349Y1099D01*
X1350Y1123D01*
X1349Y1146D01*
X1344Y1169D01*
X1336Y1191D01*
X1326Y1212D01*
X1313Y1231D01*
X1298Y1249D01*
X1280Y1264D01*
X1261Y1277D01*
X1240Y1288D01*
X1218Y1295D01*
X1195Y1300D01*
X1171Y1301D01*
D02*
G37*
%LPD*%
D11*
X718Y-187D02*
X1279D01*
X452Y79D02*
X718Y-187D01*
X236Y79D02*
X452D01*
X236Y236D02*
X505D01*
X699Y43D01*
X195Y-1137D02*
Y-525D01*
X385Y-335D01*
Y-174D01*
X290Y-79D02*
X385Y-174D01*
X236Y-79D02*
X290D01*
X-290D02*
X-236D01*
X-405Y-1137D02*
Y-194D01*
X-290Y-79D01*
X-285Y-285D02*
X-236Y-236D01*
X-285Y-1137D02*
Y-285D01*
X-79Y-290D02*
Y-236D01*
X-165Y-376D02*
X-79Y-290D01*
X-165Y-1137D02*
Y-376D01*
X79Y-302D02*
Y-236D01*
X-45Y-426D02*
X79Y-302D01*
X-45Y-1137D02*
Y-426D01*
X236Y-314D02*
Y-236D01*
X75Y-475D02*
X236Y-314D01*
X75Y-1137D02*
Y-475D01*
D32*
X-171Y1313D02*
D03*
X299Y613D02*
D03*
X-946Y613D02*
D03*
X-1171Y903D02*
D03*
X-1601Y-1027D02*
D03*
X0Y0D02*
D03*
Y157D02*
D03*
X-1471Y2013D02*
D03*
X569Y1233D02*
D03*
X-401Y913D02*
D03*
X1749Y253D02*
D03*
X-1601Y1013D02*
D03*
X1649Y993D02*
D03*
X1149Y253D02*
D03*
X291Y2003D02*
D03*
X1589Y1973D02*
D03*
X1749Y-1047D02*
D03*
X-741Y-1027D02*
D03*
X439Y-1047D02*
D03*
X1149D02*
D03*
D33*
X1279Y-187D02*
D03*
X699Y43D02*
D03*
X236Y-236D02*
D03*
X-236Y-79D02*
D03*
Y-236D02*
D03*
X-79D02*
D03*
X79D02*
D03*
X236Y-79D02*
D03*
Y79D02*
D03*
Y236D02*
D03*
M02*
