M48
;Layer_Color=9474304
;FILE_FORMAT=2:4
INCH,TZ
;TYPE=PLATED
T1F00S00C0.0098
%
T01
X-1601Y-1027
Y-401
Y241
Y1013
X-1471Y2013
X-1171Y903
X-946Y613
X-658Y195
X-741Y-317
Y-1027
X439Y-1047
Y-787
X1149Y-1047
X1749
Y253
X1149
X1171Y1123
X1649Y993
X1589Y1973
X291Y2003
X259Y893
X-401Y913
X-171Y1313
X0Y157
Y0
M30
