G04*
G04 #@! TF.GenerationSoftware,Altium Limited,Altium Designer,18.0.12 (696)*
G04*
G04 Layer_Color=8421504*
%FSLAX24Y24*%
%MOIN*%
G70*
G01*
G75*
%ADD13R,0.0118X0.0106*%
%ADD14R,0.0106X0.0118*%
%ADD15R,0.0374X0.0335*%
%ADD16R,0.0295X0.0315*%
%ADD17R,0.0236X0.0197*%
%ADD18R,0.0295X0.0551*%
%ADD19C,0.0076*%
D13*
X-946Y363D02*
D03*
Y139D02*
D03*
X-131Y1065D02*
D03*
Y840D02*
D03*
X230Y-777D02*
D03*
Y-1001D02*
D03*
X1419Y-605D02*
D03*
Y-830D02*
D03*
X-1461Y1360D02*
D03*
Y1585D02*
D03*
X1159Y-830D02*
D03*
Y-605D02*
D03*
D14*
X-1049Y-79D02*
D03*
X-1274Y-79D02*
D03*
X-619Y-79D02*
D03*
X-843D02*
D03*
X911Y253D02*
D03*
X687D02*
D03*
X-709Y2033D02*
D03*
X-933D02*
D03*
D15*
X-546Y1709D02*
D03*
Y1256D02*
D03*
X-1117Y1709D02*
D03*
Y1256D02*
D03*
D16*
X1644Y623D02*
D03*
X1113D02*
D03*
D17*
X182Y903D02*
D03*
X576D02*
D03*
D18*
X1003Y-187D02*
D03*
X1574D02*
D03*
D19*
X394Y-236D02*
D03*
X236D02*
D03*
X79D02*
D03*
X-79D02*
D03*
X-236D02*
D03*
X-394D02*
D03*
X394Y-79D02*
D03*
X236D02*
D03*
X79D02*
D03*
X-79D02*
D03*
X-236D02*
D03*
X-394D02*
D03*
X394Y79D02*
D03*
X236D02*
D03*
X79D02*
D03*
X-79D02*
D03*
X-236Y-394D02*
D03*
X-394D02*
D03*
X394D02*
D03*
X236D02*
D03*
X79D02*
D03*
X-79D02*
D03*
X394Y236D02*
D03*
X236D02*
D03*
X79D02*
D03*
X-79D02*
D03*
X-394Y157D02*
D03*
X394Y394D02*
D03*
X236D02*
D03*
X79D02*
D03*
X-79D02*
D03*
X-236D02*
D03*
X-394D02*
D03*
M02*
