%TF.GenerationSoftware,KiCad,Pcbnew,6.0.7+dfsg-1~bpo11+1*%
%TF.CreationDate,2022-09-09T13:16:42+02:00*%
%TF.ProjectId,pcb,7063622e-6b69-4636-9164-5f7063625858,0.1*%
%TF.SameCoordinates,Original*%
%TF.FileFunction,Copper,L1,Top*%
%TF.FilePolarity,Positive*%
%FSLAX46Y46*%
G04 Gerber Fmt 4.6, Leading zero omitted, Abs format (unit mm)*
G04 Created by KiCad (PCBNEW 6.0.7+dfsg-1~bpo11+1) date 2022-09-09 13:16:42*
%MOMM*%
%LPD*%
G01*
G04 APERTURE LIST*
G04 Aperture macros list*
%AMRoundRect*
0 Rectangle with rounded corners*
0 $1 Rounding radius*
0 $2 $3 $4 $5 $6 $7 $8 $9 X,Y pos of 4 corners*
0 Add a 4 corners polygon primitive as box body*
4,1,4,$2,$3,$4,$5,$6,$7,$8,$9,$2,$3,0*
0 Add four circle primitives for the rounded corners*
1,1,$1+$1,$2,$3*
1,1,$1+$1,$4,$5*
1,1,$1+$1,$6,$7*
1,1,$1+$1,$8,$9*
0 Add four rect primitives between the rounded corners*
20,1,$1+$1,$2,$3,$4,$5,0*
20,1,$1+$1,$4,$5,$6,$7,0*
20,1,$1+$1,$6,$7,$8,$9,0*
20,1,$1+$1,$8,$9,$2,$3,0*%
%AMRotRect*
0 Rectangle, with rotation*
0 The origin of the aperture is its center*
0 $1 length*
0 $2 width*
0 $3 Rotation angle, in degrees counterclockwise*
0 Add horizontal line*
21,1,$1,$2,0,0,$3*%
G04 Aperture macros list end*
%TA.AperFunction,SMDPad,CuDef*%
%ADD10R,0.300000X0.700000*%
%TD*%
%TA.AperFunction,ComponentPad*%
%ADD11O,0.800000X1.400000*%
%TD*%
%TA.AperFunction,SMDPad,CuDef*%
%ADD12RotRect,2.400000X0.760000X145.000000*%
%TD*%
%TA.AperFunction,SMDPad,CuDef*%
%ADD13R,0.950000X0.950000*%
%TD*%
%TA.AperFunction,SMDPad,CuDef*%
%ADD14R,1.800000X1.000000*%
%TD*%
%TA.AperFunction,SMDPad,CuDef*%
%ADD15R,0.800000X0.300000*%
%TD*%
%TA.AperFunction,SMDPad,CuDef*%
%ADD16R,0.300000X0.800000*%
%TD*%
%TA.AperFunction,SMDPad,CuDef*%
%ADD17R,2.800000X2.800000*%
%TD*%
%TA.AperFunction,SMDPad,CuDef*%
%ADD18RoundRect,0.225000X0.225000X0.250000X-0.225000X0.250000X-0.225000X-0.250000X0.225000X-0.250000X0*%
%TD*%
%TA.AperFunction,SMDPad,CuDef*%
%ADD19C,1.000000*%
%TD*%
%TA.AperFunction,SMDPad,CuDef*%
%ADD20RoundRect,0.250000X-0.250000X-2.500000X0.250000X-2.500000X0.250000X2.500000X-0.250000X2.500000X0*%
%TD*%
%TA.AperFunction,SMDPad,CuDef*%
%ADD21RoundRect,0.250000X-0.550000X-1.250000X0.550000X-1.250000X0.550000X1.250000X-0.550000X1.250000X0*%
%TD*%
%TA.AperFunction,SMDPad,CuDef*%
%ADD22RoundRect,0.200000X0.200000X0.275000X-0.200000X0.275000X-0.200000X-0.275000X0.200000X-0.275000X0*%
%TD*%
%TA.AperFunction,SMDPad,CuDef*%
%ADD23R,0.250000X0.300000*%
%TD*%
%TA.AperFunction,SMDPad,CuDef*%
%ADD24RoundRect,0.225000X0.250000X-0.225000X0.250000X0.225000X-0.250000X0.225000X-0.250000X-0.225000X0*%
%TD*%
%TA.AperFunction,SMDPad,CuDef*%
%ADD25RoundRect,0.200000X-0.275000X0.200000X-0.275000X-0.200000X0.275000X-0.200000X0.275000X0.200000X0*%
%TD*%
%TA.AperFunction,SMDPad,CuDef*%
%ADD26RoundRect,0.200000X-0.200000X-0.275000X0.200000X-0.275000X0.200000X0.275000X-0.200000X0.275000X0*%
%TD*%
%TA.AperFunction,SMDPad,CuDef*%
%ADD27RoundRect,0.225000X-0.250000X0.225000X-0.250000X-0.225000X0.250000X-0.225000X0.250000X0.225000X0*%
%TD*%
%TA.AperFunction,SMDPad,CuDef*%
%ADD28RoundRect,0.200000X0.275000X-0.200000X0.275000X0.200000X-0.275000X0.200000X-0.275000X-0.200000X0*%
%TD*%
%TA.AperFunction,SMDPad,CuDef*%
%ADD29RotRect,1.400000X1.050000X165.500000*%
%TD*%
%TA.AperFunction,SMDPad,CuDef*%
%ADD30RoundRect,0.062500X0.337500X0.062500X-0.337500X0.062500X-0.337500X-0.062500X0.337500X-0.062500X0*%
%TD*%
%TA.AperFunction,SMDPad,CuDef*%
%ADD31RoundRect,0.062500X0.062500X0.337500X-0.062500X0.337500X-0.062500X-0.337500X0.062500X-0.337500X0*%
%TD*%
%TA.AperFunction,SMDPad,CuDef*%
%ADD32R,3.600000X3.600000*%
%TD*%
%TA.AperFunction,SMDPad,CuDef*%
%ADD33RoundRect,0.250000X-0.375000X-0.850000X0.375000X-0.850000X0.375000X0.850000X-0.375000X0.850000X0*%
%TD*%
%TA.AperFunction,SMDPad,CuDef*%
%ADD34R,1.200000X0.900000*%
%TD*%
%TA.AperFunction,SMDPad,CuDef*%
%ADD35RotRect,1.400000X1.050000X194.500000*%
%TD*%
%TA.AperFunction,SMDPad,CuDef*%
%ADD36RoundRect,0.218750X-0.218750X-0.256250X0.218750X-0.256250X0.218750X0.256250X-0.218750X0.256250X0*%
%TD*%
%TA.AperFunction,SMDPad,CuDef*%
%ADD37RoundRect,0.218750X-0.381250X0.218750X-0.381250X-0.218750X0.381250X-0.218750X0.381250X0.218750X0*%
%TD*%
%TA.AperFunction,SMDPad,CuDef*%
%ADD38RoundRect,0.062500X-0.375000X-0.062500X0.375000X-0.062500X0.375000X0.062500X-0.375000X0.062500X0*%
%TD*%
%TA.AperFunction,SMDPad,CuDef*%
%ADD39RoundRect,0.062500X-0.062500X-0.375000X0.062500X-0.375000X0.062500X0.375000X-0.062500X0.375000X0*%
%TD*%
%TA.AperFunction,SMDPad,CuDef*%
%ADD40R,4.100000X4.100000*%
%TD*%
%TA.AperFunction,SMDPad,CuDef*%
%ADD41RoundRect,0.225000X-0.225000X-0.250000X0.225000X-0.250000X0.225000X0.250000X-0.225000X0.250000X0*%
%TD*%
%TA.AperFunction,SMDPad,CuDef*%
%ADD42R,1.000000X1.150000*%
%TD*%
%TA.AperFunction,SMDPad,CuDef*%
%ADD43RoundRect,0.218750X0.218750X0.256250X-0.218750X0.256250X-0.218750X-0.256250X0.218750X-0.256250X0*%
%TD*%
%TA.AperFunction,SMDPad,CuDef*%
%ADD44R,1.100000X1.400000*%
%TD*%
%TA.AperFunction,SMDPad,CuDef*%
%ADD45R,0.900000X1.400000*%
%TD*%
%TA.AperFunction,SMDPad,CuDef*%
%ADD46R,0.400000X0.425000*%
%TD*%
%TA.AperFunction,SMDPad,CuDef*%
%ADD47R,0.650000X0.900000*%
%TD*%
%TA.AperFunction,SMDPad,CuDef*%
%ADD48R,0.200000X0.800000*%
%TD*%
%TA.AperFunction,SMDPad,CuDef*%
%ADD49R,2.550000X1.800000*%
%TD*%
%TA.AperFunction,SMDPad,CuDef*%
%ADD50R,1.000000X3.000000*%
%TD*%
%TA.AperFunction,SMDPad,CuDef*%
%ADD51R,3.000000X1.000000*%
%TD*%
%TA.AperFunction,SMDPad,CuDef*%
%ADD52R,1.150000X0.600000*%
%TD*%
%TA.AperFunction,SMDPad,CuDef*%
%ADD53RoundRect,0.250000X1.425000X-0.362500X1.425000X0.362500X-1.425000X0.362500X-1.425000X-0.362500X0*%
%TD*%
%TA.AperFunction,SMDPad,CuDef*%
%ADD54R,2.200000X1.100000*%
%TD*%
%TA.AperFunction,SMDPad,CuDef*%
%ADD55RoundRect,0.237500X-0.287500X-0.237500X0.287500X-0.237500X0.287500X0.237500X-0.287500X0.237500X0*%
%TD*%
%TA.AperFunction,ViaPad*%
%ADD56C,0.800000*%
%TD*%
%TA.AperFunction,ViaPad*%
%ADD57C,0.500000*%
%TD*%
%TA.AperFunction,Conductor*%
%ADD58C,0.508000*%
%TD*%
%TA.AperFunction,Conductor*%
%ADD59C,0.261112*%
%TD*%
%TA.AperFunction,Conductor*%
%ADD60C,0.254000*%
%TD*%
%TA.AperFunction,Conductor*%
%ADD61C,0.200000*%
%TD*%
%TA.AperFunction,Conductor*%
%ADD62C,0.762000*%
%TD*%
%TA.AperFunction,Conductor*%
%ADD63C,0.250000*%
%TD*%
%TA.AperFunction,Conductor*%
%ADD64C,0.293000*%
%TD*%
G04 APERTURE END LIST*
D10*
%TO.P,X1,A1,GND*%
%TO.N,BAT_PROT-*%
X147250000Y-119420000D03*
%TO.P,X1,A2*%
%TO.N,N/C*%
X147750000Y-119420000D03*
%TO.P,X1,A3*%
X148250000Y-119420000D03*
%TO.P,X1,A4,VBUS*%
%TO.N,VBUS_CONN*%
X148750000Y-119420000D03*
%TO.P,X1,A5,CC1*%
%TO.N,/Power/CC1*%
X149250000Y-119420000D03*
%TO.P,X1,A6,D+*%
%TO.N,USB_D-*%
X149750000Y-119420000D03*
%TO.P,X1,A7,D-*%
%TO.N,USB_D+*%
X150250000Y-119420000D03*
%TO.P,X1,A8,SBU1*%
%TO.N,unconnected-(X1-PadA8)*%
X150750000Y-119420000D03*
%TO.P,X1,A9,VBUS*%
%TO.N,VBUS_CONN*%
X151250000Y-119420000D03*
%TO.P,X1,A10*%
%TO.N,N/C*%
X151750000Y-119420000D03*
%TO.P,X1,A11*%
X152250000Y-119420000D03*
%TO.P,X1,A12,GND*%
%TO.N,BAT_PROT-*%
X152750000Y-119420000D03*
%TO.P,X1,B1,GND*%
X152500000Y-121120000D03*
%TO.P,X1,B2*%
%TO.N,N/C*%
X152000000Y-121120000D03*
%TO.P,X1,B3*%
X151500000Y-121120000D03*
%TO.P,X1,B4,VBUS*%
%TO.N,VBUS_CONN*%
X151000000Y-121120000D03*
%TO.P,X1,B5,CC2*%
%TO.N,/Power/CC2*%
X150500000Y-121120000D03*
%TO.P,X1,B6,D+*%
%TO.N,USB_D-*%
X150000000Y-121120000D03*
%TO.P,X1,B7,D-*%
%TO.N,USB_D+*%
X149500000Y-121120000D03*
%TO.P,X1,B8,SBU2*%
%TO.N,unconnected-(X1-PadB8)*%
X149000000Y-121120000D03*
%TO.P,X1,B9,VBUS*%
%TO.N,VBUS_CONN*%
X148500000Y-121120000D03*
%TO.P,X1,B10*%
%TO.N,N/C*%
X148000000Y-121120000D03*
%TO.P,X1,B11*%
X147500000Y-121120000D03*
%TO.P,X1,B12,GND*%
%TO.N,BAT_PROT-*%
X147000000Y-121120000D03*
D11*
%TO.P,X1,S1,SHIELD*%
%TO.N,/Power/Shield*%
X145510000Y-127280000D03*
X154130000Y-121330000D03*
X154490000Y-127280000D03*
X145870000Y-121330000D03*
%TD*%
D12*
%TO.P,X5,1,VTref*%
%TO.N,3.3V*%
X130140462Y-88699120D03*
%TO.P,X5,2,SWDIO/TMS*%
%TO.N,SWDIO*%
X126945769Y-86462172D03*
%TO.P,X5,3,GND*%
%TO.N,BAT_PROT-*%
X130868904Y-87658797D03*
%TO.P,X5,4,SWDCLK/TCK*%
%TO.N,SWDCLK*%
X127674211Y-85421849D03*
%TO.P,X5,5,GND*%
%TO.N,BAT_PROT-*%
X131597346Y-86618474D03*
%TO.P,X5,6,SWO/TDO*%
%TO.N,unconnected-(X5-Pad6)*%
X128402654Y-84381526D03*
%TO.P,X5,7,KEY*%
%TO.N,unconnected-(X5-Pad7)*%
X132325789Y-85578151D03*
%TO.P,X5,8,NC/TDI*%
%TO.N,unconnected-(X5-Pad8)*%
X129131096Y-83341203D03*
%TO.P,X5,9,GNDDetect*%
%TO.N,BAT_PROT-*%
X133054231Y-84537828D03*
%TO.P,X5,10,~{RESET}*%
%TO.N,NRST*%
X129859538Y-82300880D03*
%TD*%
D13*
%TO.P,V7,1*%
%TO.N,DBG_LED*%
X132000000Y-112000000D03*
%TO.P,V7,2*%
%TO.N,Net-(R21-Pad2)*%
X133500000Y-112000000D03*
%TD*%
D14*
%TO.P,Y2,1,1*%
%TO.N,LSE2*%
X136798000Y-98798000D03*
%TO.P,Y2,2,2*%
%TO.N,LSE1*%
X136798000Y-101298000D03*
%TD*%
D15*
%TO.P,V5,1,VAC*%
%TO.N,VBUS*%
X158750000Y-113750000D03*
%TO.P,V5,2,NC*%
%TO.N,unconnected-(V5-Pad2)*%
X158750000Y-114250000D03*
%TO.P,V5,3,D+*%
%TO.N,USB_D+*%
X158750000Y-114750000D03*
%TO.P,V5,4,D-*%
%TO.N,USB_D-*%
X158750000Y-115250000D03*
%TO.P,V5,5,STAT*%
%TO.N,/Power/CHRG_STAT*%
X158750000Y-115750000D03*
%TO.P,V5,6,OTG*%
%TO.N,BAT_PROT-*%
X158750000Y-116250000D03*
D16*
%TO.P,V5,7,~{PG}*%
%TO.N,/Power/~{CHRG_PG}*%
X159500000Y-117000000D03*
%TO.P,V5,8,ILIM*%
%TO.N,/Power/ILIM*%
X160000000Y-117000000D03*
%TO.P,V5,9,~{CE}*%
%TO.N,BAT_PROT-*%
X160500000Y-117000000D03*
%TO.P,V5,10,ICHG*%
%TO.N,/Power/ICHG*%
X161000000Y-117000000D03*
%TO.P,V5,11,TS*%
%TO.N,/Power/NTC_IN*%
X161500000Y-117000000D03*
%TO.P,V5,12,VSET*%
%TO.N,BAT_PROT-*%
X162000000Y-117000000D03*
D15*
%TO.P,V5,13,BAT_1*%
%TO.N,BAT_PROT+*%
X162750000Y-116250000D03*
%TO.P,V5,14,BAT_2*%
X162750000Y-115750000D03*
%TO.P,V5,15,SYS_1*%
%TO.N,CHRG_OUT*%
X162750000Y-115250000D03*
%TO.P,V5,16,SYS_2*%
X162750000Y-114750000D03*
%TO.P,V5,17,GND_1*%
%TO.N,BAT_PROT-*%
X162750000Y-114250000D03*
%TO.P,V5,18,GND_2*%
X162750000Y-113750000D03*
D16*
%TO.P,V5,19,SW_1*%
%TO.N,Net-(C2-Pad2)*%
X162000000Y-113000000D03*
%TO.P,V5,20,SW_2*%
X161500000Y-113000000D03*
%TO.P,V5,21,BTST*%
%TO.N,Net-(C2-Pad1)*%
X161000000Y-113000000D03*
%TO.P,V5,22,REGN*%
%TO.N,REGN*%
X160500000Y-113000000D03*
%TO.P,V5,23,PMID*%
%TO.N,/Power/PMID*%
X160000000Y-113000000D03*
%TO.P,V5,24,VBUS*%
%TO.N,VBUS*%
X159500000Y-113000000D03*
D17*
%TO.P,V5,25,THERMALPAD*%
%TO.N,BAT_PROT-*%
X160750000Y-115000000D03*
%TD*%
D18*
%TO.P,C10,1*%
%TO.N,3.3V*%
X135775000Y-103750000D03*
%TO.P,C10,2*%
%TO.N,BAT_PROT-*%
X134225000Y-103750000D03*
%TD*%
D19*
%TO.P,TP2,1,1*%
%TO.N,BAT_PROT-*%
X155000000Y-90000000D03*
%TD*%
D20*
%TO.P,X2,1,Pin_1*%
%TO.N,BAT-*%
X168500000Y-104500000D03*
%TO.P,X2,2,Pin_2*%
%TO.N,BAT_PROT+*%
X170500000Y-104500000D03*
D21*
%TO.P,X2,MP*%
%TO.N,N/C*%
X166100000Y-102250000D03*
X172900000Y-102250000D03*
%TD*%
D22*
%TO.P,R25,1*%
%TO.N,PHOTO*%
X150825000Y-100000000D03*
%TO.P,R25,2*%
%TO.N,BAT_PROT-*%
X149175000Y-100000000D03*
%TD*%
D23*
%TO.P,V32,1,SCL*%
%TO.N,SCL*%
X145307000Y-95964000D03*
%TO.P,V32,2,NC*%
%TO.N,unconnected-(V32-Pad2)*%
X145307000Y-95504000D03*
%TO.P,V32,3,GND*%
%TO.N,BAT_PROT-*%
X145307000Y-95044000D03*
%TO.P,V32,4,INT*%
%TO.N,GYRO_INT*%
X144867000Y-95044000D03*
%TO.P,V32,5,SDA*%
%TO.N,SDA*%
X144867000Y-95504000D03*
%TO.P,V32,6,VDD*%
%TO.N,3.3V*%
X144867000Y-95964000D03*
%TD*%
D24*
%TO.P,C5,1*%
%TO.N,VBUS*%
X156750000Y-112525000D03*
%TO.P,C5,2*%
%TO.N,BAT_PROT-*%
X156750000Y-110975000D03*
%TD*%
D25*
%TO.P,R23,1*%
%TO.N,3.3V*%
X138176000Y-93409000D03*
%TO.P,R23,2*%
%TO.N,GYRO_INT*%
X138176000Y-95059000D03*
%TD*%
D26*
%TO.P,R7,1*%
%TO.N,Net-(R7-Pad1)*%
X159175000Y-99000000D03*
%TO.P,R7,2*%
%TO.N,CHRG_OUT*%
X160825000Y-99000000D03*
%TD*%
D19*
%TO.P,TP10,1,1*%
%TO.N,/Power/~{CHRG_PG}*%
X140000000Y-113750000D03*
%TD*%
D27*
%TO.P,C20,1*%
%TO.N,3.3V*%
X142494000Y-96253000D03*
%TO.P,C20,2*%
%TO.N,BAT_PROT-*%
X142494000Y-97803000D03*
%TD*%
D28*
%TO.P,R18,1*%
%TO.N,3.3V*%
X162250000Y-76825000D03*
%TO.P,R18,2*%
%TO.N,BTN1*%
X162250000Y-75175000D03*
%TD*%
%TO.P,R1,1*%
%TO.N,/Power/CC2*%
X155750000Y-120575000D03*
%TO.P,R1,2*%
%TO.N,BAT_PROT-*%
X155750000Y-118925000D03*
%TD*%
D29*
%TO.P,S3,1*%
%TO.N,BAT_PROT-*%
X155075809Y-73251223D03*
X158561140Y-74152591D03*
%TO.P,S3,2*%
%TO.N,BTN1*%
X158924191Y-72748777D03*
X155438860Y-71847409D03*
%TD*%
D27*
%TO.P,C16,1*%
%TO.N,/MCU/DEC1*%
X134250000Y-100475000D03*
%TO.P,C16,2*%
%TO.N,BAT_PROT-*%
X134250000Y-102025000D03*
%TD*%
D30*
%TO.P,V6,1,DEC1*%
%TO.N,/MCU/DEC1*%
X132498000Y-100048000D03*
%TO.P,V6,2,P0.00/XL1*%
%TO.N,LSE1*%
X132498000Y-99548000D03*
%TO.P,V6,3,P0.01/XL2*%
%TO.N,LSE2*%
X132498000Y-99048000D03*
%TO.P,V6,4,P0.04/AIN2*%
%TO.N,TXD*%
X132498000Y-98548000D03*
%TO.P,V6,5,P0.05/AIN3*%
%TO.N,RXD*%
X132498000Y-98048000D03*
%TO.P,V6,6,P0.06*%
%TO.N,SCL*%
X132498000Y-97548000D03*
%TO.P,V6,7,P0.09*%
%TO.N,SDA*%
X132498000Y-97048000D03*
%TO.P,V6,8,P0.10*%
%TO.N,GYRO_INT*%
X132498000Y-96548000D03*
D31*
%TO.P,V6,9,VDD*%
%TO.N,3.3V*%
X131798000Y-95848000D03*
%TO.P,V6,10,P0.12*%
%TO.N,CS_IO*%
X131298000Y-95848000D03*
%TO.P,V6,11,P0.14*%
%TO.N,MOSI*%
X130798000Y-95848000D03*
%TO.P,V6,12,P0.15*%
%TO.N,SCK*%
X130298000Y-95848000D03*
%TO.P,V6,13,P0.16*%
%TO.N,MISO*%
X129798000Y-95848000D03*
%TO.P,V6,14,P0.18*%
%TO.N,BTN1*%
X129298000Y-95848000D03*
%TO.P,V6,15,P0.20*%
%TO.N,BTN0*%
X128798000Y-95848000D03*
%TO.P,V6,16,P0.21/~{RESET}*%
%TO.N,NRST*%
X128298000Y-95848000D03*
D30*
%TO.P,V6,17,SWDCLK*%
%TO.N,SWDCLK*%
X127598000Y-96548000D03*
%TO.P,V6,18,SWDIO*%
%TO.N,SWDIO*%
X127598000Y-97048000D03*
%TO.P,V6,19,ANT*%
%TO.N,/MCU/ANT_IN*%
X127598000Y-97548000D03*
%TO.P,V6,20,VSS*%
%TO.N,BAT_PROT-*%
X127598000Y-98048000D03*
%TO.P,V6,21,DEC2*%
%TO.N,unconnected-(V6-Pad21)*%
X127598000Y-98548000D03*
%TO.P,V6,22,DEC3*%
%TO.N,/MCU/DEC3*%
X127598000Y-99048000D03*
%TO.P,V6,23,XC1*%
%TO.N,HSE1*%
X127598000Y-99548000D03*
%TO.P,V6,24,XC2*%
%TO.N,HSE2*%
X127598000Y-100048000D03*
D31*
%TO.P,V6,25,VDD*%
%TO.N,3.3V*%
X128298000Y-100748000D03*
%TO.P,V6,26,P0.25*%
%TO.N,DBG_LED*%
X128798000Y-100748000D03*
%TO.P,V6,27,P0.28/AIN4*%
%TO.N,BAT_SENS*%
X129298000Y-100748000D03*
%TO.P,V6,28,P0.30/AIN6*%
%TO.N,PHOTO*%
X129798000Y-100748000D03*
%TO.P,V6,29,VSS*%
%TO.N,BAT_PROT-*%
X130298000Y-100748000D03*
%TO.P,V6,30,DEC4*%
%TO.N,/MCU/DEC4*%
X130798000Y-100748000D03*
%TO.P,V6,31,DCC*%
%TO.N,/MCU/DCC*%
X131298000Y-100748000D03*
%TO.P,V6,32,VDD*%
%TO.N,3.3V*%
X131798000Y-100748000D03*
D32*
%TO.P,V6,33,VSS*%
%TO.N,BAT_PROT-*%
X130048000Y-98298000D03*
%TD*%
D26*
%TO.P,R13,1*%
%TO.N,/Power/NTC_IN*%
X162175000Y-125000000D03*
%TO.P,R13,2*%
%TO.N,BAT_PROT-*%
X163825000Y-125000000D03*
%TD*%
D24*
%TO.P,C9,1*%
%TO.N,BAT_PROT-*%
X124798000Y-107948000D03*
%TO.P,C9,2*%
%TO.N,HSE1*%
X124798000Y-106398000D03*
%TD*%
D28*
%TO.P,R17,1*%
%TO.N,3.3V*%
X137750000Y-76825000D03*
%TO.P,R17,2*%
%TO.N,BTN0*%
X137750000Y-75175000D03*
%TD*%
D19*
%TO.P,TP6,1,1*%
%TO.N,BAT_PROT-*%
X129500000Y-117750000D03*
%TD*%
D26*
%TO.P,R20,1*%
%TO.N,BAT_SENS*%
X147925000Y-102500000D03*
%TO.P,R20,2*%
%TO.N,BAT_PROT-*%
X149575000Y-102500000D03*
%TD*%
D25*
%TO.P,R2,1*%
%TO.N,/Power/CC1*%
X144000000Y-118925000D03*
%TO.P,R2,2*%
%TO.N,BAT_PROT-*%
X144000000Y-120575000D03*
%TD*%
D33*
%TO.P,L2,1*%
%TO.N,Net-(L2-Pad1)*%
X154925000Y-105000000D03*
%TO.P,L2,2*%
%TO.N,Net-(L2-Pad2)*%
X157075000Y-105000000D03*
%TD*%
D19*
%TO.P,TP4,1,1*%
%TO.N,BAT-*%
X162750000Y-106500000D03*
%TD*%
D34*
%TO.P,S1,1*%
%TO.N,BAT_PROT-*%
X148000000Y-78250000D03*
X152000000Y-78250000D03*
%TO.P,S1,2*%
%TO.N,NRST*%
X152000000Y-79750000D03*
X148000000Y-79750000D03*
%TD*%
D27*
%TO.P,C1,1*%
%TO.N,Net-(C1-Pad1)*%
X175500000Y-110225000D03*
%TO.P,C1,2*%
%TO.N,BAT-*%
X175500000Y-111775000D03*
%TD*%
D35*
%TO.P,S2,1*%
%TO.N,BAT_PROT-*%
X141438860Y-74152591D03*
X144924191Y-73251223D03*
%TO.P,S2,2*%
%TO.N,BTN0*%
X141075809Y-72748777D03*
X144561140Y-71847409D03*
%TD*%
D27*
%TO.P,C15,1*%
%TO.N,/MCU/DEC3*%
X126048000Y-99273000D03*
%TO.P,C15,2*%
%TO.N,BAT_PROT-*%
X126048000Y-100823000D03*
%TD*%
D36*
%TO.P,L1,1*%
%TO.N,Net-(C2-Pad2)*%
X164712500Y-110750000D03*
%TO.P,L1,2*%
%TO.N,CHRG_OUT*%
X166287500Y-110750000D03*
%TD*%
D24*
%TO.P,C8,1*%
%TO.N,CHRG_OUT*%
X164750000Y-114250000D03*
%TO.P,C8,2*%
%TO.N,BAT_PROT-*%
X164750000Y-112700000D03*
%TD*%
D26*
%TO.P,R21,1*%
%TO.N,3.3V*%
X131925000Y-114250000D03*
%TO.P,R21,2*%
%TO.N,Net-(R21-Pad2)*%
X133575000Y-114250000D03*
%TD*%
D19*
%TO.P,TP3,1,1*%
%TO.N,BAT_PROT+*%
X162750000Y-102750000D03*
%TD*%
D37*
%TO.P,FB1,1*%
%TO.N,Net-(F1-Pad2)*%
X153750000Y-110437500D03*
%TO.P,FB1,2*%
%TO.N,VBUS*%
X153750000Y-112562500D03*
%TD*%
D19*
%TO.P,TP1,1,1*%
%TO.N,3.3V*%
X135000000Y-117750000D03*
%TD*%
%TO.P,TP5,1,1*%
%TO.N,VBUS*%
X156000000Y-109000000D03*
%TD*%
D22*
%TO.P,R24,1*%
%TO.N,3.3V*%
X138825000Y-78750000D03*
%TO.P,R24,2*%
%TO.N,Net-(R24-Pad2)*%
X137175000Y-78750000D03*
%TD*%
D38*
%TO.P,V33,1,VDD*%
%TO.N,3.3V*%
X138312500Y-84500000D03*
%TO.P,V33,2,~{RESET}*%
%TO.N,Net-(R24-Pad2)*%
X138312500Y-85000000D03*
%TO.P,V33,3,VDDIO*%
%TO.N,3.3V*%
X138312500Y-85500000D03*
%TO.P,V33,4,SDO*%
%TO.N,MISO*%
X138312500Y-86000000D03*
%TO.P,V33,5,SCLK*%
%TO.N,SCK*%
X138312500Y-86500000D03*
%TO.P,V33,6,SDI*%
%TO.N,MOSI*%
X138312500Y-87000000D03*
%TO.P,V33,7,~{CS}*%
%TO.N,CS_IO*%
X138312500Y-87500000D03*
%TO.P,V33,8,~{OE}*%
%TO.N,BAT_PROT-*%
X138312500Y-88000000D03*
%TO.P,V33,9,VSS_1*%
X138312500Y-88500000D03*
%TO.P,V33,10,N/C_1*%
%TO.N,unconnected-(V33-Pad10)*%
X138312500Y-89000000D03*
D39*
%TO.P,V33,11,TEST*%
%TO.N,unconnected-(V33-Pad11)*%
X139000000Y-89687500D03*
%TO.P,V33,12,N/C_2*%
%TO.N,unconnected-(V33-Pad12)*%
X139500000Y-89687500D03*
%TO.P,V33,13,LED0*%
%TO.N,Ring1_2*%
X140000000Y-89687500D03*
%TO.P,V33,14,LED1*%
%TO.N,Ring0_2*%
X140500000Y-89687500D03*
%TO.P,V33,15,LED2*%
%TO.N,Ring1_3*%
X141000000Y-89687500D03*
%TO.P,V33,16,LED3*%
%TO.N,Ring0_3*%
X141500000Y-89687500D03*
%TO.P,V33,17,LED4*%
%TO.N,Ring1_4*%
X142000000Y-89687500D03*
%TO.P,V33,18,LED5*%
%TO.N,Ring0_4*%
X142500000Y-89687500D03*
%TO.P,V33,19,LED6*%
%TO.N,Ring1_5*%
X143000000Y-89687500D03*
%TO.P,V33,20,LED7*%
%TO.N,Ring0_5*%
X143500000Y-89687500D03*
D38*
%TO.P,V33,21,VSS_2*%
%TO.N,BAT_PROT-*%
X144187500Y-89000000D03*
%TO.P,V33,22,N/C_3*%
%TO.N,unconnected-(V33-Pad22)*%
X144187500Y-88500000D03*
%TO.P,V33,23,LED8*%
%TO.N,Ring1_6*%
X144187500Y-88000000D03*
%TO.P,V33,24,LED9*%
%TO.N,Ring0_6*%
X144187500Y-87500000D03*
%TO.P,V33,25,LED10*%
%TO.N,Ring1_7*%
X144187500Y-87000000D03*
%TO.P,V33,26,LED11*%
%TO.N,Ring0_7*%
X144187500Y-86500000D03*
%TO.P,V33,27,LED12*%
%TO.N,Ring1_8*%
X144187500Y-86000000D03*
%TO.P,V33,28,LED13*%
%TO.N,Ring0_8*%
X144187500Y-85500000D03*
%TO.P,V33,29,LED14*%
%TO.N,Ring1_9*%
X144187500Y-85000000D03*
%TO.P,V33,30,LED15*%
%TO.N,Ring0_9*%
X144187500Y-84500000D03*
D39*
%TO.P,V33,31,LED16*%
%TO.N,Ring1_10*%
X143500000Y-83812500D03*
%TO.P,V33,32,LED17*%
%TO.N,Ring0_10*%
X143000000Y-83812500D03*
%TO.P,V33,33,LED18*%
%TO.N,Ring1_11*%
X142500000Y-83812500D03*
%TO.P,V33,34,LED19*%
%TO.N,Ring0_11*%
X142000000Y-83812500D03*
%TO.P,V33,35,LED20*%
%TO.N,Ring1_0*%
X141500000Y-83812500D03*
%TO.P,V33,36,LED21*%
%TO.N,Ring0_0*%
X141000000Y-83812500D03*
%TO.P,V33,37,LED22*%
%TO.N,Ring1_1*%
X140500000Y-83812500D03*
%TO.P,V33,38,LED23*%
%TO.N,Ring0_1*%
X140000000Y-83812500D03*
%TO.P,V33,39,REXT*%
%TO.N,Net-(R22-Pad2)*%
X139500000Y-83812500D03*
%TO.P,V33,40,VSS_3*%
%TO.N,BAT_PROT-*%
X139000000Y-83812500D03*
D40*
%TO.P,V33,41,VSS_4*%
X141250000Y-86750000D03*
%TD*%
D41*
%TO.P,C2,1*%
%TO.N,Net-(C2-Pad1)*%
X161475000Y-110750000D03*
%TO.P,C2,2*%
%TO.N,Net-(C2-Pad2)*%
X163025000Y-110750000D03*
%TD*%
D42*
%TO.P,Y1,1,1*%
%TO.N,HSE1*%
X126848000Y-106048000D03*
%TO.P,Y1,2,2*%
%TO.N,BAT_PROT-*%
X126848000Y-107798000D03*
%TO.P,Y1,3,3*%
%TO.N,HSE2*%
X128248000Y-107798000D03*
%TO.P,Y1,4,4*%
%TO.N,BAT_PROT-*%
X128248000Y-106048000D03*
%TD*%
D22*
%TO.P,R22,1*%
%TO.N,BAT_PROT-*%
X138825000Y-80500000D03*
%TO.P,R22,2*%
%TO.N,Net-(R22-Pad2)*%
X137175000Y-80500000D03*
%TD*%
D19*
%TO.P,TP7,1,1*%
%TO.N,Net-(R6-Pad1)*%
X152500000Y-94500000D03*
%TD*%
D24*
%TO.P,C6,1*%
%TO.N,CHRG_OUT*%
X159250000Y-102525000D03*
%TO.P,C6,2*%
%TO.N,BAT_PROT-*%
X159250000Y-100975000D03*
%TD*%
D19*
%TO.P,TP8,1,1*%
%TO.N,Net-(R7-Pad1)*%
X156000000Y-94500000D03*
%TD*%
D18*
%TO.P,C19,1*%
%TO.N,BAT_PROT-*%
X140573000Y-98500000D03*
%TO.P,C19,2*%
%TO.N,LSE2*%
X139023000Y-98500000D03*
%TD*%
D22*
%TO.P,R12,1*%
%TO.N,REGN*%
X163825000Y-123000000D03*
%TO.P,R12,2*%
%TO.N,/Power/NTC_IN*%
X162175000Y-123000000D03*
%TD*%
D28*
%TO.P,R3,1*%
%TO.N,BAT_PROT-*%
X169000000Y-111825000D03*
%TO.P,R3,2*%
%TO.N,Net-(R3-Pad2)*%
X169000000Y-110175000D03*
%TD*%
D26*
%TO.P,R6,1*%
%TO.N,Net-(R6-Pad1)*%
X159175000Y-97250000D03*
%TO.P,R6,2*%
%TO.N,CHRG_OUT*%
X160825000Y-97250000D03*
%TD*%
D22*
%TO.P,R11,1*%
%TO.N,BAT_PROT-*%
X163325000Y-119000000D03*
%TO.P,R11,2*%
%TO.N,/Power/ICHG*%
X161675000Y-119000000D03*
%TD*%
D43*
%TO.P,L3,1*%
%TO.N,Net-(L3-Pad1)*%
X132585500Y-104548000D03*
%TO.P,L3,2*%
%TO.N,/MCU/DEC4*%
X131010500Y-104548000D03*
%TD*%
D22*
%TO.P,R5,1*%
%TO.N,/Power/Shield*%
X142075000Y-120500000D03*
%TO.P,R5,2*%
%TO.N,BAT_PROT-*%
X140425000Y-120500000D03*
%TD*%
D44*
%TO.P,V3,1,COMMON_A*%
%TO.N,VBUS_CONN*%
X150750000Y-112150000D03*
D45*
%TO.P,V3,2,K_1*%
%TO.N,BAT_PROT-*%
X149050000Y-112150000D03*
%TO.P,V3,3,K_2*%
%TO.N,USB_D-*%
X149050000Y-114350000D03*
%TO.P,V3,4,K_3*%
%TO.N,USB_D+*%
X150950000Y-114350000D03*
%TD*%
D46*
%TO.P,V2,1,SOURCE1*%
%TO.N,BAT-*%
X172900000Y-113562000D03*
%TO.P,V2,2,GATE1*%
%TO.N,Net-(V1-Pad1)*%
X172250000Y-113562000D03*
%TO.P,V2,3,DRAIN2_1*%
%TO.N,Net-(V2-Pad3)*%
X171600000Y-113562000D03*
%TO.P,V2,4,SOURCE2*%
%TO.N,BAT_PROT-*%
X171600000Y-115438000D03*
%TO.P,V2,5,GATE2*%
%TO.N,Net-(V1-Pad3)*%
X172250000Y-115438000D03*
%TO.P,V2,6,DRAIN2_2*%
%TO.N,Net-(V2-Pad3)*%
X172900000Y-115438000D03*
D47*
%TO.P,V2,7,D2*%
%TO.N,BAT_PROT-*%
X171775000Y-114500000D03*
%TO.P,V2,8,D1*%
X172725000Y-114500000D03*
%TD*%
D41*
%TO.P,C12,1*%
%TO.N,3.3V*%
X132975000Y-94000000D03*
%TO.P,C12,2*%
%TO.N,BAT_PROT-*%
X134525000Y-94000000D03*
%TD*%
D48*
%TO.P,V4,1,VOUT*%
%TO.N,3.3V*%
X155250000Y-102500000D03*
%TO.P,V4,2,LX2*%
%TO.N,Net-(L2-Pad1)*%
X155650000Y-102500000D03*
%TO.P,V4,3,PGND*%
%TO.N,BAT_PROT-*%
X156050000Y-102500000D03*
%TO.P,V4,4,LX1*%
%TO.N,Net-(L2-Pad2)*%
X156450000Y-102500000D03*
%TO.P,V4,5,PVIN*%
%TO.N,CHRG_OUT*%
X156850000Y-102500000D03*
%TO.P,V4,6,VIN*%
X157250000Y-102500000D03*
%TO.P,V4,7,PG*%
%TO.N,Net-(R7-Pad1)*%
X157250000Y-99500000D03*
%TO.P,V4,8,~{BAT}*%
%TO.N,Net-(R6-Pad1)*%
X156850000Y-99500000D03*
%TO.P,V4,9,EN*%
%TO.N,CHRG_OUT*%
X156450000Y-99500000D03*
%TO.P,V4,10,MODE/SYNC*%
X156050000Y-99500000D03*
%TO.P,V4,11,GND*%
%TO.N,BAT_PROT-*%
X155650000Y-99500000D03*
%TO.P,V4,12,FB*%
%TO.N,3.3V*%
X155250000Y-99500000D03*
D49*
%TO.P,V4,13,EP*%
%TO.N,BAT_PROT-*%
X156250000Y-101000000D03*
%TD*%
D36*
%TO.P,L5,1*%
%TO.N,/MCU/ANT_TP*%
X124510500Y-97536000D03*
%TO.P,L5,2*%
%TO.N,/MCU/ANT_IN*%
X126085500Y-97536000D03*
%TD*%
D19*
%TO.P,TP9,1,1*%
%TO.N,/Power/CHRG_STAT*%
X143500000Y-113750000D03*
%TD*%
D41*
%TO.P,C13,1*%
%TO.N,/MCU/DEC4*%
X131023000Y-102798000D03*
%TO.P,C13,2*%
%TO.N,BAT_PROT-*%
X132573000Y-102798000D03*
%TD*%
D22*
%TO.P,R19,1*%
%TO.N,BAT_PROT+*%
X149575000Y-104250000D03*
%TO.P,R19,2*%
%TO.N,BAT_SENS*%
X147925000Y-104250000D03*
%TD*%
D50*
%TO.P,X4,1,Pin_1*%
%TO.N,TXD*%
X139986000Y-106426000D03*
%TO.P,X4,2,Pin_2*%
%TO.N,RXD*%
X141986000Y-106426000D03*
%TO.P,X4,3,Pin_3*%
%TO.N,BAT_PROT-*%
X143986000Y-106426000D03*
%TD*%
D26*
%TO.P,R16,1*%
%TO.N,3.3V*%
X143925000Y-79750000D03*
%TO.P,R16,2*%
%TO.N,NRST*%
X145575000Y-79750000D03*
%TD*%
D19*
%TO.P,TP11,1,1*%
%TO.N,PHOTO*%
X149000000Y-94500000D03*
%TD*%
D51*
%TO.P,X3,1,Pin_1*%
%TO.N,/Power/NTC_IN*%
X158250000Y-123714000D03*
%TO.P,X3,2,Pin_2*%
%TO.N,BAT_PROT-*%
X158250000Y-125714000D03*
%TD*%
D52*
%TO.P,V1,1,DO*%
%TO.N,Net-(V1-Pad1)*%
X170950000Y-109300000D03*
%TO.P,V1,2,VM*%
%TO.N,Net-(R3-Pad2)*%
X170950000Y-110250000D03*
%TO.P,V1,3,CO*%
%TO.N,Net-(V1-Pad3)*%
X170950000Y-111200000D03*
%TO.P,V1,4,NC*%
%TO.N,unconnected-(V1-Pad4)*%
X173550000Y-111200000D03*
%TO.P,V1,5,VDD*%
%TO.N,Net-(C1-Pad1)*%
X173550000Y-110250000D03*
%TO.P,V1,6,VSS*%
%TO.N,BAT-*%
X173550000Y-109300000D03*
%TD*%
D26*
%TO.P,R8,1*%
%TO.N,3.3V*%
X139425000Y-123750000D03*
%TO.P,R8,2*%
%TO.N,/Power/CHRG_STAT*%
X141075000Y-123750000D03*
%TD*%
D36*
%TO.P,L4,1*%
%TO.N,/MCU/DCC*%
X132010500Y-106298000D03*
%TO.P,L4,2*%
%TO.N,Net-(L3-Pad1)*%
X133585500Y-106298000D03*
%TD*%
D25*
%TO.P,R15,1*%
%TO.N,3.3V*%
X136250000Y-94425000D03*
%TO.P,R15,2*%
%TO.N,SDA*%
X136250000Y-96075000D03*
%TD*%
D26*
%TO.P,R9,1*%
%TO.N,3.3V*%
X139425000Y-125500000D03*
%TO.P,R9,2*%
%TO.N,/Power/~{CHRG_PG}*%
X141075000Y-125500000D03*
%TD*%
D18*
%TO.P,C11,1*%
%TO.N,3.3V*%
X127525000Y-103000000D03*
%TO.P,C11,2*%
%TO.N,BAT_PROT-*%
X125975000Y-103000000D03*
%TD*%
D53*
%TO.P,R4,1*%
%TO.N,Net-(C1-Pad1)*%
X176500000Y-106962500D03*
%TO.P,R4,2*%
%TO.N,BAT_PROT+*%
X176500000Y-101037500D03*
%TD*%
D54*
%TO.P,AE1,1,A*%
%TO.N,/MCU/ANT_TP*%
X122048000Y-97498000D03*
%TO.P,AE1,MT*%
%TO.N,N/C*%
X122048000Y-102598000D03*
%TD*%
D27*
%TO.P,C7,1*%
%TO.N,BAT_PROT+*%
X164750000Y-115950000D03*
%TO.P,C7,2*%
%TO.N,BAT_PROT-*%
X164750000Y-117500000D03*
%TD*%
D18*
%TO.P,C17,1*%
%TO.N,BAT_PROT-*%
X140525000Y-101500000D03*
%TO.P,C17,2*%
%TO.N,LSE1*%
X138975000Y-101500000D03*
%TD*%
D27*
%TO.P,C4,1*%
%TO.N,3.3V*%
X153250000Y-100975000D03*
%TO.P,C4,2*%
%TO.N,BAT_PROT-*%
X153250000Y-102525000D03*
%TD*%
D24*
%TO.P,C18,1*%
%TO.N,/MCU/ANT_IN*%
X124500000Y-95775000D03*
%TO.P,C18,2*%
%TO.N,BAT_PROT-*%
X124500000Y-94225000D03*
%TD*%
D25*
%TO.P,R14,1*%
%TO.N,3.3V*%
X140000000Y-94425000D03*
%TO.P,R14,2*%
%TO.N,SCL*%
X140000000Y-96075000D03*
%TD*%
D24*
%TO.P,C14,1*%
%TO.N,BAT_PROT-*%
X130298000Y-107948000D03*
%TO.P,C14,2*%
%TO.N,HSE2*%
X130298000Y-106398000D03*
%TD*%
%TO.P,C3,1*%
%TO.N,/Power/PMID*%
X159000000Y-111025000D03*
%TO.P,C3,2*%
%TO.N,BAT_PROT-*%
X159000000Y-109475000D03*
%TD*%
D22*
%TO.P,R10,1*%
%TO.N,BAT_PROT-*%
X163325000Y-121000000D03*
%TO.P,R10,2*%
%TO.N,/Power/ILIM*%
X161675000Y-121000000D03*
%TD*%
D55*
%TO.P,F1,1*%
%TO.N,VBUS_CONN*%
X152125000Y-108500000D03*
%TO.P,F1,2*%
%TO.N,Net-(F1-Pad2)*%
X153875000Y-108500000D03*
%TD*%
D56*
%TO.N,BAT-*%
X171400000Y-107900000D03*
X168508636Y-107916500D03*
D57*
%TO.N,BAT_PROT-*%
X143050000Y-88550000D03*
D56*
X137679648Y-89595395D03*
X145100000Y-88950000D03*
X133631500Y-95000000D03*
D57*
X128600000Y-99750000D03*
D56*
X127500000Y-109000000D03*
X159800000Y-108900000D03*
X150654500Y-102500000D03*
X159300000Y-100100000D03*
X171100000Y-114800000D03*
X134226600Y-104694135D03*
X140425500Y-121600000D03*
X144000000Y-121750000D03*
X134400000Y-86350000D03*
X152500000Y-121900000D03*
X163750000Y-113083500D03*
D57*
X139450000Y-88550000D03*
D56*
X138400000Y-83800000D03*
D57*
X128581487Y-96849500D03*
D56*
X158300000Y-101000000D03*
X154550000Y-100250000D03*
X133406500Y-87300000D03*
X127950000Y-105006500D03*
X140000000Y-80500000D03*
X155435168Y-97843971D03*
X130000000Y-85250000D03*
D57*
X139433033Y-84850659D03*
D56*
X163864909Y-117456110D03*
D57*
X131501485Y-96849500D03*
D56*
X164289105Y-120590820D03*
X129500000Y-119000000D03*
X158750000Y-116850000D03*
X157000000Y-110000000D03*
X147000000Y-121900000D03*
X130298000Y-108952000D03*
D57*
X152500000Y-120400000D03*
D56*
X148100000Y-112200000D03*
X157750000Y-111000000D03*
X173600000Y-114500000D03*
X164700000Y-125000000D03*
X152095500Y-102525000D03*
X140656500Y-100500000D03*
X144750000Y-93500000D03*
X140000000Y-74750000D03*
X160000000Y-74750000D03*
D57*
X143050000Y-84950000D03*
D56*
X147250000Y-118600000D03*
X162907440Y-117397922D03*
X160214000Y-125714000D03*
X152750000Y-118600000D03*
X152000000Y-77250000D03*
X164200000Y-119000000D03*
X144000000Y-104250000D03*
D57*
X147300000Y-120300000D03*
D56*
X169000000Y-112650000D03*
D57*
X131500000Y-99750000D03*
D56*
X155000000Y-91500000D03*
X140656500Y-99500000D03*
X157945647Y-100154500D03*
X155750000Y-118050000D03*
X158100000Y-109500000D03*
X163650000Y-114000000D03*
X125500000Y-89000000D03*
%TO.N,3.3V*%
X173750000Y-100250000D03*
X144000000Y-96250000D03*
X129500000Y-89500000D03*
X170750000Y-89250000D03*
X150950000Y-83654500D03*
X157250000Y-118250000D03*
X132706919Y-95095500D03*
X136250000Y-93350000D03*
X136000000Y-122750000D03*
X139500000Y-77250000D03*
X137000000Y-84000000D03*
X133250000Y-108500000D03*
X135800000Y-104700000D03*
X144000000Y-78750000D03*
X151000000Y-76500000D03*
X160206404Y-121587192D03*
X154404500Y-101250000D03*
X164500000Y-92750000D03*
X135250000Y-85000000D03*
X168843500Y-114250000D03*
X133250000Y-93000000D03*
X160000000Y-83000000D03*
X146750000Y-116843500D03*
X127250000Y-113750000D03*
X169000000Y-101000000D03*
X149000000Y-126250000D03*
X154847613Y-98564218D03*
X127600000Y-101900000D03*
X128260193Y-103685796D03*
X147750000Y-100000000D03*
X144250000Y-83750000D03*
X152000000Y-101000000D03*
X141250000Y-94500000D03*
X131000000Y-114250000D03*
X135000000Y-119000000D03*
X164000000Y-77500000D03*
X154575000Y-102325000D03*
X163500000Y-109000000D03*
X141029503Y-113750000D03*
%TO.N,CHRG_OUT*%
X160500000Y-102500000D03*
X157000000Y-97750000D03*
X166250000Y-112250000D03*
D57*
%TO.N,/Power/CC2*%
X155750000Y-122000000D03*
X150250000Y-121993500D03*
D56*
%TO.N,/Power/CHRG_STAT*%
X152750000Y-116500000D03*
X148250000Y-115750000D03*
%TO.N,/Power/~{CHRG_PG}*%
X155250000Y-123654500D03*
X144750000Y-123750000D03*
%TO.N,REGN*%
X160750000Y-109250000D03*
X166000000Y-116750000D03*
%TO.N,NRST*%
X129750000Y-90750000D03*
X145500000Y-81000000D03*
X131750000Y-82500000D03*
%TO.N,BTN0*%
X129750000Y-91750000D03*
X132750000Y-82500000D03*
%TO.N,BTN1*%
X162500000Y-87000000D03*
X162500000Y-82500000D03*
X129750000Y-92750000D03*
X139250000Y-92750000D03*
%TO.N,BAT_SENS*%
X136750000Y-103000000D03*
X129710210Y-103000000D03*
%TO.N,PHOTO*%
X138000000Y-102500000D03*
X152000000Y-100000000D03*
X129952500Y-102000000D03*
%TO.N,Net-(V2-Pad3)*%
X170156500Y-114038350D03*
X173000000Y-116500000D03*
D57*
%TO.N,USB_D-*%
X149500000Y-113250000D03*
D56*
X152790810Y-115501600D03*
D57*
%TO.N,USB_D+*%
X149256500Y-120149502D03*
D56*
X152790810Y-114498400D03*
D57*
X150500000Y-118500000D03*
X150500000Y-113250000D03*
D56*
%TO.N,RXD*%
X136500000Y-97616500D03*
X142000000Y-104250000D03*
%TO.N,TXD*%
X140000000Y-104250000D03*
X134921284Y-98349716D03*
%TO.N,DBG_LED*%
X132000000Y-110250000D03*
X128504500Y-102250000D03*
%TO.N,Ring0_0*%
X148250000Y-76500000D03*
%TO.N,Ring0_1*%
X141000000Y-79750000D03*
%TO.N,Ring0_2*%
X137000000Y-91500000D03*
X134750000Y-83750000D03*
X133500000Y-80000000D03*
%TO.N,Ring0_3*%
X141750000Y-91439000D03*
%TO.N,Ring0_4*%
X148000000Y-92093500D03*
%TO.N,Ring0_5*%
X150000000Y-92093500D03*
X138000000Y-120250000D03*
X146995500Y-104000000D03*
%TO.N,Ring0_6*%
X152750000Y-89500000D03*
%TO.N,Ring0_7*%
X154750000Y-87500000D03*
%TO.N,Ring0_8*%
X165250000Y-86250000D03*
X172250000Y-97500000D03*
X169000000Y-86250000D03*
%TO.N,Ring0_9*%
X175000000Y-97500000D03*
%TO.N,Ring0_10*%
X169250000Y-83750000D03*
%TO.N,Ring0_11*%
X160750000Y-78750000D03*
%TO.N,Ring1_0*%
X142000000Y-81813500D03*
%TO.N,Ring1_1*%
X140000000Y-81813500D03*
%TO.N,Ring1_2*%
X135500000Y-92550000D03*
%TO.N,Ring1_3*%
X143000000Y-101750000D03*
X146000000Y-93406500D03*
X146000000Y-92093500D03*
%TO.N,Ring1_4*%
X147000000Y-92093500D03*
%TO.N,Ring1_5*%
X149000000Y-92093500D03*
%TO.N,Ring1_6*%
X151750000Y-90250000D03*
%TO.N,Ring1_7*%
X153750000Y-88750000D03*
%TO.N,Ring1_8*%
X165750000Y-97500000D03*
%TO.N,Ring1_9*%
X167500000Y-97500000D03*
%TO.N,Ring1_10*%
X155472011Y-83655931D03*
%TO.N,Ring1_11*%
X158250000Y-83000000D03*
D57*
%TO.N,VBUS_CONN*%
X148400000Y-120299502D03*
X150500000Y-120299502D03*
%TD*%
D58*
%TO.N,BAT-*%
X172511000Y-109589000D02*
X172511000Y-108811000D01*
X172511000Y-108811000D02*
X172400000Y-108700000D01*
D59*
%TO.N,USB_D-*%
X149050000Y-114350000D02*
X149050000Y-113450000D01*
X149050000Y-113450000D02*
X149250000Y-113250000D01*
X149250000Y-113250000D02*
X149500000Y-113250000D01*
%TO.N,USB_D+*%
X150950000Y-114350000D02*
X150950000Y-113450000D01*
X150950000Y-113450000D02*
X150750000Y-113250000D01*
X150750000Y-113250000D02*
X150500000Y-113250000D01*
D60*
%TO.N,Net-(C1-Pad1)*%
X173550000Y-110250000D02*
X175475000Y-110250000D01*
X175500000Y-110225000D02*
X175500000Y-109250000D01*
X175475000Y-110250000D02*
X175500000Y-110225000D01*
X176500000Y-108250000D02*
X176500000Y-106962500D01*
X175500000Y-109250000D02*
X176500000Y-108250000D01*
%TO.N,BAT-*%
X162750000Y-106500000D02*
X166100000Y-106500000D01*
D58*
X173000000Y-109300000D02*
X173550000Y-109300000D01*
X174300000Y-112000000D02*
X174525000Y-111775000D01*
X172400000Y-108300000D02*
X172400000Y-108700000D01*
D60*
X166850000Y-104500000D02*
X168500000Y-104500000D01*
X166450000Y-104900000D02*
X166850000Y-104500000D01*
X166100000Y-106500000D02*
X166450000Y-106150000D01*
D58*
X172511000Y-111800000D02*
X172711000Y-112000000D01*
X168508636Y-107916500D02*
X168508636Y-104508636D01*
X172900000Y-112000000D02*
X174300000Y-112000000D01*
X168508636Y-104508636D02*
X168500000Y-104500000D01*
X174525000Y-111775000D02*
X175500000Y-111775000D01*
X171400000Y-107900000D02*
X172000000Y-107900000D01*
X172400000Y-108700000D02*
X173000000Y-109300000D01*
X173550000Y-109300000D02*
X172800000Y-109300000D01*
X172000000Y-107900000D02*
X172400000Y-108300000D01*
X172900000Y-113562000D02*
X172900000Y-112000000D01*
X172800000Y-109300000D02*
X172511000Y-109589000D01*
D60*
X166450000Y-106150000D02*
X166450000Y-104900000D01*
D58*
X172711000Y-112000000D02*
X172900000Y-112000000D01*
X172511000Y-109589000D02*
X172511000Y-111800000D01*
D60*
%TO.N,Net-(C2-Pad1)*%
X161475000Y-111775000D02*
X161475000Y-110750000D01*
X161000000Y-112250000D02*
X161475000Y-111775000D01*
X161000000Y-113000000D02*
X161000000Y-112250000D01*
D58*
%TO.N,Net-(C2-Pad2)*%
X163025000Y-110750000D02*
X163025000Y-112675000D01*
X164712500Y-110750000D02*
X163025000Y-110750000D01*
X163025000Y-112675000D02*
X162700000Y-113000000D01*
X162700000Y-113000000D02*
X161534000Y-113000000D01*
D60*
%TO.N,/Power/PMID*%
X160000000Y-112250000D02*
X159750000Y-112000000D01*
X159250000Y-112000000D02*
X159000000Y-111750000D01*
X160000000Y-113000000D02*
X160000000Y-112250000D01*
X159750000Y-112000000D02*
X159250000Y-112000000D01*
X159000000Y-111750000D02*
X159000000Y-111025000D01*
D61*
%TO.N,BAT_PROT-*%
X152000000Y-77250000D02*
X152000000Y-78250000D01*
X144000000Y-104250000D02*
X143986000Y-104264000D01*
D58*
X171600000Y-115438000D02*
X171600000Y-114675000D01*
X145100000Y-88950000D02*
X145041000Y-89009000D01*
D60*
X155650000Y-99500000D02*
X155650000Y-100400000D01*
D61*
X130868904Y-87658797D02*
X131250000Y-87277701D01*
X130298000Y-100748000D02*
X130298000Y-98548000D01*
D60*
X160500000Y-117000000D02*
X160500000Y-115250000D01*
D61*
X134525000Y-94475000D02*
X134000000Y-95000000D01*
X150654500Y-102500000D02*
X150679500Y-102525000D01*
X124500000Y-94225000D02*
X125275000Y-94225000D01*
D60*
X139750000Y-88250000D02*
X141250000Y-86750000D01*
X129500000Y-117750000D02*
X129500000Y-119000000D01*
X164750000Y-117500000D02*
X163908799Y-117500000D01*
X156750000Y-110975000D02*
X157725000Y-110975000D01*
X155900000Y-101000000D02*
X155300000Y-100400000D01*
X158750000Y-116850000D02*
X156650000Y-116850000D01*
D58*
X171775000Y-114500000D02*
X171400000Y-114500000D01*
D60*
X140573000Y-98500000D02*
X141250000Y-98500000D01*
D61*
X125500000Y-94000000D02*
X125500000Y-93750000D01*
D58*
X138400000Y-83800000D02*
X138987500Y-83800000D01*
D60*
X152744000Y-120006000D02*
X152500000Y-120250000D01*
D61*
X125275000Y-94225000D02*
X125500000Y-94000000D01*
D60*
X127500000Y-109000000D02*
X127000000Y-109000000D01*
X158750000Y-116850000D02*
X158750000Y-116250000D01*
X152750000Y-119420000D02*
X152750000Y-118600000D01*
X162000000Y-116250000D02*
X161500000Y-115750000D01*
X157545500Y-100154500D02*
X157945647Y-100154500D01*
X149575000Y-102500000D02*
X150654500Y-102500000D01*
D61*
X134750000Y-85750000D02*
X133537828Y-84537828D01*
D58*
X145041000Y-89009000D02*
X144377554Y-89009000D01*
D61*
X159402591Y-74152591D02*
X160000000Y-74750000D01*
D60*
X158250000Y-125714000D02*
X160214000Y-125714000D01*
D61*
X134400000Y-86350000D02*
X134750000Y-86000000D01*
D60*
X156250000Y-101000000D02*
X156050000Y-101200000D01*
X126048000Y-100823000D02*
X126048000Y-102927000D01*
X139000000Y-83812500D02*
X139000000Y-84250000D01*
X140000000Y-88000000D02*
X141250000Y-86750000D01*
D61*
X145307000Y-94057000D02*
X144750000Y-93500000D01*
D60*
X138312500Y-88000000D02*
X140000000Y-88000000D01*
X147250000Y-120250000D02*
X147250000Y-119420000D01*
X162900000Y-117400000D02*
X162905362Y-117400000D01*
X132573000Y-102798000D02*
X132573000Y-103523000D01*
D62*
X163650000Y-114050000D02*
X163650000Y-113183500D01*
D61*
X131597346Y-86618474D02*
X131368474Y-86618474D01*
D60*
X126506500Y-105006500D02*
X125975000Y-104475000D01*
X139500000Y-88500000D02*
X139750000Y-88250000D01*
X158975000Y-109500000D02*
X159000000Y-109475000D01*
D58*
X171400000Y-114500000D02*
X171100000Y-114800000D01*
D60*
X147250000Y-119420000D02*
X147250000Y-118600000D01*
D61*
X131368474Y-86618474D02*
X130000000Y-85250000D01*
D60*
X128248000Y-105304500D02*
X127950000Y-105006500D01*
D61*
X131618474Y-86618474D02*
X132750000Y-87750000D01*
D60*
X164289105Y-120590820D02*
X163879925Y-121000000D01*
X132573000Y-103523000D02*
X132800000Y-103750000D01*
X158100000Y-109500000D02*
X158975000Y-109500000D01*
X140525000Y-100631500D02*
X140525000Y-101500000D01*
D58*
X137679648Y-89595395D02*
X137491000Y-89406747D01*
D62*
X161750000Y-114000000D02*
X160750000Y-115000000D01*
D61*
X131250000Y-86965820D02*
X131597346Y-86618474D01*
X134750000Y-86000000D02*
X134750000Y-85750000D01*
D60*
X152500000Y-121120000D02*
X152500000Y-121900000D01*
D61*
X133950000Y-86800000D02*
X134400000Y-86350000D01*
D60*
X156250000Y-101000000D02*
X156700000Y-101000000D01*
D61*
X148100000Y-112200000D02*
X148150000Y-112150000D01*
D62*
X164133500Y-112700000D02*
X163750000Y-113083500D01*
D60*
X141250000Y-98500000D02*
X141947000Y-97803000D01*
X126698000Y-107948000D02*
X126848000Y-107798000D01*
X147300000Y-120300000D02*
X147000000Y-120600000D01*
X124798000Y-107948000D02*
X126698000Y-107948000D01*
X127598000Y-98048000D02*
X129798000Y-98048000D01*
D61*
X141438860Y-74152591D02*
X140597409Y-74152591D01*
D60*
X144000000Y-120575000D02*
X144000000Y-121750000D01*
D61*
X157402591Y-74152591D02*
X158561140Y-74152591D01*
D60*
X147300000Y-120300000D02*
X147250000Y-120250000D01*
X155650000Y-98058803D02*
X155650000Y-99500000D01*
D61*
X148000000Y-78250000D02*
X152000000Y-78250000D01*
X142597409Y-74152591D02*
X143498777Y-73251223D01*
D60*
X127950000Y-105006500D02*
X126506500Y-105006500D01*
D61*
X156501223Y-73251223D02*
X157402591Y-74152591D01*
D60*
X149575000Y-101575000D02*
X149175000Y-101175000D01*
X126848000Y-108848000D02*
X126848000Y-107798000D01*
X156650000Y-116850000D02*
X155750000Y-117750000D01*
X162500000Y-117000000D02*
X162000000Y-117000000D01*
X163325000Y-117825000D02*
X162900000Y-117400000D01*
X160000000Y-115750000D02*
X160750000Y-115000000D01*
D58*
X171600000Y-115438000D02*
X171600000Y-115300000D01*
D61*
X169000000Y-112650000D02*
X169000000Y-111825000D01*
D60*
X141947000Y-97803000D02*
X142494000Y-97803000D01*
D61*
X153250000Y-102525000D02*
X152095500Y-102525000D01*
X133325000Y-87425000D02*
X133325000Y-87381500D01*
D62*
X163600000Y-114000000D02*
X161750000Y-114000000D01*
D60*
X163325000Y-119000000D02*
X163325000Y-117825000D01*
X159000000Y-109475000D02*
X159225000Y-109475000D01*
X162000000Y-117000000D02*
X162000000Y-116250000D01*
X160500000Y-115250000D02*
X160750000Y-115000000D01*
X147000000Y-121120000D02*
X147000000Y-121900000D01*
X147000000Y-120600000D02*
X147000000Y-121120000D01*
D58*
X163650000Y-113183500D02*
X163750000Y-113083500D01*
D60*
X155750000Y-117750000D02*
X155750000Y-118050000D01*
X152500000Y-120400000D02*
X152500000Y-121120000D01*
D61*
X148150000Y-112150000D02*
X149050000Y-112150000D01*
X133325000Y-87381500D02*
X133406500Y-87300000D01*
D60*
X128248000Y-106048000D02*
X128248000Y-105304500D01*
D58*
X163650000Y-114050000D02*
X163600000Y-114000000D01*
D60*
X143493000Y-88993000D02*
X142750000Y-88250000D01*
X140656500Y-100500000D02*
X140525000Y-100631500D01*
X159225000Y-109475000D02*
X159800000Y-108900000D01*
X126048000Y-102927000D02*
X125975000Y-103000000D01*
X129798000Y-98048000D02*
X130000000Y-98250000D01*
X161500000Y-115750000D02*
X160750000Y-115000000D01*
D58*
X159300000Y-100100000D02*
X159300000Y-100925000D01*
D60*
X162905362Y-117400000D02*
X162907440Y-117397922D01*
D61*
X131250000Y-87277701D02*
X131250000Y-86965820D01*
D58*
X137993554Y-88250000D02*
X139750000Y-88250000D01*
D62*
X164750000Y-112700000D02*
X164133500Y-112700000D01*
D60*
X155435168Y-97843971D02*
X155650000Y-98058803D01*
X155000000Y-90000000D02*
X155000000Y-91500000D01*
D61*
X143986000Y-104264000D02*
X143986000Y-106426000D01*
D58*
X171600000Y-115300000D02*
X171100000Y-114800000D01*
D60*
X139000000Y-84250000D02*
X141250000Y-86500000D01*
X144187500Y-89000000D02*
X144180500Y-88993000D01*
X140573000Y-99416500D02*
X140573000Y-98500000D01*
D62*
X173600000Y-114500000D02*
X171775000Y-114500000D01*
D60*
X149175000Y-101175000D02*
X149175000Y-100000000D01*
X163879925Y-121000000D02*
X163325000Y-121000000D01*
X140656500Y-99500000D02*
X140573000Y-99416500D01*
X157000000Y-110000000D02*
X156750000Y-110250000D01*
X156750000Y-110250000D02*
X156750000Y-110975000D01*
D58*
X137491000Y-89406747D02*
X137491000Y-88752554D01*
D61*
X145307000Y-95044000D02*
X145307000Y-94057000D01*
D60*
X134225000Y-103750000D02*
X134250000Y-103725000D01*
X134225000Y-104692535D02*
X134225000Y-103750000D01*
D61*
X141438860Y-74152591D02*
X142597409Y-74152591D01*
X131597346Y-86618474D02*
X131618474Y-86618474D01*
D60*
X152744000Y-119426000D02*
X152744000Y-120006000D01*
X159500000Y-116250000D02*
X160000000Y-115750000D01*
X163908799Y-117500000D02*
X163864909Y-117456110D01*
X144180500Y-88993000D02*
X143493000Y-88993000D01*
X163825000Y-125000000D02*
X164700000Y-125000000D01*
X140425500Y-121600000D02*
X140425000Y-121599500D01*
X155150000Y-100250000D02*
X154550000Y-100250000D01*
X152500000Y-120400000D02*
X152500000Y-120250000D01*
D61*
X125500000Y-93750000D02*
X125500000Y-89000000D01*
D60*
X156050000Y-101200000D02*
X156050000Y-102500000D01*
X138312500Y-88500000D02*
X139500000Y-88500000D01*
D58*
X137491000Y-88752554D02*
X137993554Y-88250000D01*
D60*
X156700000Y-101000000D02*
X157200000Y-100500000D01*
D61*
X132750000Y-87750000D02*
X133000000Y-87750000D01*
D60*
X157200000Y-100500000D02*
X157545500Y-100154500D01*
X162900000Y-117400000D02*
X162500000Y-117000000D01*
D61*
X134000000Y-95000000D02*
X133631500Y-95000000D01*
D58*
X159300000Y-100925000D02*
X159250000Y-100975000D01*
D61*
X138825000Y-80500000D02*
X140000000Y-80500000D01*
D60*
X134250000Y-103725000D02*
X134250000Y-102025000D01*
D61*
X150679500Y-102525000D02*
X153250000Y-102525000D01*
D60*
X155750000Y-118925000D02*
X155750000Y-118050000D01*
X141250000Y-86500000D02*
X141250000Y-86750000D01*
D58*
X138987500Y-83800000D02*
X138991000Y-83803500D01*
D60*
X157725000Y-110975000D02*
X157750000Y-111000000D01*
D61*
X134525000Y-94000000D02*
X134525000Y-94475000D01*
D60*
X155300000Y-100400000D02*
X155150000Y-100250000D01*
X130298000Y-107948000D02*
X130298000Y-108952000D01*
X134226600Y-104694135D02*
X134225000Y-104692535D01*
D61*
X155075809Y-73251223D02*
X156501223Y-73251223D01*
D60*
X130000000Y-98250000D02*
X130048000Y-98298000D01*
X142750000Y-88250000D02*
X141250000Y-86750000D01*
X164200000Y-119000000D02*
X163325000Y-119000000D01*
X149575000Y-102500000D02*
X149575000Y-101575000D01*
X152500000Y-120250000D02*
X152500000Y-121120000D01*
X127000000Y-109000000D02*
X126848000Y-108848000D01*
X158750000Y-116250000D02*
X159500000Y-116250000D01*
D58*
X138991000Y-83803500D02*
X138991000Y-83812500D01*
D60*
X132800000Y-103750000D02*
X134225000Y-103750000D01*
D61*
X133000000Y-87750000D02*
X133325000Y-87425000D01*
D58*
X171600000Y-114675000D02*
X171775000Y-114500000D01*
D61*
X133537828Y-84537828D02*
X133054231Y-84537828D01*
D58*
X163650000Y-114050000D02*
X163550000Y-113950000D01*
D60*
X156250000Y-101000000D02*
X155900000Y-101000000D01*
D61*
X140597409Y-74152591D02*
X140000000Y-74750000D01*
D60*
X155875000Y-100975000D02*
X159250000Y-100975000D01*
D61*
X143498777Y-73251223D02*
X144924191Y-73251223D01*
D60*
X125975000Y-104475000D02*
X125975000Y-103000000D01*
D61*
X133325000Y-87425000D02*
X133950000Y-86800000D01*
D60*
X140425000Y-121599500D02*
X140425000Y-120500000D01*
D61*
X158561140Y-74152591D02*
X159402591Y-74152591D01*
D60*
X152750000Y-119420000D02*
X152744000Y-119426000D01*
D61*
X130298000Y-98548000D02*
X130048000Y-98298000D01*
D60*
%TO.N,3.3V*%
X133000000Y-101250000D02*
X135000000Y-101250000D01*
X154575000Y-102325000D02*
X154404500Y-102154500D01*
X144000000Y-96250000D02*
X142497000Y-96250000D01*
X142497000Y-96250000D02*
X142494000Y-96253000D01*
X128260193Y-103685796D02*
X128210796Y-103685796D01*
X142494000Y-96253000D02*
X144578000Y-96253000D01*
X132975000Y-95025000D02*
X132975000Y-94000000D01*
D63*
X163325000Y-76825000D02*
X164000000Y-77500000D01*
D60*
X128298000Y-101452000D02*
X128000000Y-101750000D01*
X153250000Y-100975000D02*
X153975000Y-100975000D01*
X139425000Y-123750000D02*
X139425000Y-125500000D01*
D63*
X135750000Y-85500000D02*
X135250000Y-85000000D01*
D60*
X128210796Y-103685796D02*
X127525000Y-103000000D01*
X135800000Y-104700000D02*
X135775000Y-104675000D01*
X152025000Y-100975000D02*
X152000000Y-101000000D01*
X153250000Y-100975000D02*
X152025000Y-100975000D01*
D63*
X137500000Y-84500000D02*
X137000000Y-84000000D01*
X162250000Y-76825000D02*
X163325000Y-76825000D01*
D60*
X135000000Y-101250000D02*
X135250000Y-101500000D01*
X135250000Y-102000000D02*
X135775000Y-102525000D01*
X131798000Y-100748000D02*
X132498000Y-100748000D01*
D63*
X143925000Y-79750000D02*
X143925000Y-78825000D01*
D60*
X154750000Y-102500000D02*
X154575000Y-102325000D01*
D63*
X136250000Y-93350000D02*
X138117000Y-93350000D01*
X139250000Y-78750000D02*
X139500000Y-78500000D01*
X138117000Y-93350000D02*
X138176000Y-93409000D01*
X137750000Y-76825000D02*
X139075000Y-76825000D01*
X143925000Y-78825000D02*
X144000000Y-78750000D01*
D60*
X144578000Y-96253000D02*
X144867000Y-95964000D01*
D63*
X130140462Y-88699120D02*
X130140462Y-88859538D01*
D60*
X155250000Y-102500000D02*
X154750000Y-102500000D01*
D63*
X139075000Y-76825000D02*
X139500000Y-77250000D01*
D60*
X127500000Y-102975000D02*
X127525000Y-103000000D01*
X135775000Y-102525000D02*
X135775000Y-103750000D01*
D63*
X138312500Y-85500000D02*
X135750000Y-85500000D01*
X131925000Y-114250000D02*
X131000000Y-114250000D01*
X139500000Y-78500000D02*
X139500000Y-77250000D01*
D60*
X153250000Y-100975000D02*
X154129500Y-100975000D01*
X154129500Y-100975000D02*
X154404500Y-101250000D01*
X132498000Y-100748000D02*
X133000000Y-101250000D01*
X155250000Y-99500000D02*
X155250000Y-98966605D01*
D63*
X135000000Y-119000000D02*
X135000000Y-117750000D01*
D60*
X135775000Y-104675000D02*
X135775000Y-103750000D01*
D63*
X138312500Y-84500000D02*
X137500000Y-84500000D01*
D60*
X132706919Y-95293081D02*
X132706919Y-95095500D01*
D63*
X140000000Y-94425000D02*
X141175000Y-94425000D01*
D60*
X132450000Y-95550000D02*
X132706919Y-95293081D01*
X137000000Y-123750000D02*
X136750000Y-123500000D01*
X127500000Y-102000000D02*
X127500000Y-102975000D01*
X127750000Y-101750000D02*
X127600000Y-101900000D01*
X131798000Y-95848000D02*
X132152000Y-95848000D01*
X153750000Y-99500000D02*
X153250000Y-100000000D01*
X128298000Y-100748000D02*
X128298000Y-101452000D01*
X139425000Y-123750000D02*
X137000000Y-123750000D01*
X154404500Y-102154500D02*
X154404500Y-101250000D01*
X132450000Y-95550000D02*
X132975000Y-95025000D01*
X132975000Y-94000000D02*
X132975000Y-93275000D01*
X128000000Y-101750000D02*
X127750000Y-101750000D01*
X136250000Y-93350000D02*
X136250000Y-94425000D01*
X127500000Y-102000000D02*
X127600000Y-101900000D01*
D63*
X130140462Y-88859538D02*
X129500000Y-89500000D01*
D60*
X132152000Y-95848000D02*
X132450000Y-95550000D01*
X135250000Y-101500000D02*
X135250000Y-102000000D01*
X153250000Y-100000000D02*
X153250000Y-100975000D01*
X136750000Y-123500000D02*
X136000000Y-122750000D01*
X132975000Y-93275000D02*
X133250000Y-93000000D01*
X155250000Y-98966605D02*
X154847613Y-98564218D01*
X155250000Y-99500000D02*
X153750000Y-99500000D01*
D63*
X138825000Y-78750000D02*
X139250000Y-78750000D01*
X141175000Y-94425000D02*
X141250000Y-94500000D01*
D60*
%TO.N,CHRG_OUT*%
X160500000Y-102500000D02*
X160500000Y-101250000D01*
D58*
X164200000Y-114800000D02*
X164050000Y-114950000D01*
D60*
X160825000Y-100925000D02*
X160825000Y-99000000D01*
D58*
X166250000Y-110787500D02*
X166287500Y-110750000D01*
D60*
X160825000Y-97250000D02*
X160825000Y-99000000D01*
D58*
X156550000Y-97750000D02*
X156161000Y-98139000D01*
X166250000Y-113850000D02*
X166250000Y-112250000D01*
X162750000Y-114950000D02*
X162750000Y-114784000D01*
X164050000Y-114950000D02*
X162750000Y-114950000D01*
X162750000Y-114950000D02*
X162750000Y-115146000D01*
X156161000Y-98139000D02*
X156161000Y-99500000D01*
X164750000Y-114250000D02*
X165850000Y-114250000D01*
X157000000Y-97750000D02*
X156550000Y-97750000D01*
X164200000Y-114800000D02*
X164750000Y-114250000D01*
X165850000Y-114250000D02*
X166250000Y-113850000D01*
X157000000Y-102500000D02*
X160500000Y-102500000D01*
X166250000Y-112250000D02*
X166250000Y-110787500D01*
X156161000Y-99500000D02*
X156341000Y-99500000D01*
D60*
X160500000Y-101250000D02*
X160825000Y-100925000D01*
D58*
%TO.N,BAT_PROT+*%
X166800000Y-115950000D02*
X167500000Y-115250000D01*
D60*
X170500000Y-104500000D02*
X172500000Y-104500000D01*
D58*
X170500000Y-107900000D02*
X170500000Y-104500000D01*
D60*
X162750000Y-102750000D02*
X162750000Y-104250000D01*
D58*
X168200000Y-108700000D02*
X169700000Y-108700000D01*
D60*
X162750000Y-104250000D02*
X162250000Y-104750000D01*
D58*
X162750000Y-116250000D02*
X162750000Y-115784000D01*
D60*
X162250000Y-104750000D02*
X159750000Y-104750000D01*
D58*
X164750000Y-115950000D02*
X162750000Y-115950000D01*
D60*
X158750000Y-107250000D02*
X152750000Y-107250000D01*
X159750000Y-104750000D02*
X159250000Y-105250000D01*
X163300000Y-100000000D02*
X169750000Y-100000000D01*
X159250000Y-106750000D02*
X158750000Y-107250000D01*
X152250000Y-106750000D02*
X152250000Y-104750000D01*
X151750000Y-104250000D02*
X149575000Y-104250000D01*
D58*
X167500000Y-109400000D02*
X168200000Y-108700000D01*
D60*
X159250000Y-105250000D02*
X159250000Y-106750000D01*
X162750000Y-100550000D02*
X163300000Y-100000000D01*
X176500000Y-104000000D02*
X176500000Y-101037500D01*
X162750000Y-102750000D02*
X162750000Y-100550000D01*
D58*
X169700000Y-108700000D02*
X170500000Y-107900000D01*
X164750000Y-115950000D02*
X166800000Y-115950000D01*
D60*
X152750000Y-107250000D02*
X152250000Y-106750000D01*
X169750000Y-100000000D02*
X170500000Y-100750000D01*
X176000000Y-104500000D02*
X176500000Y-104000000D01*
X172500000Y-104500000D02*
X176000000Y-104500000D01*
D58*
X167500000Y-115250000D02*
X167500000Y-109400000D01*
D60*
X170500000Y-100750000D02*
X170500000Y-104500000D01*
X152250000Y-104750000D02*
X151750000Y-104250000D01*
%TO.N,/MCU/DEC4*%
X130798000Y-100748000D02*
X130798000Y-101548000D01*
X131010500Y-101760500D02*
X131010500Y-104548000D01*
X130798000Y-101548000D02*
X131010500Y-101760500D01*
%TO.N,/MCU/DEC3*%
X126727000Y-99273000D02*
X126048000Y-99273000D01*
X126952000Y-99048000D02*
X126727000Y-99273000D01*
X127598000Y-99048000D02*
X126952000Y-99048000D01*
%TO.N,HSE1*%
X126750000Y-100000000D02*
X125250000Y-100000000D01*
X127202000Y-99548000D02*
X126750000Y-100000000D01*
X125250000Y-100000000D02*
X124798000Y-100452000D01*
X127598000Y-99548000D02*
X127202000Y-99548000D01*
X124798000Y-100452000D02*
X124798000Y-106398000D01*
X126848000Y-106048000D02*
X125952000Y-106048000D01*
X125952000Y-106048000D02*
X125602000Y-106398000D01*
X125602000Y-106398000D02*
X124798000Y-106398000D01*
%TO.N,/MCU/DEC1*%
X134000000Y-100523000D02*
X133523000Y-100523000D01*
X133523000Y-100523000D02*
X133048000Y-100048000D01*
X133048000Y-100048000D02*
X132498000Y-100048000D01*
%TO.N,HSE2*%
X126750000Y-101750000D02*
X127598000Y-100902000D01*
X130000000Y-105250000D02*
X129500000Y-105250000D01*
X127598000Y-100902000D02*
X127598000Y-100048000D01*
X128248000Y-107798000D02*
X128952000Y-107798000D01*
X129500000Y-105250000D02*
X128600000Y-104350000D01*
X129250000Y-106750000D02*
X129602000Y-106398000D01*
X129602000Y-106398000D02*
X130298000Y-106398000D01*
X130298000Y-105548000D02*
X130000000Y-105250000D01*
X128600000Y-104350000D02*
X127100000Y-104350000D01*
X129250000Y-107500000D02*
X129250000Y-106750000D01*
X126750000Y-104000000D02*
X126750000Y-101750000D01*
X128952000Y-107798000D02*
X129250000Y-107500000D01*
X127100000Y-104350000D02*
X126750000Y-104000000D01*
X130298000Y-106398000D02*
X130298000Y-105548000D01*
%TO.N,LSE1*%
X136798000Y-101298000D02*
X136750000Y-101250000D01*
X138975000Y-101500000D02*
X138154000Y-101500000D01*
X136000000Y-100250000D02*
X135298000Y-99548000D01*
X135298000Y-99548000D02*
X132498000Y-99548000D01*
X138154000Y-101500000D02*
X137952000Y-101298000D01*
X136500000Y-100250000D02*
X136000000Y-100250000D01*
X136750000Y-100500000D02*
X136500000Y-100250000D01*
X137952000Y-101298000D02*
X136798000Y-101298000D01*
X136750000Y-101250000D02*
X136750000Y-100500000D01*
%TO.N,LSE2*%
X132498000Y-99048000D02*
X135452000Y-99048000D01*
X137952000Y-98798000D02*
X138250000Y-98500000D01*
X135702000Y-98798000D02*
X136798000Y-98798000D01*
X138250000Y-98500000D02*
X139023000Y-98500000D01*
X135452000Y-99048000D02*
X135702000Y-98798000D01*
X136798000Y-98798000D02*
X137952000Y-98798000D01*
D58*
%TO.N,Net-(L2-Pad1)*%
X154925000Y-104475000D02*
X154925000Y-105000000D01*
D60*
X155700000Y-103200000D02*
X155650000Y-103150000D01*
D58*
X155700000Y-103200000D02*
X155700000Y-103700000D01*
D60*
X155650000Y-103150000D02*
X155650000Y-102500000D01*
D58*
X155700000Y-103700000D02*
X154925000Y-104475000D01*
%TO.N,Net-(L2-Pad2)*%
X156450000Y-103850000D02*
X156450000Y-103200000D01*
X157075000Y-104475000D02*
X156450000Y-103850000D01*
X157075000Y-105000000D02*
X157075000Y-104475000D01*
D60*
X156450000Y-102500000D02*
X156450000Y-103200000D01*
%TO.N,Net-(L3-Pad1)*%
X133585500Y-104835500D02*
X133298000Y-104548000D01*
X133298000Y-104548000D02*
X132585500Y-104548000D01*
X133585500Y-106298000D02*
X133585500Y-104835500D01*
%TO.N,/MCU/DCC*%
X131750000Y-101750000D02*
X131750000Y-105250000D01*
X131298000Y-100748000D02*
X131298000Y-101298000D01*
X131298000Y-101298000D02*
X131750000Y-101750000D01*
X132010500Y-105510500D02*
X132010500Y-106298000D01*
X131750000Y-105250000D02*
X132010500Y-105510500D01*
%TO.N,/Power/CC2*%
X150250000Y-121993500D02*
X150500000Y-121743500D01*
D63*
X155750000Y-120575000D02*
X155750000Y-122000000D01*
D60*
X150500000Y-121743500D02*
X150500000Y-121120000D01*
%TO.N,/Power/CC1*%
X144000000Y-118000000D02*
X144500000Y-117500000D01*
X148750000Y-117500000D02*
X149250000Y-118000000D01*
X144500000Y-117500000D02*
X148750000Y-117500000D01*
X144000000Y-118925000D02*
X144000000Y-118000000D01*
X149250000Y-118000000D02*
X149250000Y-119420000D01*
%TO.N,Net-(R3-Pad2)*%
X170000000Y-110250000D02*
X170950000Y-110250000D01*
X169925000Y-110175000D02*
X170000000Y-110250000D01*
X169000000Y-110175000D02*
X169925000Y-110175000D01*
D63*
%TO.N,/Power/Shield*%
X143500000Y-119750000D02*
X145500000Y-119750000D01*
X142075000Y-120500000D02*
X142750000Y-120500000D01*
X154490000Y-127280000D02*
X154490000Y-122990000D01*
X145695999Y-121155999D02*
X145870000Y-121330000D01*
X154130000Y-122630000D02*
X154130000Y-121330000D01*
X145695999Y-119945999D02*
X145695999Y-121155999D01*
X145870000Y-122630000D02*
X145870000Y-122130000D01*
X142750000Y-120500000D02*
X143500000Y-119750000D01*
X145510000Y-122990000D02*
X145870000Y-122630000D01*
X145510000Y-127280000D02*
X154490000Y-127280000D01*
X154490000Y-122990000D02*
X154130000Y-122630000D01*
D60*
X145870000Y-122130000D02*
X145870000Y-121330000D01*
D63*
X145500000Y-119750000D02*
X145695999Y-119945999D01*
X145510000Y-127280000D02*
X145510000Y-122990000D01*
%TO.N,Net-(R6-Pad1)*%
X152500000Y-94500000D02*
X152500000Y-95500000D01*
X157750000Y-98500000D02*
X158000000Y-98250000D01*
X158250000Y-97250000D02*
X159175000Y-97250000D01*
X159175000Y-96675000D02*
X159175000Y-97250000D01*
X152500000Y-95500000D02*
X153250000Y-96250000D01*
X156850000Y-98850000D02*
X157200000Y-98500000D01*
X158750000Y-96250000D02*
X159175000Y-96675000D01*
X158000000Y-98250000D02*
X158000000Y-97500000D01*
X156850000Y-99500000D02*
X156850000Y-98850000D01*
X157200000Y-98500000D02*
X157750000Y-98500000D01*
X153250000Y-96250000D02*
X158750000Y-96250000D01*
X158000000Y-97500000D02*
X158250000Y-97250000D01*
%TO.N,Net-(R7-Pad1)*%
X158500000Y-99000000D02*
X158000000Y-99500000D01*
X158000000Y-99500000D02*
X157250000Y-99500000D01*
X160000000Y-98750000D02*
X160000000Y-95250000D01*
X159250000Y-94500000D02*
X156000000Y-94500000D01*
X159175000Y-99000000D02*
X159750000Y-99000000D01*
X160000000Y-95250000D02*
X159250000Y-94500000D01*
X159750000Y-99000000D02*
X160000000Y-98750000D01*
X159175000Y-99000000D02*
X158500000Y-99000000D01*
D60*
%TO.N,/Power/CHRG_STAT*%
X143500000Y-116500000D02*
X143500000Y-113750000D01*
X156000000Y-116500000D02*
X156750000Y-115750000D01*
X145750000Y-116500000D02*
X146000000Y-116250000D01*
X152750000Y-116500000D02*
X156000000Y-116500000D01*
X146000000Y-116250000D02*
X146500000Y-115750000D01*
X146500000Y-115750000D02*
X148250000Y-115750000D01*
X141082000Y-117068000D02*
X141650000Y-116500000D01*
X141650000Y-116500000D02*
X143500000Y-116500000D01*
X156750000Y-115750000D02*
X158750000Y-115750000D01*
X141075000Y-123750000D02*
X141082000Y-123743000D01*
X143500000Y-116500000D02*
X145750000Y-116500000D01*
X141082000Y-123743000D02*
X141082000Y-117068000D01*
D63*
%TO.N,/Power/~{CHRG_PG}*%
X155250000Y-123000000D02*
X155250000Y-123654500D01*
X144250000Y-125250000D02*
X144000000Y-125500000D01*
D60*
X139250000Y-121750000D02*
X139250000Y-119850000D01*
D63*
X159500000Y-122250000D02*
X159000000Y-122750000D01*
X144250000Y-124250000D02*
X144250000Y-125250000D01*
D60*
X139250000Y-119850000D02*
X140000000Y-119100000D01*
D63*
X159500000Y-117000000D02*
X159500000Y-122250000D01*
X159000000Y-122750000D02*
X155500000Y-122750000D01*
D60*
X141075000Y-125500000D02*
X140500000Y-125500000D01*
X140500000Y-125500000D02*
X140250000Y-125250000D01*
D63*
X144000000Y-125500000D02*
X141075000Y-125500000D01*
D60*
X140250000Y-122750000D02*
X139250000Y-121750000D01*
D63*
X144750000Y-123750000D02*
X144250000Y-124250000D01*
D60*
X140000000Y-119100000D02*
X140000000Y-113750000D01*
D63*
X155500000Y-122750000D02*
X155250000Y-123000000D01*
D60*
X140250000Y-125250000D02*
X140250000Y-122750000D01*
%TO.N,/Power/ILIM*%
X161675000Y-121000000D02*
X160500000Y-121000000D01*
X160500000Y-121000000D02*
X160000000Y-120500000D01*
X160000000Y-120500000D02*
X160000000Y-117000000D01*
%TO.N,/Power/ICHG*%
X161675000Y-119000000D02*
X161000000Y-118325000D01*
X161000000Y-118325000D02*
X161000000Y-117000000D01*
%TO.N,REGN*%
X160500000Y-109500000D02*
X160750000Y-109250000D01*
D63*
X163825000Y-123000000D02*
X165500000Y-123000000D01*
X165500000Y-123000000D02*
X166000000Y-122500000D01*
D60*
X160500000Y-113000000D02*
X160500000Y-109500000D01*
D63*
X166000000Y-122500000D02*
X166000000Y-116750000D01*
D60*
%TO.N,/Power/NTC_IN*%
X162175000Y-124075000D02*
X162175000Y-125000000D01*
X162250000Y-118000000D02*
X162500000Y-118250000D01*
X162100000Y-124000000D02*
X162175000Y-124075000D01*
X162500000Y-118250000D02*
X162500000Y-121750000D01*
X160500000Y-124000000D02*
X162100000Y-124000000D01*
X162175000Y-122075000D02*
X162175000Y-123000000D01*
X162500000Y-121750000D02*
X162175000Y-122075000D01*
X162175000Y-123000000D02*
X162175000Y-124075000D01*
X160214000Y-123714000D02*
X160500000Y-124000000D01*
X161500000Y-117750000D02*
X161750000Y-118000000D01*
X161750000Y-118000000D02*
X162250000Y-118000000D01*
X158250000Y-123714000D02*
X160214000Y-123714000D01*
X161500000Y-117000000D02*
X161500000Y-117750000D01*
D63*
%TO.N,SCL*%
X140000000Y-96920000D02*
X140040000Y-96960000D01*
D60*
X133702000Y-97548000D02*
X132498000Y-97548000D01*
X145307000Y-96693000D02*
X145040000Y-96960000D01*
X134290000Y-96960000D02*
X133702000Y-97548000D01*
X140040000Y-96960000D02*
X134290000Y-96960000D01*
X145040000Y-96960000D02*
X140040000Y-96960000D01*
X145307000Y-95964000D02*
X145307000Y-96693000D01*
D63*
X140000000Y-96075000D02*
X140000000Y-96920000D01*
D60*
%TO.N,SDA*%
X133452000Y-97048000D02*
X134425000Y-96075000D01*
X132498000Y-97048000D02*
X133452000Y-97048000D01*
X143750000Y-95500000D02*
X144863000Y-95500000D01*
X138675000Y-96075000D02*
X139500000Y-95250000D01*
X139500000Y-95250000D02*
X143500000Y-95250000D01*
X134425000Y-96075000D02*
X136250000Y-96075000D01*
X143500000Y-95250000D02*
X143750000Y-95500000D01*
X136250000Y-96075000D02*
X138675000Y-96075000D01*
X144863000Y-95500000D02*
X144867000Y-95504000D01*
%TO.N,NRST*%
X131550000Y-81550000D02*
X130610418Y-81550000D01*
D63*
X145500000Y-81000000D02*
X145575000Y-80925000D01*
D60*
X131750000Y-82500000D02*
X131750000Y-81750000D01*
X128298000Y-92202000D02*
X128298000Y-95848000D01*
X130610418Y-81550000D02*
X129859538Y-82300880D01*
X131750000Y-81750000D02*
X131550000Y-81550000D01*
D63*
X148000000Y-79750000D02*
X152000000Y-79750000D01*
X145575000Y-79750000D02*
X148000000Y-79750000D01*
D60*
X129750000Y-90750000D02*
X128298000Y-92202000D01*
D63*
X145575000Y-80925000D02*
X145575000Y-79750000D01*
D60*
%TO.N,BTN0*%
X132750000Y-77250000D02*
X134825000Y-75175000D01*
D63*
X139251223Y-72748777D02*
X141075809Y-72748777D01*
X144561140Y-71847409D02*
X143402591Y-71847409D01*
X143402591Y-71847409D02*
X142501223Y-72748777D01*
D60*
X132750000Y-82500000D02*
X132750000Y-77250000D01*
D63*
X137750000Y-74250000D02*
X139251223Y-72748777D01*
D60*
X134825000Y-75175000D02*
X137750000Y-75175000D01*
D63*
X142501223Y-72748777D02*
X141075809Y-72748777D01*
D60*
X129750000Y-91750000D02*
X128798000Y-92702000D01*
D63*
X137750000Y-75175000D02*
X137750000Y-74250000D01*
D60*
X128798000Y-92702000D02*
X128798000Y-95848000D01*
%TO.N,BTN1*%
X162500000Y-78500000D02*
X162000000Y-78000000D01*
X159500000Y-92750000D02*
X160750000Y-92750000D01*
D63*
X160873777Y-72748777D02*
X158924191Y-72748777D01*
D60*
X162500000Y-82500000D02*
X162500000Y-78500000D01*
D63*
X155438860Y-71847409D02*
X156597409Y-71847409D01*
D60*
X162000000Y-78000000D02*
X161000000Y-78000000D01*
X161250000Y-92250000D02*
X162500000Y-91000000D01*
X161000000Y-78000000D02*
X160750000Y-77750000D01*
X160750000Y-75500000D02*
X161000000Y-75250000D01*
X129298000Y-93202000D02*
X129298000Y-95848000D01*
X129750000Y-92750000D02*
X129298000Y-93202000D01*
X162500000Y-91000000D02*
X162500000Y-87000000D01*
D63*
X162250000Y-75175000D02*
X162250000Y-74125000D01*
D60*
X139250000Y-92750000D02*
X159500000Y-92750000D01*
X160750000Y-92750000D02*
X161250000Y-92250000D01*
D63*
X156597409Y-71847409D02*
X157498777Y-72748777D01*
X157498777Y-72748777D02*
X158924191Y-72748777D01*
X162250000Y-75175000D02*
X161075000Y-75175000D01*
D60*
X160750000Y-77750000D02*
X160750000Y-75500000D01*
D63*
X162250000Y-74125000D02*
X160873777Y-72748777D01*
X161075000Y-75175000D02*
X161000000Y-75250000D01*
D60*
%TO.N,BAT_SENS*%
X147925000Y-102500000D02*
X147925000Y-104250000D01*
X137000000Y-103250000D02*
X146500000Y-103250000D01*
X146500000Y-103250000D02*
X146750000Y-103000000D01*
D63*
X129710210Y-103000000D02*
X129298000Y-102587790D01*
D60*
X147000000Y-102500000D02*
X147925000Y-102500000D01*
D63*
X129298000Y-102587790D02*
X129298000Y-100748000D01*
D60*
X146750000Y-103000000D02*
X146750000Y-102750000D01*
D63*
X137000000Y-103250000D02*
X136750000Y-103000000D01*
D60*
X146750000Y-102750000D02*
X147000000Y-102500000D01*
D63*
%TO.N,Net-(R21-Pad2)*%
X133575000Y-114250000D02*
X133575000Y-112075000D01*
X133575000Y-112075000D02*
X133500000Y-112000000D01*
%TO.N,Net-(R22-Pad2)*%
X139250000Y-82750000D02*
X139500000Y-83000000D01*
X137175000Y-80500000D02*
X137175000Y-82425000D01*
X137500000Y-82750000D02*
X139250000Y-82750000D01*
X139500000Y-83000000D02*
X139500000Y-83812500D01*
X137175000Y-82425000D02*
X137500000Y-82750000D01*
D60*
%TO.N,GYRO_INT*%
X138176000Y-94574000D02*
X139000000Y-93750000D01*
X143750000Y-93750000D02*
X144250000Y-94250000D01*
X132498000Y-96548000D02*
X133202000Y-96548000D01*
X133202000Y-96548000D02*
X134500000Y-95250000D01*
X138117000Y-95000000D02*
X138176000Y-95059000D01*
X144250000Y-94750000D02*
X144544000Y-95044000D01*
X138176000Y-95059000D02*
X138176000Y-94574000D01*
X137250000Y-95000000D02*
X138117000Y-95000000D01*
X134500000Y-95250000D02*
X137000000Y-95250000D01*
X144544000Y-95044000D02*
X144867000Y-95044000D01*
X139000000Y-93750000D02*
X143750000Y-93750000D01*
X144250000Y-94250000D02*
X144250000Y-94750000D01*
X137000000Y-95250000D02*
X137250000Y-95000000D01*
D63*
%TO.N,Net-(R24-Pad2)*%
X136000000Y-84250000D02*
X136000000Y-79000000D01*
X136000000Y-79000000D02*
X136250000Y-78750000D01*
X138312500Y-85000000D02*
X136750000Y-85000000D01*
X136750000Y-85000000D02*
X136000000Y-84250000D01*
X136250000Y-78750000D02*
X137175000Y-78750000D01*
%TO.N,PHOTO*%
X146000000Y-102500000D02*
X146250000Y-102250000D01*
X138000000Y-102500000D02*
X146000000Y-102500000D01*
D60*
X150825000Y-98575000D02*
X150825000Y-99075000D01*
X150825000Y-99075000D02*
X150825000Y-100000000D01*
D63*
X146875000Y-99000000D02*
X150750000Y-99000000D01*
X129798000Y-101845500D02*
X129798000Y-100748000D01*
X149000000Y-94500000D02*
X149000000Y-95750000D01*
X150825000Y-96825000D02*
X150825000Y-98575000D01*
X146250000Y-99625000D02*
X146875000Y-99000000D01*
X150750000Y-99000000D02*
X150825000Y-99075000D01*
X149500000Y-96250000D02*
X150250000Y-96250000D01*
X150250000Y-96250000D02*
X150825000Y-96825000D01*
X149000000Y-95750000D02*
X149500000Y-96250000D01*
D60*
X150825000Y-100000000D02*
X152000000Y-100000000D01*
D63*
X129952500Y-102000000D02*
X129798000Y-101845500D01*
X146250000Y-102250000D02*
X146250000Y-99625000D01*
D58*
%TO.N,VBUS*%
X155350000Y-109650000D02*
X155350000Y-112550000D01*
X156000000Y-109000000D02*
X155350000Y-109650000D01*
X158450000Y-113000000D02*
X158750000Y-113300000D01*
X153750000Y-112562500D02*
X155362500Y-112562500D01*
X157975000Y-112525000D02*
X158450000Y-113000000D01*
X155362500Y-112562500D02*
X156712500Y-112562500D01*
X155350000Y-112550000D02*
X155362500Y-112562500D01*
X158450000Y-113000000D02*
X159466000Y-113000000D01*
X158750000Y-113300000D02*
X158750000Y-113716000D01*
X156750000Y-112525000D02*
X157975000Y-112525000D01*
X156712500Y-112562500D02*
X156750000Y-112525000D01*
D60*
%TO.N,Net-(V1-Pad1)*%
X171800000Y-109300000D02*
X172000000Y-109500000D01*
X172250000Y-113000000D02*
X172250000Y-113562000D01*
X172000000Y-109500000D02*
X172000000Y-112750000D01*
X170950000Y-109300000D02*
X171800000Y-109300000D01*
X172000000Y-112750000D02*
X172250000Y-113000000D01*
%TO.N,Net-(V1-Pad3)*%
X170950000Y-112300000D02*
X170250000Y-113000000D01*
X169750000Y-113000000D02*
X169500000Y-113250000D01*
X172250000Y-116000000D02*
X172250000Y-115438000D01*
X170950000Y-111200000D02*
X170950000Y-112300000D01*
X169500000Y-116000000D02*
X169750000Y-116250000D01*
X170250000Y-113000000D02*
X169750000Y-113000000D01*
X169500000Y-113250000D02*
X169500000Y-116000000D01*
X172000000Y-116250000D02*
X172250000Y-116000000D01*
X169750000Y-116250000D02*
X172000000Y-116250000D01*
%TO.N,Net-(V2-Pad3)*%
X170156500Y-114038350D02*
X170211650Y-114038350D01*
X170688000Y-113562000D02*
X171600000Y-113562000D01*
X173000000Y-116500000D02*
X173000000Y-115538000D01*
X170211650Y-114038350D02*
X170688000Y-113562000D01*
X173000000Y-115538000D02*
X172900000Y-115438000D01*
D61*
%TO.N,USB_D-*%
X149750000Y-120250000D02*
X149750000Y-119420000D01*
D59*
X149767844Y-118877155D02*
X149750000Y-118894999D01*
X153060253Y-115232157D02*
X152790810Y-115501600D01*
X158132155Y-115232156D02*
X153060253Y-115232157D01*
X149767844Y-116117845D02*
X149767844Y-118877155D01*
X149050000Y-115400001D02*
X149767844Y-116117845D01*
X158750000Y-115250000D02*
X158149999Y-115250000D01*
D61*
X150000000Y-121120000D02*
X150000000Y-120500000D01*
D59*
X158149999Y-115250000D02*
X158132155Y-115232156D01*
X149050000Y-114350000D02*
X149050000Y-115400001D01*
X149750000Y-118894999D02*
X149750000Y-119420000D01*
D61*
X150000000Y-120500000D02*
X149750000Y-120250000D01*
%TO.N,USB_D+*%
X149256500Y-120149502D02*
X149256500Y-120223190D01*
X150250000Y-118500000D02*
X150232156Y-118517844D01*
X149256500Y-120223190D02*
X149500000Y-120466690D01*
D59*
X150232156Y-118517844D02*
X150232156Y-118877155D01*
X153060253Y-114767843D02*
X152790810Y-114498400D01*
X150232156Y-118877155D02*
X150250000Y-118894999D01*
X158149999Y-114750000D02*
X158132155Y-114767844D01*
D61*
X150500000Y-118500000D02*
X150250000Y-118500000D01*
D59*
X150250000Y-118894999D02*
X150250000Y-119420000D01*
D61*
X149500000Y-120466690D02*
X149500000Y-121120000D01*
D59*
X158750000Y-114750000D02*
X158149999Y-114750000D01*
X150950000Y-115400001D02*
X150232156Y-116117845D01*
X158132155Y-114767844D02*
X153060253Y-114767843D01*
X150232156Y-116117845D02*
X150232156Y-118517844D01*
X150950000Y-114350000D02*
X150950000Y-115400001D01*
D60*
%TO.N,RXD*%
X132516233Y-98029767D02*
X132498000Y-98048000D01*
X134000000Y-98029767D02*
X132516233Y-98029767D01*
X141986000Y-104264000D02*
X141986000Y-106426000D01*
X142000000Y-104250000D02*
X141986000Y-104264000D01*
D63*
X134413267Y-97616500D02*
X136500000Y-97616500D01*
X134000000Y-98029767D02*
X134413267Y-97616500D01*
D60*
%TO.N,TXD*%
X132498000Y-98548000D02*
X132510444Y-98560444D01*
X139986000Y-104264000D02*
X139986000Y-106426000D01*
X134710556Y-98560444D02*
X134921284Y-98349716D01*
X140000000Y-104250000D02*
X139986000Y-104264000D01*
X132510444Y-98560444D02*
X134710556Y-98560444D01*
%TO.N,CS_IO*%
X132000000Y-93000000D02*
X137500000Y-87500000D01*
X137500000Y-87500000D02*
X138312500Y-87500000D01*
X131298000Y-95848000D02*
X131298000Y-95202000D01*
X132000000Y-94500000D02*
X132000000Y-93000000D01*
X131298000Y-95202000D02*
X132000000Y-94500000D01*
%TO.N,MISO*%
X135750000Y-86000000D02*
X138312500Y-86000000D01*
X129798000Y-93702000D02*
X130500000Y-93000000D01*
X130500000Y-93000000D02*
X130500000Y-91250000D01*
X129798000Y-95848000D02*
X129798000Y-93702000D01*
X130500000Y-91250000D02*
X135750000Y-86000000D01*
%TO.N,MOSI*%
X130798000Y-94702000D02*
X131500000Y-94000000D01*
X130798000Y-95848000D02*
X130798000Y-94702000D01*
X137000000Y-87000000D02*
X138312500Y-87000000D01*
X131500000Y-94000000D02*
X131500000Y-92500000D01*
X131500000Y-92500000D02*
X137000000Y-87000000D01*
%TO.N,SCK*%
X131000000Y-92000000D02*
X136500000Y-86500000D01*
X136500000Y-86500000D02*
X138312500Y-86500000D01*
X131000000Y-93500000D02*
X131000000Y-92000000D01*
X130298000Y-95848000D02*
X130298000Y-94202000D01*
X130298000Y-94202000D02*
X131000000Y-93500000D01*
D63*
%TO.N,DBG_LED*%
X128504500Y-102250000D02*
X128798000Y-101956500D01*
X132000000Y-110250000D02*
X132000000Y-112000000D01*
X128798000Y-101956500D02*
X128798000Y-100748000D01*
D60*
%TO.N,SWDCLK*%
X129000000Y-86500000D02*
X127921849Y-85421849D01*
X127921849Y-85421849D02*
X127674211Y-85421849D01*
X129000000Y-87000000D02*
X129000000Y-86500000D01*
X127598000Y-92152000D02*
X128500000Y-91250000D01*
X128500000Y-87500000D02*
X129000000Y-87000000D01*
X127598000Y-96548000D02*
X127598000Y-92152000D01*
X128500000Y-91250000D02*
X128500000Y-87500000D01*
%TO.N,SWDIO*%
X127048000Y-97048000D02*
X126750000Y-96750000D01*
X126750000Y-96750000D02*
X126750000Y-87400000D01*
X126450000Y-87100000D02*
X126450000Y-86957941D01*
X127598000Y-97048000D02*
X127048000Y-97048000D01*
X126750000Y-87400000D02*
X126450000Y-87100000D01*
X126450000Y-86957941D02*
X126945769Y-86462172D01*
D63*
%TO.N,Ring0_0*%
X142250000Y-76500000D02*
X148250000Y-76500000D01*
X141750000Y-77000000D02*
X142250000Y-76500000D01*
X141000000Y-83812500D02*
X141000000Y-81750000D01*
X141000000Y-81750000D02*
X141750000Y-81000000D01*
X141750000Y-81000000D02*
X141750000Y-77000000D01*
%TO.N,Ring0_1*%
X139341500Y-81158500D02*
X140658500Y-81158500D01*
X140000000Y-82962598D02*
X139000000Y-81962598D01*
X140000000Y-83812500D02*
X140000000Y-82962598D01*
X141000000Y-80817000D02*
X140658500Y-81158500D01*
X141000000Y-79750000D02*
X141000000Y-80817000D01*
X139000000Y-81962598D02*
X139000000Y-81500000D01*
X139000000Y-81500000D02*
X139341500Y-81158500D01*
%TO.N,Ring0_2*%
X140000000Y-91500000D02*
X140500000Y-91000000D01*
X134250000Y-83250000D02*
X134250000Y-81000000D01*
X134750000Y-83750000D02*
X134250000Y-83250000D01*
X134250000Y-80750000D02*
X133750000Y-80250000D01*
X133750000Y-80250000D02*
X133500000Y-80000000D01*
X140500000Y-91000000D02*
X140500000Y-89687500D01*
X137000000Y-91500000D02*
X140000000Y-91500000D01*
X134250000Y-81000000D02*
X134250000Y-80750000D01*
%TO.N,Ring0_3*%
X141500000Y-91189000D02*
X141500000Y-89687500D01*
X141750000Y-91439000D02*
X141500000Y-91189000D01*
%TO.N,Ring0_4*%
X148000000Y-91250000D02*
X147750000Y-91000000D01*
X143000000Y-91000000D02*
X142500000Y-90500000D01*
X148000000Y-92093500D02*
X148000000Y-91250000D01*
X142500000Y-90500000D02*
X142500000Y-89687500D01*
X147750000Y-91000000D02*
X143000000Y-91000000D01*
%TO.N,Ring0_5*%
X150000000Y-92093500D02*
X150000000Y-90500000D01*
X149187500Y-89687500D02*
X143500000Y-89687500D01*
X146400000Y-108500000D02*
X146995500Y-107904500D01*
X138000000Y-109250000D02*
X138750000Y-108500000D01*
X138000000Y-120250000D02*
X138000000Y-109250000D01*
X138750000Y-108500000D02*
X146400000Y-108500000D01*
X146995500Y-107904500D02*
X146995500Y-104000000D01*
X150000000Y-90500000D02*
X149187500Y-89687500D01*
%TO.N,Ring0_6*%
X152750000Y-87750000D02*
X152500000Y-87500000D01*
X152750000Y-89500000D02*
X152750000Y-87750000D01*
X152500000Y-87500000D02*
X144187500Y-87500000D01*
%TO.N,Ring0_7*%
X154750000Y-87500000D02*
X154750000Y-86750000D01*
X154500000Y-86500000D02*
X144187500Y-86500000D01*
X154750000Y-86750000D02*
X154500000Y-86500000D01*
%TO.N,Ring0_8*%
X169000000Y-86250000D02*
X171250000Y-86250000D01*
X144187500Y-85500000D02*
X164500000Y-85500000D01*
X171250000Y-86250000D02*
X172000000Y-87000000D01*
X172000000Y-87000000D02*
X172250000Y-87250000D01*
X164500000Y-85500000D02*
X165250000Y-86250000D01*
X172250000Y-87250000D02*
X172250000Y-97500000D01*
%TO.N,Ring0_9*%
X175000000Y-85500000D02*
X175000000Y-97500000D01*
X144187500Y-84500000D02*
X174000000Y-84500000D01*
X174000000Y-84500000D02*
X175000000Y-85500000D01*
%TO.N,Ring0_10*%
X143750000Y-82500000D02*
X155750000Y-82500000D01*
X143000000Y-83812500D02*
X143000000Y-83250000D01*
X143000000Y-83250000D02*
X143750000Y-82500000D01*
X155750000Y-82500000D02*
X157000000Y-83750000D01*
X157000000Y-83750000D02*
X169250000Y-83750000D01*
%TO.N,Ring0_11*%
X146250000Y-78000000D02*
X146500000Y-78250000D01*
X142750000Y-78750000D02*
X143500000Y-78000000D01*
X142750000Y-82000000D02*
X142750000Y-78750000D01*
X143500000Y-78000000D02*
X146250000Y-78000000D01*
X160500000Y-79000000D02*
X160750000Y-78750000D01*
X142000000Y-83812500D02*
X142000000Y-82750000D01*
X146750000Y-79000000D02*
X160500000Y-79000000D01*
X146500000Y-78250000D02*
X146500000Y-78750000D01*
X146500000Y-78750000D02*
X146750000Y-79000000D01*
X142000000Y-82750000D02*
X142750000Y-82000000D01*
%TO.N,Ring1_0*%
X141500000Y-83812500D02*
X141500000Y-82313500D01*
X141500000Y-82313500D02*
X142000000Y-81813500D01*
%TO.N,Ring1_1*%
X140000000Y-82000000D02*
X140500000Y-82500000D01*
X140500000Y-82500000D02*
X140500000Y-83812500D01*
X140000000Y-81813500D02*
X140000000Y-82000000D01*
%TO.N,Ring1_2*%
X135500000Y-92550000D02*
X135500000Y-91000000D01*
X139750000Y-90750000D02*
X140000000Y-90500000D01*
X135750000Y-90750000D02*
X139750000Y-90750000D01*
X140000000Y-90500000D02*
X140000000Y-89687500D01*
X135500000Y-91000000D02*
X135750000Y-90750000D01*
%TO.N,Ring1_3*%
X146000000Y-93406500D02*
X146000000Y-97000000D01*
X143750000Y-98500000D02*
X143000000Y-99250000D01*
X141000000Y-90250000D02*
X141000000Y-89687500D01*
X143750000Y-97750000D02*
X143750000Y-98500000D01*
X144000000Y-97500000D02*
X143750000Y-97750000D01*
X141343500Y-92093500D02*
X141000000Y-91750000D01*
X146000000Y-92093500D02*
X141343500Y-92093500D01*
X141000000Y-91750000D02*
X141000000Y-90250000D01*
X143000000Y-99250000D02*
X143000000Y-101750000D01*
X145500000Y-97500000D02*
X144000000Y-97500000D01*
X146000000Y-97000000D02*
X145500000Y-97500000D01*
%TO.N,Ring1_4*%
X147000000Y-91750000D02*
X146688500Y-91438500D01*
X146688500Y-91438500D02*
X142682155Y-91438500D01*
X147000000Y-92093500D02*
X147000000Y-91750000D01*
X142682155Y-91438500D02*
X142000000Y-90756345D01*
X142000000Y-90756345D02*
X142000000Y-89687500D01*
%TO.N,Ring1_5*%
X149000000Y-91000000D02*
X148500000Y-90500000D01*
X143000000Y-90250000D02*
X143000000Y-89687500D01*
X148500000Y-90500000D02*
X143250000Y-90500000D01*
X143250000Y-90500000D02*
X143000000Y-90250000D01*
X149000000Y-92093500D02*
X149000000Y-91000000D01*
%TO.N,Ring1_6*%
X151750000Y-88500000D02*
X151250000Y-88000000D01*
X151750000Y-90250000D02*
X151750000Y-88500000D01*
X151250000Y-88000000D02*
X144187500Y-88000000D01*
%TO.N,Ring1_7*%
X153750000Y-88750000D02*
X153750000Y-87250000D01*
X153750000Y-87250000D02*
X153500000Y-87000000D01*
X153500000Y-87000000D02*
X144187500Y-87000000D01*
%TO.N,Ring1_8*%
X144187500Y-86000000D02*
X163750000Y-86000000D01*
X163750000Y-86000000D02*
X165750000Y-88000000D01*
X165750000Y-88000000D02*
X165750000Y-97500000D01*
%TO.N,Ring1_9*%
X167500000Y-85750000D02*
X167500000Y-97500000D01*
X144187500Y-85000000D02*
X166750000Y-85000000D01*
X166750000Y-85000000D02*
X167500000Y-85750000D01*
%TO.N,Ring1_10*%
X143500000Y-83812500D02*
X143500000Y-83287402D01*
X143500000Y-83287402D02*
X143787402Y-83000000D01*
X154750000Y-83000000D02*
X155472011Y-83722011D01*
X155472011Y-83722011D02*
X155472011Y-83655931D01*
X143787402Y-83000000D02*
X154750000Y-83000000D01*
%TO.N,Ring1_11*%
X158250000Y-82500000D02*
X158250000Y-83000000D01*
X143250000Y-82250000D02*
X143595000Y-81905000D01*
X142500000Y-83812500D02*
X142500000Y-83000000D01*
X157655000Y-81905000D02*
X158000000Y-82250000D01*
X143595000Y-81905000D02*
X157655000Y-81905000D01*
X158000000Y-82250000D02*
X158250000Y-82500000D01*
X142500000Y-83000000D02*
X143250000Y-82250000D01*
D64*
%TO.N,/MCU/ANT_IN*%
X126085500Y-97536000D02*
X126085500Y-96085500D01*
X126085500Y-96085500D02*
X125775000Y-95775000D01*
X126085500Y-97536000D02*
X127586000Y-97536000D01*
X125775000Y-95775000D02*
X124500000Y-95775000D01*
X127586000Y-97536000D02*
X127598000Y-97548000D01*
%TO.N,/MCU/ANT_TP*%
X122048000Y-97498000D02*
X124472500Y-97498000D01*
X124472500Y-97498000D02*
X124510500Y-97536000D01*
D58*
%TO.N,Net-(F1-Pad2)*%
X153875000Y-109325000D02*
X153750000Y-109450000D01*
X153750000Y-109450000D02*
X153750000Y-110437500D01*
X153875000Y-108500000D02*
X153875000Y-109325000D01*
D60*
%TO.N,VBUS_CONN*%
X148750000Y-119949502D02*
X148400000Y-120299502D01*
X150749000Y-122501000D02*
X151001000Y-122249000D01*
X148500000Y-120500000D02*
X148750000Y-120250000D01*
X148750000Y-119420000D02*
X148750000Y-119949502D01*
D58*
X151250000Y-118800000D02*
X151250000Y-116400000D01*
D60*
X148750000Y-122500000D02*
X150250000Y-122500000D01*
X148750000Y-120250000D02*
X148750000Y-119420000D01*
X150500000Y-120299502D02*
X150884498Y-120299502D01*
X148500000Y-122250000D02*
X148500000Y-121120000D01*
X150783502Y-120299502D02*
X150500000Y-120299502D01*
X148500000Y-120399502D02*
X148400000Y-120299502D01*
X151250000Y-119850000D02*
X151250000Y-119420000D01*
D58*
X151600000Y-112150000D02*
X150750000Y-112150000D01*
D60*
X151250000Y-119934000D02*
X151250000Y-119850000D01*
X151000000Y-120500000D02*
X151250000Y-120250000D01*
X150251000Y-122501000D02*
X150749000Y-122501000D01*
X148500000Y-121120000D02*
X148500000Y-120399502D01*
X151250000Y-119420000D02*
X151250000Y-118550000D01*
X151250000Y-120250000D02*
X151250000Y-119850000D01*
X151001000Y-121121000D02*
X151001000Y-122249000D01*
X148500000Y-121120000D02*
X148500000Y-120500000D01*
D58*
X150750000Y-109000000D02*
X151250000Y-108500000D01*
D60*
X151000000Y-121120000D02*
X151000000Y-120516000D01*
D58*
X152000000Y-112550000D02*
X151600000Y-112150000D01*
X150750000Y-112150000D02*
X150750000Y-109000000D01*
X152000000Y-115650000D02*
X152000000Y-112550000D01*
X151250000Y-116400000D02*
X152000000Y-115650000D01*
X151250000Y-108500000D02*
X152125000Y-108500000D01*
D60*
X151000000Y-120516000D02*
X150783502Y-120299502D01*
X150884498Y-120299502D02*
X151250000Y-119934000D01*
X150250000Y-122500000D02*
X150251000Y-122501000D01*
X148500000Y-122250000D02*
X148750000Y-122500000D01*
X151000000Y-121120000D02*
X151001000Y-121121000D01*
X148500000Y-120500000D02*
X148500000Y-120399502D01*
X151000000Y-121120000D02*
X151000000Y-120500000D01*
%TD*%
M02*
