M48
; DRILL file {KiCad 6.0.7+dfsg-1~bpo11+1} date Fri 09 Sep 2022 12:44:53 CEST
; FORMAT={-:-/ absolute / metric / decimal}
; #@! TF.CreationDate,2022-09-09T12:44:53+02:00
; #@! TF.GenerationSoftware,Kicad,Pcbnew,6.0.7+dfsg-1~bpo11+1
; #@! TF.FileFunction,MixedPlating,1,4
FMAT,2
METRIC
; #@! TA.AperFunction,Plated,PTH,ViaDrill
T1C0.200
; #@! TA.AperFunction,Plated,PTH,ViaDrill
T2C0.400
; #@! TA.AperFunction,Plated,PTH,ComponentDrill
T3C0.500
; #@! TA.AperFunction,NonPlated,NPTH,ComponentDrill
T4C0.650
%
G90
G05
T1
X128.581Y-96.849
X128.6Y-99.75
X131.5Y-99.75
X131.501Y-96.849
X139.433Y-84.851
X139.45Y-88.55
X143.05Y-84.95
X143.05Y-88.55
X147.3Y-120.3
X148.4Y-120.3
X149.256Y-120.15
X149.5Y-113.25
X150.25Y-121.993
X150.5Y-113.25
X150.5Y-118.5
X150.5Y-120.3
X152.5Y-120.4
X155.75Y-122.0
T2
X125.5Y-89.0
X127.25Y-113.75
X127.5Y-109.0
X127.6Y-101.9
X127.95Y-105.006
X128.26Y-103.686
X128.505Y-102.25
X129.5Y-89.5
X129.5Y-119.0
X129.71Y-103.0
X129.75Y-90.75
X129.75Y-91.75
X129.75Y-92.75
X129.952Y-102.0
X130.0Y-85.25
X130.298Y-108.952
X131.0Y-114.25
X131.75Y-82.5
X132.0Y-110.25
X132.707Y-95.096
X132.75Y-82.5
X133.25Y-93.0
X133.25Y-108.5
X133.406Y-87.3
X133.5Y-80.0
X133.631Y-95.0
X134.227Y-104.694
X134.4Y-86.35
X134.75Y-83.75
X134.921Y-98.35
X135.0Y-119.0
X135.25Y-85.0
X135.5Y-92.55
X135.8Y-104.7
X136.0Y-122.75
X136.25Y-93.35
X136.5Y-97.617
X136.75Y-103.0
X137.0Y-84.0
X137.0Y-91.5
X137.68Y-89.595
X138.0Y-102.5
X138.0Y-120.25
X138.4Y-83.8
X139.25Y-92.75
X139.5Y-77.25
X140.0Y-74.75
X140.0Y-80.5
X140.0Y-81.813
X140.0Y-104.25
X140.425Y-121.6
X140.656Y-99.5
X140.656Y-100.5
X141.0Y-79.75
X141.25Y-94.5
X141.25Y-114.0
X141.75Y-91.439
X142.0Y-81.813
X142.0Y-104.25
X143.0Y-101.75
X144.0Y-78.75
X144.0Y-96.25
X144.0Y-104.25
X144.0Y-121.75
X144.25Y-83.75
X144.75Y-93.5
X144.75Y-123.75
X145.1Y-88.95
X145.5Y-81.0
X146.0Y-92.093
X146.0Y-93.406
X146.75Y-116.843
X146.995Y-104.0
X147.0Y-92.093
X147.0Y-121.9
X147.25Y-118.6
X147.75Y-100.0
X148.0Y-92.093
X148.1Y-112.2
X148.25Y-76.5
X148.25Y-115.75
X149.0Y-92.093
X149.0Y-126.25
X150.0Y-92.093
X150.654Y-102.5
X150.95Y-83.654
X151.0Y-76.5
X151.75Y-90.25
X152.0Y-77.25
X152.0Y-100.0
X152.0Y-101.0
X152.095Y-102.525
X152.5Y-121.9
X152.75Y-89.5
X152.75Y-116.5
X152.75Y-118.6
X152.791Y-114.498
X152.791Y-115.502
X153.75Y-88.75
X154.404Y-101.25
X154.55Y-100.25
X154.575Y-102.325
X154.75Y-87.5
X154.848Y-98.564
X155.0Y-91.5
X155.25Y-123.654
X155.435Y-97.844
X155.472Y-83.656
X155.75Y-118.05
X157.0Y-97.75
X157.0Y-110.0
X157.25Y-118.25
X157.75Y-111.0
X157.946Y-100.154
X158.1Y-109.5
X158.25Y-83.0
X158.3Y-101.0
X158.75Y-116.85
X159.3Y-100.1
X159.8Y-108.9
X160.0Y-74.75
X160.0Y-83.0
X160.206Y-121.587
X160.214Y-125.714
X160.5Y-102.5
X160.75Y-78.75
X160.75Y-109.25
X162.5Y-82.5
X162.5Y-87.0
X162.907Y-117.398
X163.5Y-109.0
X163.65Y-114.0
X163.75Y-113.084
X163.865Y-117.456
X164.0Y-77.5
X164.2Y-119.0
X164.289Y-120.591
X164.5Y-92.75
X164.7Y-125.0
X165.25Y-86.25
X165.75Y-97.5
X166.0Y-116.75
X166.25Y-112.25
X167.5Y-97.5
X168.509Y-107.916
X168.844Y-114.25
X169.0Y-86.25
X169.0Y-101.0
X169.0Y-112.65
X169.25Y-83.75
X170.156Y-114.038
X170.75Y-89.25
X171.1Y-114.8
X171.4Y-107.9
X172.25Y-97.5
X173.0Y-116.5
X173.6Y-114.5
X173.75Y-100.25
X175.0Y-97.5
T4
X146.4Y-120.08
T3
G00X145.51Y-126.98
M15
G01X145.51Y-127.58
M16
G05
G00X145.87Y-121.03
M15
G01X145.87Y-121.63
M16
G05
G00X154.13Y-121.03
M15
G01X154.13Y-121.63
M16
G05
G00X154.49Y-126.98
M15
G01X154.49Y-127.58
M16
G05
T4
G00X153.45Y-120.08
M15
G01X153.75Y-120.08
M16
G05
T0
M30
